<svg width="24" height="24" viewBox="0 0 24 24" fill="none" xmlns="http://www.w3.org/2000/svg">
<g clip-path="url(#clip0)">
<path d="M22.2653 11.5314H18.796V0.468909C18.796 0.279346 18.6818 0.108393 18.5066 0.0358304C18.3314 -0.036779 18.1298 0.00343973 17.9958 0.137408L16.6679 1.46528L15.34 0.137455C15.157 -0.0455915 14.8602 -0.0455915 14.6771 0.137455L13.3492 1.46533L12.0215 0.137455C11.8384 -0.0455915 11.5416 -0.0455915 11.3585 0.137455L10.0307 1.46533L8.70273 0.137455C8.51968 -0.0455915 8.22287 -0.0455915 8.03982 0.137455L6.71195 1.46533L5.38417 0.137455C5.20112 -0.0455915 4.90431 -0.0455915 4.72122 0.137455L3.39334 1.46533L2.06551 0.137455C1.88359 -0.0444665 1.58936 -0.045404 1.40584 0.134877C1.30947 0.229612 1.26273 0.355846 1.26597 0.481237V21.5627C1.26597 22.9067 2.35937 24.0001 3.70337 24.0001H20.296C20.2961 24.0001 20.2961 24.0001 20.2962 24.0001C20.2964 24.0001 20.2965 24.0001 20.2967 24.0001C21.6407 24.0001 22.7341 22.9067 22.7341 21.5627V12.0001C22.7341 11.7412 22.5242 11.5314 22.2653 11.5314ZM3.70337 23.0626C2.87626 23.0626 2.20342 22.3897 2.20342 21.5627V1.60117L3.06189 2.45964C3.24493 2.64269 3.54175 2.64269 3.72484 2.45964L5.05272 1.13177L6.38059 2.45964C6.56364 2.64269 6.86045 2.64269 7.04354 2.45964L8.37142 1.13177L9.69934 2.45964C9.88239 2.64269 10.1792 2.64269 10.3622 2.45964L11.6901 1.13177L13.018 2.45964C13.201 2.64269 13.4979 2.64269 13.681 2.45964L15.0088 1.13177L16.3367 2.45964C16.5198 2.64269 16.8166 2.64269 16.9996 2.45964L17.8588 1.60052V12.0001C17.8588 12.0044 17.8593 12.0086 17.8594 12.0128V21.5627C17.8594 22.1281 18.0535 22.6487 18.3777 23.0626H3.70337ZM21.7966 21.5627C21.7966 22.3897 21.1237 23.0626 20.2966 23.0626C19.4695 23.0626 18.7967 22.3897 18.7967 21.5627V12.4689H21.7966V21.5627V21.5627Z" fill="black"/>
<path d="M10.031 7.44621C9.56579 7.44621 9.18732 7.12211 9.18732 6.72382C9.18732 6.32547 9.56583 6.00138 10.031 6.00138C10.4963 6.00138 10.8747 6.32547 10.8747 6.72382C10.8747 6.98271 11.0846 7.19257 11.3435 7.19257C11.6024 7.19257 11.8122 6.98271 11.8122 6.72382C11.8122 5.95971 11.2552 5.31499 10.4998 5.12271V4.80518C10.4998 4.54629 10.2899 4.33643 10.031 4.33643C9.77213 4.33643 9.56227 4.54629 9.56227 4.80518V5.12271C8.80683 5.31499 8.24982 5.95975 8.24982 6.72382C8.24982 7.63905 9.0489 8.38366 10.031 8.38366C10.4963 8.38366 10.8747 8.70775 10.8747 9.1061C10.8747 9.50444 10.4963 9.82849 10.031 9.82849C9.56579 9.82849 9.18732 9.50439 9.18732 9.1061C9.18732 8.84721 8.97746 8.63735 8.71857 8.63735C8.45968 8.63735 8.24982 8.84721 8.24982 9.1061C8.24982 9.87021 8.80688 10.5149 9.56227 10.7072V11.0897C9.56227 11.3486 9.77213 11.5585 10.031 11.5585C10.2899 11.5585 10.4998 11.3486 10.4998 11.0897V10.7072C11.2552 10.5149 11.8122 9.87021 11.8122 9.1061C11.8122 8.19086 11.0131 7.44621 10.031 7.44621Z" fill="black"/>
<path d="M14.7403 7.44641H13.8267C13.5678 7.44641 13.358 7.65627 13.358 7.91516C13.358 8.17405 13.5678 8.38391 13.8267 8.38391H14.7403C14.9992 8.38391 15.2091 8.17405 15.2091 7.91516C15.2091 7.65627 14.9992 7.44641 14.7403 7.44641Z" fill="black"/>
<path d="M6.23534 7.44641H5.32175C5.06286 7.44641 4.853 7.65627 4.853 7.91516C4.853 8.17405 5.06286 8.38391 5.32175 8.38391H6.23534C6.49423 8.38391 6.70409 8.17405 6.70409 7.91516C6.70409 7.65627 6.49423 7.44641 6.23534 7.44641Z" fill="black"/>
<path d="M14.9775 12.6566H7.55142C7.29253 12.6566 7.08267 12.8665 7.08267 13.1254C7.08267 13.3843 7.29253 13.5941 7.55142 13.5941H14.9775C15.2364 13.5941 15.4462 13.3843 15.4462 13.1254C15.4462 12.8665 15.2364 12.6566 14.9775 12.6566Z" fill="black"/>
<path d="M5.41588 12.794C5.32869 12.7068 5.20775 12.6566 5.08447 12.6566C4.96119 12.6566 4.84025 12.7068 4.75307 12.794C4.66588 12.8811 4.61572 13.0021 4.61572 13.1254C4.61572 13.2486 4.66588 13.3696 4.75307 13.4568C4.84025 13.544 4.96119 13.5941 5.08447 13.5941C5.20775 13.5941 5.32869 13.544 5.41588 13.4568C5.50307 13.3696 5.55322 13.2486 5.55322 13.1254C5.55322 13.0021 5.50307 12.8811 5.41588 12.794Z" fill="black"/>
<path d="M14.9775 15.7501H7.55142C7.29253 15.7501 7.08267 15.96 7.08267 16.2189C7.08267 16.4778 7.29253 16.6876 7.55142 16.6876H14.9775C15.2364 16.6876 15.4462 16.4778 15.4462 16.2189C15.4462 15.96 15.2364 15.7501 14.9775 15.7501Z" fill="black"/>
<path d="M5.41588 15.8875C5.32869 15.8003 5.20775 15.7501 5.08447 15.7501C4.96119 15.7501 4.84025 15.8003 4.75307 15.8875C4.66588 15.9747 4.61572 16.0956 4.61572 16.2189C4.61572 16.3422 4.66588 16.4631 4.75307 16.5503C4.84025 16.6375 4.96119 16.6876 5.08447 16.6876C5.20775 16.6876 5.32869 16.6375 5.41588 16.5503C5.50307 16.4631 5.55322 16.3422 5.55322 16.2189C5.55322 16.0956 5.50307 15.9747 5.41588 15.8875Z" fill="black"/>
<path d="M14.9775 18.8438H7.55142C7.29253 18.8438 7.08267 19.0536 7.08267 19.3125C7.08267 19.5714 7.29253 19.7812 7.55142 19.7812H14.9775C15.2364 19.7812 15.4462 19.5714 15.4462 19.3125C15.4462 19.0536 15.2364 18.8438 14.9775 18.8438Z" fill="black"/>
<path d="M5.41588 18.9811C5.32869 18.8939 5.20775 18.8438 5.08447 18.8438C4.96119 18.8438 4.84025 18.8939 4.75307 18.9811C4.66588 19.0683 4.61572 19.1892 4.61572 19.3125C4.61572 19.4358 4.66588 19.5567 4.75307 19.6439C4.84025 19.7311 4.96119 19.7812 5.08447 19.7812C5.20775 19.7812 5.32869 19.7311 5.41588 19.6439C5.50307 19.5567 5.55322 19.4358 5.55322 19.3125C5.55322 19.1892 5.50307 19.0683 5.41588 18.9811Z" fill="black"/>
</g>
<defs>
<clipPath id="clip0">
<rect width="24" height="24" fill="white"/>
</clipPath>
</defs>
</svg>
