<svg width="234" height="153" viewBox="0 0 234 153" fill="none" xmlns="http://www.w3.org/2000/svg">
<path d="M117 152.536C181.249 152.536 233.334 149.495 233.334 145.744C233.334 141.993 181.249 138.952 117 138.952C52.7505 138.952 0.666016 141.993 0.666016 145.744C0.666016 149.495 52.7505 152.536 117 152.536Z" fill="#F5F5F5"/>
<path d="M134.25 93.8621C134.25 93.8201 134.25 93.7781 134.22 93.7361L132.654 83.8721C132.604 83.6092 132.613 83.3386 132.681 83.0797C132.749 82.8209 132.873 82.5805 133.046 82.3759C133.218 82.1713 133.434 82.0077 133.678 81.897C133.921 81.7863 134.187 81.7314 134.454 81.7361H151.53L155.616 54.7721C155.735 54.095 156.083 53.4794 156.602 53.0283C157.121 52.5772 157.779 52.318 158.466 52.2941H185.748C186.06 52.2845 186.37 52.3455 186.655 52.4723C186.941 52.5992 187.193 52.7888 187.395 53.0269C187.597 53.2651 187.743 53.5456 187.821 53.8478C187.899 54.1499 187.909 54.4659 187.848 54.7721L182.22 91.9301C182.101 92.6071 181.753 93.2227 181.234 93.6738C180.715 94.1249 180.057 94.3841 179.37 94.4081H178.848L178.332 96.1301C178.163 96.6881 177.82 97.1772 177.352 97.5251C176.884 97.873 176.317 98.0612 175.734 98.0621H132.354C132.352 97.2673 132.521 96.4814 132.848 95.757C133.175 95.0326 133.653 94.3865 134.25 93.8621Z" fill="white"/>
<path opacity="0.5" d="M134.25 93.8621C134.25 93.8201 134.25 93.7781 134.22 93.7361L132.654 83.8721C132.604 83.6092 132.613 83.3386 132.681 83.0797C132.749 82.8209 132.873 82.5805 133.046 82.3759C133.218 82.1713 133.434 82.0077 133.678 81.897C133.921 81.7863 134.187 81.7314 134.454 81.7361H151.53L155.616 54.7721C155.735 54.095 156.083 53.4794 156.602 53.0283C157.121 52.5772 157.779 52.318 158.466 52.2941H185.748C186.06 52.2845 186.37 52.3455 186.655 52.4723C186.941 52.5992 187.193 52.7888 187.395 53.0269C187.597 53.2651 187.743 53.5456 187.821 53.8478C187.899 54.1499 187.909 54.4659 187.848 54.7721L182.22 91.9301C182.101 92.6071 181.753 93.2227 181.234 93.6738C180.715 94.1249 180.057 94.3841 179.37 94.4081H178.848L178.332 96.1301C178.163 96.6881 177.82 97.1772 177.352 97.5251C176.884 97.873 176.317 98.0612 175.734 98.0621H132.354C132.352 97.2673 132.521 96.4814 132.848 95.757C133.175 95.0326 133.653 94.3865 134.25 93.8621Z" fill="black"/>
<path d="M162.72 142.186H164.622L162.018 98.056H160.11L162.72 142.186Z" fill="white"/>
<path opacity="0.5" d="M162.72 142.186H164.622L162.018 98.056H160.11L162.72 142.186Z" fill="white"/>
<path d="M134.37 142.186H132.462L135.072 98.056H136.974L134.37 142.186Z" fill="white"/>
<path opacity="0.5" d="M134.37 142.186H132.462L135.072 98.056H136.974L134.37 142.186Z" fill="white"/>
<path d="M174.648 142.186H176.55L173.94 98.056H172.038L174.648 142.186Z" fill="white"/>
<path opacity="0.5" d="M174.648 142.186H176.55L173.94 98.056H172.038L174.648 142.186Z" fill="white"/>
<path d="M146.298 142.186H144.39L147 98.056H148.902L146.298 142.186Z" fill="white"/>
<path opacity="0.5" d="M146.298 142.186H144.39L147 98.056H148.902L146.298 142.186Z" fill="white"/>
<path d="M113.598 138.652L109.434 136.78L112.314 126.502L116.478 128.374L113.598 138.652Z" fill="#FFC3BD"/>
<path d="M109.572 135.472L114.246 137.572C114.326 137.605 114.389 137.669 114.423 137.748C114.457 137.828 114.458 137.918 114.426 137.998L112.992 141.796C112.905 141.991 112.745 142.144 112.546 142.221C112.347 142.299 112.126 142.295 111.93 142.21C110.316 141.448 109.578 141.01 107.526 140.08C106.26 139.51 101.892 137.59 100.254 136.594C98.616 135.598 99.654 134.008 100.434 134.284C103.944 135.52 107.148 135.802 108.738 135.406C109.015 135.333 109.309 135.357 109.572 135.472Z" fill="#263238"/>
<path opacity="0.2" d="M116.478 128.38L112.314 126.502L110.832 131.8L114.996 133.678L116.478 128.38Z" fill="black"/>
<path d="M150.036 70.7561C150.036 70.7561 116.322 72.4961 116.274 85.5761C116.202 104.38 109.542 127.93 109.542 127.93L117.294 131.05C117.294 131.05 128.994 103.63 128.826 88.9541C138.042 86.3081 161.898 90.7541 164.718 83.1101C166.1 79.1459 166.466 74.8981 165.78 70.7561H150.036Z" fill="white"/>
<path opacity="0.3" d="M150.036 70.7561C150.036 70.7561 116.322 72.4961 116.274 85.5761C116.202 104.38 109.542 127.93 109.542 127.93L117.294 131.05C117.294 131.05 128.994 103.63 128.826 88.9541C138.042 86.3081 161.898 90.7541 164.718 83.1101C166.1 79.1459 166.466 74.8981 165.78 70.7561H150.036Z" fill="black"/>
<path d="M117.384 133.306L108.504 129.316L109.218 125.674L118.59 128.914L117.384 133.306Z" fill="#263238"/>
<path d="M107.772 135.532C108.158 135.694 108.56 135.812 108.972 135.886C108.993 135.889 109.014 135.887 109.033 135.878C109.052 135.87 109.069 135.856 109.08 135.838C109.091 135.821 109.097 135.801 109.097 135.781C109.097 135.761 109.091 135.741 109.08 135.724C108.99 135.574 108.174 134.236 107.574 134.212C107.506 134.207 107.438 134.22 107.377 134.249C107.316 134.279 107.264 134.324 107.226 134.38C107.155 134.461 107.107 134.559 107.087 134.664C107.067 134.77 107.076 134.879 107.112 134.98C107.256 135.239 107.491 135.436 107.772 135.532ZM108.744 135.622C107.934 135.436 107.394 135.166 107.286 134.884C107.266 134.82 107.264 134.751 107.28 134.686C107.295 134.62 107.329 134.56 107.376 134.512C107.392 134.482 107.417 134.458 107.447 134.442C107.476 134.426 107.51 134.419 107.544 134.422C107.862 134.44 108.396 135.1 108.744 135.622Z" fill="white"/>
<path d="M108.924 135.874C108.939 135.88 108.957 135.88 108.972 135.874C108.99 135.873 109.008 135.867 109.024 135.858C109.039 135.849 109.052 135.836 109.062 135.82C109.062 135.772 109.716 134.62 109.482 134.02C109.45 133.944 109.402 133.876 109.341 133.821C109.28 133.766 109.207 133.725 109.128 133.702C109.044 133.666 108.951 133.661 108.863 133.686C108.776 133.711 108.7 133.765 108.648 133.84C108.348 134.248 108.576 135.394 108.882 135.826C108.884 135.837 108.889 135.847 108.897 135.855C108.904 135.864 108.914 135.87 108.924 135.874ZM109.11 133.936C109.188 133.969 109.251 134.032 109.284 134.11C109.336 134.614 109.222 135.122 108.96 135.556C108.715 135.065 108.664 134.499 108.816 133.972C108.845 133.935 108.886 133.91 108.932 133.9C108.978 133.89 109.026 133.897 109.068 133.918L109.11 133.936Z" fill="white"/>
<path d="M152.244 37.654C151.854 38.854 151.464 39.97 151.044 41.104C150.624 42.238 150.174 43.342 149.706 44.446C148.764 46.66 147.732 48.85 146.562 50.992C145.388 53.1907 144.041 55.2933 142.536 57.28C141.739 58.3295 140.864 59.3183 139.92 60.238C138.89 61.2544 137.73 62.13 136.47 62.842L136.218 62.98L136.092 63.022C135.3 63.3134 134.452 63.4181 133.614 63.328C133.072 63.278 132.536 63.1796 132.012 63.034C131.152 62.793 130.31 62.4922 129.492 62.134C128.015 61.4759 126.578 60.7306 125.19 59.902C123.834 59.098 122.526 58.258 121.248 57.376C119.97 56.494 118.728 55.576 117.504 54.58L119.304 51.682C120.66 52.282 122.028 52.924 123.402 53.482C124.776 54.04 126.132 54.682 127.488 55.222C128.844 55.762 130.2 56.284 131.496 56.686C132.085 56.8753 132.686 57.0216 133.296 57.124C133.508 57.1594 133.723 57.1754 133.938 57.172C134.07 57.172 134.106 57.088 133.704 57.214L133.326 57.4C134.851 56.2887 136.162 54.9105 137.196 53.332C138.408 51.5543 139.5 49.6983 140.466 47.776C141.456 45.814 142.38 43.786 143.244 41.716C143.676 40.69 144.096 39.646 144.498 38.602C144.9 37.558 145.296 36.478 145.632 35.5L152.244 37.654Z" fill="#FFC3BD"/>
<path d="M147.114 32.686C142.092 35.266 140.142 44.086 140.142 44.086L150.09 50.728C153.294 47.728 156.138 41.128 156.69 38.092C157.47 33.478 153.078 29.62 147.114 32.686Z" fill="#263238"/>
<path opacity="0.3" d="M148.956 40.234C147.276 42.208 146.616 45.166 146.628 48.424L150.09 50.734C153.198 47.8 156 41.488 156.6 38.38C153.666 37.912 150.234 38.716 148.956 40.234Z" fill="black"/>
<path d="M149.574 139.258H145.014L142.926 128.692H147.486L149.574 139.258Z" fill="#FFC3BD"/>
<path d="M144.876 138.148H150C150.043 138.146 150.085 138.153 150.125 138.168C150.165 138.183 150.201 138.205 150.233 138.234C150.264 138.263 150.289 138.298 150.307 138.337C150.325 138.376 150.334 138.418 150.336 138.46L150.588 142.516C150.588 142.73 150.503 142.935 150.353 143.087C150.202 143.238 149.998 143.324 149.784 143.326C147.984 143.326 147.15 143.188 144.894 143.188C143.508 143.188 138.804 143.332 136.89 143.332C134.976 143.332 135.03 141.442 135.84 141.268C139.482 140.5 142.8 139.468 144.09 138.43C144.312 138.249 144.589 138.149 144.876 138.148Z" fill="#263238"/>
<path opacity="0.2" d="M147.486 128.698H142.926L144.06 134.422L148.566 134.14L147.486 128.698Z" fill="black"/>
<path d="M159 70.7561C159 70.7561 128.916 73.3001 129.66 86.3561C130.47 100.654 142.05 132.82 142.05 132.82H150.402C150.402 132.82 146.628 103.72 144.792 89.1581C153.27 89.1581 170.862 90.7541 173.682 83.1041C175.083 79.2198 175.764 75.1127 175.692 70.9841L159 70.7561Z" fill="white"/>
<path opacity="0.3" d="M159 70.7561C159 70.7561 128.916 73.3001 129.66 86.3561C130.47 100.654 142.05 132.82 142.05 132.82H150.402C150.402 132.82 146.628 103.72 144.792 89.1581C153.27 89.1581 170.862 90.7541 173.682 83.1041C175.083 79.2198 175.764 75.1127 175.692 70.9841L159 70.7561Z" fill="black"/>
<path d="M150.906 132.784L140.904 133.558L139.998 129.28L150.48 128.986L150.906 132.784Z" fill="#263238"/>
<path d="M143.256 138.946C143.661 138.933 144.063 138.877 144.456 138.778C144.476 138.773 144.494 138.763 144.508 138.748C144.522 138.733 144.531 138.714 144.534 138.694C144.536 138.675 144.533 138.655 144.526 138.638C144.519 138.62 144.507 138.604 144.492 138.592C144.342 138.49 143.052 137.608 142.494 137.824C142.431 137.85 142.376 137.89 142.333 137.943C142.29 137.995 142.261 138.057 142.248 138.124C142.214 138.227 142.208 138.337 142.231 138.442C142.255 138.548 142.306 138.645 142.38 138.724C142.633 138.906 142.946 138.986 143.256 138.946ZM144.18 138.628C143.364 138.79 142.764 138.766 142.548 138.55C142.502 138.5 142.471 138.438 142.458 138.371C142.446 138.304 142.452 138.235 142.476 138.172C142.48 138.139 142.493 138.108 142.513 138.082C142.533 138.056 142.56 138.035 142.59 138.022C142.89 137.902 143.652 138.292 144.18 138.628Z" fill="white"/>
<path d="M144.45 138.784H144.498C144.513 138.776 144.526 138.764 144.536 138.749C144.545 138.734 144.551 138.717 144.552 138.7C144.552 138.64 144.66 137.332 144.198 136.9C144.14 136.842 144.069 136.798 143.991 136.772C143.912 136.746 143.829 136.739 143.748 136.75C143.657 136.752 143.569 136.786 143.499 136.845C143.429 136.904 143.382 136.984 143.364 137.074C143.256 137.572 143.964 138.52 144.396 138.79C144.414 138.795 144.433 138.793 144.45 138.784ZM143.85 136.936C143.935 136.936 144.016 136.968 144.078 137.026C144.329 137.466 144.434 137.974 144.378 138.478C143.982 138.142 143.526 137.416 143.598 137.092C143.598 137.032 143.646 136.954 143.796 136.936H143.85Z" fill="white"/>
<path d="M120.42 52.174L116.178 49.426L114.642 54.736C114.642 54.736 119.442 56.26 120.318 54.964L120.42 52.174Z" fill="#FFC3BD"/>
<path d="M111.426 50.326L111.564 54.43L114.642 54.736L116.178 49.426L111.426 50.326Z" fill="#FFC3BD"/>
<path d="M173.796 30.6521C173.34 29.4521 171.246 28.2521 169.95 28.2521H169.098C167.616 28.2521 165.756 28.3661 163.956 28.5821C160.526 28.9567 157.121 29.5277 153.756 30.2921C152.208 30.7001 150.714 31.2161 149.556 31.6601C148.038 32.2601 147.156 32.6621 147.156 32.6621C147.156 32.6621 149.682 59.3201 150.108 70.966H175.71C176.592 65.9681 176.016 56.8061 176.088 47.7701C176.088 42.3521 175.65 35.5961 173.796 30.6521Z" fill="#263238"/>
<path d="M175.008 35.2001C175.134 36.1181 175.218 36.8921 175.272 37.7321C175.326 38.5721 175.374 39.3761 175.398 40.1981C175.44 41.8421 175.398 43.4921 175.29 45.1481C175.175 46.82 174.956 48.4831 174.636 50.1281L174.384 51.3821L174.06 52.6001C173.958 53.0141 173.808 53.4341 173.682 53.8481L173.478 54.4481L173.43 54.5981L173.316 54.8981C173.238 55.1035 173.148 55.3039 173.046 55.4981C172.4 56.6306 171.464 57.5707 170.334 58.2221C169.511 58.7157 168.643 59.1296 167.742 59.4581C166.142 60.0328 164.496 60.4723 162.822 60.7721C159.64 61.3447 156.413 61.6239 153.18 61.6061L152.826 58.2041C155.76 57.4901 158.748 56.6921 161.538 55.7621C162.885 55.3223 164.2 54.7911 165.474 54.1721C166.012 53.9126 166.523 53.599 166.998 53.2361C167.4 52.9361 167.598 52.5941 167.52 52.6661L167.484 52.7201L167.514 52.5941L167.622 52.0961C167.694 51.7601 167.79 51.4361 167.838 51.0881L168.018 50.0621L168.162 49.0121C168.33 47.6081 168.438 46.1741 168.474 44.7281C168.51 43.2821 168.504 41.8121 168.474 40.3481C168.474 39.6161 168.414 38.8841 168.36 38.1581L168.276 37.0721L168.192 36.0461L175.008 35.2001Z" fill="#FFC3BD"/>
<path d="M175.002 29.896C171.198 27.202 167.898 27.448 166.158 33.496C165.012 37.45 165.396 45.922 165.396 45.922L176.796 45.106C178.158 38.8 178.296 32.236 175.002 29.896Z" fill="#263238"/>
<path d="M162.45 16.6001L159.906 19.5521L156.438 23.5661C156.648 24.0821 156.824 24.6112 156.966 25.1501C157.566 27.2981 157.314 29.3501 154.23 30.6761C154.23 30.6761 151.566 34.1561 157.902 33.1901C164.238 32.2241 165.192 28.9121 165.192 28.9121C162.39 26.9501 162.228 20.3141 162.45 16.6001Z" fill="#FFC3BD"/>
<path opacity="0.2" d="M156.438 23.5781C156.648 24.0941 156.824 24.6232 156.966 25.1621C158.418 24.6101 160.158 22.6721 160.11 21.1061C160.097 20.5863 160.029 20.0693 159.906 19.5641L156.438 23.5781Z" fill="black"/>
<path d="M150.372 6.11808C148.368 7.00608 148.638 13.2161 150.372 14.2001C152.106 15.1841 154.638 4.21608 150.372 6.11808Z" fill="#263238"/>
<path d="M162.816 11.2901C162.576 16.1861 162.684 19.0601 160.254 21.6821C159.473 22.543 158.472 23.1742 157.359 23.5075C156.245 23.8408 155.062 23.8635 153.936 23.5732C152.811 23.2829 151.786 22.6906 150.973 21.8603C150.16 21.03 149.589 19.9932 149.322 18.8621C148.218 14.5181 148.794 7.24007 153.522 5.06208C154.539 4.56089 155.671 4.33659 156.803 4.41179C157.935 4.48698 159.026 4.85901 159.969 5.49041C160.911 6.1218 161.67 6.99029 162.17 8.00843C162.67 9.02657 162.893 10.1584 162.816 11.2901Z" fill="#FFC3BD"/>
<path opacity="0.3" d="M158.436 15.652C158.334 16.408 157.362 16.9 156.258 16.756C155.154 16.612 154.344 15.88 154.458 15.124C154.572 14.368 155.526 13.882 156.63 14.026C157.734 14.17 158.532 14.902 158.436 15.652Z" fill="#ED847E"/>
<path opacity="0.3" d="M149.928 15.1781C149.837 14.9613 149.688 14.7738 149.498 14.6362C149.307 14.4986 149.082 14.4162 148.848 14.3981C148.831 15.2337 148.869 16.0695 148.962 16.9001C149.712 16.4801 150.126 15.7781 149.928 15.1781Z" fill="#ED847E"/>
<path d="M149.832 6.61007C151.452 9.44206 160.11 7.94806 160.11 7.94806C159.599 10.3978 159.371 12.8983 159.432 15.4001C160.306 15.7875 161.296 15.8261 162.198 15.508L164.328 13.8341C164.328 13.8341 167.778 9.93406 166.248 7.08406C167.628 5.24806 144.834 2.03207 149.832 6.61007Z" fill="#263238"/>
<path d="M167.7 6.52604C167.712 6.22227 167.638 5.92125 167.488 5.65717C167.337 5.39309 167.115 5.17652 166.848 5.03204C166.857 4.63218 166.714 4.24372 166.448 3.94521C166.182 3.64671 165.812 3.46042 165.414 3.42403C165.328 3.15658 165.182 2.91191 164.989 2.70805C164.796 2.5042 164.559 2.34635 164.296 2.24616C164.034 2.14597 163.752 2.10599 163.472 2.12916C163.192 2.15233 162.921 2.23806 162.678 2.38004C162.584 2.13044 162.437 1.90397 162.248 1.71591C162.058 1.52785 161.831 1.38258 161.581 1.28988C161.33 1.19719 161.063 1.15924 160.797 1.17858C160.531 1.19793 160.272 1.27413 160.038 1.40204C159.744 0.979531 159.299 0.685295 158.795 0.579371C158.291 0.473447 157.766 0.563819 157.326 0.832038C157.009 0.987549 156.734 1.21576 156.522 1.49804C156.203 1.22657 155.807 1.06155 155.39 1.02605C154.972 0.990548 154.554 1.08634 154.194 1.30004C153.772 1.50305 153.431 1.84372 153.228 2.26604C152.928 2.07126 152.581 1.96215 152.223 1.95052C151.866 1.93889 151.512 2.02517 151.2 2.20004C150.941 2.32072 150.713 2.49751 150.531 2.71754C150.35 2.93757 150.219 3.19532 150.15 3.47203C150.022 3.50787 149.897 3.5561 149.778 3.61604C149.582 3.70139 149.405 3.82733 149.261 3.98558C149.117 4.14383 149.008 4.33082 148.941 4.53426C148.874 4.73769 148.851 4.95298 148.873 5.16596C148.895 5.37895 148.963 5.58481 149.07 5.77003C149.003 5.96919 148.978 6.17998 148.997 6.38918C149.016 6.59837 149.077 6.80146 149.178 6.98569C149.279 7.16992 149.417 7.33132 149.583 7.45975C149.749 7.58818 149.94 7.68089 150.144 7.73204C150.381 7.82459 150.636 7.85876 150.889 7.83166C151.142 7.80456 151.385 7.71699 151.597 7.57634C151.808 7.43569 151.983 7.24611 152.106 7.02361C152.23 6.80111 152.297 6.55224 152.304 6.29804C152.31 6.21414 152.31 6.12994 152.304 6.04604C153.449 6.5321 154.664 6.83189 155.904 6.93404C160.074 7.42004 162.882 6.87404 164.064 6.11204C164.175 6.21478 164.301 6.3016 164.436 6.37003C164.425 6.57457 164.458 6.77904 164.532 6.97003C164.3 7.14018 164.121 7.37302 164.017 7.64123C163.912 7.90943 163.887 8.20184 163.943 8.48412C163.999 8.76639 164.134 9.02679 164.333 9.23474C164.532 9.44268 164.786 9.58953 165.066 9.65803C165.303 9.75205 165.559 9.78734 165.812 9.76088C166.066 9.73442 166.309 9.64699 166.521 9.50607C166.733 9.36516 166.908 9.17494 167.031 8.95168C167.154 8.72842 167.221 8.47876 167.226 8.22403C167.231 8.04091 167.204 7.8583 167.148 7.68404C167.313 7.53831 167.448 7.36057 167.543 7.16154C167.637 6.96252 167.691 6.74634 167.7 6.52604Z" fill="#263238"/>
<path d="M164.652 15.58C164.059 16.688 163.082 17.5413 161.904 17.98C160.374 18.52 159.648 17.146 160.104 15.622C160.518 14.248 161.82 12.31 163.338 12.43C164.856 12.55 165.384 14.2 164.652 15.58Z" fill="#FFC3BD"/>
<path d="M154.8 13.0781C154.8 13.4741 154.602 13.81 154.344 13.822C154.086 13.834 153.87 13.522 153.864 13.12C153.858 12.718 154.062 12.394 154.326 12.382C154.59 12.37 154.8 12.6821 154.8 13.0781Z" fill="#263238"/>
<path d="M150.3 13.288C150.3 13.69 150.102 14.02 149.844 14.032C149.586 14.044 149.37 13.732 149.364 13.336C149.358 12.94 149.562 12.604 149.826 12.592C150.09 12.58 150.3 12.892 150.3 13.288Z" fill="#263238"/>
<path d="M151.668 13.222C151.349 14.3029 150.887 15.3361 150.294 16.2941C150.541 16.4315 150.815 16.5134 151.097 16.5341C151.379 16.5549 151.662 16.5139 151.926 16.4141L151.668 13.222Z" fill="#ED847E"/>
<path d="M152.25 18.3221C152.712 18.3148 153.167 18.2143 153.588 18.0266C154.01 17.839 154.39 17.568 154.704 17.2301C154.717 17.2058 154.72 17.178 154.715 17.1512C154.71 17.1245 154.695 17.1004 154.674 17.0829C154.653 17.0654 154.627 17.0556 154.6 17.0551C154.572 17.0546 154.546 17.0634 154.524 17.0801C154.179 17.4435 153.755 17.7224 153.284 17.8951C152.814 18.0679 152.31 18.1298 151.812 18.0761C151.797 18.0744 151.781 18.076 151.766 18.0806C151.751 18.0852 151.737 18.0928 151.726 18.1029C151.714 18.113 151.704 18.1254 151.697 18.1394C151.691 18.1534 151.687 18.1686 151.686 18.1841C151.684 18.1991 151.686 18.2143 151.69 18.2287C151.694 18.2432 151.701 18.2567 151.711 18.2684C151.72 18.2801 151.732 18.2898 151.745 18.297C151.758 18.3042 151.773 18.3086 151.788 18.3101C151.942 18.3229 152.096 18.3269 152.25 18.3221Z" fill="#263238"/>
<path d="M156.414 11.6681C156.452 11.6564 156.487 11.6359 156.516 11.6081C156.56 11.5642 156.584 11.5049 156.584 11.4431C156.584 11.3812 156.56 11.3219 156.516 11.2781C156.263 11.0112 155.949 10.8108 155.6 10.6946C155.252 10.5784 154.88 10.5501 154.518 10.6121C154.488 10.6188 154.46 10.6312 154.436 10.6487C154.411 10.6662 154.39 10.6884 154.374 10.7141C154.358 10.7397 154.347 10.7682 154.342 10.7981C154.336 10.828 154.337 10.8585 154.344 10.8881C154.351 10.9176 154.363 10.9456 154.381 10.9703C154.398 10.995 154.42 11.0161 154.446 11.0322C154.472 11.0484 154.5 11.0593 154.53 11.0645C154.56 11.0696 154.59 11.0688 154.62 11.0621C154.905 11.0201 155.196 11.0473 155.469 11.1412C155.741 11.2352 155.987 11.3932 156.186 11.6021C156.215 11.6324 156.251 11.6545 156.291 11.6661C156.331 11.6777 156.374 11.6784 156.414 11.6681Z" fill="#263238"/>
<path d="M148.872 11.8C148.909 11.7999 148.945 11.7905 148.978 11.7727C149.01 11.7548 149.038 11.7292 149.058 11.698C149.213 11.4413 149.425 11.2238 149.678 11.0625C149.931 10.9012 150.218 10.8004 150.516 10.768C150.577 10.7649 150.634 10.738 150.676 10.6932C150.717 10.6484 150.74 10.5891 150.738 10.528C150.738 10.497 150.732 10.4664 150.72 10.4379C150.707 10.4094 150.689 10.3837 150.667 10.3624C150.645 10.341 150.618 10.3245 150.589 10.3138C150.56 10.3031 150.529 10.2984 150.498 10.3C150.125 10.3341 149.765 10.455 149.448 10.6529C149.13 10.8509 148.863 11.1204 148.668 11.44C148.651 11.466 148.64 11.495 148.635 11.5254C148.629 11.5557 148.63 11.5869 148.637 11.617C148.643 11.6471 148.656 11.6756 148.674 11.7008C148.691 11.7261 148.714 11.7475 148.74 11.764C148.758 11.7786 148.78 11.7893 148.802 11.7955C148.825 11.8017 148.849 11.8032 148.872 11.8Z" fill="#263238"/>
<path d="M153.732 58.084L149.532 57.844L151.332 62.44C151.332 62.44 155.472 62.614 155.388 60.472L153.732 58.084Z" fill="#FFC3BD"/>
<path d="M145.35 60.502L147.336 63.532L151.308 62.44L149.532 57.844L145.35 60.502Z" fill="#FFC3BD"/>
<path d="M178.662 78.322H160.266C159.7 78.3415 159.158 78.5537 158.729 78.9237C158.3 79.2936 158.01 79.799 157.908 80.3561L156.414 89.8C156.362 90.0505 156.368 90.3095 156.43 90.5574C156.493 90.8054 156.611 91.0359 156.776 91.2317C156.94 91.4275 157.147 91.5834 157.381 91.6877C157.614 91.792 157.868 91.8421 158.124 91.8341H176.52C177.086 91.8146 177.628 91.6024 178.057 91.2324C178.486 90.8625 178.776 90.3571 178.878 89.8L180.372 80.38C180.428 80.1279 180.426 79.8663 180.365 79.6152C180.304 79.3642 180.187 79.1304 180.022 78.9317C179.857 78.7331 179.648 78.5748 179.413 78.4692C179.177 78.3635 178.92 78.3132 178.662 78.322Z" fill="white"/>
<path opacity="0.5" d="M178.662 78.322H160.266C159.7 78.3415 159.158 78.5537 158.729 78.9237C158.3 79.2936 158.01 79.799 157.908 80.3561L156.414 89.8C156.362 90.0505 156.368 90.3095 156.43 90.5574C156.493 90.8054 156.611 91.0359 156.776 91.2317C156.94 91.4275 157.147 91.5834 157.381 91.6877C157.614 91.792 157.868 91.8421 158.124 91.8341H176.52C177.086 91.8146 177.628 91.6024 178.057 91.2324C178.486 90.8625 178.776 90.3571 178.878 89.8L180.372 80.38C180.428 80.1279 180.426 79.8663 180.365 79.6152C180.304 79.3642 180.187 79.1304 180.022 78.9317C179.857 78.7331 179.648 78.5748 179.413 78.4692C179.177 78.3635 178.92 78.3132 178.662 78.322Z" fill="black"/>
<path d="M128.01 63.634C127.976 63.6656 127.931 63.6832 127.884 63.6832C127.837 63.6832 127.792 63.6656 127.758 63.634L104.22 40.09C104.189 40.0566 104.171 40.0127 104.171 39.967C104.171 39.9213 104.189 39.8773 104.22 39.844C104.253 39.8128 104.297 39.7954 104.343 39.7954C104.389 39.7954 104.433 39.8128 104.466 39.844L128.01 63.4C128.037 63.4331 128.051 63.4744 128.051 63.517C128.051 63.5596 128.037 63.6009 128.01 63.634Z" fill="white"/>
<path d="M102.678 41.272L101.706 40.3C101.319 39.911 101.102 39.3847 101.102 38.836C101.102 38.2874 101.319 37.761 101.706 37.372C101.92 37.155 102.18 36.9885 102.466 36.8847C102.753 36.7809 103.059 36.7424 103.362 36.772C102.86 37.3945 102.532 38.139 102.412 38.9296C102.292 39.7202 102.383 40.5285 102.678 41.272Z" fill="white"/>
<path d="M102.822 38.368C103.144 38.9119 103.667 39.307 104.278 39.4676C104.889 39.6282 105.539 39.5414 106.086 39.226L103.686 35.104C103.141 35.4246 102.745 35.9472 102.583 36.5584C102.421 37.1695 102.507 37.8198 102.822 38.368Z" fill="white"/>
<path d="M106.884 39.6161C107.273 40.0043 107.492 40.5313 107.493 41.0809C107.493 41.6306 107.275 42.158 106.887 42.5471C106.499 42.9361 105.972 43.155 105.422 43.1556C104.872 43.1562 104.345 42.9383 103.956 42.5501L102.678 41.2721C102.386 40.5302 102.295 39.7242 102.415 38.9359C102.535 38.1477 102.862 37.4052 103.362 36.7841C103.846 36.824 104.3 37.037 104.64 37.3841L106.884 39.6161Z" fill="white"/>
<path d="M102.792 38.8C103.335 39.1226 103.729 39.6461 103.888 40.2571C104.048 40.8681 103.96 41.5173 103.644 42.064L99.522 39.664C99.8426 39.1175 100.366 38.72 100.979 38.5582C101.592 38.3963 102.243 38.4832 102.792 38.8Z" fill="white"/>
<path d="M104.4 38.524C104.324 38.1265 104.407 37.715 104.631 37.3783C104.856 37.0415 105.204 36.8065 105.6 36.724L106.2 39.724C105.803 39.7986 105.392 39.7149 105.056 39.4906C104.719 39.2664 104.484 38.9195 104.4 38.524Z" fill="white"/>
<path d="M110.562 46.228C108.6 44.65 105 45.4 103.398 47.8C106.8 48.43 114.216 49.186 110.562 46.228Z" fill="white"/>
<path d="M122.55 58.198C121.104 57.028 118.428 57.562 117.222 59.398C119.754 59.83 125.262 60.4 122.55 58.198Z" fill="white"/>
<path d="M116.166 51.736C114.858 50.122 115.452 47.128 117.48 45.772C117.996 48.61 118.626 54.772 116.166 51.736Z" fill="white"/>
<path opacity="0.2" d="M102.678 41.272L101.706 40.3C101.319 39.911 101.102 39.3847 101.102 38.836C101.102 38.2874 101.319 37.761 101.706 37.372C101.92 37.155 102.18 36.9885 102.466 36.8847C102.753 36.7809 103.059 36.7424 103.362 36.772C102.86 37.3945 102.532 38.139 102.412 38.9296C102.292 39.7202 102.383 40.5285 102.678 41.272Z" fill="black"/>
<path d="M123.078 138.04H133.014C134.854 138.063 136.64 138.663 138.12 139.756L144.012 143.956C144.522 144.316 144.336 145.408 143.772 145.408H112.32C111.75 145.408 111.57 144.316 112.08 143.956L117.972 139.756C119.452 138.662 121.238 138.062 123.078 138.04Z" fill="white"/>
<path d="M129.87 141.676V64.792H126.216V141.676H129.87Z" fill="white"/>
<path opacity="0.3" d="M129.87 70.084V64.792H126.216V70.084H129.87Z" fill="black"/>
<path d="M180.162 62.4819H75.9301V67.1079H180.162V62.4819Z" fill="white"/>
<path opacity="0.3" d="M112.572 62.4819H75.9301V67.1079H112.572V62.4819Z" fill="black"/>
<path d="M133.014 136.204C132.625 136.592 132.194 136.936 131.73 137.23C131.706 137.245 131.678 137.253 131.649 137.253C131.62 137.253 131.592 137.245 131.568 137.23C131.544 137.217 131.525 137.196 131.513 137.172C131.501 137.147 131.497 137.119 131.502 137.092C131.544 136.852 131.916 134.722 132.654 134.422C132.737 134.388 132.827 134.375 132.916 134.385C133.005 134.394 133.09 134.425 133.164 134.476C133.286 134.543 133.389 134.641 133.461 134.76C133.534 134.879 133.574 135.015 133.578 135.154C133.529 135.562 133.327 135.937 133.014 136.204ZM131.862 136.804C132.756 136.174 133.284 135.574 133.284 135.16C133.279 135.067 133.25 134.977 133.2 134.899C133.149 134.821 133.079 134.758 132.996 134.716C132.965 134.692 132.928 134.677 132.889 134.672C132.85 134.667 132.811 134.671 132.774 134.686C132.384 134.836 132.036 135.952 131.862 136.798V136.804Z" fill="white"/>
<path d="M131.76 137.2C131.742 137.219 131.719 137.234 131.694 137.242C131.669 137.25 131.643 137.251 131.618 137.246C131.593 137.241 131.569 137.229 131.55 137.212C131.49 137.164 130.164 136.012 130.176 135.142C130.175 135.032 130.2 134.924 130.248 134.825C130.296 134.726 130.366 134.64 130.452 134.572C130.536 134.489 130.644 134.435 130.761 134.419C130.878 134.403 130.997 134.425 131.1 134.482C131.7 134.836 131.946 136.498 131.796 137.14C131.79 137.163 131.777 137.184 131.76 137.2ZM130.602 134.83C130.561 134.87 130.528 134.919 130.506 134.973C130.485 135.026 130.474 135.084 130.476 135.142C130.476 135.658 131.118 136.402 131.544 136.81C131.592 136.09 131.322 134.938 130.944 134.722C130.884 134.686 130.794 134.662 130.65 134.782C130.632 134.798 130.616 134.816 130.602 134.836V134.83Z" fill="white"/>
<path d="M126.792 142.186L131.022 137.77L120.756 128.008L116.526 132.424L126.792 142.186Z" fill="#FF8B7B"/>
<path d="M130.758 137.02L126 142C125.927 142.083 125.887 142.19 125.887 142.3C125.887 142.41 125.927 142.517 126 142.6L129.6 146.728C129.697 146.829 129.814 146.91 129.944 146.965C130.073 147.02 130.212 147.049 130.353 147.049C130.494 147.049 130.633 147.02 130.762 146.965C130.892 146.91 131.009 146.829 131.106 146.728C132.726 144.97 133.422 144.046 135.51 141.862C136.794 140.518 138.822 138.682 140.598 136.828C142.374 134.974 140.544 133.228 139.632 133.828C135.534 136.612 133.932 136.228 131.784 136.51C131.392 136.553 131.029 136.734 130.758 137.02Z" fill="#263238"/>
<path opacity="0.2" d="M116.526 132.43L120.756 128.008L126.048 133.042L121.818 137.464L116.526 132.43Z" fill="black"/>
<path d="M62.8561 76.1799C73.9021 76.7259 96.1081 85.3599 98.0281 89.2539C104.148 101.662 128.952 134.116 124.548 129.784L118.032 135.058C121.56 137.68 88.5121 109.036 87.7801 96.0579C76.7461 95.4159 61.8061 95.1099 55.5361 90.8739C51.2101 87.9519 49.9081 81.8739 50.7361 76.2819C50.7181 76.2759 51.8161 75.6279 62.8561 76.1799Z" fill="#263238"/>
<path d="M126.546 129.832L118.89 137.2L116.106 134.71L124.338 126.238L126.546 129.832Z" fill="#263238"/>
<path d="M95.8321 142.636C95.2973 142.623 94.7658 142.549 94.2481 142.414C94.2221 142.408 94.1987 142.393 94.1814 142.373C94.1642 142.352 94.1539 142.327 94.1521 142.3C94.1537 142.27 94.1627 142.24 94.1784 142.214C94.1941 142.188 94.216 142.166 94.2421 142.15C94.4701 142.012 96.5041 140.818 97.1701 141.136C97.2443 141.174 97.3055 141.233 97.3461 141.305C97.3867 141.378 97.4048 141.461 97.3981 141.544C97.4004 141.691 97.3698 141.837 97.3085 141.971C97.2473 142.105 97.157 142.223 97.0441 142.318C96.6848 142.552 96.2598 142.663 95.8321 142.636ZM94.6861 142.21C95.7181 142.42 96.5281 142.384 96.8761 142.102C96.9535 142.041 97.0148 141.962 97.0545 141.873C97.0943 141.783 97.1113 141.684 97.1041 141.586C97.1095 141.549 97.1031 141.511 97.0859 141.478C97.0687 141.444 97.0415 141.417 97.0081 141.4C96.6601 141.232 95.5141 141.748 94.6861 142.21Z" fill="white"/>
<path d="M94.2781 142.42C94.2568 142.428 94.2333 142.428 94.2121 142.42C94.1911 142.409 94.1744 142.391 94.1647 142.369C94.1549 142.347 94.1526 142.323 94.158 142.3C94.158 142.222 94.44 140.464 95.19 139.9C95.2777 139.825 95.3799 139.768 95.4904 139.734C95.6009 139.7 95.7172 139.689 95.832 139.702C95.942 139.702 96.0477 139.744 96.1271 139.82C96.2065 139.896 96.2534 140 96.258 140.11C96.294 140.8 94.986 142.114 94.356 142.45C94.3281 142.446 94.3014 142.436 94.2781 142.42ZM95.688 139.942C95.5643 139.941 95.4445 139.986 95.352 140.068C94.902 140.416 94.6201 141.406 94.4941 141.994C95.1481 141.526 95.988 140.536 95.964 140.116C95.964 140.05 95.934 139.966 95.754 139.942H95.688Z" fill="white"/>
<path d="M64.074 23.2C63.864 27.052 64.158 36.334 61.014 38.5C61.014 38.5 60.366 41.554 67.08 42.46C74.4541 43.462 71.5321 39.136 71.5321 39.136C68.9581 37.81 69.342 32.44 70.758 29.62L64.074 23.2Z" fill="#FF8B7B"/>
<path d="M75.7441 19.504C75.6976 19.5041 75.652 19.4916 75.6121 19.468C75.546 19.4291 75.4977 19.3659 75.4775 19.2919C75.4573 19.218 75.4669 19.139 75.5041 19.072C75.7221 18.6671 76.0333 18.3199 76.412 18.059C76.7907 17.7982 77.2261 17.6312 77.6821 17.572C77.7616 17.5672 77.8398 17.5942 77.8995 17.6471C77.9591 17.7 77.9953 17.7744 78.0001 17.854C78.0048 17.9335 77.9778 18.0117 77.9249 18.0714C77.872 18.131 77.7976 18.1672 77.7181 18.172C77.358 18.2212 77.015 18.3558 76.7175 18.5646C76.4201 18.7733 76.1768 19.0501 76.0081 19.372C75.9801 19.4157 75.9407 19.4511 75.8943 19.4743C75.8478 19.4976 75.7959 19.5078 75.7441 19.504Z" fill="#263238"/>
<path d="M77.796 22.786C78.3167 23.8713 78.9828 24.8806 79.776 25.786C79.5398 25.9855 79.2624 26.1303 78.9637 26.2102C78.665 26.29 78.3523 26.3029 78.048 26.248L77.796 22.786Z" fill="#FF5652"/>
<path d="M77.2921 21.9999C77.3281 22.4919 77.6161 22.8699 77.9401 22.8459C78.2641 22.8219 78.4921 22.4079 78.4561 21.9159C78.4201 21.4239 78.1261 21.0459 77.8081 21.0699C77.4901 21.0939 77.2561 21.4779 77.2921 21.9999Z" fill="#263238"/>
<path d="M77.67 21.0759L78.8221 20.6499C78.8221 20.6499 78.2881 21.6159 77.67 21.0759Z" fill="#263238"/>
<path d="M87.276 142.276H93.39L96.18 128.11H90.06L87.276 142.276Z" fill="#FF8B7B"/>
<path d="M93.894 141.568H87C86.8766 141.572 86.7574 141.614 86.6586 141.688C86.5598 141.762 86.4863 141.864 86.448 141.982L84.882 147.4C84.8419 147.527 84.8328 147.663 84.8554 147.794C84.878 147.926 84.9318 148.051 85.0122 148.157C85.0925 148.264 85.1973 148.35 85.3176 148.408C85.4379 148.467 85.5704 148.495 85.704 148.492C88.104 148.45 89.304 148.306 92.304 148.306C94.164 148.306 96.852 148.504 99.42 148.504C101.988 148.504 102.504 145.96 101.466 145.732C96.828 144.7 96.282 143.278 94.866 141.922C94.6009 141.681 94.2519 141.554 93.894 141.568Z" fill="#263238"/>
<path opacity="0.2" d="M90.06 128.11H96.18L94.74 135.412H88.62L90.06 128.11Z" fill="black"/>
<path d="M61.2001 43C61.3381 43.336 61.5421 43.78 61.7221 44.2C61.9021 44.62 62.0941 45.016 62.3221 45.4C62.7221 46.2 63.1341 47 63.5581 47.8C64.3763 49.3697 65.2983 50.8831 66.3181 52.33C67.2621 53.7075 68.3547 54.9771 69.5761 56.116C69.8701 56.38 70.1761 56.62 70.4641 56.848C70.6141 56.95 70.7641 57.076 70.9141 57.16L71.1421 57.304L71.2561 57.382C71.3041 57.412 71.2561 57.382 71.2561 57.382C71.1589 57.3638 71.0607 57.3517 70.9621 57.346C70.7385 57.3363 70.516 57.3817 70.3141 57.478C70.1281 57.58 70.0621 57.646 70.0441 57.682C70.0261 57.718 70.0741 57.682 70.1281 57.592C70.4736 57.0171 70.7266 56.3915 70.8781 55.738C71.1001 54.946 71.2681 54.082 71.4241 53.206C71.7241 51.436 71.9101 49.606 72.0721 47.734C72.3661 44.02 72.5281 40.216 72.6181 36.454L75.7081 36.25C76.2427 40.1045 76.5493 43.9873 76.6261 47.878C76.6691 49.8657 76.611 51.8542 76.4521 53.836C76.3663 54.8793 76.2221 55.9169 76.0201 56.944C75.9087 57.5029 75.7685 58.0556 75.6001 58.6C75.4021 59.2404 75.1366 59.8578 74.8081 60.442C74.591 60.8207 74.3335 61.1748 74.0401 61.498C73.6346 61.9309 73.1525 62.2848 72.6181 62.542C71.9777 62.8353 71.2752 62.9672 70.5721 62.926C69.997 62.885 69.434 62.7407 68.9101 62.5L68.5981 62.356L68.4001 62.254L68.0041 62.038C67.7401 61.9 67.5001 61.738 67.2481 61.588C66.7649 61.283 66.2982 60.9525 65.8501 60.598C64.1694 59.2479 62.6673 57.6894 61.3801 55.96C60.1475 54.3202 59.025 52.6004 58.0201 50.812C57.5341 49.924 57.0781 49.012 56.6401 48.118C56.4181 47.662 56.2081 47.2 55.9981 46.738C55.7881 46.276 55.6141 45.826 55.3981 45.28L61.2001 43Z" fill="#FF8B7B"/>
<path d="M60.108 38.5C63.066 39.532 66.402 49.204 66.402 49.204L56.022 53.59C56.022 53.59 51.462 45.478 52.77 42.358C54.132 39.112 56.526 37.252 60.108 38.5Z" fill="white"/>
<path d="M74.4481 37.8639L78.3181 35.6499L76.1581 32.4519C76.1581 32.4519 70.944 34.6179 72.7561 37.2099L74.4481 37.8639Z" fill="#FF8B7B"/>
<path d="M79.2841 32.452L77.4421 29.728L76.1581 32.452L78.3181 35.65L79.2841 32.452Z" fill="#FF8B7B"/>
<path opacity="0.2" d="M77.4421 29.728L76.1581 32.452C76.1581 32.452 73.2361 33.652 72.5281 35.362L76.9741 33.658L78.3181 31.024L77.4421 29.728Z" fill="black"/>
<path d="M83.286 47.0319C82.848 52.2039 79.146 62.3859 74.886 76.1799H50.022C50.388 67.2699 52.758 60.9399 52.008 45.1419C51.816 41.2179 54.246 37.6959 58.176 37.4799C59.226 37.4199 60.324 37.3839 61.422 37.3899C65.1865 37.3078 68.952 37.4943 72.69 37.9479C74.13 38.1519 75.618 38.4159 77.004 38.6919C78.8936 39.0659 80.5791 40.1233 81.738 41.662C82.897 43.2006 83.4481 45.1125 83.286 47.0319Z" fill="white"/>
<path opacity="0.2" d="M78.9 49.228C78.27 51.736 79.134 55.828 80.562 58.228C81.162 56.32 81.666 54.586 82.08 53.02C81.2112 51.6073 80.1398 50.3296 78.9 49.228Z" fill="black"/>
<path d="M81.75 42.838C84.066 45.088 86.502 47.362 88.95 49.54C90.15 50.626 91.416 51.688 92.658 52.702C93.9 53.716 95.172 54.706 96.444 55.582C96.756 55.798 97.08 56.032 97.392 56.182L98.286 56.734C98.6744 56.9561 99.1063 57.0912 99.552 57.13C100.848 57.1879 102.142 56.9648 103.344 56.476C104.783 55.9368 106.174 55.2764 107.502 54.502C108.186 54.1 108.876 53.692 109.548 53.254C110.22 52.816 110.904 52.348 111.522 51.916L113.664 54.154C113.064 54.868 112.464 55.474 111.828 56.092C111.192 56.71 110.544 57.292 109.854 57.892C108.454 59.0683 106.931 60.0902 105.312 60.94C103.494 61.9371 101.468 62.4959 99.396 62.572C98.155 62.5881 96.9257 62.3299 95.796 61.816L95.574 61.714L95.424 61.636L95.112 61.474L94.512 61.144C94.092 60.928 93.714 60.688 93.312 60.454C90.344 58.6008 87.5255 56.5185 84.882 54.226C82.248 52.006 79.758 49.72 77.328 47.236L81.75 42.838Z" fill="#FF8B7B"/>
<path d="M76.308 38.6199C79.398 38.1219 87.42 46.2339 87.42 46.2339L82.95 56.3919C82.95 56.3919 72 48.8679 71.688 45.5019C71.34 41.9979 72.564 39.2199 76.308 38.6199Z" fill="white"/>
<path d="M112.266 55.3L117.324 54.814L115.332 49.942C115.332 49.942 111.6 51.028 110.28 53.2L112.266 55.3Z" fill="#FF8B7B"/>
<path d="M120.912 54.04L119.274 50.5L115.332 49.942L117.318 54.814L120.912 54.04Z" fill="#FF8B7B"/>
<path d="M60.6 21.5019C61.416 27.5019 61.632 30.0819 64.914 32.9559C69.846 37.2819 77.058 34.9659 78.054 28.8279C78.954 23.3019 77.454 14.3919 71.376 12.4239C70.0347 11.9831 68.6029 11.8926 67.2167 12.161C65.8306 12.4294 64.5361 13.0479 63.4562 13.9576C62.3764 14.8672 61.5471 16.0379 61.0472 17.3584C60.5473 18.6788 60.3934 20.1052 60.6 21.5019Z" fill="#FF8B7B"/>
<path d="M71.6341 14.302C73.5901 15.118 75.9241 19.498 75.4681 22.498C75.0121 25.498 72.1441 30.898 75.8281 33.154C75.8281 33.154 69.1861 36.862 57.438 33.574C53.724 32.536 53.6281 30.124 53.6281 30.124C53.6281 30.124 58.128 28.18 56.67 25.012C55.212 21.844 54.318 15.154 58.29 14.302C58.89 10.702 68.6761 9.43598 73.0621 12.76C77.4481 16.084 71.6341 14.302 71.6341 14.302Z" fill="#263238"/>
<path d="M68.2441 14.83C71.0581 17.8 78.6361 16.99 77.6701 14.404C76.7041 11.8179 73.2601 11.1219 73.2601 11.1219C73.2601 11.1219 74.5141 12.658 70.3621 11.434C66.2101 10.21 66.6001 13.066 68.2441 14.83Z" fill="#263238"/>
<path d="M75.768 22.888C76.2607 23.9389 76.3792 25.1265 76.104 26.254C75.72 27.742 74.394 27.634 73.548 26.518C72.786 25.51 72.066 23.518 72.9 22.372C73.734 21.226 75.156 21.622 75.768 22.888Z" fill="#FF8B7B"/>
<path d="M79.05 76.18C90.09 76.726 108.162 79.138 107.034 87.502C104.454 106.672 96.138 134.002 96.138 134.002H87.798C87.798 134.002 88.734 101.602 92.52 95.41C81.618 96.01 68.016 95.002 61.62 90.946C56.22 87.514 54.21 81.856 55.02 76.276C55.02 76.276 68.004 75.628 79.05 76.18Z" fill="white"/>
<path d="M97.236 134.164H86.61L87.078 130.438L98.424 130.06L97.236 134.164Z" fill="#263238"/>
<path d="M49.6501 74.7219L48.5281 76.9419C48.4441 77.1159 48.6481 77.2899 48.9361 77.2899H75.0001C75.2221 77.2899 75.4081 77.1819 75.4261 77.0439L75.6481 74.8179C75.6481 74.6619 75.4681 74.5359 75.2221 74.5359H50.0581C49.9798 74.5291 49.9011 74.5427 49.8297 74.5753C49.7582 74.6079 49.6963 74.6584 49.6501 74.7219Z" fill="#263238"/>
<path d="M53.0281 77.536H52.3561C52.2241 77.536 52.1221 77.464 52.1281 77.38L52.4461 74.488C52.4461 74.404 52.5721 74.338 52.7041 74.338H53.4001C53.5321 74.338 53.6341 74.404 53.6221 74.488L53.3101 77.38C53.2801 77.464 53.1661 77.536 53.0281 77.536Z" fill="white"/>
<path d="M69.36 77.536H68.688C68.556 77.536 68.448 77.464 68.46 77.38L68.778 74.488C68.778 74.404 68.904 74.338 69.036 74.338H69.708C69.846 74.338 69.948 74.404 69.936 74.488L69.6 77.38C69.6 77.464 69.498 77.536 69.36 77.536Z" fill="white"/>
<path d="M91.4941 93.862C91.4941 93.82 91.4941 93.778 91.4941 93.736L93.0601 83.872C93.11 83.6091 93.1008 83.3384 93.033 83.0796C92.9652 82.8208 92.8406 82.5804 92.6682 82.3758C92.4958 82.1712 92.2799 82.0076 92.0363 81.8969C91.7928 81.7862 91.5276 81.7313 91.2601 81.736H74.22L70.14 54.7719C70.0206 54.0939 69.6716 53.4776 69.1516 53.0264C68.6316 52.5752 67.9722 52.3166 67.284 52.2939H40.002C39.69 52.2844 39.3799 52.3453 39.0947 52.4722C38.8095 52.5991 38.5566 52.7887 38.3548 53.0268C38.153 53.2649 38.0075 53.5455 37.9291 53.8477C37.8507 54.1498 37.8414 54.4657 37.902 54.7719L43.53 91.93C43.6495 92.608 43.9985 93.2244 44.5185 93.6756C45.0385 94.1268 45.6979 94.3854 46.386 94.408H46.902L47.418 96.13C47.5866 96.688 47.9302 97.1771 48.398 97.525C48.8658 97.8729 49.4331 98.0611 50.016 98.062H93.3961C93.397 97.2667 93.2277 96.4805 92.8997 95.7561C92.5716 95.0317 92.0923 94.3858 91.4941 93.862Z" fill="white"/>
<path opacity="0.3" d="M91.4941 93.862C91.4941 93.82 91.4941 93.778 91.4941 93.736L93.0601 83.872C93.11 83.6091 93.1008 83.3384 93.033 83.0796C92.9652 82.8208 92.8406 82.5804 92.6682 82.3758C92.4958 82.1712 92.2799 82.0076 92.0363 81.8969C91.7928 81.7862 91.5276 81.7313 91.2601 81.736H74.22L70.14 54.7719C70.0206 54.0939 69.6716 53.4776 69.1516 53.0264C68.6316 52.5752 67.9722 52.3166 67.284 52.2939H40.002C39.69 52.2844 39.3799 52.3453 39.0947 52.4722C38.8095 52.5991 38.5566 52.7887 38.3548 53.0268C38.153 53.2649 38.0075 53.5455 37.9291 53.8477C37.8507 54.1498 37.8414 54.4657 37.902 54.7719L43.53 91.93C43.6495 92.608 43.9985 93.2244 44.5185 93.6756C45.0385 94.1268 45.6979 94.3854 46.386 94.408H46.902L47.418 96.13C47.5866 96.688 47.9302 97.1771 48.398 97.525C48.8658 97.8729 49.4331 98.0611 50.016 98.062H93.3961C93.397 97.2667 93.2277 96.4805 92.8997 95.7561C92.5716 95.0317 92.0923 94.3858 91.4941 93.862Z" fill="black"/>
<path d="M63.0241 148.522H61.1221L63.7321 98.0559H65.6341L63.0241 148.522Z" fill="white"/>
<path opacity="0.5" d="M63.0241 148.522H61.1221L63.7321 98.0559H65.6341L63.0241 148.522Z" fill="white"/>
<path d="M91.374 148.522H93.282L90.672 98.0559H88.77L91.374 148.522Z" fill="white"/>
<path opacity="0.5" d="M91.374 148.522H93.282L90.672 98.0559H88.77L91.374 148.522Z" fill="white"/>
<path d="M51.1021 148.522H49.1941L51.8041 98.0559H53.7061L51.1021 148.522Z" fill="white"/>
<path opacity="0.5" d="M51.1021 148.522H49.1941L51.8041 98.0559H53.7061L51.1021 148.522Z" fill="white"/>
<path d="M79.452 148.522H81.354L78.75 98.0559H76.842L79.452 148.522Z" fill="white"/>
<path opacity="0.5" d="M79.452 148.522H81.354L78.75 98.0559H76.842L79.452 148.522Z" fill="white"/>
</svg>
