<svg width="300" height="300" viewBox="0 0 300 300" fill="none" xmlns="http://www.w3.org/2000/svg">
<path d="M150 256.536C214.249 256.536 266.334 253.495 266.334 249.744C266.334 245.993 214.249 242.952 150 242.952C85.7505 242.952 33.666 245.993 33.666 249.744C33.666 253.495 85.7505 256.536 150 256.536Z" fill="#F5F5F5"/>
<path d="M167.25 197.862C167.25 197.82 167.25 197.778 167.22 197.736L165.654 187.872C165.604 187.609 165.613 187.339 165.681 187.08C165.749 186.821 165.873 186.58 166.046 186.376C166.218 186.171 166.434 186.008 166.678 185.897C166.921 185.786 167.187 185.731 167.454 185.736H184.53L188.616 158.772C188.735 158.095 189.083 157.479 189.602 157.028C190.121 156.577 190.779 156.318 191.466 156.294H218.748C219.06 156.285 219.37 156.345 219.655 156.472C219.941 156.599 220.193 156.789 220.395 157.027C220.597 157.265 220.743 157.546 220.821 157.848C220.899 158.15 220.909 158.466 220.848 158.772L215.22 195.93C215.101 196.607 214.753 197.223 214.234 197.674C213.715 198.125 213.057 198.384 212.37 198.408H211.848L211.332 200.13C211.163 200.688 210.82 201.177 210.352 201.525C209.884 201.873 209.317 202.061 208.734 202.062H165.354C165.352 201.267 165.521 200.481 165.848 199.757C166.175 199.033 166.653 198.387 167.25 197.862Z" fill="white"/>
<path opacity="0.5" d="M167.25 197.862C167.25 197.82 167.25 197.778 167.22 197.736L165.654 187.872C165.604 187.609 165.613 187.339 165.681 187.08C165.749 186.821 165.873 186.58 166.046 186.376C166.218 186.171 166.434 186.008 166.678 185.897C166.921 185.786 167.187 185.731 167.454 185.736H184.53L188.616 158.772C188.735 158.095 189.083 157.479 189.602 157.028C190.121 156.577 190.779 156.318 191.466 156.294H218.748C219.06 156.285 219.37 156.345 219.655 156.472C219.941 156.599 220.193 156.789 220.395 157.027C220.597 157.265 220.743 157.546 220.821 157.848C220.899 158.15 220.909 158.466 220.848 158.772L215.22 195.93C215.101 196.607 214.753 197.223 214.234 197.674C213.715 198.125 213.057 198.384 212.37 198.408H211.848L211.332 200.13C211.163 200.688 210.82 201.177 210.352 201.525C209.884 201.873 209.317 202.061 208.734 202.062H165.354C165.352 201.267 165.521 200.481 165.848 199.757C166.175 199.033 166.653 198.387 167.25 197.862Z" fill="black"/>
<path d="M195.72 246.186H197.622L195.018 202.056H193.11L195.72 246.186Z" fill="white"/>
<path opacity="0.5" d="M195.72 246.186H197.622L195.018 202.056H193.11L195.72 246.186Z" fill="white"/>
<path d="M167.37 246.186H165.462L168.072 202.056H169.974L167.37 246.186Z" fill="white"/>
<path opacity="0.5" d="M167.37 246.186H165.462L168.072 202.056H169.974L167.37 246.186Z" fill="white"/>
<path d="M207.648 246.186H209.55L206.94 202.056H205.038L207.648 246.186Z" fill="white"/>
<path opacity="0.5" d="M207.648 246.186H209.55L206.94 202.056H205.038L207.648 246.186Z" fill="white"/>
<path d="M179.298 246.186H177.39L180 202.056H181.902L179.298 246.186Z" fill="white"/>
<path opacity="0.5" d="M179.298 246.186H177.39L180 202.056H181.902L179.298 246.186Z" fill="white"/>
<path d="M146.598 242.652L142.434 240.78L145.314 230.502L149.478 232.374L146.598 242.652Z" fill="#FFC3BD"/>
<path d="M142.572 239.472L147.246 241.572C147.326 241.605 147.389 241.669 147.423 241.748C147.457 241.828 147.458 241.918 147.426 241.998L145.992 245.796C145.905 245.991 145.745 246.144 145.546 246.221C145.347 246.299 145.126 246.295 144.93 246.21C143.316 245.448 142.578 245.01 140.526 244.08C139.26 243.51 134.892 241.59 133.254 240.594C131.616 239.598 132.654 238.008 133.434 238.284C136.944 239.52 140.148 239.802 141.738 239.406C142.015 239.333 142.309 239.357 142.572 239.472Z" fill="#263238"/>
<path opacity="0.2" d="M149.478 232.38L145.314 230.502L143.832 235.8L147.996 237.678L149.478 232.38Z" fill="black"/>
<path d="M183.036 174.756C183.036 174.756 149.322 176.496 149.274 189.576C149.202 208.38 142.542 231.93 142.542 231.93L150.294 235.05C150.294 235.05 161.994 207.63 161.826 192.954C171.042 190.308 194.898 194.754 197.718 187.11C199.1 183.146 199.466 178.898 198.78 174.756H183.036Z" fill="white"/>
<path opacity="0.3" d="M183.036 174.756C183.036 174.756 149.322 176.496 149.274 189.576C149.202 208.38 142.542 231.93 142.542 231.93L150.294 235.05C150.294 235.05 161.994 207.63 161.826 192.954C171.042 190.308 194.898 194.754 197.718 187.11C199.1 183.146 199.466 178.898 198.78 174.756H183.036Z" fill="black"/>
<path d="M150.384 237.306L141.504 233.316L142.218 229.674L151.59 232.914L150.384 237.306Z" fill="#263238"/>
<path d="M140.772 239.532C141.158 239.694 141.56 239.812 141.972 239.886C141.993 239.889 142.014 239.887 142.033 239.878C142.052 239.87 142.069 239.856 142.08 239.838C142.091 239.821 142.097 239.801 142.097 239.781C142.097 239.761 142.091 239.741 142.08 239.724C141.99 239.574 141.174 238.236 140.574 238.212C140.506 238.207 140.438 238.22 140.377 238.249C140.316 238.279 140.264 238.324 140.226 238.38C140.155 238.461 140.107 238.559 140.087 238.664C140.067 238.77 140.076 238.879 140.112 238.98C140.256 239.239 140.491 239.436 140.772 239.532ZM141.744 239.622C140.934 239.436 140.394 239.166 140.286 238.884C140.266 238.82 140.264 238.751 140.28 238.686C140.295 238.62 140.329 238.56 140.376 238.512C140.392 238.482 140.417 238.458 140.447 238.442C140.476 238.426 140.51 238.419 140.544 238.422C140.862 238.44 141.396 239.1 141.744 239.622Z" fill="white"/>
<path d="M141.924 239.874C141.939 239.88 141.957 239.88 141.972 239.874C141.99 239.873 142.008 239.867 142.024 239.858C142.039 239.849 142.052 239.836 142.062 239.82C142.062 239.772 142.716 238.62 142.482 238.02C142.45 237.944 142.402 237.876 142.341 237.821C142.28 237.766 142.207 237.725 142.128 237.702C142.044 237.666 141.951 237.661 141.863 237.686C141.776 237.711 141.7 237.765 141.648 237.84C141.348 238.248 141.576 239.394 141.882 239.826C141.884 239.837 141.889 239.847 141.897 239.855C141.904 239.864 141.914 239.87 141.924 239.874ZM142.11 237.936C142.188 237.969 142.251 238.032 142.284 238.11C142.336 238.614 142.222 239.122 141.96 239.556C141.715 239.065 141.664 238.499 141.816 237.972C141.845 237.935 141.886 237.91 141.932 237.9C141.978 237.89 142.026 237.897 142.068 237.918L142.11 237.936Z" fill="white"/>
<path d="M185.244 141.654C184.854 142.854 184.464 143.97 184.044 145.104C183.624 146.238 183.174 147.342 182.706 148.446C181.764 150.66 180.732 152.85 179.562 154.992C178.388 157.191 177.041 159.293 175.536 161.28C174.739 162.33 173.864 163.318 172.92 164.238C171.89 165.254 170.73 166.13 169.47 166.842L169.218 166.98L169.092 167.022C168.3 167.313 167.452 167.418 166.614 167.328C166.072 167.278 165.536 167.18 165.012 167.034C164.152 166.793 163.31 166.492 162.492 166.134C161.015 165.476 159.578 164.731 158.19 163.902C156.834 163.098 155.526 162.258 154.248 161.376C152.97 160.494 151.728 159.576 150.504 158.58L152.304 155.682C153.66 156.282 155.028 156.924 156.402 157.482C157.776 158.04 159.132 158.682 160.488 159.222C161.844 159.762 163.2 160.284 164.496 160.686C165.085 160.875 165.686 161.022 166.296 161.124C166.508 161.159 166.723 161.175 166.938 161.172C167.07 161.172 167.106 161.088 166.704 161.214L166.326 161.4C167.851 160.289 169.162 158.91 170.196 157.332C171.408 155.554 172.5 153.698 173.466 151.776C174.456 149.814 175.38 147.786 176.244 145.716C176.676 144.69 177.096 143.646 177.498 142.602C177.9 141.558 178.296 140.478 178.632 139.5L185.244 141.654Z" fill="#FFC3BD"/>
<path d="M180.114 136.686C175.092 139.266 173.142 148.086 173.142 148.086L183.09 154.728C186.294 151.728 189.138 145.128 189.69 142.092C190.47 137.478 186.078 133.62 180.114 136.686Z" fill="#263238"/>
<path opacity="0.3" d="M181.956 144.234C180.276 146.208 179.616 149.166 179.628 152.424L183.09 154.734C186.198 151.8 189 145.488 189.6 142.38C186.666 141.912 183.234 142.716 181.956 144.234Z" fill="black"/>
<path d="M182.574 243.258H178.014L175.926 232.692H180.486L182.574 243.258Z" fill="#FFC3BD"/>
<path d="M177.876 242.148H183C183.043 242.146 183.085 242.153 183.125 242.168C183.165 242.183 183.201 242.205 183.233 242.234C183.264 242.263 183.289 242.298 183.307 242.337C183.325 242.376 183.334 242.418 183.336 242.46L183.588 246.516C183.588 246.73 183.503 246.935 183.353 247.087C183.202 247.238 182.998 247.324 182.784 247.326C180.984 247.326 180.15 247.188 177.894 247.188C176.508 247.188 171.804 247.332 169.89 247.332C167.976 247.332 168.03 245.442 168.84 245.268C172.482 244.5 175.8 243.468 177.09 242.43C177.312 242.249 177.589 242.149 177.876 242.148Z" fill="#263238"/>
<path opacity="0.2" d="M180.486 232.698H175.926L177.06 238.422L181.566 238.14L180.486 232.698Z" fill="black"/>
<path d="M192 174.756C192 174.756 161.916 177.3 162.66 190.356C163.47 204.654 175.05 236.82 175.05 236.82H183.402C183.402 236.82 179.628 207.72 177.792 193.158C186.27 193.158 203.862 194.754 206.682 187.104C208.083 183.22 208.764 179.113 208.692 174.984L192 174.756Z" fill="white"/>
<path opacity="0.3" d="M192 174.756C192 174.756 161.916 177.3 162.66 190.356C163.47 204.654 175.05 236.82 175.05 236.82H183.402C183.402 236.82 179.628 207.72 177.792 193.158C186.27 193.158 203.862 194.754 206.682 187.104C208.083 183.22 208.764 179.113 208.692 174.984L192 174.756Z" fill="black"/>
<path d="M183.906 236.784L173.904 237.558L172.998 233.28L183.48 232.986L183.906 236.784Z" fill="#263238"/>
<path d="M176.256 242.946C176.661 242.933 177.063 242.877 177.456 242.778C177.476 242.773 177.494 242.763 177.508 242.748C177.522 242.733 177.531 242.714 177.534 242.694C177.536 242.675 177.533 242.655 177.526 242.638C177.519 242.62 177.507 242.604 177.492 242.592C177.342 242.49 176.052 241.608 175.494 241.824C175.431 241.85 175.376 241.89 175.333 241.943C175.29 241.995 175.261 242.057 175.248 242.124C175.214 242.227 175.208 242.337 175.231 242.442C175.255 242.548 175.306 242.645 175.38 242.724C175.633 242.906 175.946 242.986 176.256 242.946ZM177.18 242.628C176.364 242.79 175.764 242.766 175.548 242.55C175.502 242.5 175.471 242.438 175.458 242.371C175.446 242.304 175.452 242.235 175.476 242.172C175.48 242.139 175.493 242.108 175.513 242.082C175.533 242.056 175.56 242.035 175.59 242.022C175.89 241.902 176.652 242.292 177.18 242.628Z" fill="white"/>
<path d="M177.45 242.784H177.498C177.513 242.776 177.526 242.764 177.536 242.749C177.545 242.734 177.551 242.717 177.552 242.7C177.552 242.64 177.66 241.332 177.198 240.9C177.14 240.842 177.069 240.798 176.991 240.772C176.912 240.746 176.829 240.739 176.748 240.75C176.657 240.752 176.569 240.786 176.499 240.845C176.429 240.904 176.382 240.984 176.364 241.074C176.256 241.572 176.964 242.52 177.396 242.79C177.414 242.795 177.433 242.793 177.45 242.784ZM176.85 240.936C176.935 240.936 177.016 240.968 177.078 241.026C177.329 241.466 177.434 241.974 177.378 242.478C176.982 242.142 176.526 241.416 176.598 241.092C176.598 241.032 176.646 240.954 176.796 240.936H176.85Z" fill="white"/>
<path d="M153.42 156.174L149.178 153.426L147.642 158.736C147.642 158.736 152.442 160.26 153.318 158.964L153.42 156.174Z" fill="#FFC3BD"/>
<path d="M144.426 154.326L144.564 158.43L147.642 158.736L149.178 153.426L144.426 154.326Z" fill="#FFC3BD"/>
<path d="M206.796 134.652C206.34 133.452 204.246 132.252 202.95 132.252H202.098C200.616 132.252 198.756 132.366 196.956 132.582C193.526 132.957 190.121 133.528 186.756 134.292C185.208 134.7 183.714 135.216 182.556 135.66C181.038 136.26 180.156 136.662 180.156 136.662C180.156 136.662 182.682 163.32 183.108 174.966H208.71C209.592 169.968 209.016 160.806 209.088 151.77C209.088 146.352 208.65 139.596 206.796 134.652Z" fill="#263238"/>
<path d="M208.008 139.2C208.134 140.118 208.218 140.892 208.272 141.732C208.326 142.572 208.374 143.376 208.398 144.198C208.44 145.842 208.398 147.492 208.29 149.148C208.175 150.82 207.956 152.483 207.636 154.128L207.384 155.382L207.06 156.6C206.958 157.014 206.808 157.434 206.682 157.848L206.478 158.448L206.43 158.598L206.316 158.898C206.238 159.103 206.148 159.304 206.046 159.498C205.4 160.631 204.464 161.571 203.334 162.222C202.511 162.716 201.643 163.13 200.742 163.458C199.142 164.033 197.496 164.472 195.822 164.772C192.64 165.345 189.413 165.624 186.18 165.606L185.826 162.204C188.76 161.49 191.748 160.692 194.538 159.762C195.885 159.322 197.2 158.791 198.474 158.172C199.012 157.913 199.523 157.599 199.998 157.236C200.4 156.936 200.598 156.594 200.52 156.666L200.484 156.72L200.514 156.594L200.622 156.096C200.694 155.76 200.79 155.436 200.838 155.088L201.018 154.062L201.162 153.012C201.33 151.608 201.438 150.174 201.474 148.728C201.51 147.282 201.504 145.812 201.474 144.348C201.474 143.616 201.414 142.884 201.36 142.158L201.276 141.072L201.192 140.046L208.008 139.2Z" fill="#FFC3BD"/>
<path d="M208.002 133.896C204.198 131.202 200.898 131.448 199.158 137.496C198.012 141.45 198.396 149.922 198.396 149.922L209.796 149.106C211.158 142.8 211.296 136.236 208.002 133.896Z" fill="#263238"/>
<path d="M195.45 120.6L192.906 123.552L189.438 127.566C189.648 128.082 189.824 128.611 189.966 129.15C190.566 131.298 190.314 133.35 187.23 134.676C187.23 134.676 184.566 138.156 190.902 137.19C197.238 136.224 198.192 132.912 198.192 132.912C195.39 130.95 195.228 124.314 195.45 120.6Z" fill="#FFC3BD"/>
<path opacity="0.2" d="M189.438 127.578C189.648 128.094 189.824 128.623 189.966 129.162C191.418 128.61 193.158 126.672 193.11 125.106C193.097 124.586 193.029 124.069 192.906 123.564L189.438 127.578Z" fill="black"/>
<path d="M183.372 110.118C181.368 111.006 181.638 117.216 183.372 118.2C185.106 119.184 187.638 108.216 183.372 110.118Z" fill="#263238"/>
<path d="M195.816 115.29C195.576 120.186 195.684 123.06 193.254 125.682C192.473 126.543 191.472 127.174 190.359 127.507C189.245 127.841 188.062 127.864 186.936 127.573C185.811 127.283 184.786 126.691 183.973 125.86C183.16 125.03 182.589 123.993 182.322 122.862C181.218 118.518 181.794 111.24 186.522 109.062C187.539 108.561 188.671 108.337 189.803 108.412C190.935 108.487 192.026 108.859 192.969 109.49C193.911 110.122 194.67 110.99 195.17 112.008C195.67 113.027 195.893 114.158 195.816 115.29Z" fill="#FFC3BD"/>
<path opacity="0.3" d="M191.436 119.652C191.334 120.408 190.362 120.9 189.258 120.756C188.154 120.612 187.344 119.88 187.458 119.124C187.572 118.368 188.526 117.882 189.63 118.026C190.734 118.17 191.532 118.902 191.436 119.652Z" fill="#ED847E"/>
<path opacity="0.3" d="M182.928 119.178C182.837 118.961 182.688 118.774 182.498 118.636C182.307 118.499 182.082 118.416 181.848 118.398C181.831 119.234 181.869 120.07 181.962 120.9C182.712 120.48 183.126 119.778 182.928 119.178Z" fill="#ED847E"/>
<path d="M182.832 110.61C184.452 113.442 193.11 111.948 193.11 111.948C192.599 114.398 192.371 116.898 192.432 119.4C193.306 119.787 194.296 119.826 195.198 119.508L197.328 117.834C197.328 117.834 200.778 113.934 199.248 111.084C200.628 109.248 177.834 106.032 182.832 110.61Z" fill="#263238"/>
<path d="M200.7 110.526C200.712 110.222 200.638 109.921 200.488 109.657C200.337 109.393 200.115 109.177 199.848 109.032C199.857 108.632 199.714 108.244 199.448 107.945C199.182 107.647 198.812 107.46 198.414 107.424C198.328 107.157 198.182 106.912 197.989 106.708C197.796 106.504 197.559 106.346 197.296 106.246C197.034 106.146 196.752 106.106 196.472 106.129C196.192 106.152 195.921 106.238 195.678 106.38C195.584 106.13 195.437 105.904 195.248 105.716C195.058 105.528 194.831 105.383 194.581 105.29C194.33 105.197 194.063 105.159 193.797 105.179C193.531 105.198 193.272 105.274 193.038 105.402C192.744 104.98 192.299 104.685 191.795 104.579C191.291 104.473 190.766 104.564 190.326 104.832C190.009 104.988 189.734 105.216 189.522 105.498C189.203 105.227 188.807 105.062 188.39 105.026C187.972 104.991 187.554 105.086 187.194 105.3C186.772 105.503 186.431 105.844 186.228 106.266C185.928 106.071 185.581 105.962 185.223 105.951C184.866 105.939 184.512 106.025 184.2 106.2C183.941 106.321 183.713 106.498 183.531 106.718C183.35 106.938 183.219 107.195 183.15 107.472C183.022 107.508 182.897 107.556 182.778 107.616C182.582 107.701 182.405 107.827 182.261 107.986C182.117 108.144 182.008 108.331 181.941 108.534C181.874 108.738 181.851 108.953 181.873 109.166C181.895 109.379 181.963 109.585 182.07 109.77C182.003 109.969 181.978 110.18 181.997 110.389C182.016 110.598 182.077 110.801 182.178 110.986C182.279 111.17 182.417 111.331 182.583 111.46C182.749 111.588 182.94 111.681 183.144 111.732C183.381 111.825 183.636 111.859 183.889 111.832C184.142 111.805 184.385 111.717 184.597 111.576C184.808 111.436 184.983 111.246 185.106 111.024C185.23 110.801 185.297 110.552 185.304 110.298C185.31 110.214 185.31 110.13 185.304 110.046C186.449 110.532 187.664 110.832 188.904 110.934C193.074 111.42 195.882 110.874 197.064 110.112C197.175 110.215 197.301 110.302 197.436 110.37C197.425 110.575 197.458 110.779 197.532 110.97C197.3 111.14 197.121 111.373 197.017 111.641C196.912 111.909 196.887 112.202 196.943 112.484C196.999 112.766 197.134 113.027 197.333 113.235C197.532 113.443 197.786 113.59 198.066 113.658C198.303 113.752 198.559 113.787 198.812 113.761C199.066 113.734 199.309 113.647 199.521 113.506C199.733 113.365 199.908 113.175 200.031 112.952C200.154 112.728 200.221 112.479 200.226 112.224C200.231 112.041 200.204 111.858 200.148 111.684C200.313 111.538 200.448 111.361 200.543 111.162C200.637 110.963 200.691 110.746 200.7 110.526Z" fill="#263238"/>
<path d="M197.652 119.58C197.059 120.688 196.082 121.541 194.904 121.98C193.374 122.52 192.648 121.146 193.104 119.622C193.518 118.248 194.82 116.31 196.338 116.43C197.856 116.55 198.384 118.2 197.652 119.58Z" fill="#FFC3BD"/>
<path d="M187.8 117.078C187.8 117.474 187.602 117.81 187.344 117.822C187.086 117.834 186.87 117.522 186.864 117.12C186.858 116.718 187.062 116.394 187.326 116.382C187.59 116.37 187.8 116.682 187.8 117.078Z" fill="#263238"/>
<path d="M183.3 117.288C183.3 117.69 183.102 118.02 182.844 118.032C182.586 118.044 182.37 117.732 182.364 117.336C182.358 116.94 182.562 116.604 182.826 116.592C183.09 116.58 183.3 116.892 183.3 117.288Z" fill="#263238"/>
<path d="M184.668 117.222C184.349 118.303 183.887 119.336 183.294 120.294C183.541 120.431 183.815 120.513 184.097 120.534C184.379 120.555 184.662 120.514 184.926 120.414L184.668 117.222Z" fill="#ED847E"/>
<path d="M185.25 122.322C185.712 122.315 186.167 122.214 186.588 122.027C187.01 121.839 187.39 121.568 187.704 121.23C187.717 121.206 187.72 121.178 187.715 121.151C187.71 121.124 187.695 121.1 187.674 121.083C187.653 121.065 187.627 121.056 187.6 121.055C187.572 121.055 187.546 121.063 187.524 121.08C187.179 121.443 186.755 121.722 186.284 121.895C185.814 122.068 185.31 122.13 184.812 122.076C184.797 122.074 184.781 122.076 184.766 122.081C184.751 122.085 184.737 122.093 184.726 122.103C184.714 122.113 184.704 122.125 184.697 122.139C184.691 122.153 184.687 122.169 184.686 122.184C184.684 122.199 184.686 122.214 184.69 122.229C184.694 122.243 184.701 122.257 184.711 122.268C184.72 122.28 184.732 122.29 184.745 122.297C184.758 122.304 184.773 122.309 184.788 122.31C184.942 122.323 185.096 122.327 185.25 122.322Z" fill="#263238"/>
<path d="M189.414 115.668C189.452 115.656 189.487 115.636 189.516 115.608C189.56 115.564 189.584 115.505 189.584 115.443C189.584 115.381 189.56 115.322 189.516 115.278C189.263 115.011 188.949 114.811 188.6 114.695C188.252 114.578 187.88 114.55 187.518 114.612C187.488 114.619 187.46 114.631 187.436 114.649C187.411 114.666 187.39 114.688 187.374 114.714C187.358 114.74 187.347 114.768 187.342 114.798C187.336 114.828 187.337 114.859 187.344 114.888C187.351 114.918 187.363 114.946 187.381 114.97C187.398 114.995 187.42 115.016 187.446 115.032C187.472 115.048 187.5 115.059 187.53 115.064C187.56 115.07 187.59 115.069 187.62 115.062C187.905 115.02 188.196 115.047 188.469 115.141C188.741 115.235 188.987 115.393 189.186 115.602C189.215 115.632 189.251 115.655 189.291 115.666C189.331 115.678 189.374 115.678 189.414 115.668Z" fill="#263238"/>
<path d="M181.872 115.8C181.909 115.8 181.945 115.79 181.978 115.773C182.01 115.755 182.038 115.729 182.058 115.698C182.213 115.441 182.425 115.224 182.678 115.063C182.931 114.901 183.218 114.8 183.516 114.768C183.577 114.765 183.634 114.738 183.676 114.693C183.717 114.648 183.74 114.589 183.738 114.528C183.738 114.497 183.732 114.466 183.72 114.438C183.707 114.409 183.689 114.384 183.667 114.362C183.645 114.341 183.618 114.325 183.589 114.314C183.56 114.303 183.529 114.298 183.498 114.3C183.125 114.334 182.765 114.455 182.448 114.653C182.13 114.851 181.863 115.12 181.668 115.44C181.651 115.466 181.64 115.495 181.635 115.525C181.629 115.556 181.63 115.587 181.637 115.617C181.643 115.647 181.656 115.676 181.674 115.701C181.691 115.726 181.714 115.748 181.74 115.764C181.758 115.779 181.78 115.789 181.802 115.796C181.825 115.802 181.849 115.803 181.872 115.8Z" fill="#263238"/>
<path d="M186.732 162.084L182.532 161.844L184.332 166.44C184.332 166.44 188.472 166.614 188.388 164.472L186.732 162.084Z" fill="#FFC3BD"/>
<path d="M178.35 164.502L180.336 167.532L184.308 166.44L182.532 161.844L178.35 164.502Z" fill="#FFC3BD"/>
<path d="M211.662 182.322H193.266C192.7 182.341 192.158 182.554 191.729 182.924C191.3 183.294 191.01 183.799 190.908 184.356L189.414 193.8C189.362 194.051 189.368 194.309 189.43 194.557C189.493 194.805 189.611 195.036 189.776 195.232C189.94 195.427 190.147 195.583 190.381 195.688C190.614 195.792 190.868 195.842 191.124 195.834H209.52C210.086 195.815 210.628 195.602 211.057 195.232C211.486 194.862 211.776 194.357 211.878 193.8L213.372 184.38C213.428 184.128 213.426 183.866 213.365 183.615C213.304 183.364 213.187 183.13 213.022 182.932C212.857 182.733 212.648 182.575 212.413 182.469C212.177 182.363 211.92 182.313 211.662 182.322Z" fill="white"/>
<path opacity="0.5" d="M211.662 182.322H193.266C192.7 182.341 192.158 182.554 191.729 182.924C191.3 183.294 191.01 183.799 190.908 184.356L189.414 193.8C189.362 194.051 189.368 194.309 189.43 194.557C189.493 194.805 189.611 195.036 189.776 195.232C189.94 195.427 190.147 195.583 190.381 195.688C190.614 195.792 190.868 195.842 191.124 195.834H209.52C210.086 195.815 210.628 195.602 211.057 195.232C211.486 194.862 211.776 194.357 211.878 193.8L213.372 184.38C213.428 184.128 213.426 183.866 213.365 183.615C213.304 183.364 213.187 183.13 213.022 182.932C212.857 182.733 212.648 182.575 212.413 182.469C212.177 182.363 211.92 182.313 211.662 182.322Z" fill="black"/>
<path d="M161.01 167.634C160.976 167.666 160.931 167.683 160.884 167.683C160.837 167.683 160.792 167.666 160.758 167.634L137.22 144.09C137.189 144.057 137.171 144.013 137.171 143.967C137.171 143.921 137.189 143.877 137.22 143.844C137.253 143.813 137.297 143.795 137.343 143.795C137.389 143.795 137.433 143.813 137.466 143.844L161.01 167.4C161.037 167.433 161.051 167.474 161.051 167.517C161.051 167.56 161.037 167.601 161.01 167.634Z" fill="white"/>
<path d="M135.678 145.272L134.706 144.3C134.319 143.911 134.102 143.385 134.102 142.836C134.102 142.287 134.319 141.761 134.706 141.372C134.92 141.155 135.18 140.989 135.466 140.885C135.753 140.781 136.059 140.742 136.362 140.772C135.86 141.394 135.532 142.139 135.412 142.93C135.292 143.72 135.383 144.529 135.678 145.272Z" fill="white"/>
<path d="M135.822 142.368C136.144 142.912 136.667 143.307 137.278 143.468C137.889 143.628 138.539 143.541 139.086 143.226L136.686 139.104C136.141 139.425 135.745 139.947 135.583 140.558C135.421 141.17 135.507 141.82 135.822 142.368Z" fill="white"/>
<path d="M139.884 143.616C140.273 144.004 140.492 144.531 140.493 145.081C140.493 145.631 140.275 146.158 139.887 146.547C139.499 146.936 138.972 147.155 138.422 147.156C137.872 147.156 137.345 146.938 136.956 146.55L135.678 145.272C135.386 144.53 135.295 143.724 135.415 142.936C135.535 142.148 135.862 141.405 136.362 140.784C136.846 140.824 137.3 141.037 137.64 141.384L139.884 143.616Z" fill="white"/>
<path d="M135.792 142.8C136.335 143.123 136.729 143.646 136.888 144.257C137.048 144.868 136.96 145.517 136.644 146.064L132.522 143.664C132.843 143.118 133.366 142.72 133.979 142.558C134.592 142.396 135.243 142.483 135.792 142.8Z" fill="white"/>
<path d="M137.4 142.524C137.324 142.127 137.407 141.715 137.631 141.378C137.856 141.042 138.204 140.807 138.6 140.724L139.2 143.724C138.803 143.799 138.392 143.715 138.056 143.491C137.719 143.266 137.484 142.919 137.4 142.524Z" fill="white"/>
<path d="M143.562 150.228C141.6 148.65 138 149.4 136.398 151.8C139.8 152.43 147.216 153.186 143.562 150.228Z" fill="white"/>
<path d="M155.55 162.198C154.104 161.028 151.428 161.562 150.222 163.398C152.754 163.83 158.262 164.4 155.55 162.198Z" fill="white"/>
<path d="M149.166 155.736C147.858 154.122 148.452 151.128 150.48 149.772C150.996 152.61 151.626 158.772 149.166 155.736Z" fill="white"/>
<path opacity="0.2" d="M135.678 145.272L134.706 144.3C134.319 143.911 134.102 143.385 134.102 142.836C134.102 142.287 134.319 141.761 134.706 141.372C134.92 141.155 135.18 140.989 135.466 140.885C135.753 140.781 136.059 140.742 136.362 140.772C135.86 141.394 135.532 142.139 135.412 142.93C135.292 143.72 135.383 144.529 135.678 145.272Z" fill="black"/>
<path d="M156.078 242.04H166.014C167.854 242.063 169.64 242.663 171.12 243.756L177.012 247.956C177.522 248.316 177.336 249.408 176.772 249.408H145.32C144.75 249.408 144.57 248.316 145.08 247.956L150.972 243.756C152.452 242.662 154.238 242.062 156.078 242.04Z" fill="white"/>
<path d="M162.87 245.676V168.792H159.216V245.676H162.87Z" fill="white"/>
<path opacity="0.3" d="M162.87 174.084V168.792H159.216V174.084H162.87Z" fill="black"/>
<path d="M213.162 166.482H108.93V171.108H213.162V166.482Z" fill="white"/>
<path opacity="0.3" d="M145.572 166.482H108.93V171.108H145.572V166.482Z" fill="black"/>
<path d="M166.014 240.204C165.625 240.592 165.194 240.936 164.73 241.23C164.706 241.245 164.678 241.253 164.649 241.253C164.62 241.253 164.592 241.245 164.568 241.23C164.544 241.217 164.525 241.196 164.513 241.172C164.501 241.147 164.497 241.119 164.502 241.092C164.544 240.852 164.916 238.722 165.654 238.422C165.737 238.388 165.827 238.375 165.916 238.385C166.005 238.394 166.09 238.425 166.164 238.476C166.286 238.543 166.389 238.641 166.461 238.76C166.534 238.879 166.574 239.015 166.578 239.154C166.529 239.562 166.327 239.937 166.014 240.204ZM164.862 240.804C165.756 240.174 166.284 239.574 166.284 239.16C166.279 239.067 166.25 238.977 166.2 238.899C166.149 238.821 166.079 238.758 165.996 238.716C165.965 238.692 165.928 238.677 165.889 238.672C165.85 238.667 165.811 238.671 165.774 238.686C165.384 238.836 165.036 239.952 164.862 240.798V240.804Z" fill="white"/>
<path d="M164.76 241.2C164.742 241.219 164.719 241.234 164.694 241.242C164.669 241.25 164.643 241.251 164.618 241.246C164.593 241.241 164.569 241.229 164.55 241.212C164.49 241.164 163.164 240.012 163.176 239.142C163.175 239.032 163.2 238.924 163.248 238.825C163.296 238.726 163.366 238.64 163.452 238.572C163.536 238.489 163.644 238.435 163.761 238.419C163.878 238.403 163.997 238.425 164.1 238.482C164.7 238.836 164.946 240.498 164.796 241.14C164.79 241.163 164.777 241.184 164.76 241.2ZM163.602 238.83C163.561 238.87 163.528 238.919 163.506 238.973C163.485 239.026 163.474 239.084 163.476 239.142C163.476 239.658 164.118 240.402 164.544 240.81C164.592 240.09 164.322 238.938 163.944 238.722C163.884 238.686 163.794 238.662 163.65 238.782C163.632 238.798 163.616 238.816 163.602 238.836V238.83Z" fill="white"/>
<path d="M159.792 246.186L164.022 241.77L153.756 232.008L149.526 236.424L159.792 246.186Z" fill="#FF8B7B"/>
<path d="M163.758 241.02L159 246C158.927 246.083 158.887 246.19 158.887 246.3C158.887 246.41 158.927 246.517 159 246.6L162.6 250.728C162.697 250.829 162.814 250.91 162.944 250.965C163.073 251.02 163.212 251.049 163.353 251.049C163.494 251.049 163.633 251.02 163.762 250.965C163.892 250.91 164.009 250.829 164.106 250.728C165.726 248.97 166.422 248.046 168.51 245.862C169.794 244.518 171.822 242.682 173.598 240.828C175.374 238.974 173.544 237.228 172.632 237.828C168.534 240.612 166.932 240.228 164.784 240.51C164.392 240.553 164.029 240.734 163.758 241.02Z" fill="#263238"/>
<path opacity="0.2" d="M149.526 236.43L153.756 232.008L159.048 237.042L154.818 241.464L149.526 236.43Z" fill="black"/>
<path d="M95.8561 180.18C106.902 180.726 129.108 189.36 131.028 193.254C137.148 205.662 161.952 238.116 157.548 233.784L151.032 239.058C154.56 241.68 121.512 213.036 120.78 200.058C109.746 199.416 94.8061 199.11 88.5361 194.874C84.2101 191.952 82.9081 185.874 83.7361 180.282C83.7181 180.276 84.8161 179.628 95.8561 180.18Z" fill="#263238"/>
<path d="M159.546 233.832L151.89 241.2L149.106 238.71L157.338 230.238L159.546 233.832Z" fill="#263238"/>
<path d="M128.832 246.636C128.297 246.623 127.766 246.549 127.248 246.414C127.222 246.408 127.199 246.393 127.181 246.373C127.164 246.352 127.154 246.327 127.152 246.3C127.154 246.27 127.163 246.24 127.178 246.214C127.194 246.188 127.216 246.166 127.242 246.15C127.47 246.012 129.504 244.818 130.17 245.136C130.244 245.174 130.306 245.233 130.346 245.305C130.387 245.378 130.405 245.461 130.398 245.544C130.4 245.691 130.37 245.837 130.309 245.971C130.247 246.105 130.157 246.223 130.044 246.318C129.685 246.552 129.26 246.663 128.832 246.636ZM127.686 246.21C128.718 246.42 129.528 246.384 129.876 246.102C129.954 246.041 130.015 245.962 130.055 245.873C130.094 245.783 130.111 245.684 130.104 245.586C130.109 245.549 130.103 245.511 130.086 245.478C130.069 245.444 130.041 245.417 130.008 245.4C129.66 245.232 128.514 245.748 127.686 246.21Z" fill="white"/>
<path d="M127.278 246.42C127.257 246.428 127.233 246.428 127.212 246.42C127.191 246.409 127.174 246.391 127.165 246.369C127.155 246.347 127.153 246.323 127.158 246.3C127.158 246.222 127.44 244.464 128.19 243.9C128.278 243.825 128.38 243.768 128.49 243.734C128.601 243.7 128.717 243.689 128.832 243.702C128.942 243.702 129.048 243.744 129.127 243.82C129.206 243.896 129.253 244 129.258 244.11C129.294 244.8 127.986 246.114 127.356 246.45C127.328 246.446 127.301 246.436 127.278 246.42ZM128.688 243.942C128.564 243.941 128.444 243.986 128.352 244.068C127.902 244.416 127.62 245.406 127.494 245.994C128.148 245.526 128.988 244.536 128.964 244.116C128.964 244.05 128.934 243.966 128.754 243.942H128.688Z" fill="white"/>
<path d="M97.074 127.2C96.864 131.052 97.158 140.334 94.014 142.5C94.014 142.5 93.366 145.554 100.08 146.46C107.454 147.462 104.532 143.136 104.532 143.136C101.958 141.81 102.342 136.44 103.758 133.62L97.074 127.2Z" fill="#FF8B7B"/>
<path d="M108.744 123.504C108.698 123.504 108.652 123.492 108.612 123.468C108.546 123.429 108.498 123.366 108.478 123.292C108.457 123.218 108.467 123.139 108.504 123.072C108.722 122.667 109.033 122.32 109.412 122.059C109.791 121.798 110.226 121.631 110.682 121.572C110.762 121.567 110.84 121.594 110.899 121.647C110.959 121.7 110.995 121.774 111 121.854C111.005 121.934 110.978 122.012 110.925 122.071C110.872 122.131 110.798 122.167 110.718 122.172C110.358 122.221 110.015 122.356 109.718 122.565C109.42 122.773 109.177 123.05 109.008 123.372C108.98 123.416 108.941 123.451 108.894 123.474C108.848 123.498 108.796 123.508 108.744 123.504Z" fill="#263238"/>
<path d="M110.796 126.786C111.317 127.871 111.983 128.881 112.776 129.786C112.54 129.985 112.262 130.13 111.964 130.21C111.665 130.29 111.352 130.303 111.048 130.248L110.796 126.786Z" fill="#FF5652"/>
<path d="M110.292 126C110.328 126.492 110.616 126.87 110.94 126.846C111.264 126.822 111.492 126.408 111.456 125.916C111.42 125.424 111.126 125.046 110.808 125.07C110.49 125.094 110.256 125.478 110.292 126Z" fill="#263238"/>
<path d="M110.67 125.076L111.822 124.65C111.822 124.65 111.288 125.616 110.67 125.076Z" fill="#263238"/>
<path d="M120.276 246.276H126.39L129.18 232.11H123.06L120.276 246.276Z" fill="#FF8B7B"/>
<path d="M126.894 245.568H120C119.877 245.572 119.757 245.614 119.659 245.688C119.56 245.762 119.486 245.864 119.448 245.982L117.882 251.4C117.842 251.527 117.833 251.663 117.855 251.794C117.878 251.926 117.932 252.051 118.012 252.157C118.093 252.264 118.197 252.35 118.318 252.408C118.438 252.467 118.57 252.495 118.704 252.492C121.104 252.45 122.304 252.306 125.304 252.306C127.164 252.306 129.852 252.504 132.42 252.504C134.988 252.504 135.504 249.96 134.466 249.732C129.828 248.7 129.282 247.278 127.866 245.922C127.601 245.681 127.252 245.554 126.894 245.568Z" fill="#263238"/>
<path opacity="0.2" d="M123.06 232.11H129.18L127.74 239.412H121.62L123.06 232.11Z" fill="black"/>
<path d="M94.2001 147C94.3381 147.336 94.5421 147.78 94.7221 148.2C94.9021 148.62 95.0941 149.016 95.3221 149.4C95.7221 150.2 96.1341 151 96.5581 151.8C97.3763 153.37 98.2983 154.883 99.3181 156.33C100.262 157.708 101.355 158.977 102.576 160.116C102.87 160.38 103.176 160.62 103.464 160.848C103.614 160.95 103.764 161.076 103.914 161.16L104.142 161.304L104.256 161.382C104.304 161.412 104.256 161.382 104.256 161.382C104.159 161.364 104.061 161.352 103.962 161.346C103.739 161.336 103.516 161.382 103.314 161.478C103.128 161.58 103.062 161.646 103.044 161.682C103.026 161.718 103.074 161.682 103.128 161.592C103.474 161.017 103.727 160.391 103.878 159.738C104.1 158.946 104.268 158.082 104.424 157.206C104.724 155.436 104.91 153.606 105.072 151.734C105.366 148.02 105.528 144.216 105.618 140.454L108.708 140.25C109.243 144.105 109.549 147.987 109.626 151.878C109.669 153.866 109.611 155.854 109.452 157.836C109.366 158.879 109.222 159.917 109.02 160.944C108.909 161.503 108.768 162.056 108.6 162.6C108.402 163.24 108.137 163.858 107.808 164.442C107.591 164.821 107.333 165.175 107.04 165.498C106.635 165.931 106.152 166.285 105.618 166.542C104.978 166.835 104.275 166.967 103.572 166.926C102.997 166.885 102.434 166.741 101.91 166.5L101.598 166.356L101.4 166.254L101.004 166.038C100.74 165.9 100.5 165.738 100.248 165.588C99.7649 165.283 99.2982 164.952 98.8501 164.598C97.1694 163.248 95.6673 161.689 94.3801 159.96C93.1475 158.32 92.025 156.6 91.0201 154.812C90.5341 153.924 90.0781 153.012 89.6401 152.118C89.4181 151.662 89.2081 151.2 88.9981 150.738C88.7881 150.276 88.6141 149.826 88.3981 149.28L94.2001 147Z" fill="#FF8B7B"/>
<path d="M93.108 142.5C96.066 143.532 99.402 153.204 99.402 153.204L89.022 157.59C89.022 157.59 84.462 149.478 85.77 146.358C87.132 143.112 89.526 141.252 93.108 142.5Z" fill="white"/>
<path d="M107.448 141.864L111.318 139.65L109.158 136.452C109.158 136.452 103.944 138.618 105.756 141.21L107.448 141.864Z" fill="#FF8B7B"/>
<path d="M112.284 136.452L110.442 133.728L109.158 136.452L111.318 139.65L112.284 136.452Z" fill="#FF8B7B"/>
<path opacity="0.2" d="M110.442 133.728L109.158 136.452C109.158 136.452 106.236 137.652 105.528 139.362L109.974 137.658L111.318 135.024L110.442 133.728Z" fill="black"/>
<path d="M116.286 151.032C115.848 156.204 112.146 166.386 107.886 180.18H83.022C83.388 171.27 85.758 164.94 85.008 149.142C84.816 145.218 87.246 141.696 91.176 141.48C92.226 141.42 93.324 141.384 94.422 141.39C98.1865 141.308 101.952 141.494 105.69 141.948C107.13 142.152 108.618 142.416 110.004 142.692C111.894 143.066 113.579 144.123 114.738 145.662C115.897 147.201 116.448 149.112 116.286 151.032Z" fill="white"/>
<path opacity="0.2" d="M111.9 153.228C111.27 155.736 112.134 159.828 113.562 162.228C114.162 160.32 114.666 158.586 115.08 157.02C114.211 155.607 113.14 154.33 111.9 153.228Z" fill="black"/>
<path d="M114.75 146.838C117.066 149.088 119.502 151.362 121.95 153.54C123.15 154.626 124.416 155.688 125.658 156.702C126.9 157.716 128.172 158.706 129.444 159.582C129.756 159.798 130.08 160.032 130.392 160.182L131.286 160.734C131.674 160.956 132.106 161.091 132.552 161.13C133.848 161.188 135.142 160.965 136.344 160.476C137.783 159.937 139.174 159.276 140.502 158.502C141.186 158.1 141.876 157.692 142.548 157.254C143.22 156.816 143.904 156.348 144.522 155.916L146.664 158.154C146.064 158.868 145.464 159.474 144.828 160.092C144.192 160.71 143.544 161.292 142.854 161.892C141.454 163.068 139.931 164.09 138.312 164.94C136.494 165.937 134.468 166.496 132.396 166.572C131.155 166.588 129.926 166.33 128.796 165.816L128.574 165.714L128.424 165.636L128.112 165.474L127.512 165.144C127.092 164.928 126.714 164.688 126.312 164.454C123.344 162.601 120.525 160.518 117.882 158.226C115.248 156.006 112.758 153.72 110.328 151.236L114.75 146.838Z" fill="#FF8B7B"/>
<path d="M109.308 142.62C112.398 142.122 120.42 150.234 120.42 150.234L115.95 160.392C115.95 160.392 105 152.868 104.688 149.502C104.34 145.998 105.564 143.22 109.308 142.62Z" fill="white"/>
<path d="M145.266 159.3L150.324 158.814L148.332 153.942C148.332 153.942 144.6 155.028 143.28 157.2L145.266 159.3Z" fill="#FF8B7B"/>
<path d="M153.912 158.04L152.274 154.5L148.332 153.942L150.318 158.814L153.912 158.04Z" fill="#FF8B7B"/>
<path d="M93.6 125.502C94.416 131.502 94.632 134.082 97.914 136.956C102.846 141.282 110.058 138.966 111.054 132.828C111.954 127.302 110.454 118.392 104.376 116.424C103.035 115.983 101.603 115.893 100.217 116.161C98.8306 116.429 97.5361 117.048 96.4562 117.958C95.3764 118.867 94.5471 120.038 94.0472 121.358C93.5473 122.679 93.3934 124.105 93.6 125.502Z" fill="#FF8B7B"/>
<path d="M104.634 118.302C106.59 119.118 108.924 123.498 108.468 126.498C108.012 129.498 105.144 134.898 108.828 137.154C108.828 137.154 102.186 140.862 90.438 137.574C86.724 136.536 86.6281 134.124 86.6281 134.124C86.6281 134.124 91.128 132.18 89.67 129.012C88.212 125.844 87.318 119.154 91.29 118.302C91.89 114.702 101.676 113.436 106.062 116.76C110.448 120.084 104.634 118.302 104.634 118.302Z" fill="#263238"/>
<path d="M101.244 118.83C104.058 121.8 111.636 120.99 110.67 118.404C109.704 115.818 106.26 115.122 106.26 115.122C106.26 115.122 107.514 116.658 103.362 115.434C99.2101 114.21 99.6001 117.066 101.244 118.83Z" fill="#263238"/>
<path d="M108.768 126.888C109.261 127.939 109.379 129.127 109.104 130.254C108.72 131.742 107.394 131.634 106.548 130.518C105.786 129.51 105.066 127.518 105.9 126.372C106.734 125.226 108.156 125.622 108.768 126.888Z" fill="#FF8B7B"/>
<path d="M112.05 180.18C123.09 180.726 141.162 183.138 140.034 191.502C137.454 210.672 129.138 238.002 129.138 238.002H120.798C120.798 238.002 121.734 205.602 125.52 199.41C114.618 200.01 101.016 199.002 94.62 194.946C89.22 191.514 87.21 185.856 88.02 180.276C88.02 180.276 101.004 179.628 112.05 180.18Z" fill="white"/>
<path d="M130.236 238.164H119.61L120.078 234.438L131.424 234.06L130.236 238.164Z" fill="#263238"/>
<path d="M82.6501 178.722L81.5281 180.942C81.4441 181.116 81.6481 181.29 81.9361 181.29H108C108.222 181.29 108.408 181.182 108.426 181.044L108.648 178.818C108.648 178.662 108.468 178.536 108.222 178.536H83.0581C82.9798 178.529 82.9011 178.543 82.8297 178.575C82.7582 178.608 82.6963 178.658 82.6501 178.722Z" fill="#263238"/>
<path d="M86.0281 181.536H85.3561C85.2241 181.536 85.1221 181.464 85.1281 181.38L85.4461 178.488C85.4461 178.404 85.5721 178.338 85.7041 178.338H86.4001C86.5321 178.338 86.6341 178.404 86.6221 178.488L86.3101 181.38C86.2801 181.464 86.1661 181.536 86.0281 181.536Z" fill="white"/>
<path d="M102.36 181.536H101.688C101.556 181.536 101.448 181.464 101.46 181.38L101.778 178.488C101.778 178.404 101.904 178.338 102.036 178.338H102.708C102.846 178.338 102.948 178.404 102.936 178.488L102.6 181.38C102.6 181.464 102.498 181.536 102.36 181.536Z" fill="white"/>
<path d="M124.494 197.862C124.494 197.82 124.494 197.778 124.494 197.736L126.06 187.872C126.11 187.609 126.101 187.338 126.033 187.08C125.965 186.821 125.841 186.58 125.668 186.376C125.496 186.171 125.28 186.008 125.036 185.897C124.793 185.786 124.528 185.731 124.26 185.736H107.22L103.14 158.772C103.021 158.094 102.672 157.478 102.152 157.026C101.632 156.575 100.972 156.317 100.284 156.294H73.002C72.69 156.284 72.3799 156.345 72.0947 156.472C71.8095 156.599 71.5566 156.789 71.3548 157.027C71.153 157.265 71.0075 157.546 70.9291 157.848C70.8507 158.15 70.8414 158.466 70.902 158.772L76.53 195.93C76.6495 196.608 76.9985 197.224 77.5185 197.676C78.0385 198.127 78.6979 198.385 79.386 198.408H79.902L80.418 200.13C80.5866 200.688 80.9302 201.177 81.398 201.525C81.8658 201.873 82.4331 202.061 83.016 202.062H126.396C126.397 201.267 126.228 200.481 125.9 199.756C125.572 199.032 125.092 198.386 124.494 197.862Z" fill="white"/>
<path opacity="0.3" d="M124.494 197.862C124.494 197.82 124.494 197.778 124.494 197.736L126.06 187.872C126.11 187.609 126.101 187.338 126.033 187.08C125.965 186.821 125.841 186.58 125.668 186.376C125.496 186.171 125.28 186.008 125.036 185.897C124.793 185.786 124.528 185.731 124.26 185.736H107.22L103.14 158.772C103.021 158.094 102.672 157.478 102.152 157.026C101.632 156.575 100.972 156.317 100.284 156.294H73.002C72.69 156.284 72.3799 156.345 72.0947 156.472C71.8095 156.599 71.5566 156.789 71.3548 157.027C71.153 157.265 71.0075 157.546 70.9291 157.848C70.8507 158.15 70.8414 158.466 70.902 158.772L76.53 195.93C76.6495 196.608 76.9985 197.224 77.5185 197.676C78.0385 198.127 78.6979 198.385 79.386 198.408H79.902L80.418 200.13C80.5866 200.688 80.9302 201.177 81.398 201.525C81.8658 201.873 82.4331 202.061 83.016 202.062H126.396C126.397 201.267 126.228 200.481 125.9 199.756C125.572 199.032 125.092 198.386 124.494 197.862Z" fill="black"/>
<path d="M96.0241 252.522H94.1221L96.7321 202.056H98.6341L96.0241 252.522Z" fill="white"/>
<path opacity="0.5" d="M96.0241 252.522H94.1221L96.7321 202.056H98.6341L96.0241 252.522Z" fill="white"/>
<path d="M124.374 252.522H126.282L123.672 202.056H121.77L124.374 252.522Z" fill="white"/>
<path opacity="0.5" d="M124.374 252.522H126.282L123.672 202.056H121.77L124.374 252.522Z" fill="white"/>
<path d="M84.1021 252.522H82.1941L84.8041 202.056H86.7061L84.1021 252.522Z" fill="white"/>
<path opacity="0.5" d="M84.1021 252.522H82.1941L84.8041 202.056H86.7061L84.1021 252.522Z" fill="white"/>
<path d="M112.452 252.522H114.354L111.75 202.056H109.842L112.452 252.522Z" fill="white"/>
<path opacity="0.5" d="M112.452 252.522H114.354L111.75 202.056H109.842L112.452 252.522Z" fill="white"/>
</svg>
