<svg width="211" height="195" viewBox="0 0 211 195" fill="none" xmlns="http://www.w3.org/2000/svg">
<path d="M53.0832 17.7354C54.032 16.6426 55.0305 15.5993 56.0788 14.6055C65.8067 5.41732 79.2499 0.669398 92.645 0.0646351C116.903 -1.02288 141.316 11.6931 154.242 32.1595C164.002 47.6181 167.568 66.8485 179.828 80.4345C183.895 84.8906 188.778 88.6041 192.903 93.0178C198.089 98.6294 200.956 105.982 200.931 113.606C200.906 121.23 197.992 128.563 192.77 134.142C186.507 140.81 178.042 144.958 169.45 148.141C137.761 159.892 103.007 160.083 69.2395 158.152C59.6715 157.621 49.9809 156.873 40.9407 153.712C31.9004 150.55 23.4518 144.64 19.2142 136.083C14.9766 127.526 15.8827 116.19 22.8335 109.606C29.9655 102.869 41.7296 102.121 47.7209 94.3652C52.3743 88.3335 52.0331 79.8138 49.9489 72.4983C47.8648 65.1828 44.2668 58.2917 43.0195 50.7958C41.0313 39.0506 45.2529 26.7697 53.0832 17.7354Z" fill="#08AF24"/>
<path opacity="0.9" d="M53.0832 17.7354C54.032 16.6426 55.0305 15.5993 56.0788 14.6055C65.8067 5.41732 79.2499 0.669398 92.645 0.0646351C116.903 -1.02288 141.316 11.6931 154.242 32.1595C164.002 47.6181 167.568 66.8485 179.828 80.4345C183.895 84.8906 188.778 88.6041 192.903 93.0178C198.089 98.6294 200.956 105.982 200.931 113.606C200.906 121.23 197.992 128.563 192.77 134.142C186.507 140.81 178.042 144.958 169.45 148.141C137.761 159.892 103.007 160.083 69.2395 158.152C59.6715 157.621 49.9809 156.873 40.9407 153.712C31.9004 150.55 23.4518 144.64 19.2142 136.083C14.9766 127.526 15.8827 116.19 22.8335 109.606C29.9655 102.869 41.7296 102.121 47.7209 94.3652C52.3743 88.3335 52.0331 79.8138 49.9489 72.4983C47.8648 65.1828 44.2668 58.2917 43.0195 50.7958C41.0313 39.0506 45.2529 26.7697 53.0832 17.7354Z" fill="white"/>
<path d="M103.354 195C160.432 195 206.704 192.311 206.704 188.995C206.704 185.678 160.432 182.99 103.354 182.99C46.2751 182.99 0.00366211 185.678 0.00366211 188.995C0.00366211 192.311 46.2751 195 103.354 195Z" fill="#F5F5F5"/>
<path d="M13.5267 174.268C13.5267 174.268 10.515 167.727 13.9584 161.282C17.4018 154.836 18.3933 153.324 16.2025 151.998C14.0118 150.672 13.0043 157.154 13.0043 157.154C13.0043 157.154 11.16 152.698 12.6845 148.035C14.209 143.372 15.1684 135.775 13.0843 134.959C11.0001 134.142 12.6845 144.433 10.8775 147.945C9.9557 145.481 9.36079 142.907 9.10783 140.29C8.85731 136.545 9.24642 130.566 7.59935 129.033C5.95227 127.5 4.90219 128.561 6.53328 136.826C7.50375 141.765 8.03882 146.78 8.13238 151.812C8.13238 151.812 4.55572 140.969 2.15706 140.672C-0.241591 140.375 -0.236262 143.855 1.81592 146.911C3.8681 149.966 7.82855 155.398 8.47885 158.221C8.47885 158.221 4.55572 150.062 1.01637 152.566C-2.52298 155.07 4.08665 159.993 7.029 161.775C9.97135 163.557 12.0129 174.719 12.0129 174.719L13.5267 174.268Z" fill="#08AF24"/>
<path opacity="0.6" d="M13.5267 174.268C13.5267 174.268 10.515 167.727 13.9584 161.282C17.4018 154.836 18.3933 153.324 16.2025 151.998C14.0118 150.672 13.0043 157.154 13.0043 157.154C13.0043 157.154 11.16 152.698 12.6845 148.035C14.209 143.372 15.1684 135.775 13.0843 134.959C11.0001 134.142 12.6845 144.433 10.8775 147.945C9.9557 145.481 9.36079 142.907 9.10783 140.29C8.85731 136.545 9.24642 130.566 7.59935 129.033C5.95227 127.5 4.90219 128.561 6.53328 136.826C7.50375 141.765 8.03882 146.78 8.13238 151.812C8.13238 151.812 4.55572 140.969 2.15706 140.672C-0.241591 140.375 -0.236262 143.855 1.81592 146.911C3.8681 149.966 7.82855 155.398 8.47885 158.221C8.47885 158.221 4.55572 150.062 1.01637 152.566C-2.52298 155.07 4.08665 159.993 7.029 161.775C9.97135 163.557 12.0129 174.719 12.0129 174.719L13.5267 174.268Z" fill="white"/>
<path d="M11.1387 176.947C11.1387 176.947 14.0704 170.364 10.5524 163.971C7.03433 157.579 6.02156 156.072 8.19635 154.719C10.3711 153.367 11.4585 159.828 11.4585 159.828C11.4585 159.828 13.2548 155.345 11.6717 150.704C10.0886 146.062 9.03854 138.502 11.1387 137.638C13.2389 136.773 11.6717 147.107 13.5054 150.587C14.3966 148.112 14.9593 145.531 15.1791 142.911C15.387 139.16 14.9232 133.187 16.549 131.627C18.1748 130.067 19.2462 131.097 17.727 139.404C16.8137 144.356 16.3375 149.377 16.3038 154.412C16.3038 154.412 19.7472 143.521 22.1672 143.165C24.5872 142.81 24.5978 146.348 22.5829 149.404C20.5681 152.46 16.6769 157.993 16.0586 160.81C16.0586 160.81 19.8805 152.592 23.4411 155.038C27.0018 157.483 20.4615 162.512 17.5404 164.337C14.6194 166.162 12.7111 177.356 12.7111 177.356L11.1387 176.947Z" fill="#08AF24"/>
<path opacity="0.7" d="M11.1387 176.947C11.1387 176.947 14.0704 170.364 10.5524 163.971C7.03433 157.579 6.02156 156.072 8.19635 154.719C10.3711 153.367 11.4585 159.828 11.4585 159.828C11.4585 159.828 13.2548 155.345 11.6717 150.704C10.0886 146.062 9.03854 138.502 11.1387 137.638C13.2389 136.773 11.6717 147.107 13.5054 150.587C14.3966 148.112 14.9593 145.531 15.1791 142.911C15.387 139.16 14.9232 133.187 16.549 131.627C18.1748 130.067 19.2462 131.097 17.727 139.404C16.8137 144.356 16.3375 149.377 16.3038 154.412C16.3038 154.412 19.7472 143.521 22.1672 143.165C24.5872 142.81 24.5978 146.348 22.5829 149.404C20.5681 152.46 16.6769 157.993 16.0586 160.81C16.0586 160.81 19.8805 152.592 23.4411 155.038C27.0018 157.483 20.4615 162.512 17.5404 164.337C14.6194 166.162 12.7111 177.356 12.7111 177.356L11.1387 176.947Z" fill="white"/>
<path d="M24.6725 172.252H0.451416L2.41298 189.504H22.7163L24.6725 172.252Z" fill="#08AF24"/>
<path d="M108.423 95.2989H73.9568V69.7927H95.63L97.5969 80.3761L108.423 84.7474V95.2989Z" fill="#263238"/>
<path opacity="0.1" d="M108.423 95.2989H73.9568V69.7927H95.63L97.5969 80.3761L108.423 84.7474V95.2989Z" fill="white"/>
<path opacity="0.1" d="M92.4318 95.2989H72.8907V69.7927H79.639L81.6059 80.3761L92.4318 84.7474V95.2989Z" fill="white"/>
<path opacity="0.2" d="M94.969 74.6574L94.388 71.5222H81.9363L82.5173 74.6574H94.969Z" fill="black"/>
<path opacity="0.2" d="M82.7786 76.058L83.1943 78.2967H95.646L95.2303 76.058H82.7786Z" fill="black"/>
<path opacity="0.3" d="M81.6058 80.3762H97.5969L108.423 84.7475H92.4318L81.6058 80.3762Z" fill="white"/>
<path d="M134.211 50.7905C137.58 52.4987 136.615 60.7214 128.001 76.0739L122.1 71.2994C123.503 66.5278 125.315 61.8848 127.516 57.4217C131.007 50.4935 134.211 50.7905 134.211 50.7905Z" fill="#08AF24"/>
<path opacity="0.4" d="M134.211 50.7905C137.58 52.4987 136.615 60.7214 128.001 76.0739L122.1 71.2994C123.503 66.5278 125.315 61.8848 127.516 57.4217C131.007 50.4935 134.211 50.7905 134.211 50.7905Z" fill="white"/>
<path d="M163.144 87.7448H140.224C138.044 99.6013 131.215 141.547 136.114 178.921L143.864 177.961C143.864 177.961 143.145 128.343 150.005 110.004C150.794 119.818 151.727 130.264 152.542 135.823C154.525 149.5 158.789 179.398 158.789 179.398H166.694C166.694 179.398 165.095 150.783 164.327 137.335C163.528 122.741 163.176 90.7261 163.144 87.7448Z" fill="#263238"/>
<path d="M132.569 50.9072C134.941 50.3767 147.452 47.5863 157.547 47.9789C157.547 47.9789 160.793 81.087 163.837 94.5456L137.436 99.1503C137.436 99.1503 131.508 66.2066 132.153 51.4059C132.158 51.2887 132.201 51.1762 132.276 51.086C132.351 50.9958 132.454 50.9329 132.569 50.9072Z" fill="#08AF24"/>
<path opacity="0.6" d="M132.569 50.9072C134.941 50.3767 147.452 47.5863 157.547 47.9789C157.547 47.9789 160.793 81.087 163.837 94.5456L137.436 99.1503C137.436 99.1503 131.508 66.2066 132.153 51.4059C132.158 51.2887 132.201 51.1762 132.276 51.086C132.351 50.9958 132.454 50.9329 132.569 50.9072Z" fill="white"/>
<path d="M155.191 47.5333C155.191 47.5333 152.169 60.1803 160.431 70.9228L162.472 84.4133L164.844 95.5855L151.711 99.0337L147.004 88.5458L146.529 100.126L136.077 101.644L134.941 88.3814C134.941 88.3814 133.134 77.9094 132.671 72.1589C132.671 72.1589 131.103 58.8328 133.545 50.3343L136.983 49.5969C136.983 49.5969 137.175 57.7188 142.398 64.2333C142.398 64.2333 147.356 51.2309 151.854 47.5492L155.191 47.5333Z" fill="#08AF24"/>
<path opacity="0.2" d="M155.191 47.5333C155.191 47.5333 152.169 60.1803 160.431 70.9228L162.472 84.4133L164.844 95.5855L151.711 99.0337L147.004 88.5458L146.529 100.126L136.077 101.644L134.941 88.3814C134.941 88.3814 133.134 77.9094 132.671 72.1589C132.671 72.1589 131.103 58.8328 133.545 50.3343L136.983 49.5969C136.983 49.5969 137.175 57.7188 142.398 64.2333C142.398 64.2333 147.356 51.2309 151.854 47.5492L155.191 47.5333Z" fill="black"/>
<path d="M123.225 68.8273C123.225 68.8273 121.658 73.0978 120.459 73.2357C119.259 73.3737 111.461 60.3553 111.461 60.3553C111.461 60.3553 110.566 57.7718 109.089 57.0716C107.613 56.3713 103.226 53.8886 102.096 54.4509C100.966 55.0133 101.563 59.3103 101.563 60.2864C101.563 61.1458 105.294 62.4084 106.413 62.6206C107.138 62.7694 107.89 62.703 108.577 62.4296C108.577 62.4296 114.83 77.7502 118.886 80.4345C122.943 83.1188 129.051 73.989 129.051 73.989L123.225 68.8273Z" fill="#EBB376"/>
<path d="M121.088 71.0024L122.196 70.1165L128.939 75.7927L127.857 77.7184L121.088 71.0024Z" fill="#08AF24"/>
<path opacity="0.3" d="M121.088 71.0024L122.196 70.1165L128.939 75.7927L127.857 77.7184L121.088 71.0024Z" fill="white"/>
<path d="M143.022 185.43L138.566 185.897L137.729 176.327L142.185 175.854L143.022 185.43Z" fill="#EBB376"/>
<path d="M165.281 185.106H160.959L160.601 175.144H164.924L165.281 185.106Z" fill="#EBB376"/>
<path d="M160.356 184.624H165.607C165.693 184.625 165.777 184.655 165.844 184.708C165.912 184.762 165.96 184.837 165.98 184.921L166.827 188.751C166.845 188.832 166.847 188.917 166.832 188.999C166.817 189.081 166.786 189.159 166.74 189.229C166.694 189.299 166.635 189.36 166.566 189.407C166.497 189.454 166.419 189.487 166.337 189.504C166.291 189.509 166.244 189.509 166.198 189.504C164.498 189.478 163.261 189.377 161.129 189.377C159.813 189.377 155.852 189.509 154.034 189.509C152.217 189.509 151.988 187.727 152.729 187.562C156.06 186.841 158.565 185.838 159.631 184.91C159.828 184.727 160.087 184.624 160.356 184.624Z" fill="#263238"/>
<path d="M158.928 185.366C158.635 185.387 158.344 185.309 158.102 185.143C158.023 185.08 157.963 184.999 157.924 184.906C157.886 184.813 157.872 184.712 157.883 184.613C157.882 184.554 157.899 184.497 157.93 184.447C157.961 184.397 158.006 184.357 158.059 184.332C158.539 184.082 159.935 184.937 160.09 185.037C160.107 185.046 160.121 185.06 160.129 185.077C160.138 185.094 160.141 185.114 160.138 185.133C160.135 185.153 160.126 185.172 160.113 185.188C160.1 185.204 160.083 185.216 160.063 185.223C159.69 185.308 159.31 185.356 158.928 185.366ZM158.288 184.47C158.242 184.469 158.196 184.48 158.155 184.502C158.128 184.502 158.091 184.539 158.086 184.618C158.078 184.686 158.086 184.754 158.111 184.818C158.135 184.882 158.174 184.939 158.224 184.984C158.709 185.206 159.26 185.234 159.765 185.064C159.314 184.775 158.813 184.574 158.288 184.47Z" fill="#08AF24"/>
<path d="M160.036 185.212H159.983C159.541 184.968 158.677 184.024 158.762 183.568C158.778 183.493 158.82 183.425 158.88 183.377C158.94 183.328 159.016 183.302 159.093 183.303C159.171 183.292 159.25 183.299 159.325 183.32C159.4 183.342 159.47 183.38 159.53 183.43C160.031 183.838 160.132 185.074 160.138 185.133C160.138 185.151 160.134 185.17 160.126 185.187C160.118 185.203 160.105 185.218 160.09 185.228C160.071 185.229 160.052 185.223 160.036 185.212ZM159.168 183.467H159.114C158.986 183.467 158.976 183.541 158.965 183.568C158.912 183.849 159.461 184.565 159.908 184.899C159.871 184.407 159.685 183.937 159.375 183.552C159.317 183.502 159.244 183.472 159.168 183.467Z" fill="#08AF24"/>
<path d="M138.091 184.47H143.331C143.417 184.472 143.499 184.502 143.566 184.556C143.632 184.61 143.679 184.684 143.699 184.767L144.552 188.597C144.587 188.762 144.555 188.933 144.463 189.074C144.371 189.215 144.227 189.315 144.061 189.35H143.923C142.222 189.318 140.986 189.218 138.854 189.218C137.537 189.218 133.571 189.356 131.759 189.356C129.947 189.356 129.707 187.568 130.453 187.403C133.785 186.682 136.29 185.679 137.356 184.751C137.556 184.567 137.819 184.466 138.091 184.47Z" fill="#263238"/>
<path d="M136.663 185.228C136.369 185.25 136.076 185.174 135.831 185.011C135.756 184.946 135.698 184.863 135.66 184.771C135.623 184.679 135.609 184.579 135.618 184.48C135.617 184.421 135.633 184.364 135.664 184.314C135.695 184.264 135.74 184.224 135.794 184.199C136.274 183.95 137.67 184.804 137.825 184.905C137.842 184.914 137.855 184.928 137.864 184.945C137.872 184.962 137.875 184.981 137.873 185C137.87 185.021 137.861 185.042 137.847 185.058C137.833 185.074 137.814 185.085 137.793 185.09C137.423 185.179 137.044 185.225 136.663 185.228ZM136.018 184.337C135.974 184.332 135.929 184.342 135.89 184.364C135.858 184.364 135.826 184.401 135.821 184.486C135.814 184.553 135.823 184.621 135.847 184.685C135.871 184.748 135.909 184.805 135.959 184.852C136.446 185.067 136.995 185.093 137.5 184.926C137.048 184.639 136.545 184.439 136.018 184.337Z" fill="#08AF24"/>
<path d="M137.766 185.074H137.718C137.271 184.836 136.412 183.886 136.498 183.43C136.514 183.355 136.555 183.287 136.616 183.239C136.676 183.19 136.751 183.164 136.828 183.165C136.906 183.154 136.984 183.16 137.059 183.183C137.134 183.206 137.202 183.245 137.26 183.297C137.761 183.701 137.868 184.937 137.873 184.995C137.873 185.013 137.868 185.032 137.86 185.048C137.852 185.065 137.84 185.079 137.825 185.09C137.804 185.091 137.784 185.085 137.766 185.074ZM136.898 183.329H136.85C136.716 183.329 136.706 183.403 136.7 183.43C136.647 183.711 137.196 184.427 137.644 184.761C137.606 184.269 137.421 183.8 137.111 183.414C137.05 183.364 136.976 183.334 136.898 183.329Z" fill="#08AF24"/>
<path opacity="0.2" d="M142.185 175.854L137.729 176.327L138.161 181.266L142.622 180.793L142.185 175.854Z" fill="black"/>
<path opacity="0.2" d="M164.924 175.149H160.601L160.788 180.284H165.116L164.924 175.149Z" fill="black"/>
<path d="M135.208 180.719L144.818 179.297L144.525 176.645L134.526 177.955L135.208 180.719Z" fill="#08AF24"/>
<path opacity="0.6" d="M135.208 180.719L144.818 179.297L144.525 176.645L134.526 177.955L135.208 180.719Z" fill="white"/>
<path d="M157.851 179.462H167.174V176.687L157.499 176.507L157.851 179.462Z" fill="#08AF24"/>
<path opacity="0.6" d="M157.851 179.462H167.174V176.687L157.499 176.507L157.851 179.462Z" fill="white"/>
<path opacity="0.2" d="M149.994 110.004C148.865 113.227 148.009 116.538 147.436 119.903C146.791 111.166 149.36 101.904 149.36 101.904L149.994 110.004Z" fill="black"/>
<path d="M149.125 48.2548C147.462 50.5465 142.265 50.9072 142.265 50.9072C142.265 50.9072 138.934 50.711 139.387 49.5916C141.178 48.8967 141.892 47.8463 142.052 46.6633C142.11 45.937 142.021 45.2064 141.791 44.5148C141.678 44.1254 141.543 43.7428 141.386 43.3689L146.647 37.4592C146.455 40.6846 146.641 46.4776 149.125 48.2548Z" fill="#EBB376"/>
<path opacity="0.2" d="M145.804 40.7006C146.338 44.4777 143.491 46.154 142.031 46.6792C142.089 45.9529 142 45.2223 141.769 44.5307L145.804 40.7006Z" fill="black"/>
<path d="M135.24 28.7166C135.24 28.7166 133.939 34.5521 136.94 37.0613C139.941 39.5705 140.671 28.5363 140.671 28.5363L135.24 28.7166Z" fill="#263238"/>
<path d="M145.778 42.3769C145.05 43.3065 144.036 43.9729 142.891 44.2738C141.746 44.5747 140.534 44.4935 139.44 44.0427C138.017 43.4856 136.86 42.4102 136.205 41.0348C136.108 40.8441 136.025 40.6474 135.954 40.4459C134.648 36.7325 134.584 30.3665 138.582 28.2445C139.463 27.7735 140.451 27.5348 141.451 27.5509C142.451 27.5671 143.431 27.8377 144.296 28.337C145.162 28.8362 145.884 29.5475 146.396 30.4033C146.907 31.259 147.19 32.2307 147.217 33.2259C147.404 37.4964 147.713 39.995 145.778 42.3769Z" fill="#EBB376"/>
<path d="M140.874 35.0826C140.933 35.4221 140.757 35.7245 140.527 35.751C140.298 35.7775 140.09 35.507 140.053 35.1622C140.016 34.8173 140.176 34.5203 140.399 34.499C140.623 34.4778 140.837 34.7325 140.874 35.0826Z" fill="#263238"/>
<path d="M136.935 35.4804C136.993 35.8199 136.812 36.1223 136.583 36.1488C136.354 36.1754 136.146 35.9048 136.109 35.5653C136.071 35.2258 136.231 34.9181 136.455 34.8969C136.679 34.8757 136.935 35.1568 136.935 35.4804Z" fill="#263238"/>
<path d="M138.219 35.5228C137.912 36.6203 137.456 37.6713 136.865 38.6474C137.121 38.7924 137.405 38.8798 137.698 38.9037C137.99 38.9275 138.285 38.8871 138.561 38.7854L138.219 35.5228Z" fill="#D58745"/>
<path d="M141.961 33.698C141.924 33.7061 141.886 33.7049 141.85 33.6948C141.814 33.6846 141.781 33.6657 141.753 33.6397C141.582 33.4511 141.369 33.3048 141.132 33.2127C140.894 33.1206 140.638 33.0852 140.383 33.1092C140.334 33.1101 140.285 33.0932 140.247 33.0616C140.209 33.0301 140.183 32.986 140.175 32.9372C140.166 32.8885 140.176 32.8383 140.201 32.7959C140.227 32.7535 140.267 32.7216 140.314 32.706C140.636 32.6722 140.962 32.7152 141.264 32.8315C141.566 32.9477 141.836 33.1338 142.052 33.3744C142.071 33.3932 142.086 33.4155 142.096 33.4401C142.107 33.4647 142.112 33.491 142.112 33.5177C142.112 33.5443 142.107 33.5707 142.096 33.5953C142.086 33.6198 142.071 33.6422 142.052 33.6609C142.024 33.6786 141.993 33.6912 141.961 33.698Z" fill="#263238"/>
<path d="M135.133 34.3081C135.093 34.3211 135.05 34.3211 135.011 34.3081C134.985 34.2992 134.962 34.2854 134.942 34.2675C134.922 34.2495 134.906 34.2278 134.895 34.2037C134.883 34.1795 134.877 34.1533 134.876 34.1266C134.874 34.0999 134.879 34.0732 134.888 34.0482C134.993 33.7422 135.17 33.4659 135.405 33.2425C135.639 33.019 135.925 32.8551 136.236 32.7644C136.262 32.758 136.289 32.7569 136.316 32.7609C136.342 32.7649 136.367 32.7741 136.39 32.7879C136.413 32.8017 136.433 32.8199 136.448 32.8413C136.464 32.8628 136.475 32.8871 136.482 32.9129C136.493 32.9656 136.483 33.0206 136.454 33.0661C136.425 33.1117 136.38 33.1443 136.327 33.1569C136.077 33.2362 135.85 33.3738 135.664 33.5584C135.479 33.743 135.341 33.9692 135.261 34.2179C135.231 34.2623 135.185 34.2944 135.133 34.3081Z" fill="#263238"/>
<path d="M143.55 28.2711L143.422 30.1597C143.748 30.2946 144.012 30.5468 144.16 30.8663C144.308 31.1857 144.33 31.549 144.221 31.8838C143.688 33.4753 144.754 35.889 146.002 36.8015C146.002 36.8015 146.002 36.1118 146.588 36.271C147.174 36.4301 147.212 39.9844 146.172 41.7298C146.172 41.7298 147.798 40.1011 148.56 36.3134C149.269 32.8121 149.221 29.9475 148.432 28.6266L143.55 28.2711Z" fill="#263238"/>
<path d="M149.434 36.5256C149.248 37.0264 148.963 37.4855 148.597 37.8761C148.231 38.2668 147.791 38.5813 147.302 38.8014C146.002 39.3902 145.133 38.2709 145.314 36.9447C145.479 35.7617 146.348 33.9898 147.745 33.9739C149.141 33.958 149.877 35.2842 149.434 36.5256Z" fill="#EBB376"/>
<path d="M143.422 30.1596C141.958 30.046 140.486 30.1896 139.072 30.584C137.846 30.9758 136.536 31.029 135.282 30.7378C135.282 30.7378 133.385 26.9183 135.895 24.6053C138.406 22.2924 142.606 23.1942 143.965 23.9794C145.325 24.7645 142.564 24.6319 142.564 24.6319C142.564 24.6319 147.009 25.4541 148.933 27.1358C150.858 28.8175 150.394 31.5866 149.999 32.0535C149.605 32.5203 149.253 31.4911 149.253 31.4911C148.429 31.9046 147.508 32.0879 146.588 32.0216C144.93 32.0004 145.623 30.5416 143.422 30.1596Z" fill="#263238"/>
<path d="M138.816 40.1754C139.109 40.6456 139.365 41.1367 139.584 41.6448C139.68 41.6257 139.774 41.6009 139.866 41.5706C141.156 41.2417 141.641 40.6634 141.791 40.1223C141.855 39.8573 141.855 39.581 141.791 39.316C141.761 39.1643 141.709 39.0177 141.636 38.881C140.933 39.4359 140.119 39.8356 139.248 40.0534L138.816 40.1754Z" fill="#263238"/>
<path d="M139.254 40.0534L139.493 40.4831C140.703 40.1648 141.514 39.7775 141.796 39.316C141.766 39.1643 141.714 39.0177 141.642 38.881C140.938 39.4359 140.124 39.8356 139.254 40.0534Z" fill="white"/>
<path d="M139.866 41.5706C141.156 41.2417 141.641 40.6634 141.791 40.1223C141.304 40.2576 140.845 40.4786 140.437 40.7748C140.168 40.974 139.968 41.2523 139.866 41.5706Z" fill="#DE5753"/>
<path d="M147.803 46.5731C146.477 48.2625 144.789 49.6363 142.862 50.5943C142.246 49.794 141.829 48.8594 141.647 47.8675C140.608 48.3583 139.651 49.0061 138.811 49.7879C138.943 51.0285 139.374 52.2189 140.069 53.2573L142.771 51.3317L146.05 53.7136C146.05 53.7136 150.357 50.9444 151.321 48.1009L147.803 46.5731Z" fill="#08AF24"/>
<path opacity="0.4" d="M147.803 46.5731C146.477 48.2625 144.789 49.6363 142.862 50.5943C142.246 49.794 141.829 48.8594 141.647 47.8675C140.608 48.3583 139.651 49.0061 138.811 49.7879C138.943 51.0285 139.374 52.2189 140.069 53.2573L142.771 51.3317L146.05 53.7136C146.05 53.7136 150.357 50.9444 151.321 48.1009L147.803 46.5731Z" fill="white"/>
<path d="M113.78 68.1431C110.145 67.8778 110.619 70.8698 111.269 73.013L114.094 79.3789L119.84 79.172C119.84 79.172 117.415 68.403 113.78 68.1431ZM113.519 75.6018C112.676 74.2225 110.246 69.9255 112.831 69.1881C115.416 68.4508 118.47 74.1748 117.735 76.3763C116.999 78.5779 115.187 78.3339 113.519 75.6018Z" fill="#08AF24"/>
<path opacity="0.5" d="M113.78 68.1431C110.145 67.8778 110.619 70.8698 111.269 73.013L114.094 79.3789L119.84 79.172C119.84 79.172 117.415 68.403 113.78 68.1431ZM113.519 75.6018C112.676 74.2225 110.246 69.9255 112.831 69.1881C115.416 68.4508 118.47 74.1748 117.735 76.3763C116.999 78.5779 115.187 78.3339 113.519 75.6018Z" fill="white"/>
<path d="M112.724 79.0021L114.515 72.3975L123.215 74.5884L120.992 85.506L112.724 79.0021Z" fill="#08AF24"/>
<path d="M122.426 84.2488L120.315 71.0342L125.586 68.6682L129.739 71.0342L130.176 84.8801L122.426 84.2488Z" fill="#08AF24"/>
<path opacity="0.2" d="M122.426 84.2488L120.315 71.0342L125.586 68.6682L129.739 71.0342L130.176 84.8801L122.426 84.2488Z" fill="black"/>
<path d="M126.221 80.3125C126.221 80.3125 129.121 62.2757 131.231 61.6868C133.342 61.098 135.288 63.8937 135.288 63.8937C135.288 63.8937 133.491 75.6441 132.175 79.8085C130.858 83.9729 126.221 80.3125 126.221 80.3125Z" fill="#08AF24"/>
<path opacity="0.8" d="M126.221 80.3125C126.221 80.3125 129.121 62.2757 131.231 61.6868C133.342 61.098 135.288 63.8937 135.288 63.8937C135.288 63.8937 133.491 75.6441 132.175 79.8085C130.858 83.9729 126.221 80.3125 126.221 80.3125Z" fill="white"/>
<path d="M133.337 80.928C133.337 78.2755 136.855 70.8486 132.479 70.1165C128.102 69.3844 124.622 77.2888 119.686 77.2729C114.75 77.2569 111.253 73.0289 111.253 73.0289L112.01 74.5939C112.01 74.5939 102.495 93.124 107.031 94.9648C111.253 96.673 134.947 94.9648 134.947 94.9648C138.411 92.5988 133.337 83.5857 133.337 80.928ZM132.804 78.1853C132.271 78.3179 129.749 75.6018 129.749 75.6018C129.536 70.6788 132.228 70.3446 133.545 71.761C134.861 73.1774 133.337 78.058 132.809 78.1853H132.804Z" fill="#08AF24"/>
<path opacity="0.7" d="M133.337 80.928C133.337 78.2755 136.855 70.8486 132.479 70.1165C128.102 69.3844 124.622 77.2888 119.686 77.2729C114.75 77.2569 111.253 73.0289 111.253 73.0289L112.01 74.5939C112.01 74.5939 102.495 93.124 107.031 94.9648C111.253 96.673 134.947 94.9648 134.947 94.9648C138.411 92.5988 133.337 83.5857 133.337 80.928ZM132.804 78.1853C132.271 78.3179 129.749 75.6018 129.749 75.6018C129.536 70.6788 132.228 70.3446 133.545 71.761C134.861 73.1774 133.337 78.058 132.809 78.1853H132.804Z" fill="white"/>
<path opacity="0.6" d="M151.568 65.195L146.226 65.766L146.619 69.4055L151.961 68.8345L151.568 65.195Z" fill="white"/>
<path d="M147.969 63.7876L148.502 65.5435C148.534 65.6541 148.606 65.7489 148.705 65.8096C148.803 65.8704 148.921 65.8927 149.035 65.8724C149.136 65.8565 149.229 65.8087 149.301 65.7362C149.373 65.6636 149.42 65.5701 149.434 65.4692L149.717 63.4321L147.969 63.7876Z" fill="#08AF24"/>
<path opacity="0.4" d="M147.969 63.7876L148.502 65.5435C148.534 65.6541 148.606 65.7489 148.705 65.8096C148.803 65.8704 148.921 65.8927 149.035 65.8724C149.136 65.8565 149.229 65.8087 149.301 65.7362C149.373 65.6636 149.42 65.5701 149.434 65.4692L149.717 63.4321L147.969 63.7876Z" fill="black"/>
<path d="M151.897 68.7954C151.897 68.7954 149.914 74.721 149.061 76.0101C148.208 77.2992 126.221 82.9596 126.221 82.9596C126.221 82.9596 124.376 82.0259 123.214 82.1267C122.052 82.2275 117.522 83.2779 117.415 84.1161C117.308 84.9542 119.739 88.7314 120.315 89.0444C120.89 89.3574 126.711 88.4873 127.329 86.9807C127.329 86.9807 149.786 82.9702 151.897 82.1267C154.008 81.2832 158.533 71.3153 158.533 71.3153L151.897 68.7954Z" fill="#EBB376"/>
<path d="M157.547 47.979C160.948 48.2071 163.917 55.4961 163.336 61.374C162.755 67.2519 157.323 77.2888 157.323 77.2888L149.733 73.5754C149.733 73.5754 151.631 66.854 153.795 60.4881C155.959 54.1221 154.978 47.804 157.547 47.979Z" fill="#08AF24"/>
<path opacity="0.4" d="M157.547 47.979C160.948 48.2071 163.917 55.4961 163.336 61.374C162.755 67.2519 157.323 77.2888 157.323 77.2888L149.733 73.5754C149.733 73.5754 151.631 66.854 153.795 60.4881C155.959 54.1221 154.978 47.804 157.547 47.979Z" fill="white"/>
<path d="M148.827 74.2384L149.669 73.0129L158.533 75.9943L158.075 78.1853L148.827 74.2384Z" fill="#08AF24"/>
<path opacity="0.3" d="M148.827 74.2384L149.669 73.0129L158.533 75.9943L158.075 78.1853L148.827 74.2384Z" fill="white"/>
<path d="M78.8341 85.9888H94.4307C94.6838 85.9888 94.9265 86.0888 95.1054 86.2669C95.2843 86.445 95.3849 86.6865 95.3849 86.9383V95.6703H77.88V86.933C77.8814 86.6821 77.9826 86.442 78.1613 86.265C78.3401 86.0881 78.582 85.9888 78.8341 85.9888Z" fill="#08AF24"/>
<path opacity="0.3" d="M95.3582 86.933V95.665H77.88V86.933C77.88 86.6826 77.98 86.4424 78.1579 86.2653C78.3358 86.0883 78.5772 85.9888 78.8288 85.9888H94.4307C94.6786 85.9943 94.9145 86.0962 95.0879 86.2727C95.2612 86.4492 95.3583 86.6862 95.3582 86.933Z" fill="white"/>
<path opacity="0.4" d="M91.0939 86.933V95.665H77.88V86.933C77.88 86.6826 77.98 86.4424 78.1579 86.2653C78.3358 86.0883 78.5772 85.9888 78.8288 85.9888H90.1664C90.4144 85.9943 90.6503 86.0962 90.8236 86.2727C90.997 86.4492 91.094 86.6862 91.0939 86.933Z" fill="white"/>
<path d="M188.788 98.2644H66.7661V189.504H188.788V98.2644Z" fill="#08AF24"/>
<path opacity="0.3" d="M188.788 98.2644H66.7661V189.504H188.788V98.2644Z" fill="white"/>
<path opacity="0.4" d="M157.126 98.2644H66.7661V189.504H157.126V98.2644Z" fill="white"/>
<path d="M189.721 94.9065H66.3131C65.8539 94.9065 65.4816 95.277 65.4816 95.7341V99.3573C65.4816 99.8144 65.8539 100.185 66.3131 100.185H189.721C190.18 100.185 190.553 99.8144 190.553 99.3573V95.7341C190.553 95.277 190.18 94.9065 189.721 94.9065Z" fill="#08AF24"/>
<path opacity="0.2" d="M157.739 94.9065H66.3131C65.8539 94.9065 65.4816 95.277 65.4816 95.7341V99.3573C65.4816 99.8144 65.8539 100.185 66.3131 100.185H157.739C158.198 100.185 158.571 99.8144 158.571 99.3573V95.7341C158.571 95.277 158.198 94.9065 157.739 94.9065Z" fill="white"/>
<path d="M206.139 176.353C206.248 176.123 206.301 175.871 206.293 175.617C206.284 175.363 206.214 175.115 206.09 174.893C205.965 174.671 205.789 174.482 205.576 174.342C205.363 174.202 205.119 174.115 204.865 174.088C205.09 173.435 205.109 172.728 204.918 172.064C204.728 171.4 204.337 170.81 203.799 170.374C203.672 170.256 203.508 170.183 203.335 170.167C203.148 170.188 202.972 170.264 202.829 170.385L199.86 172.507C199.619 172.65 199.416 172.848 199.268 173.085C198.66 174.258 200.867 175.738 199.95 176.724C199.694 177 199.279 177.059 198.954 177.255C198.245 177.695 198.159 178.661 197.834 179.425C197.509 180.189 196.352 180.777 195.915 180.072C196.24 179.34 195.254 178.714 194.46 178.618C193.666 178.523 192.829 178.48 192.387 177.738C191.251 178.719 188.719 175.976 188.778 174.868C187.845 174.937 187.211 175.807 187.008 176.671C186.878 177.585 186.845 178.51 186.912 179.43C186.886 181.228 186.305 182.984 186.337 184.777C186.337 186.172 186.902 187.721 188.186 188.284C188.823 188.511 189.5 188.601 190.174 188.549L204.796 188.459C205.147 188.481 205.499 188.423 205.824 188.289C206.485 187.944 206.624 187.08 206.688 186.342L207.471 176.862L206.139 176.353Z" fill="#08AF24"/>
<path opacity="0.3" d="M206.139 176.353C206.248 176.123 206.301 175.871 206.293 175.617C206.284 175.363 206.214 175.115 206.09 174.893C205.965 174.671 205.789 174.482 205.576 174.342C205.363 174.202 205.119 174.115 204.865 174.088C205.09 173.435 205.109 172.728 204.918 172.064C204.728 171.4 204.337 170.81 203.799 170.374C203.672 170.256 203.508 170.183 203.335 170.167C203.148 170.188 202.972 170.264 202.829 170.385L199.86 172.507C199.619 172.65 199.416 172.848 199.268 173.085C198.66 174.258 200.867 175.738 199.95 176.724C199.694 177 199.279 177.059 198.954 177.255C198.245 177.695 198.159 178.661 197.834 179.425C197.509 180.189 196.352 180.777 195.915 180.072C196.24 179.34 195.254 178.714 194.46 178.618C193.666 178.523 192.829 178.48 192.387 177.738C191.251 178.719 188.719 175.976 188.778 174.868C187.845 174.937 187.211 175.807 187.008 176.671C186.878 177.585 186.845 178.51 186.912 179.43C186.886 181.228 186.305 182.984 186.337 184.777C186.337 186.172 186.902 187.721 188.186 188.284C188.823 188.511 189.5 188.601 190.174 188.549L204.796 188.459C205.147 188.481 205.499 188.423 205.824 188.289C206.485 187.944 206.624 187.08 206.688 186.342L207.471 176.862L206.139 176.353Z" fill="white"/>
<path d="M206.992 160.974H184.306L184.492 163.255L184.625 164.884L184.972 169.128L185.169 171.563L185.43 174.804L185.542 176.194L185.58 176.608L185.713 178.242L185.894 180.48L186.006 181.87L186.123 183.281L186.257 184.915L186.358 186.151L186.47 187.541L186.518 188.146H207.338L207.386 187.541L207.498 186.157L207.599 184.91L207.733 183.276L207.85 181.87L207.962 180.48L208.143 178.236L208.276 176.608L208.308 176.194L208.42 174.804L208.687 171.563L208.884 169.133L209.225 164.889L209.358 163.26L209.545 160.979L206.992 160.974ZM208.356 162.47L207.919 162.035H208.394L208.356 162.47ZM208.244 163.855L208.202 164.385L206.171 166.406L203.841 164.088L205.926 162.014H206.416L208.244 163.855ZM207.658 171.08L206.171 172.56L203.841 170.242L206.171 167.929L207.77 169.52L207.658 171.08ZM186.07 169.531L187.669 167.939L189.998 170.252L187.669 172.571L186.187 171.091L186.07 169.531ZM205.419 167.175L203.09 169.494L200.76 167.175L203.09 164.857L205.419 167.175ZM201.757 162.035H204.422L203.09 163.361L201.757 162.035ZM202.333 170.242L200.009 172.56L197.701 170.242L200.03 167.929L202.333 170.242ZM194.599 173.308L196.928 170.995L199.252 173.308L196.928 175.605L194.599 173.308ZM196.171 176.374L193.842 178.692L191.518 176.38L193.847 174.061L196.171 176.374ZM200.009 174.061L202.333 176.38L200.009 178.692L197.701 176.374L200.009 174.061ZM196.928 169.494L194.599 167.175L196.928 164.857L199.252 167.175L196.928 169.494ZM196.171 170.242L193.847 172.56L191.518 170.242L193.847 167.929L196.171 170.242ZM190.771 169.494L188.447 167.175L190.771 164.857L193.101 167.175L190.771 169.494ZM190.771 170.995L193.101 173.308L190.771 175.605L188.447 173.287L190.771 170.995ZM193.101 179.446L190.771 181.759L188.447 179.446L190.771 177.128L193.101 179.446ZM193.852 180.194L196.182 182.512L193.858 184.83L191.518 182.501L193.852 180.194ZM194.609 179.446L196.939 177.128L199.263 179.446L196.939 181.759L194.609 179.446ZM200.02 180.194L202.344 182.512L200.02 184.83L197.701 182.501L200.02 180.194ZM203.1 183.26L205.43 185.578L203.921 187.08H202.28L200.771 185.578L203.1 183.26ZM200.771 179.446L203.1 177.128L205.43 179.446L203.1 181.759L200.771 179.446ZM200.771 173.308L203.1 170.995L205.43 173.308L203.09 175.605L200.771 173.308ZM202.344 164.109L200.02 166.427L197.701 164.109L199.785 162.035H200.275L202.344 164.109ZM196.939 163.361L195.606 162.035H198.271L196.939 163.361ZM196.182 164.109L193.858 166.427L191.528 164.109L193.612 162.035H194.103L196.182 164.109ZM192.104 162.035L190.771 163.361L189.444 162.035H192.104ZM187.936 162.035L190.02 164.109L187.69 166.427L185.665 164.406L185.622 163.876L187.445 162.056L187.936 162.035ZM185.942 162.035L185.51 162.465L185.473 162.035H185.942ZM185.798 166.04L186.939 167.175L185.974 168.141L185.798 166.04ZM186.432 173.812L186.342 172.714L186.939 173.308L186.406 173.812H186.432ZM186.544 175.207L187.69 174.061L190.02 176.38L187.69 178.692L186.752 177.759L186.544 175.207ZM186.891 179.494V179.393L186.944 179.446L186.896 179.494H186.891ZM187.296 184.432L187.003 180.878L187.69 180.194L190.02 182.512L187.69 184.825L187.296 184.432ZM187.509 187.085L187.467 186.554L187.69 186.332L188.447 187.085H187.509ZM188.447 185.584L190.771 183.265L193.101 185.584L191.592 187.085H189.95L188.447 185.584ZM193.101 187.085L193.858 186.332L194.615 187.085H193.101ZM196.118 187.085L194.609 185.584L196.939 183.265L199.263 185.584L197.759 187.085H196.118ZM199.263 187.085L200.02 186.332L200.776 187.085H199.263ZM206.363 187.085H205.424L206.181 186.332L206.405 186.554L206.363 187.085ZM206.581 184.432L206.181 184.825L203.841 182.501L206.171 180.183L206.858 180.868L206.581 184.432ZM206.992 179.387V179.494L206.944 179.446L207.002 179.387H206.992ZM207.125 177.759L206.181 178.692L203.852 176.38L206.181 174.061L207.333 175.207L207.125 177.759ZM207.445 173.817L206.912 173.287L207.514 172.693L207.445 173.817ZM208.068 166.056L207.898 168.178L206.922 167.207L208.068 166.067V166.056Z" fill="#08AF24"/>
<g opacity="0.6">
<path opacity="0.6" d="M206.992 160.974H184.306L184.492 163.255L184.625 164.884L184.972 169.128L185.169 171.563L185.43 174.804L185.542 176.194L185.58 176.608L185.713 178.242L185.894 180.48L186.006 181.87L186.123 183.281L186.257 184.915L186.358 186.151L186.47 187.541L186.518 188.146H207.338L207.386 187.541L207.498 186.157L207.599 184.91L207.733 183.276L207.85 181.87L207.962 180.48L208.143 178.236L208.276 176.608L208.308 176.194L208.42 174.804L208.687 171.563L208.884 169.133L209.225 164.889L209.358 163.26L209.545 160.979L206.992 160.974ZM208.356 162.47L207.919 162.035H208.394L208.356 162.47ZM208.244 163.855L208.202 164.385L206.171 166.406L203.841 164.088L205.926 162.014H206.416L208.244 163.855ZM207.658 171.08L206.171 172.56L203.841 170.242L206.171 167.929L207.77 169.52L207.658 171.08ZM186.07 169.531L187.669 167.939L189.998 170.252L187.669 172.571L186.187 171.091L186.07 169.531ZM205.419 167.175L203.09 169.494L200.76 167.175L203.09 164.857L205.419 167.175ZM201.757 162.035H204.422L203.09 163.361L201.757 162.035ZM202.333 170.242L200.009 172.56L197.701 170.242L200.03 167.929L202.333 170.242ZM194.599 173.308L196.928 170.995L199.252 173.308L196.928 175.605L194.599 173.308ZM196.171 176.374L193.842 178.692L191.518 176.38L193.847 174.061L196.171 176.374ZM200.009 174.061L202.333 176.38L200.009 178.692L197.701 176.374L200.009 174.061ZM196.928 169.494L194.599 167.175L196.928 164.857L199.252 167.175L196.928 169.494ZM196.171 170.242L193.847 172.56L191.518 170.242L193.847 167.929L196.171 170.242ZM190.771 169.494L188.447 167.175L190.771 164.857L193.101 167.175L190.771 169.494ZM190.771 170.995L193.101 173.308L190.771 175.605L188.447 173.287L190.771 170.995ZM193.101 179.446L190.771 181.759L188.447 179.446L190.771 177.128L193.101 179.446ZM193.852 180.194L196.182 182.512L193.858 184.83L191.518 182.501L193.852 180.194ZM194.609 179.446L196.939 177.128L199.263 179.446L196.939 181.759L194.609 179.446ZM200.02 180.194L202.344 182.512L200.02 184.83L197.701 182.501L200.02 180.194ZM203.1 183.26L205.43 185.578L203.921 187.08H202.28L200.771 185.578L203.1 183.26ZM200.771 179.446L203.1 177.128L205.43 179.446L203.1 181.759L200.771 179.446ZM200.771 173.308L203.1 170.995L205.43 173.308L203.09 175.605L200.771 173.308ZM202.344 164.109L200.02 166.427L197.701 164.109L199.785 162.035H200.275L202.344 164.109ZM196.939 163.361L195.606 162.035H198.271L196.939 163.361ZM196.182 164.109L193.858 166.427L191.528 164.109L193.612 162.035H194.103L196.182 164.109ZM192.104 162.035L190.771 163.361L189.444 162.035H192.104ZM187.936 162.035L190.02 164.109L187.69 166.427L185.665 164.406L185.622 163.876L187.445 162.056L187.936 162.035ZM185.942 162.035L185.51 162.465L185.473 162.035H185.942ZM185.798 166.04L186.939 167.175L185.974 168.141L185.798 166.04ZM186.432 173.812L186.342 172.714L186.939 173.308L186.406 173.812H186.432ZM186.544 175.207L187.69 174.061L190.02 176.38L187.69 178.692L186.752 177.759L186.544 175.207ZM186.891 179.494V179.393L186.944 179.446L186.896 179.494H186.891ZM187.296 184.432L187.003 180.878L187.69 180.194L190.02 182.512L187.69 184.825L187.296 184.432ZM187.509 187.085L187.467 186.554L187.69 186.332L188.447 187.085H187.509ZM188.447 185.584L190.771 183.265L193.101 185.584L191.592 187.085H189.95L188.447 185.584ZM193.101 187.085L193.858 186.332L194.615 187.085H193.101ZM196.118 187.085L194.609 185.584L196.939 183.265L199.263 185.584L197.759 187.085H196.118ZM199.263 187.085L200.02 186.332L200.776 187.085H199.263ZM206.363 187.085H205.424L206.181 186.332L206.405 186.554L206.363 187.085ZM206.581 184.432L206.181 184.825L203.841 182.501L206.171 180.183L206.858 180.868L206.581 184.432ZM206.992 179.387V179.494L206.944 179.446L207.002 179.387H206.992ZM207.125 177.759L206.181 178.692L203.852 176.38L206.181 174.061L207.333 175.207L207.125 177.759ZM207.445 173.817L206.912 173.287L207.514 172.693L207.445 173.817ZM208.068 166.056L207.898 168.178L206.922 167.207L208.068 166.067V166.056Z" fill="white"/>
</g>
<path d="M183.73 162.979H210.126C210.609 162.979 211 162.59 211 162.109V160.894C211 160.414 210.609 160.024 210.126 160.024H183.73C183.247 160.024 182.856 160.414 182.856 160.894V162.109C182.856 162.59 183.247 162.979 183.73 162.979Z" fill="#08AF24"/>
<path d="M208.095 186.554H185.756C185.273 186.554 184.881 186.944 184.881 187.424V188.639C184.881 189.12 185.273 189.509 185.756 189.509H208.095C208.578 189.509 208.969 189.12 208.969 188.639V187.424C208.969 186.944 208.578 186.554 208.095 186.554Z" fill="#08AF24"/>
<path d="M64.794 79.6548C66.633 80.2277 66.9261 90.8641 66.9261 90.8641H65.8601C65.8601 90.8641 66.3931 79.5911 63.6479 79.9412L64.794 79.6548Z" fill="#263238"/>
<path opacity="0.2" d="M64.794 79.6548C66.633 80.2277 66.9261 90.8641 66.9261 90.8641H65.8601C65.8601 90.8641 66.3931 79.5911 63.6479 79.9412L64.794 79.6548Z" fill="black"/>
<path d="M67.1127 180.284L63.7492 180.873L62.3687 176.311L61.1107 172.125L64.9912 170.778L66.1159 175.812L67.1127 180.284Z" fill="#E4897B"/>
<path opacity="0.2" d="M66.1319 175.913L62.3846 176.406L61.1213 172.173L64.9912 170.799L66.1319 175.913Z" fill="black"/>
<path d="M44.6666 181.828H41.2499L40.6902 177.038L40.1838 172.672L44.2349 172.003L44.4641 177.202L44.6666 181.828Z" fill="#E4897B"/>
<path opacity="0.2" d="M44.4641 177.244L40.6902 177.08L40.1838 172.693L44.2349 172.014L44.4641 177.244Z" fill="black"/>
<path d="M49.2933 188.554C48.7495 188.12 48.1321 187.786 47.4704 187.568C47.4704 187.568 45.4875 185.61 44.5333 179.716L41.9375 179.043C41.4968 178.938 41.0345 178.97 40.6124 179.134C40.1904 179.298 39.8288 179.586 39.5761 179.96C39.5041 180.065 39.4484 180.179 39.4109 180.3C39.2764 180.932 39.1838 181.571 39.1337 182.215C38.8725 184.21 39.0964 188.687 39.0964 188.687H39.5655L39.752 184.624C39.8213 183.244 40.882 184.862 41.1859 186.348C41.4897 187.833 42.1347 189.414 45.173 189.488C48.7177 189.557 50.1888 189.398 49.2933 188.554Z" fill="#263238"/>
<path d="M71.9473 188.157C71.4034 187.722 70.7861 187.388 70.1243 187.17C70.1243 187.17 68.1414 185.212 67.1873 179.318L64.5914 178.645C64.1507 178.54 63.6884 178.572 63.2664 178.736C62.8443 178.9 62.4828 179.188 62.23 179.563C62.1581 179.667 62.1023 179.781 62.0648 179.902C61.9304 180.534 61.8378 181.173 61.7876 181.817C61.5264 183.812 61.7503 188.289 61.7503 188.289H62.2194L62.4059 184.226C62.4752 182.846 63.536 184.464 63.8398 185.95C64.1436 187.435 64.7886 189.016 67.8269 189.09C71.3716 189.159 72.8428 189.021 71.9473 188.157Z" fill="#263238"/>
<path d="M66.4517 173.26L60.9242 174.226C55.3433 160.396 51.3775 148.852 48.5737 139.272C47.0653 134.105 45.8073 129.511 44.9065 125.431L45.0717 140.486V174.401H39.6241C25.9731 109.681 35.6477 94.9277 35.6477 94.9277L51.9852 92.2222C52.6286 95.2292 53.0843 98.273 53.3497 101.336L54.0853 106.726L60.4817 139.553L66.4517 173.26Z" fill="#08AF24"/>
<g opacity="0.4">
<path opacity="0.4" d="M66.4517 173.26L60.9242 174.226C55.3433 160.396 51.3775 148.852 48.5737 139.272C47.0653 134.105 45.8073 129.511 44.9065 125.431L45.0717 140.486V174.401H39.6241C25.9731 109.681 35.6477 94.9277 35.6477 94.9277L51.9852 92.2222C52.6286 95.2292 53.0843 98.273 53.3497 101.336L54.0853 106.726L60.4817 139.553L66.4517 173.26Z" fill="white"/>
</g>
<path d="M71.3237 76.2437L76.8353 70.8221C76.8353 70.8221 77.0272 69.3685 77.5602 68.9653C78.0933 68.5622 81.8778 67.1935 82.3575 67.4959C82.8373 67.7983 83.4609 70.8433 82.816 71.4003C82.171 71.9573 78.7276 72.6682 78.3758 72.6098L72.4111 79.6548L71.3237 76.2437Z" fill="#EEC1BB"/>
<path d="M51.58 66.3605C53.9574 67.6177 62.3953 79.3576 63.6426 79.9411C64.8899 80.5247 74.3886 72.8537 74.3886 72.8537L75.9877 75.5752C75.9877 75.5752 68.1734 86.5405 63.7865 86.01C59.3996 85.4795 50.9351 76.1958 50.9351 76.1958L51.58 66.3605Z" fill="#263238"/>
<path opacity="0.4" d="M51.58 66.3605C53.9574 67.6177 62.3953 79.3576 63.6426 79.9411C64.8899 80.5247 74.3886 72.8537 74.3886 72.8537L75.9877 75.5752C75.9877 75.5752 68.1734 86.5405 63.7865 86.01C59.3996 85.4795 50.9351 76.1958 50.9351 76.1958L51.58 66.3605Z" fill="white"/>
<path d="M73.8662 73.1456L74.5219 72.5249L76.2542 75.4426L75.6359 76.6362L73.8662 73.1456Z" fill="#08AF24"/>
<path opacity="0.2" d="M54.3145 79.6229C52.3423 77.7503 50.9244 76.1959 50.9244 76.1959L51.0737 73.8618L51.8146 71.5966C52.8344 72.6457 53.5919 73.9188 54.0262 75.3131C54.4605 76.7073 54.5592 78.1837 54.3145 79.6229Z" fill="black"/>
<path opacity="0.2" d="M48.5738 139.272C47.0653 134.105 45.9086 129.511 44.9865 125.431C45.0665 120.602 45.4225 115.78 46.0525 110.991C46.0525 110.991 48.4512 129.611 48.5738 139.272Z" fill="black"/>
<path d="M52.3743 91.2195C53.0406 79.5486 52.7475 73.119 52.4436 69.9095C52.1078 66.4878 51.5801 66.3605 51.5801 66.3605C51.5801 66.3605 47.8489 65.9998 44.6134 66.0263C42.1102 66.1105 39.6164 66.3728 37.1509 66.8114C34.8043 67.1998 32.4885 67.7547 30.2214 68.4719C30.5981 69.5329 30.9446 70.5514 31.2609 71.5275C31.6873 72.7901 32.0657 73.9678 32.4069 75.0606C33.0518 77.1136 33.5476 78.8855 33.9473 80.4717C34.9641 84.4662 35.559 88.5555 35.7224 92.673C35.7224 92.673 31.618 103.336 30.8184 111.161L44.4108 112.62L46.2764 104.795L48.142 112.885L55.7378 110.232L52.3743 91.2195Z" fill="#263238"/>
<path opacity="0.4" d="M52.3743 91.2195C53.0406 79.5486 52.7475 73.119 52.4436 69.9095C52.1078 66.4878 51.5801 66.3605 51.5801 66.3605C51.5801 66.3605 47.8489 65.9998 44.6134 66.0263C42.1102 66.1105 39.6164 66.3728 37.1509 66.8114C34.8043 67.1998 32.4885 67.7547 30.2214 68.4719C30.5981 69.5329 30.9446 70.5514 31.2609 71.5275C31.6873 72.7901 32.0657 73.9678 32.4069 75.0606C33.0518 77.1136 33.5476 78.8855 33.9473 80.4717C34.9641 84.4662 35.559 88.5555 35.7224 92.673C35.7224 92.673 31.618 103.336 30.8184 111.161L44.4108 112.62L46.2764 104.795L48.142 112.885L55.7378 110.232L52.3743 91.2195Z" fill="white"/>
<path d="M38.3236 65.411C38.3236 65.411 40.2798 63.8566 43.7765 65.098L44.2509 66.8699C44.2509 66.8699 41.2499 67.9998 39.7361 67.7027C38.2223 67.4057 38.3236 65.411 38.3236 65.411Z" fill="#08AF24"/>
<path opacity="0.2" d="M38.3236 65.411C38.3236 65.411 40.2798 63.8566 43.7765 65.098L44.2509 66.8699C44.2509 66.8699 41.2499 67.9998 39.7361 67.7027C38.2223 67.4057 38.3236 65.411 38.3236 65.411Z" fill="black"/>
<path opacity="0.2" d="M34.5922 83.3312C34.411 82.4399 34.1978 81.4904 33.9366 80.4718C33.7714 79.8246 33.5901 79.1456 33.4036 78.4241C33.9366 76.6151 34.4696 78.0262 34.4696 78.0262C34.8013 79.776 34.8428 81.5681 34.5922 83.3312Z" fill="black"/>
<path d="M44.4267 66.7371C44.2542 66.6526 44.0761 66.5799 43.8937 66.5196C43.5099 66.2172 43.0462 65.4905 43.0675 63.7239C43.0811 63.0288 43.1453 62.3356 43.2594 61.6497L38.3235 60.7319C38.3235 60.7319 40.0079 64.0422 38.6006 66.5037C38.1209 66.7159 37.8331 67.0342 37.881 67.4162C38.2542 70.2596 44.3894 73.0076 44.3894 73.0076C44.3894 73.0076 47.3851 68.3657 44.4267 66.7371Z" fill="#EEC1BB"/>
<path opacity="0.2" d="M43.2807 61.6497C43.1666 62.3356 43.1025 63.0288 43.0888 63.7239C39.752 63.7239 38.3395 60.7319 38.3395 60.7319L43.2807 61.6497Z" fill="black"/>
<path d="M41.074 45.4219C41.074 45.4219 46.8521 44.6951 47.9181 49.3476C48.2278 50.6669 48.1541 52.0467 47.7059 53.326C47.2576 54.6052 46.4531 55.7313 45.3862 56.5729L41.074 45.4219Z" fill="#263238"/>
<path d="M40.5516 47.8993C44.8479 47.6659 46.3564 49.878 46.9107 54.2652C47.609 59.7505 46.5962 63.7292 41.1593 62.8486C33.7767 61.6497 33.4143 48.2866 40.5516 47.8993Z" fill="#EEC1BB"/>
<path d="M44.1229 54.1804C44.502 54.8 44.9548 55.3717 45.4715 55.8833C45.3538 56.0648 45.1879 56.2104 44.9923 56.304C44.7966 56.3976 44.5788 56.4356 44.3628 56.4138L44.1229 54.1804Z" fill="#D4827D"/>
<path d="M41.4738 53.9736C41.5004 54.3237 41.3298 54.6208 41.0953 54.642C40.8608 54.6632 40.6476 54.3927 40.6209 54.0372C40.5943 53.6818 40.7648 53.39 40.9994 53.3688C41.2339 53.3476 41.4471 53.6235 41.4738 53.9736Z" fill="#263238"/>
<path d="M40.9033 53.3953L41.6442 53.0345C41.6442 53.0345 41.3138 53.7083 40.9033 53.3953Z" fill="#263238"/>
<path d="M45.8499 53.5598C45.8499 53.9099 45.706 54.207 45.4715 54.2282C45.2369 54.2494 45.0237 53.9736 44.9971 53.6234C44.9704 53.2733 45.1357 52.9762 45.3755 52.955C45.6154 52.9338 45.8233 53.2096 45.8499 53.5598Z" fill="#263238"/>
<path d="M45.2529 52.9815L45.9992 52.6207C45.9992 52.6207 45.69 53.2945 45.2529 52.9815Z" fill="#263238"/>
<path d="M41.2658 51.024C40.9239 51.0015 40.5814 51.0572 40.2644 51.1869C39.9475 51.3165 39.6646 51.5167 39.4375 51.772" stroke="#263238" stroke-width="0.686238" stroke-linecap="round" stroke-linejoin="round"/>
<path d="M44.3788 50.6739C44.6681 50.5831 44.9743 50.5588 45.2744 50.6029C45.5745 50.6471 45.8606 50.7584 46.1112 50.9285" stroke="#263238" stroke-width="0.686238" stroke-linecap="round" stroke-linejoin="round"/>
<path d="M36.25 55.3581C36.25 55.3581 38.0676 51.7402 37.6146 49.0453C37.6146 49.0453 45.9352 45.1196 46.8307 53.6924C46.8307 53.6924 47.2412 46.0108 39.848 46.2655C32.4548 46.5201 33.0731 57.252 37.0655 60.244C37.0655 60.2228 35.1253 57.6233 36.25 55.3581Z" fill="#263238"/>
<path d="M41.8096 45.1036C41.8096 45.1036 45.3382 44.2389 46.3403 45.1673C47.3425 46.0956 40.2105 52.6632 36.4792 53.3263C36.4792 53.3263 35.2106 57.4376 36.2127 59.358C36.2127 59.358 32.0124 57.8991 31.8152 51.5332C31.6179 45.1673 38.3235 42.7695 41.8096 45.1036Z" fill="#263238"/>
<path d="M37.0016 56.2439C36.9303 55.7518 36.6658 55.3079 36.2661 55.0095C35.8664 54.7112 35.3641 54.5828 34.8694 54.6525C33.5475 54.87 33.0625 57.6232 36.4099 58.1007C36.9003 58.1325 37.1402 57.6604 37.0016 56.2439Z" fill="#EEC1BB"/>
<path d="M35.1253 47.6129C35.1253 47.6129 33.6594 43.8994 29.7256 44.1647C25.7918 44.4299 25.1948 50.5306 27.263 55.0398C29.3312 59.549 27.9506 61.0185 27.9506 61.0185C27.9506 61.0185 30.1467 60.7532 30.1467 56.7056C30.2682 57.5629 30.3128 58.4292 30.28 59.2944C30.28 59.2944 31.7458 57.2361 30.3493 53.3263C28.9527 49.4166 33.4142 51.2043 33.4142 51.2043L35.1253 47.6129Z" fill="#263238"/>
<path d="M46.0046 45.4908C46.0046 45.4908 44.1389 51.4589 39.1444 53.2467" stroke="#263238" stroke-width="0.686238" stroke-linecap="round" stroke-linejoin="round"/>
<path d="M40.9886 57.9574C41.3125 58.2771 41.697 58.5294 42.1198 58.6997C42.5426 58.87 42.9952 58.9549 43.4513 58.9494" stroke="#263238" stroke-width="0.686238" stroke-linecap="round" stroke-linejoin="round"/>
<path d="M38.3235 65.411C38.3235 65.411 39.2083 67.1988 42.2253 68.472L43.4566 70.4507V68.1961C43.7964 67.2006 43.9058 66.1415 43.7764 65.098L44.7785 66.9813C45.0818 67.0516 45.3579 67.2085 45.5729 67.4328C45.7878 67.6571 45.9323 67.939 45.9885 68.2438C46.3083 69.4003 44.592 73.5488 44.592 73.5488C44.592 73.5488 39.1071 71.5913 37.8757 69.1351C36.9643 67.3049 38.057 66.8646 38.057 66.8646L38.3235 65.411Z" fill="#08AF24"/>
<path d="M45.4821 75.0659C45.4821 75.1435 45.459 75.2195 45.4157 75.284C45.3723 75.3486 45.3107 75.3989 45.2386 75.4286C45.1666 75.4583 45.0873 75.4661 45.0107 75.4509C44.9342 75.4358 44.8639 75.3984 44.8088 75.3435C44.7536 75.2886 44.716 75.2186 44.7008 75.1425C44.6856 75.0663 44.6934 74.9874 44.7233 74.9157C44.7531 74.8439 44.8037 74.7826 44.8685 74.7395C44.9334 74.6964 45.0097 74.6733 45.0877 74.6733C45.1923 74.6733 45.2926 74.7147 45.3666 74.7883C45.4406 74.8619 45.4821 74.9618 45.4821 75.0659Z" fill="#263238"/>
<path d="M46.4416 81.2039C46.4416 81.2815 46.4185 81.3574 46.3751 81.422C46.3318 81.4865 46.2702 81.5368 46.1981 81.5665C46.126 81.5963 46.0467 81.604 45.9702 81.5889C45.8937 81.5737 45.8234 81.5363 45.7682 81.4814C45.7131 81.4265 45.6755 81.3566 45.6603 81.2804C45.6451 81.2043 45.6529 81.1254 45.6827 81.0536C45.7126 80.9819 45.7631 80.9206 45.828 80.8774C45.8929 80.8343 45.9691 80.8113 46.0472 80.8113C46.1518 80.8113 46.2521 80.8526 46.3261 80.9263C46.4 80.9999 46.4416 81.0997 46.4416 81.2039Z" fill="#263238"/>
<path d="M46.852 88.6413C46.852 88.719 46.8289 88.7949 46.7855 88.8594C46.7422 88.924 46.6806 88.9743 46.6085 89.004C46.5364 89.0337 46.4571 89.0415 46.3806 89.0264C46.3041 89.0112 46.2338 88.9738 46.1786 88.9189C46.1235 88.864 46.0859 88.7941 46.0707 88.7179C46.0555 88.6418 46.0633 88.5629 46.0931 88.4911C46.123 88.4194 46.1735 88.3581 46.2384 88.3149C46.3033 88.2718 46.3795 88.2488 46.4575 88.2488C46.5622 88.2488 46.6625 88.2901 46.7365 88.3638C46.8104 88.4374 46.852 88.5372 46.852 88.6413Z" fill="#263238"/>
<path d="M47.1772 96.4343C47.1772 96.512 47.1541 96.5879 47.1107 96.6524C47.0674 96.717 47.0058 96.7673 46.9337 96.797C46.8616 96.8267 46.7823 96.8345 46.7058 96.8193C46.6293 96.8042 46.559 96.7668 46.5038 96.7119C46.4487 96.657 46.4111 96.5871 46.3959 96.5109C46.3807 96.4348 46.3885 96.3558 46.4183 96.2841C46.4482 96.2123 46.4987 96.151 46.5636 96.1079C46.6285 96.0648 46.7047 96.0417 46.7827 96.0417C46.8874 96.0417 46.9877 96.0831 47.0617 96.1567C47.1356 96.2303 47.1772 96.3302 47.1772 96.4343Z" fill="#263238"/>
<path d="M78.1411 70.0369C80.6469 68.7785 83.4407 68.1968 86.2432 68.3499L89.2122 71.4586C89.2122 71.4586 86.6803 70.8486 80.9662 72.1589L78.1411 70.0369Z" fill="#08AF24"/>
<path opacity="0.4" d="M78.1411 70.0369C80.6469 68.7785 83.4407 68.1968 86.2432 68.3499L89.2122 71.4586C89.2122 71.4586 86.6803 70.8486 80.9662 72.1589L78.1411 70.0369Z" fill="black"/>
<path d="M78.1091 69.7981C80.5421 68.4074 83.2989 67.6758 86.1046 67.6761L89.2389 70.6204C89.2389 70.6204 86.675 70.1695 81.0355 71.761L78.1091 69.7981Z" fill="#08AF24"/>
<path opacity="0.2" d="M78.1091 69.7981C80.5421 68.4074 83.2989 67.6758 86.1046 67.6761L89.2389 70.6204C89.2389 70.6204 86.675 70.1695 81.0355 71.761L78.1091 69.7981Z" fill="black"/>
<path d="M78.3384 69.3898L81.2114 71.7717C84.0213 70.3184 87.2304 69.8156 90.353 70.3393L86.7443 67.1829C86.7443 67.1829 81.4993 66.5781 78.3384 69.3898Z" fill="#08AF24"/>
<path opacity="0.2" d="M79.0686 69.448L81.0835 71.2199C81.0835 71.2199 85.1932 69.0342 89.2549 69.8406L86.5897 67.4268C86.5897 67.4268 82.0323 66.8539 79.0686 69.448Z" fill="black"/>
<path d="M84.7242 68.6682C84.7242 69.0979 84.2551 69.448 83.6581 69.448C83.0611 69.448 82.592 69.0979 82.592 68.6682C82.592 68.2385 83.0611 67.8831 83.6581 67.8831C84.2551 67.8831 84.7242 68.2332 84.7242 68.6682Z" fill="#08AF24"/>
<path d="M57.9871 102.54C58.1843 99.5854 60.0233 90.8694 60.0233 90.8694C60.8291 90.328 61.6776 89.8526 62.5606 89.4477C63.9123 88.9654 65.3311 88.6952 66.7662 88.6466C66.7662 88.6466 67.6031 99.6438 66.7662 100.848C65.9293 102.052 57.7526 106.036 57.9871 102.54Z" fill="#263238"/>
<path d="M60.0233 90.864C60.0233 90.864 61.3399 79.156 64.794 79.6546C64.794 79.6546 62.0648 80.2276 61.0627 91.2459L60.0233 90.864Z" fill="#263238"/>
<path d="M47.8328 85.3151C48.4458 85.1825 50.0342 81.1984 49.8316 80.7104C49.6291 80.2223 37.7904 81.8669 37.7904 81.8669L38.5686 86.1639L47.8328 85.3151Z" fill="#08AF24"/>
<path opacity="0.2" d="M47.8328 85.3151C48.4458 85.1825 50.0342 81.1984 49.8316 80.7104C49.6291 80.2223 37.7904 81.8669 37.7904 81.8669L38.5686 86.1639L47.8328 85.3151Z" fill="black"/>
<path d="M32.9079 81.9464C32.9079 81.9464 45.5408 80.1586 46.1058 80.3549C46.6708 80.5512 47.8328 85.3203 47.8328 85.3203C47.8328 85.3203 36.8896 87.0444 35.9355 86.7686C34.9814 86.4927 32.4601 82.6042 32.9079 81.9464Z" fill="#08AF24"/>
<path d="M28.6169 90.3653L35.1733 86.2487C35.1733 86.2487 35.6743 84.8747 36.282 84.5935C36.8896 84.3124 40.8821 83.7872 41.2712 84.185C41.6603 84.5829 41.623 87.6863 40.8714 88.0948C40.1198 88.5033 36.6071 88.4555 36.2766 88.3229L28.9261 93.909L28.6169 90.3653Z" fill="#EEC1BB"/>
<path d="M30.216 68.4719C30.216 68.4719 34.4803 74.6681 33.878 79.973L28.1958 89.3415L32.0124 87.3999L33.7447 90.6466C33.7447 90.6466 29.3472 97.3891 23.7503 95.7976C18.1535 94.2062 30.216 68.4719 30.216 68.4719Z" fill="#263238"/>
<path opacity="0.4" d="M30.216 68.4719C30.216 68.4719 34.4803 74.6681 33.878 79.973L28.1958 89.3415L32.0124 87.3999L33.7447 90.6466C33.7447 90.6466 29.3472 97.3891 23.7503 95.7976C18.1535 94.2062 30.216 68.4719 30.216 68.4719Z" fill="white"/>
<path d="M31.6125 87.2195L33.7927 91.246L34.2777 90.0948L32.5454 86.8217L31.6125 87.2195Z" fill="#08AF24"/>
</svg>
