<svg width="110" height="100" viewBox="0 0 110 100" fill="none" xmlns="http://www.w3.org/2000/svg">
<path d="M45.7157 19.9082C33.6066 21.1067 20.1947 15.0914 9.34875 23.0103C-0.838752 30.4667 -1.85326 45.2471 2.26413 55.8056C12.3075 81.5394 46.0322 76.3137 67.1561 68.406C86.5449 61.1498 114.606 37.8414 102.39 14C97.7384 4.91915 86.2821 -1.32463 76.038 0.240545C61.8942 2.39513 60.3258 18.4643 45.7157 19.9082Z" fill="#08AF24"/>
<path opacity="0.9" d="M45.7157 19.9082C33.6066 21.1067 20.1947 15.0914 9.34875 23.0103C-0.838752 30.4667 -1.85326 45.2471 2.26413 55.8056C12.3075 81.5394 46.0322 76.3137 67.1561 68.406C86.5449 61.1498 114.606 37.8414 102.39 14C97.7384 4.91915 86.2821 -1.32463 76.038 0.240545C61.8942 2.39513 60.3258 18.4643 45.7157 19.9082Z" fill="white"/>
<path d="M54.8125 99.9999C85.0733 99.9999 109.605 98.5706 109.605 96.8075C109.605 95.0444 85.0733 93.6151 54.8125 93.6151C24.5516 93.6151 0.0203857 95.0444 0.0203857 96.8075C0.0203857 98.5706 24.5516 99.9999 54.8125 99.9999Z" fill="#F5F5F5"/>
<path d="M45.7327 21.9218C45.7524 25.2637 43.3532 25.2298 43.4013 24.192C43.4493 23.1542 42.8559 20.6697 43.4013 20.9094C43.9467 21.1491 45.7242 20.4441 45.7327 21.9218Z" fill="#263238"/>
<path d="M44.2236 27.9741C44.5542 27.9487 45.2183 28.2561 45.2777 29.1275C45.2931 29.3807 45.3673 29.6269 45.4943 29.8466C45.6213 30.0663 45.7977 30.2537 46.0096 30.3938C46.0096 30.3938 44.9103 30.5263 44.1897 29.9566C43.6019 29.497 43.3419 28.4902 43.6499 28.2646C43.8187 28.1288 44.0142 28.0299 44.2236 27.9741Z" fill="#263238"/>
<path d="M43.7912 25.599C44.3564 26.0982 44.8735 27.418 43.599 28.0441C42.3245 28.6701 40.3209 27.2121 40.3209 27.2121L42.5223 26.194L43.7912 25.599Z" fill="#263238"/>
<path d="M44.4186 28.0952C44.3876 27.9124 44.3364 27.7337 44.266 27.5622C44.26 27.5458 44.2503 27.5311 44.2378 27.519C44.2252 27.507 44.2101 27.4979 44.1935 27.4925C44.1769 27.487 44.1593 27.4854 44.1421 27.4877C44.1248 27.49 44.1082 27.4962 44.0937 27.5058L43.3109 28.0275C43.2951 28.0381 43.2823 28.0523 43.2733 28.0691C43.2644 28.0858 43.2598 28.1044 43.2598 28.1234C43.2598 28.1423 43.2644 28.161 43.2733 28.1777C43.2823 28.1944 43.2951 28.2087 43.3109 28.2193C43.4235 28.3017 43.5448 28.3717 43.6726 28.428C43.8563 28.5013 44.2378 28.2926 44.3678 28.2023C44.3856 28.1912 44.3999 28.1752 44.4089 28.1562C44.4179 28.1372 44.4213 28.116 44.4186 28.0952Z" fill="#08AF24"/>
<path opacity="0.3" d="M44.4186 28.0952C44.3876 27.9124 44.3364 27.7337 44.266 27.5622C44.26 27.5458 44.2503 27.5311 44.2378 27.519C44.2252 27.507 44.2101 27.4979 44.1935 27.4925C44.1769 27.487 44.1593 27.4854 44.1421 27.4877C44.1248 27.49 44.1082 27.4962 44.0937 27.5058L43.3109 28.0275C43.2951 28.0381 43.2823 28.0523 43.2733 28.0691C43.2644 28.0858 43.2598 28.1044 43.2598 28.1234C43.2598 28.1423 43.2644 28.161 43.2733 28.1777C43.2823 28.1944 43.2951 28.2087 43.3109 28.2193C43.4235 28.3017 43.5448 28.3717 43.6726 28.428C43.8563 28.5013 44.2378 28.2926 44.3678 28.2023C44.3856 28.1912 44.3999 28.1752 44.4089 28.1562C44.4179 28.1372 44.4213 28.116 44.4186 28.0952Z" fill="black"/>
<path d="M35.9946 26.7106C35.6809 26.6062 34.9631 26.7472 34.6975 27.582C34.622 27.8242 34.4914 28.0457 34.3159 28.2292C34.1404 28.4126 33.9247 28.5531 33.6858 28.6395C33.6858 28.6395 34.7229 29.0287 35.5594 28.6395C36.2376 28.3321 36.718 27.4128 36.4835 27.1195C36.352 26.9495 36.1852 26.81 35.9946 26.7106Z" fill="#263238"/>
<path d="M39.1087 20.9713C37.9642 21.2815 36.4241 22.6352 37.1079 24.2962C36.4325 24.7559 35.5678 26.0786 36.5795 26.9246C37.6675 27.8355 40.3436 26.558 40.3436 26.558L40.3634 26.1237L40.6827 22.8918L39.1087 20.9713Z" fill="#263238"/>
<path d="M35.777 26.7836C35.8529 26.6129 35.9477 26.4511 36.0595 26.3014C36.0707 26.2878 36.0847 26.2768 36.1006 26.2693C36.1165 26.2618 36.1338 26.2579 36.1514 26.2579C36.169 26.2579 36.1863 26.2618 36.2022 26.2693C36.2181 26.2768 36.2321 26.2878 36.2432 26.3014L36.8762 26.9923C36.889 27.0063 36.8982 27.0233 36.9031 27.0416C36.9079 27.06 36.9083 27.0792 36.9041 27.0977C36.9 27.1163 36.8914 27.1335 36.8792 27.148C36.867 27.1626 36.8514 27.174 36.8339 27.1812C36.7054 27.2335 36.5719 27.2722 36.4354 27.2969C36.2376 27.3251 35.9324 27.0346 35.8137 26.9161C35.7945 26.9006 35.7807 26.8795 35.7741 26.8557C35.7675 26.832 35.7685 26.8068 35.777 26.7836Z" fill="#08AF24"/>
<path opacity="0.3" d="M35.777 26.7836C35.8529 26.6129 35.9477 26.4511 36.0595 26.3014C36.0707 26.2878 36.0847 26.2768 36.1006 26.2693C36.1165 26.2618 36.1338 26.2579 36.1514 26.2579C36.169 26.2579 36.1863 26.2618 36.2022 26.2693C36.2181 26.2768 36.2321 26.2878 36.2432 26.3014L36.8762 26.9923C36.889 27.0063 36.8982 27.0233 36.9031 27.0416C36.9079 27.06 36.9083 27.0792 36.9041 27.0977C36.9 27.1163 36.8914 27.1335 36.8792 27.148C36.867 27.1626 36.8514 27.174 36.8339 27.1812C36.7054 27.2335 36.5719 27.2722 36.4354 27.2969C36.2376 27.3251 35.9324 27.0346 35.8137 26.9161C35.7945 26.9006 35.7807 26.8795 35.7741 26.8557C35.7675 26.832 35.7685 26.8068 35.777 26.7836Z" fill="black"/>
<path d="M46.0746 32.7426C46.6143 33.1599 47.2049 33.6055 47.7984 34.0116C48.3918 34.4177 48.9881 34.8266 49.6013 35.2017C50.2146 35.5768 50.8363 35.9265 51.4636 36.2593L51.9356 36.499L52.416 36.7218C52.5742 36.7979 52.7353 36.8656 52.8992 36.9276L53.1394 37.0263C53.2214 37.0574 53.309 37.0968 53.3598 37.1109C53.6552 37.2013 53.9577 37.2664 54.2641 37.3055C54.5976 37.3535 54.948 37.3873 55.3041 37.4127C56.0134 37.4578 56.7425 37.4776 57.4744 37.4804C58.2063 37.4832 58.9467 37.4804 59.6843 37.4578C60.4218 37.4352 61.1679 37.4183 61.9026 37.3958L62.0411 38.5041C60.5569 38.8028 59.058 39.024 57.5507 39.1668C56.7905 39.2345 56.0275 39.2853 55.2476 39.2909C54.8576 39.2909 54.4619 39.2909 54.055 39.2542C53.6174 39.2285 53.1837 39.1576 52.7607 39.0427C52.6307 39.0089 52.5488 38.975 52.4527 38.944L52.1701 38.8453C51.9808 38.7833 51.7943 38.7156 51.6049 38.6394L51.0567 38.4195L50.5198 38.1826C49.8103 37.8632 49.1188 37.5055 48.4483 37.1109C47.7814 36.7189 47.1258 36.3128 46.4928 35.8785C45.8598 35.4442 45.2494 34.9958 44.6277 34.4685L46.0746 32.7426Z" fill="#E4897B"/>
<path d="M43.1412 31.4765C43.8449 30.9294 46.7415 32.7202 47.6232 33.4676L46.9817 37.3396C46.9817 37.3396 42.8134 35.5968 42.5619 34.4067C42.3019 33.163 42.6099 31.8939 43.1412 31.4765Z" fill="#263238"/>
<path d="M61.5946 37.4918L63.341 36.141L63.4795 38.2307C63.4795 38.2307 62.2757 38.9752 61.4816 38.5127L61.5946 37.4918Z" fill="#E4897B"/>
<path d="M64.8982 35.9353L65.7912 36.928L63.4683 38.2309L63.3298 36.1412L64.8982 35.9353Z" fill="#E4897B"/>
<path d="M31.7189 94.0523L33.9203 94.2159L34.7229 89.1594L32.5243 88.9958L31.7189 94.0523Z" fill="#E4897B"/>
<path d="M16.1451 86.9853L18.0131 88.1584L21.3392 84.2215L19.4713 83.0455L16.1451 86.9853Z" fill="#E4897B"/>
<path d="M18.6037 87.7381L16.8544 85.9811C16.8245 85.9505 16.7845 85.9319 16.7418 85.9288C16.6991 85.9257 16.6567 85.9383 16.6227 85.9642L15.0317 87.1515C14.9929 87.1828 14.9611 87.2219 14.9384 87.2662C14.9157 87.3106 14.9026 87.3592 14.8999 87.4089C14.8973 87.4586 14.9051 87.5083 14.9229 87.5548C14.9408 87.6013 14.9682 87.6436 15.0034 87.6788C15.6223 88.2795 15.9529 88.539 16.7216 89.3117C17.1935 89.7883 17.835 90.53 18.4878 91.1871C19.1406 91.8442 19.8245 91.2322 19.6182 90.9051C18.663 89.4189 18.8354 88.8633 18.7704 88.1075C18.7608 87.9684 18.7017 87.8374 18.6037 87.7381Z" fill="#263238"/>
<path d="M34.0672 93.9001H31.5861C31.5424 93.9 31.5002 93.9152 31.4666 93.943C31.433 93.9708 31.4103 94.0095 31.4024 94.0523L31.0096 96.0095C31.0005 96.0591 31.0028 96.1101 31.0164 96.1587C31.03 96.2072 31.0544 96.2521 31.0879 96.2898C31.1214 96.3276 31.163 96.3572 31.2096 96.3766C31.2563 96.3959 31.3067 96.4044 31.3572 96.4015C32.2219 96.3874 32.643 96.3366 33.7338 96.3366C34.4035 96.3366 36.2771 96.4043 37.2125 96.4043C38.1479 96.4043 38.2411 95.4906 37.8596 95.4088C36.15 95.0366 34.997 94.5261 34.4403 94.0354C34.3374 93.9451 34.2042 93.8968 34.0672 93.9001Z" fill="#263238"/>
<path d="M34.7228 89.1595L34.2763 91.9684L32.106 91.6046L32.5214 88.9988L34.7228 89.1595Z" fill="#CE6F64"/>
<path d="M19.4712 83.0481L21.3392 84.2213L19.9629 85.8513L18.0526 84.7261L19.4712 83.0481Z" fill="#CE6F64"/>
<path d="M33.3917 43.1942L42.1917 44.906C46.7386 32.6187 45.7495 32.2154 45.7495 32.2154C45.11 31.8647 44.4494 31.5539 43.7714 31.2848L43.6527 31.2396C43.0875 31.0338 42.9745 31.0028 42.2228 30.7828C40.9285 30.4754 39.7218 30.2188 38.2269 30.0072L37.9443 29.9678C37.6617 29.9339 37.4046 29.9057 37.1446 29.8803C36.9694 29.8606 36.7942 29.8493 36.6274 29.838L36.0622 29.807C35.0958 29.7591 34.4034 29.7732 34.4034 29.7732C34.6719 37.4468 34.2367 39.6493 33.3917 43.1942Z" fill="#263238"/>
<path d="M39.4986 25.599C39.4986 26.9301 39.2923 29.33 38.2241 30.0125C38.2241 30.0125 38.323 31.3831 40.711 31.8456C43.3391 32.356 42.22 30.788 42.22 30.788C40.8551 30.1676 41.0896 29.1129 41.5418 28.1653L39.4986 25.599Z" fill="#E4897B"/>
<path d="M40.3323 26.6455L41.5418 28.1656C41.4358 28.3852 41.3488 28.6136 41.2818 28.848C40.7477 28.6619 40.1119 27.9174 40.1514 27.3336C40.1695 27.0952 40.2307 26.8621 40.3323 26.6455Z" fill="#CE6F64"/>
<path d="M39.3715 22.5423C39.0889 24.711 38.9165 25.6219 39.7869 26.9333C41.0953 28.9074 43.8251 28.7805 44.7549 26.7415C45.6026 24.9056 45.9191 21.6653 43.9834 20.4103C43.5584 20.1302 43.0687 19.9632 42.5608 19.9251C42.053 19.8871 41.5438 19.9792 41.0817 20.1929C40.6195 20.4065 40.2198 20.7345 39.9205 21.1457C39.6212 21.5569 39.4322 22.0377 39.3715 22.5423Z" fill="#E4897B"/>
<path d="M46.4448 19.1074C46.4843 19.4513 46.4584 19.7996 46.3685 20.1339C46.3479 20.0206 46.3206 19.9085 46.2866 19.7984C45.5123 17.2433 42.025 17.8525 40.9738 18.9523C39.2782 18.4672 37.6646 18.8536 37.8794 20.9264C37.9062 21.4604 38.0988 21.9729 38.4305 22.3929C38.1676 23.1205 38.4305 24.2795 39.298 24.3134C40.5188 24.3613 41.6775 22.7482 42.1437 21.8627C42.9915 22.0065 44.2123 22.1447 45.1392 21.9191C45.2947 22.0122 45.4218 22.077 45.4218 22.077C46.4081 21.5497 47.1598 21.0392 46.4448 19.1074Z" fill="#263238"/>
<path d="M38.6198 24.0231C38.5852 24.4439 38.7182 24.8614 38.99 25.185C39.3573 25.6109 39.8377 25.3599 40.0101 24.8551C40.1542 24.3982 40.1345 23.6283 39.6428 23.3886C39.5344 23.3378 39.4151 23.3148 39.2956 23.3218C39.176 23.3287 39.0602 23.3654 38.9585 23.4285C38.8568 23.4916 38.7726 23.579 38.7134 23.6829C38.6543 23.7867 38.6221 23.9037 38.6198 24.0231Z" fill="#E4897B"/>
<path d="M42.059 44.9061C42.059 44.9061 42.0929 62.3401 40.663 68.9054C39.1765 75.7358 34.8048 91.2747 34.8048 91.2747L31.6398 90.8658C31.6398 90.8658 34.1181 75.1689 35.1722 68.3809C36.3224 60.9837 35.6187 43.6539 35.6187 43.6539L42.059 44.9061Z" fill="#08AF24"/>
<path opacity="0.3" d="M42.059 44.9061C42.059 44.9061 42.0929 62.3401 40.663 68.9054C39.1765 75.7358 34.8048 91.2747 34.8048 91.2747L31.6398 90.8658C31.6398 90.8658 34.1181 75.1689 35.1722 68.3809C36.3224 60.9837 35.6187 43.6539 35.6187 43.6539L42.059 44.9061Z" fill="black"/>
<path d="M35.3446 91.5479L31.0972 91.0008L31.278 89.5005L36.0991 90.0645L35.3446 91.5479Z" fill="#263238"/>
<path d="M39.8688 44.4547C39.8688 44.4547 35.1297 58.8628 32.7757 67.1624C30.2946 75.9189 20.7824 85.6033 20.7824 85.6033L18.0554 84.0296C18.0554 84.0296 24.5551 74.836 26.943 66.6661C31.8064 50.0809 29.8085 46.567 33.3918 43.1941L39.8688 44.4547Z" fill="#08AF24"/>
<path opacity="0.3" d="M39.8688 44.4547C39.8688 44.4547 35.1297 58.8628 32.7757 67.1624C30.2946 75.9189 20.7824 85.6033 20.7824 85.6033L18.0554 84.0296C18.0554 84.0296 24.5551 74.836 26.943 66.6661C31.8064 50.0809 29.8085 46.567 33.3918 43.1941L39.8688 44.4547Z" fill="black"/>
<path d="M21.2262 86.0406L17.4366 83.8578L18.3805 82.5098L22.5883 84.8251L21.2262 86.0406Z" fill="#263238"/>
<path d="M42.5082 23.7746C42.4743 23.9495 42.5393 24.1074 42.6552 24.13C42.7711 24.1525 42.8897 24.0285 42.9378 23.848C42.9858 23.6675 42.9067 23.5124 42.7908 23.4898C42.675 23.4673 42.5422 23.5998 42.5082 23.7746Z" fill="#263238"/>
<path d="M44.4836 24.158C44.4497 24.3329 44.5147 24.4936 44.6305 24.5162C44.7464 24.5387 44.8651 24.4146 44.899 24.2341C44.9329 24.0537 44.8679 23.8986 44.7521 23.8788C44.6362 23.8591 44.5175 23.9803 44.4836 24.158Z" fill="#263238"/>
<path d="M44.7012 23.8818L45.1448 23.8451C45.1448 23.8451 44.8651 24.1299 44.7012 23.8818Z" fill="#263238"/>
<path d="M43.9043 24.3584C43.9822 24.786 44.1192 25.2007 44.3112 25.5908C44.2099 25.6381 44.0995 25.6627 43.9876 25.6627C43.8758 25.6627 43.7653 25.6381 43.6641 25.5908L43.9043 24.3584Z" fill="#DE5753"/>
<path d="M42.9236 26.1548C42.6874 26.1162 42.4641 26.0212 42.2726 25.8778C42.0812 25.7344 41.9274 25.5469 41.8243 25.3313C41.8216 25.3251 41.8201 25.3183 41.8201 25.3115C41.82 25.3046 41.8213 25.2978 41.824 25.2915C41.8266 25.2852 41.8305 25.2794 41.8354 25.2747C41.8404 25.2699 41.8462 25.2661 41.8526 25.2637C41.8654 25.2589 41.8795 25.2591 41.8921 25.2644C41.9047 25.2696 41.9148 25.2794 41.9204 25.2919C42.0191 25.49 42.1631 25.6621 42.3409 25.7944C42.5186 25.9267 42.725 26.0154 42.9434 26.0533C42.9501 26.0543 42.9566 26.0567 42.9624 26.0602C42.9682 26.0638 42.9732 26.0685 42.9771 26.074C42.9811 26.0795 42.9839 26.0858 42.9854 26.0924C42.9869 26.099 42.987 26.1058 42.9858 26.1125C42.983 26.1263 42.975 26.1384 42.9634 26.1464C42.9517 26.1543 42.9375 26.1573 42.9236 26.1548Z" fill="#263238"/>
<path d="M42.0589 23.0246C42.038 23.0244 42.0177 23.018 42.0004 23.0062C41.9832 22.9943 41.97 22.9776 41.9624 22.9582C41.9548 22.9388 41.9532 22.9175 41.9578 22.8972C41.9624 22.8768 41.973 22.8583 41.9883 22.8441C42.1095 22.7307 42.256 22.6478 42.4157 22.6022C42.5754 22.5565 42.7437 22.5496 42.9067 22.5818C42.9334 22.5897 42.956 22.6076 42.9697 22.6318C42.9834 22.656 42.9872 22.6846 42.9802 22.7115C42.9729 22.738 42.9555 22.7605 42.9317 22.7742C42.9079 22.788 42.8796 22.7918 42.853 22.7849C42.7236 22.762 42.5906 22.7694 42.4646 22.8066C42.3385 22.8438 42.2229 22.9097 42.1267 22.9992C42.108 23.0157 42.0839 23.0247 42.0589 23.0246Z" fill="#263238"/>
<path d="M45.5801 23.4165C45.5594 23.4167 45.5391 23.4106 45.5219 23.399C45.5047 23.3874 45.4915 23.3709 45.484 23.3516C45.4356 23.2294 45.3593 23.1202 45.2612 23.0326C45.1631 22.945 45.0458 22.8814 44.9188 22.8468C44.9053 22.8444 44.8923 22.8394 44.8807 22.832C44.8691 22.8246 44.8591 22.815 44.8512 22.8037C44.8433 22.7925 44.8378 22.7797 44.8348 22.7663C44.8319 22.7529 44.8316 22.739 44.8341 22.7255C44.8402 22.6989 44.856 22.6754 44.8784 22.6598C44.9009 22.6442 44.9284 22.6374 44.9556 22.6409C45.1168 22.6811 45.266 22.7591 45.3909 22.8685C45.5157 22.9779 45.6126 23.1155 45.6734 23.2698C45.6789 23.2826 45.6818 23.2963 45.682 23.3102C45.6821 23.3241 45.6795 23.3379 45.6742 23.3508C45.669 23.3636 45.6612 23.3753 45.6513 23.3852C45.6415 23.395 45.6297 23.4028 45.6168 23.408L45.5801 23.4165Z" fill="#263238"/>
<path d="M42.7456 25.3205C42.6581 25.3208 42.5717 25.3008 42.4932 25.2622C42.4148 25.2235 42.3464 25.1672 42.2934 25.0977C42.1605 24.8908 42.0719 24.6588 42.033 24.4162C41.9941 24.1735 42.0058 23.9255 42.0674 23.6876C42.2284 22.7964 42.788 22.0717 43.3164 22.0717C43.4044 22.0727 43.491 22.0935 43.5697 22.1326C43.6485 22.1717 43.7174 22.2279 43.7714 22.2973C43.9038 22.5043 43.9922 22.7363 44.0311 22.9789C44.07 23.2214 44.0586 23.4694 43.9975 23.7073C43.8364 24.5985 43.274 25.3205 42.7456 25.3205ZM43.3108 22.1506C42.8162 22.1506 42.285 22.85 42.1295 23.7073C42.0306 24.2714 42.1098 24.779 42.3415 25.0525C42.3886 25.1134 42.4489 25.1628 42.5179 25.197C42.587 25.2312 42.6629 25.2493 42.7399 25.2499C43.2373 25.2499 43.7658 24.5534 43.9212 23.6961H43.9551H43.9212C43.9812 23.4694 43.9933 23.2328 43.9568 23.0012C43.9203 22.7697 43.836 22.5482 43.7092 22.3509C43.6629 22.2903 43.6035 22.241 43.5356 22.2063C43.4676 22.1717 43.3927 22.1526 43.3164 22.1506H43.3108Z" fill="#FAFAFA"/>
<path d="M44.9414 25.602C44.85 25.6001 44.7602 25.5779 44.6785 25.5369C44.5969 25.4959 44.5254 25.4372 44.4694 25.3651C44.3426 25.1752 44.2567 24.9611 44.2173 24.7363C44.1779 24.5115 44.1858 24.281 44.2405 24.0594C44.3846 23.2303 44.9272 22.5591 45.45 22.5591C45.5416 22.5613 45.6316 22.584 45.7133 22.6255C45.7949 22.667 45.8662 22.7262 45.922 22.7988C46.048 22.9885 46.1333 23.2022 46.1727 23.4264C46.2121 23.6506 46.2047 23.8805 46.1509 24.1017C46.0096 24.9336 45.467 25.602 44.9414 25.602ZM45.4415 22.6296C44.9498 22.6296 44.4412 23.2754 44.3112 24.0735C44.2603 24.2849 44.2531 24.5045 44.2901 24.7188C44.327 24.9331 44.4072 25.1376 44.5259 25.32C44.5757 25.3839 44.6389 25.436 44.7113 25.4726C44.7836 25.5092 44.8631 25.5293 44.9442 25.5315C45.4359 25.5315 45.9474 24.8885 46.0746 24.0904C46.1252 23.8791 46.1325 23.6598 46.0961 23.4456C46.0596 23.2314 45.9802 23.0267 45.8626 22.8439C45.8132 22.7795 45.75 22.7268 45.6777 22.6897C45.6054 22.6527 45.5257 22.6321 45.4444 22.6296H45.4415Z" fill="#FAFAFA"/>
<path d="M19.2537 88.762C18.9711 88.762 18.6744 88.3277 18.5218 88.0767C18.5162 88.0683 18.5132 88.0585 18.5132 88.0485C18.5132 88.0384 18.5162 88.0286 18.5218 88.0203C18.528 88.0122 18.5362 88.0059 18.5456 88.002C18.555 87.998 18.5653 87.9965 18.5754 87.9977C18.6659 88.0174 19.443 88.1866 19.5419 88.4517C19.5532 88.481 19.5562 88.5127 19.5507 88.5435C19.5453 88.5743 19.5315 88.603 19.5108 88.6266C19.483 88.6691 19.4448 88.7038 19.3998 88.7275C19.3548 88.7512 19.3045 88.763 19.2537 88.762ZM18.6631 88.1274C18.8807 88.4546 19.0926 88.6492 19.2452 88.6576C19.2791 88.6579 19.3125 88.6495 19.3422 88.6332C19.3718 88.6169 19.3968 88.5933 19.4148 88.5646C19.4243 88.5546 19.4307 88.5421 19.4332 88.5286C19.4357 88.5151 19.4342 88.5011 19.4289 88.4884C19.378 88.3474 18.9739 88.2064 18.6631 88.1274Z" fill="#08AF24"/>
<path d="M18.7902 88.1273C18.7045 88.1286 18.6191 88.1192 18.5358 88.0991C18.5273 88.0962 18.5196 88.0914 18.5132 88.085C18.5069 88.0787 18.502 88.071 18.4991 88.0625C18.4925 88.0462 18.4925 88.028 18.4991 88.0117C18.5189 87.9948 18.9512 87.569 19.2706 87.569H19.2932C19.3327 87.5716 19.3713 87.5825 19.4063 87.601C19.4414 87.6194 19.4722 87.645 19.4966 87.6761C19.5255 87.7062 19.5433 87.745 19.5474 87.7864C19.5515 87.8279 19.5416 87.8694 19.5193 87.9046C19.4288 88.0568 19.0671 88.1273 18.7902 88.1273ZM18.663 88.0174C18.9286 88.0484 19.3582 87.9722 19.4458 87.8453C19.4599 87.8256 19.4712 87.7946 19.4288 87.741C19.4141 87.7202 19.3946 87.7033 19.372 87.6915C19.3494 87.6798 19.3243 87.6735 19.2988 87.6733C19.0564 87.7197 18.8343 87.8399 18.663 88.0174Z" fill="#08AF24"/>
<path d="M34.8782 94.2868C34.6443 94.2803 34.4116 94.252 34.183 94.2022C34.1721 94.1999 34.1622 94.1944 34.1546 94.1863C34.147 94.1783 34.1421 94.168 34.1406 94.1571C34.1394 94.1463 34.1414 94.1355 34.1464 94.1259C34.1515 94.1163 34.1593 94.1085 34.1689 94.1035C34.2734 94.0527 35.1806 93.6015 35.4434 93.7538C35.4673 93.7688 35.4871 93.7896 35.5009 93.8142C35.5147 93.8389 35.5221 93.8666 35.5225 93.8948C35.5258 93.9424 35.5174 93.9901 35.4982 94.0338C35.479 94.0775 35.4496 94.1159 35.4123 94.1458C35.255 94.251 35.067 94.3006 34.8782 94.2868ZM34.361 94.1345C34.8443 94.2135 35.2088 94.1937 35.3501 94.0725C35.3742 94.0516 35.3931 94.0255 35.4054 93.9961C35.4176 93.9668 35.4229 93.935 35.4208 93.9032C35.4213 93.8926 35.419 93.882 35.414 93.8726C35.409 93.8631 35.4016 93.8552 35.3925 93.8497C35.2512 93.7679 34.7482 93.9596 34.361 94.1345Z" fill="#08AF24"/>
<path d="M34.1972 94.202C34.187 94.2049 34.1762 94.2049 34.1661 94.202C34.1578 94.1967 34.1512 94.189 34.1472 94.18C34.1432 94.171 34.1419 94.161 34.1435 94.1513C34.1435 94.1118 34.2791 93.215 34.7708 93.215H34.8132C34.9545 93.2291 34.9941 93.2996 35.0026 93.3588C35.0421 93.607 34.4939 94.0864 34.217 94.2048L34.1972 94.202ZM34.7624 93.3108C34.443 93.3108 34.3017 93.8298 34.2537 94.0554C34.5363 93.889 34.9121 93.5139 34.8895 93.3644C34.8895 93.3644 34.8895 93.3193 34.7906 93.3108H34.7624Z" fill="#08AF24"/>
<path d="M42.726 23.4986L43.1696 23.4591C43.1696 23.4591 42.8899 23.7468 42.726 23.4986Z" fill="#263238"/>
<path d="M40.7844 33.7214C37.1107 32.3311 35.9634 30.2499 36.051 29.8127L36.6162 29.8466H36.7123C36.8479 29.8466 36.9949 29.8663 37.1333 29.8832C37.3933 29.9058 37.6618 29.934 37.9331 29.9707L38.2157 30.0102C39.5645 30.1732 40.8998 30.4323 42.2115 30.7857C42.8106 30.9605 43.0085 31.0169 43.3419 31.1354L43.6386 31.2426L43.7573 31.2877C44.0512 31.9194 43.9862 33.211 40.7844 33.7214Z" fill="#E4897B"/>
<path d="M40.7844 33.7214C37.1107 32.3311 35.9634 30.2499 36.051 29.8127L36.6162 29.8466H36.7123C37.4583 30.9041 39.0917 32.365 40.7562 32.5652C42.0957 32.2832 43.3589 31.9617 43.3476 31.1354L43.6443 31.2426L43.763 31.2877C44.0512 31.9194 43.9862 33.211 40.7844 33.7214Z" fill="#08AF24"/>
<path opacity="0.3" d="M40.7844 33.7214C37.1107 32.3311 35.9634 30.2499 36.051 29.8127L36.6162 29.8466H36.7123C37.4583 30.9041 39.0917 32.365 40.7562 32.5652C42.0957 32.2832 43.3589 31.9617 43.3476 31.1354L43.6443 31.2426L43.763 31.2877C44.0512 31.9194 43.9862 33.211 40.7844 33.7214Z" fill="black"/>
<path d="M33.3607 42.6527L32.7955 43.3634C32.7531 43.417 32.8153 43.4931 32.917 43.5128L42.1465 45.3065C42.2256 45.3234 42.2991 45.3065 42.3132 45.2472L42.5449 44.4773C42.5619 44.4238 42.5026 44.3645 42.415 44.3476L33.502 42.616C33.4772 42.6108 33.4515 42.6115 33.427 42.6178C33.4025 42.6242 33.3798 42.6361 33.3607 42.6527Z" fill="#263238"/>
<path d="M34.364 43.8794L34.1266 43.8342C34.0786 43.8342 34.0475 43.7947 34.056 43.7637L34.3668 42.7654C34.3668 42.7344 34.4233 42.7203 34.4685 42.7287L34.7088 42.7739C34.7568 42.7739 34.7879 42.8162 34.7794 42.8444L34.4685 43.8455C34.4573 43.8618 34.4409 43.874 34.422 43.8801C34.4031 43.8862 34.3827 43.886 34.364 43.8794Z" fill="#08AF24"/>
<path opacity="0.3" d="M34.364 43.8794L34.1266 43.8342C34.0786 43.8342 34.0475 43.7947 34.056 43.7637L34.3668 42.7654C34.3668 42.7344 34.4233 42.7203 34.4685 42.7287L34.7088 42.7739C34.7568 42.7739 34.7879 42.8162 34.7794 42.8444L34.4685 43.8455C34.4573 43.8618 34.4409 43.874 34.422 43.8801C34.4031 43.8862 34.3827 43.886 34.364 43.8794Z" fill="black"/>
<path d="M34.9912 33.1769C34.8839 33.8453 34.7821 34.587 34.7086 35.2807C34.6352 35.9745 34.5702 36.6908 34.5363 37.4127C34.5174 37.7681 34.5061 38.1234 34.5024 38.4788C34.5024 38.8313 34.5024 39.1838 34.5024 39.5363C34.5163 40.2269 34.5701 40.9162 34.6634 41.6006C34.7168 41.835 34.8125 42.0577 34.946 42.2577C35.1152 42.5324 35.3041 42.7944 35.5112 43.0417C35.963 43.5765 36.4461 44.0841 36.9581 44.5618C37.4752 45.0581 38.0178 45.5375 38.5745 46.0057C39.1312 46.4738 39.7049 46.9392 40.2701 47.3876L39.6625 48.3238C38.3326 47.5964 37.0609 46.7676 35.8588 45.8449C35.2382 45.3706 34.6527 44.8522 34.1067 44.2939C33.8156 43.9944 33.5483 43.6729 33.307 43.3322C33.0085 42.9292 32.7959 42.4695 32.6825 41.9814L32.5779 41.3835C32.5412 41.1889 32.5157 40.9943 32.4931 40.8025C32.4366 40.4134 32.4055 40.027 32.3744 39.6406C32.3157 38.8722 32.2977 38.1013 32.3207 37.331C32.3433 36.5667 32.3857 35.8053 32.462 35.0467C32.5383 34.288 32.6344 33.5435 32.787 32.7595L34.9912 33.1769Z" fill="#E4897B"/>
<path d="M33.1149 30.3626C31.9054 31.3384 32.1936 34.2375 32.1936 34.2375L36.263 35.5742C36.263 35.5742 36.0764 32.2324 35.8786 31.031C35.6356 29.6012 34.3018 29.401 33.1149 30.3626Z" fill="#263238"/>
<path d="M39.7728 47.2073L41.6124 46.5248L41.3299 48.2704C41.3299 48.2704 39.996 48.7499 39.3121 48.1351L39.7728 47.2073Z" fill="#E4897B"/>
<path d="M43.8025 46.7842V48.1323L41.3298 48.2704L41.6124 46.5248L43.8025 46.7842Z" fill="#E4897B"/>
<path d="M41.4712 45.2613L41.2338 45.2162C41.1857 45.2162 41.1547 45.1767 41.1631 45.1457L41.474 44.1474C41.474 44.1163 41.5305 44.1022 41.5786 44.1107L41.8159 44.1558C41.864 44.1558 41.8951 44.1981 41.8866 44.2263L41.5757 45.2275C41.5672 45.2557 41.5305 45.2726 41.4712 45.2613Z" fill="#08AF24"/>
<path opacity="0.3" d="M41.4712 45.2613L41.2338 45.2162C41.1857 45.2162 41.1547 45.1767 41.1631 45.1457L41.474 44.1474C41.474 44.1163 41.5305 44.1022 41.5786 44.1107L41.8159 44.1558C41.864 44.1558 41.8951 44.1981 41.8866 44.2263L41.5757 45.2275C41.5672 45.2557 41.5305 45.2726 41.4712 45.2613Z" fill="black"/>
<path d="M37.919 44.5678L37.6788 44.5227C37.6307 44.5227 37.5997 44.4832 37.611 44.4522L37.9218 43.4539C37.9218 43.4229 37.9755 43.4088 38.0236 43.4172L38.2638 43.4623C38.309 43.4623 38.3429 43.5046 38.3316 43.5328L38.0207 44.534C38.0122 44.5678 37.967 44.5819 37.919 44.5678Z" fill="#08AF24"/>
<path opacity="0.3" d="M37.919 44.5678L37.6788 44.5227C37.6307 44.5227 37.5997 44.4832 37.611 44.4522L37.9218 43.4539C37.9218 43.4229 37.9755 43.4088 38.0236 43.4172L38.2638 43.4623C38.309 43.4623 38.3429 43.5046 38.3316 43.5328L38.0207 44.534C38.0122 44.5678 37.967 44.5819 37.919 44.5678Z" fill="black"/>
<path d="M19.9205 61.0117L34.5702 92.9412C34.906 93.6669 35.5159 94.2305 36.2667 94.5089C37.0175 94.7874 37.8482 94.7581 38.5774 94.4274L40.9031 93.3671L94.757 68.7614C95.4845 68.4273 96.0498 67.8194 96.3294 67.0706C96.609 66.3218 96.5801 65.4929 96.2491 64.7652L83.3035 36.5639L81.6079 32.8385C81.2715 32.1134 80.6616 31.5503 79.911 31.2719C79.1604 30.9935 78.33 31.0224 77.6007 31.3523L21.4183 57.0155C20.6908 57.3497 20.1252 57.9572 19.8447 58.7058C19.5641 59.4543 19.5914 60.2831 19.9205 61.0117Z" fill="#08AF24"/>
<path opacity="0.1" d="M19.9205 61.0117L34.5702 92.9412C34.906 93.6669 35.5159 94.2305 36.2667 94.5089C37.0175 94.7874 37.8482 94.7581 38.5774 94.4274L40.9031 93.3671L94.757 68.7614C95.4845 68.4273 96.0498 67.8194 96.3294 67.0706C96.609 66.3218 96.5801 65.4929 96.2491 64.7652L83.3035 36.5639L81.6079 32.8385C81.2715 32.1134 80.6616 31.5503 79.911 31.2719C79.1604 30.9935 78.33 31.0224 77.6007 31.3523L21.4183 57.0155C20.6908 57.3497 20.1252 57.9572 19.8447 58.7058C19.5641 59.4543 19.5914 60.2831 19.9205 61.0117Z" fill="white"/>
<path d="M33.0849 89.7037L94.7618 61.5238L87.5436 45.7901L25.8666 73.97L33.0849 89.7037Z" fill="#08AF24"/>
<path opacity="0.3" d="M33.0849 89.7037L94.7618 61.5238L87.5436 45.7901L25.8666 73.97L33.0849 89.7037Z" fill="white"/>
<path d="M48.5966 76.5068L87.5725 58.6989L84.9892 53.0679L46.0133 70.8759L48.5966 76.5068Z" fill="#08AF24"/>
<path opacity="0.8" d="M48.5966 76.5068L87.5725 58.6989L84.9892 53.0679L46.0133 70.8759L48.5966 76.5068Z" fill="white"/>
<path d="M27.2436 76.9778L88.9205 48.7979L85.0691 40.4028L23.3921 68.5827L27.2436 76.9778Z" fill="#08AF24"/>
<path opacity="0.3" d="M27.2436 76.9778L88.9205 48.7979L85.0691 40.4028L23.3921 68.5827L27.2436 76.9778Z" fill="black"/>
<g style="mix-blend-mode:multiply">
<path d="M28.2967 61.4123L40.9032 93.356L94.7571 68.7503C95.4846 68.4163 96.0499 67.8084 96.3295 67.0595C96.6091 66.3107 96.5802 65.4818 96.2492 64.7542L83.3036 36.5529L30.0036 57.5008C29.2591 57.7956 28.6617 58.3724 28.3419 59.1053C28.0221 59.8382 28.0058 60.6676 28.2967 61.4123Z" fill="#08AF24"/>
</g>
<path d="M99.5783 51.3153L99.3116 51.4088L99.7529 52.662L100.02 52.5685L99.5783 51.3153Z" fill="#08AF24"/>
<path opacity="0.1" d="M99.5783 51.3153L99.3116 51.4088L99.7529 52.662L100.02 52.5685L99.5783 51.3153Z" fill="white"/>
<path d="M97.3511 45.0136L97.0845 45.1071L98.8223 50.0455L99.089 49.9521L97.3511 45.0136Z" fill="#08AF24"/>
<path opacity="0.1" d="M97.3511 45.0136L97.0845 45.1071L98.8223 50.0455L99.089 49.9521L97.3511 45.0136Z" fill="white"/>
<path d="M32.0466 57.6107L90.3457 37.1788C91.102 36.9162 91.9318 36.963 92.6536 37.3092C93.3754 37.6553 93.9304 38.2726 94.1975 39.026L105.857 72.1598C106.121 72.9146 106.074 73.7427 105.728 74.4634C105.382 75.1841 104.764 75.7388 104.009 76.0064L45.71 96.4383C44.9533 96.7003 44.1235 96.6531 43.4014 96.3071C42.6794 95.9611 42.1237 95.3443 41.8555 94.5911L30.1956 61.4574C29.9323 60.7022 29.9792 59.8738 30.326 59.153C30.6729 58.4323 31.2914 57.8778 32.0466 57.6107Z" fill="#08AF24"/>
<path opacity="0.1" d="M32.0466 57.6107L90.3457 37.1788C91.102 36.9162 91.9318 36.963 92.6536 37.3092C93.3754 37.6553 93.9304 38.2726 94.1975 39.026L105.857 72.1598C106.121 72.9146 106.074 73.7427 105.728 74.4634C105.382 75.1841 104.764 75.7388 104.009 76.0064L45.71 96.4383C44.9533 96.7003 44.1235 96.6531 43.4014 96.3071C42.6794 95.9611 42.1237 95.3443 41.8555 94.5911L30.1956 61.4574C29.9323 60.7022 29.9792 59.8738 30.326 59.153C30.6729 58.4323 31.2914 57.8778 32.0466 57.6107Z" fill="white"/>
<path d="M39.7308 88.5491L103.733 66.1194L98.6606 51.7057L34.6586 74.1354L39.7308 88.5491Z" fill="#08AF24"/>
<path opacity="0.3" d="M39.7308 88.5491L103.733 66.1194L98.6606 51.7057L34.6586 74.1354L39.7308 88.5491Z" fill="white"/>
<path d="M78.493 51.3856L91.7233 46.749L90.9995 44.6922L77.7693 49.3288L78.493 51.3856Z" fill="#08AF24"/>
<path opacity="0.8" d="M78.493 51.3856L91.7233 46.749L90.9995 44.6922L77.7693 49.3288L78.493 51.3856Z" fill="white"/>
<path d="M89.6274 74.674L100.242 70.9541L99.8637 69.8791L89.2491 73.599L89.6274 74.674Z" fill="#08AF24"/>
<path opacity="0.8" d="M89.6274 74.674L100.242 70.9541L99.8637 69.8791L89.2491 73.599L89.6274 74.674Z" fill="white"/>
<path d="M87.2868 77.8053L100.965 73.0117L100.587 71.9367L86.9086 76.7303L87.2868 77.8053Z" fill="#08AF24"/>
<path opacity="0.8" d="M87.2868 77.8053L100.965 73.0117L100.587 71.9367L86.9086 76.7303L87.2868 77.8053Z" fill="white"/>
<path d="M45.7897 92.3481L52.6288 89.9513L51.8151 87.639L44.976 90.0358L45.7897 92.3481Z" fill="#08AF24"/>
<path opacity="0.8" d="M45.7897 92.3481L52.6288 89.9513L51.8151 87.639L44.976 90.0358L45.7897 92.3481Z" fill="white"/>
<path d="M88.3817 67.8336L96.3678 65.036C96.7888 64.8865 97.1337 64.5771 97.3273 64.1753C97.521 63.7734 97.5479 63.3114 97.4021 62.8899C97.2523 62.4697 96.9423 62.1256 96.5396 61.9323C96.1369 61.739 95.674 61.7122 95.2516 61.8577L87.2627 64.6581C86.8417 64.8076 86.4968 65.117 86.3032 65.5188C86.1095 65.9207 86.0826 66.3827 86.2284 66.8042C86.3788 67.2245 86.6894 67.5685 87.0927 67.7613C87.496 67.9541 87.9593 67.9801 88.3817 67.8336Z" fill="#08AF24"/>
<path d="M74.7014 72.6279L82.6903 69.8275C83.1082 69.6773 83.4503 69.3696 83.6432 68.9704C83.836 68.5712 83.8643 68.1124 83.7218 67.6927C83.5714 67.273 83.2612 66.9296 82.8586 66.7368C82.4559 66.5441 81.9933 66.5177 81.5713 66.6633L73.5852 69.4637C73.1642 69.6132 72.8194 69.9225 72.6257 70.3244C72.432 70.7263 72.4051 71.1883 72.5509 71.6098C72.7035 72.0274 73.0147 72.3682 73.4171 72.5587C73.8195 72.7492 74.2808 72.7741 74.7014 72.6279Z" fill="#08AF24"/>
<path d="M61.0294 77.4223L69.0184 74.6219C69.4352 74.4707 69.776 74.1624 69.9677 73.7634C70.1595 73.3643 70.1869 72.9061 70.0442 72.4871C69.8938 72.0675 69.5836 71.724 69.1809 71.5313C68.7783 71.3386 68.3157 71.3121 67.8937 71.4577L59.8991 74.2469C59.4786 74.3969 59.1344 74.7065 58.9413 75.1083C58.7482 75.5102 58.7217 75.9718 58.8676 76.393C59.0179 76.8153 59.3299 77.1608 59.7352 77.3538C60.1405 77.5468 60.606 77.5714 61.0294 77.4223Z" fill="#08AF24"/>
<path d="M47.3434 82.2163L55.3323 79.4159C55.7507 79.2663 56.0934 78.9588 56.2869 78.5595C56.4803 78.1602 56.5089 77.7012 56.3666 77.281C56.2162 76.8614 55.906 76.518 55.5034 76.3252C55.1007 76.1325 54.6381 76.1061 54.2161 76.2517L46.2271 79.0521C45.8061 79.2016 45.4613 79.5109 45.2676 79.9128C45.074 80.3147 45.0471 80.7767 45.1929 81.1982C45.3455 81.6158 45.6566 81.9566 46.059 82.1471C46.4614 82.3376 46.9228 82.3625 47.3434 82.2163Z" fill="#08AF24"/>
<g opacity="0.8">
<path opacity="0.8" d="M88.3817 67.8336L96.3678 65.036C96.7888 64.8865 97.1337 64.5771 97.3273 64.1753C97.521 63.7734 97.5479 63.3114 97.4021 62.8899C97.2523 62.4697 96.9423 62.1256 96.5396 61.9323C96.1369 61.739 95.674 61.7122 95.2516 61.8577L87.2627 64.6581C86.8417 64.8076 86.4968 65.117 86.3032 65.5188C86.1095 65.9207 86.0826 66.3827 86.2284 66.8042C86.3788 67.2245 86.6894 67.5685 87.0927 67.7613C87.496 67.9541 87.9593 67.9801 88.3817 67.8336Z" fill="white"/>
<path opacity="0.8" d="M74.7013 72.6279L82.6902 69.8275C83.108 69.6773 83.4502 69.3696 83.643 68.9704C83.8359 68.5712 83.8642 68.1124 83.7217 67.6927C83.5713 67.273 83.2611 66.9296 82.8584 66.7368C82.4558 66.5441 81.9932 66.5177 81.5712 66.6633L73.5851 69.4637C73.1641 69.6132 72.8192 69.9225 72.6256 70.3244C72.4319 70.7263 72.405 71.1883 72.5508 71.6098C72.7034 72.0274 73.0145 72.3682 73.4169 72.5587C73.8193 72.7492 74.2807 72.7741 74.7013 72.6279Z" fill="white"/>
<path opacity="0.8" d="M61.0293 77.4218L69.0182 74.6214C69.435 74.4702 69.7759 74.162 69.9676 73.7629C70.1594 73.3638 70.1868 72.9056 70.0441 72.4866C69.8937 72.067 69.5835 71.7235 69.1808 71.5308C68.7782 71.3381 68.3156 71.3116 67.8935 71.4573L59.8989 74.2464C59.4785 74.3965 59.1343 74.706 58.9412 75.1078C58.748 75.5097 58.7216 75.9713 58.8675 76.3925C59.0178 76.8148 59.3298 77.1603 59.7351 77.3533C60.1404 77.5463 60.6058 77.5709 61.0293 77.4218Z" fill="white"/>
<path opacity="0.8" d="M47.3434 82.2163L55.3323 79.4159C55.7507 79.2663 56.0934 78.9588 56.2869 78.5595C56.4803 78.1602 56.5089 77.7012 56.3666 77.281C56.2162 76.8614 55.906 76.518 55.5034 76.3252C55.1007 76.1325 54.6381 76.1061 54.2161 76.2517L46.2271 79.0521C45.8061 79.2016 45.4613 79.5109 45.2676 79.9128C45.074 80.3147 45.0471 80.7767 45.1929 81.1982C45.3455 81.6158 45.6566 81.9566 46.059 82.1471C46.4614 82.3376 46.9228 82.3625 47.3434 82.2163Z" fill="white"/>
</g>
<path d="M87.6708 61.4196L94.7791 58.9284C95.3829 58.7168 95.7004 58.0569 95.4884 57.4544L94.0071 53.2449C93.7951 52.6424 93.1338 52.3255 92.5301 52.5371L85.4217 55.0282C84.8179 55.2398 84.5004 55.8998 84.7124 56.5023L86.1937 60.7117C86.4057 61.3142 87.067 61.6311 87.6708 61.4196Z" fill="#08AF24"/>
<path opacity="0.3" d="M87.6708 61.4196L94.7791 58.9284C95.3829 58.7168 95.7004 58.0569 95.4884 57.4544L94.0071 53.2449C93.7951 52.6424 93.1338 52.3255 92.5301 52.5371L85.4217 55.0282C84.8179 55.2398 84.5004 55.8998 84.7124 56.5023L86.1937 60.7117C86.4057 61.3142 87.067 61.6311 87.6708 61.4196Z" fill="black"/>
<path d="M45.7694 65.7776C44.7439 65.7778 43.7557 65.3938 43.0004 64.7016C42.2451 64.0093 41.7779 63.0593 41.6911 62.0396C41.6043 61.0199 41.9043 60.0048 42.5318 59.1954C43.1593 58.3859 44.0685 57.8411 45.0793 57.6688C46.0901 57.4965 47.129 57.7092 47.9901 58.2648C48.8513 58.8205 49.472 59.6786 49.7294 60.6692C49.9867 61.6598 49.862 62.7108 49.3798 63.614C48.8977 64.5172 48.0933 65.2068 47.1258 65.5463C46.6901 65.6996 46.2314 65.7777 45.7694 65.7776ZM45.7694 57.8812C45.3354 57.8821 44.9046 57.9555 44.4949 58.0984C43.5349 58.4351 42.7483 59.1385 42.3079 60.054C41.8675 60.9694 41.8095 62.0219 42.1465 62.98C42.3802 63.6417 42.7915 64.2265 43.3357 64.6706C43.8799 65.1147 44.5359 65.401 45.232 65.4981C45.9282 65.5953 46.6378 65.4997 47.2832 65.2217C47.9285 64.9437 48.4849 64.4939 48.8915 63.9217C49.2981 63.3494 49.5393 62.6767 49.5887 61.9769C49.638 61.2771 49.4937 60.5773 49.1715 59.9538C48.8492 59.3303 48.3614 58.8073 47.7615 58.4417C47.1615 58.0762 46.4723 57.8823 45.7694 57.8812Z" fill="#08AF24"/>
<path opacity="0.8" d="M45.7694 65.7776C44.7439 65.7778 43.7557 65.3938 43.0004 64.7016C42.2451 64.0093 41.7779 63.0593 41.6911 62.0396C41.6043 61.0199 41.9043 60.0048 42.5318 59.1954C43.1593 58.3859 44.0685 57.8411 45.0793 57.6688C46.0901 57.4965 47.129 57.7092 47.9901 58.2648C48.8513 58.8205 49.472 59.6786 49.7294 60.6692C49.9867 61.6598 49.862 62.7108 49.3798 63.614C48.8977 64.5172 48.0933 65.2068 47.1258 65.5463C46.6901 65.6996 46.2314 65.7777 45.7694 65.7776ZM45.7694 57.8812C45.3354 57.8821 44.9046 57.9555 44.4949 58.0984C43.5349 58.4351 42.7483 59.1385 42.3079 60.054C41.8675 60.9694 41.8095 62.0219 42.1465 62.98C42.3802 63.6417 42.7915 64.2265 43.3357 64.6706C43.8799 65.1147 44.5359 65.401 45.232 65.4981C45.9282 65.5953 46.6378 65.4997 47.2832 65.2217C47.9285 64.9437 48.4849 64.4939 48.8915 63.9217C49.2981 63.3494 49.5393 62.6767 49.5887 61.9769C49.638 61.2771 49.4937 60.5773 49.1715 59.9538C48.8492 59.3303 48.3614 58.8073 47.7615 58.4417C47.1615 58.0762 46.4723 57.8823 45.7694 57.8812Z" fill="white"/>
<path d="M36.1839 65.0613C36.4444 65.7971 36.9176 66.4392 37.5436 66.9068C38.1696 67.3744 38.9204 67.6463 39.7012 67.6884C40.4819 67.7304 41.2577 67.5406 41.9305 67.1429C42.6032 66.7452 43.1428 66.1575 43.4811 65.454C43.8194 64.7505 43.9412 63.9627 43.8311 63.1902C43.7211 62.4177 43.3841 61.695 42.8627 61.1134C42.3414 60.5319 41.659 60.1175 40.9019 59.9227C40.1447 59.7279 39.3467 59.7614 38.6086 60.0189C38.1171 60.1904 37.6643 60.457 37.2763 60.8034C36.8883 61.1499 36.5726 61.5693 36.3473 62.0378C36.122 62.5063 35.9917 63.0145 35.9636 63.5333C35.9356 64.0521 36.0104 64.5714 36.1839 65.0613Z" fill="#08AF24"/>
<path opacity="0.8" d="M36.1839 65.0613C36.4444 65.7971 36.9176 66.4392 37.5436 66.9068C38.1696 67.3744 38.9204 67.6463 39.7012 67.6884C40.4819 67.7304 41.2577 67.5406 41.9305 67.1429C42.6032 66.7452 43.1428 66.1575 43.4811 65.454C43.8194 64.7505 43.9412 63.9627 43.8311 63.1902C43.7211 62.4177 43.3841 61.695 42.8627 61.1134C42.3414 60.5319 41.659 60.1175 40.9019 59.9227C40.1447 59.7279 39.3467 59.7614 38.6086 60.0189C38.1171 60.1904 37.6643 60.457 37.2763 60.8034C36.8883 61.1499 36.5726 61.5693 36.3473 62.0378C36.122 62.5063 35.9917 63.0145 35.9636 63.5333C35.9356 64.0521 36.0104 64.5714 36.1839 65.0613Z" fill="white"/>
</svg>
