<svg width="238" height="210" viewBox="0 0 238 210" fill="none" xmlns="http://www.w3.org/2000/svg">
<path d="M100.047 60.4802C101.115 60.2554 102.175 60.0183 103.227 59.7689C129.139 53.8031 158.771 50.345 181.24 60.8665C203.268 71.1733 200.561 93.0195 187.679 113.081C165.627 147.417 82.1136 179.999 59.5767 145.087C52.2915 133.805 64.8488 113.94 55.8144 100.641C45.528 85.4963 -2.07446 95.0735 7.43867 61.6145C12.7108 43.0609 26.2378 44.1523 40.7714 50.1733C49.1123 53.6253 57.0788 57.9234 65.7081 60.8419C76.1848 64.392 88.4107 62.9695 100.047 60.4802Z" fill="#08AF24"/>
<path opacity="0.9" d="M100.047 60.4802C101.115 60.2554 102.175 60.0183 103.227 59.7689C129.139 53.8031 158.771 50.345 181.24 60.8665C203.268 71.1733 200.561 93.0195 187.679 113.081C165.627 147.417 82.1136 179.999 59.5767 145.087C52.2915 133.805 64.8488 113.94 55.8144 100.641C45.528 85.4963 -2.07446 95.0735 7.43867 61.6145C12.7108 43.0609 26.2378 44.1523 40.7714 50.1733C49.1123 53.6253 57.0788 57.9234 65.7081 60.8419C76.1848 64.392 88.4107 62.9695 100.047 60.4802Z" fill="white"/>
<path d="M119 210C184.722 210 238 206.893 238 203.059C238 199.226 184.722 196.119 119 196.119C53.2781 196.119 0 199.226 0 203.059C0 206.893 53.2781 210 119 210Z" fill="#F5F5F5"/>
<path d="M42.9625 155.51H121.793V196.168C121.793 196.689 121.69 197.205 121.49 197.686C121.291 198.167 120.998 198.604 120.629 198.973C120.261 199.341 119.823 199.633 119.341 199.833C118.859 200.032 118.343 200.135 117.822 200.135H46.9335C46.412 200.135 45.8956 200.032 45.4138 199.833C44.9321 199.633 44.4943 199.341 44.1256 198.973C43.7568 198.604 43.4643 198.167 43.2648 197.686C43.0652 197.205 42.9625 196.689 42.9625 196.168V155.51Z" fill="#08AF24"/>
<path d="M42.9625 155.51H98.7462L91.8845 146.736C91.1296 145.774 89.2638 144.995 87.711 144.995H37.5431C35.9964 144.995 35.3459 145.774 36.1008 146.736L42.9625 155.51Z" fill="#08AF24"/>
<path opacity="0.2" d="M42.9625 155.51H98.7462L91.8845 146.736C91.1296 145.774 89.2638 144.995 87.711 144.995H37.5431C35.9964 144.995 35.3459 145.774 36.1008 146.736L42.9625 155.51Z" fill="black"/>
<path d="M121.793 155.51H66.0149L72.8767 149.79C73.6316 149.177 75.4974 148.656 77.0501 148.656H127.212C128.765 148.656 129.409 149.164 128.654 149.79L121.793 155.51Z" fill="#08AF24"/>
<path opacity="0.2" d="M66.0149 155.51H121.793V196.168C121.793 196.689 121.69 197.205 121.49 197.686C121.291 198.167 120.998 198.604 120.629 198.973C120.261 199.341 119.823 199.633 119.341 199.833C118.859 200.032 118.343 200.135 117.822 200.135H69.9859C69.4644 200.135 68.948 200.032 68.4663 199.833C67.9845 199.633 67.5467 199.341 67.178 198.973C66.8093 198.604 66.5168 198.167 66.3172 197.686C66.1176 197.205 66.0149 196.689 66.0149 196.168V155.51Z" fill="white"/>
<path opacity="0.5" d="M49.8856 155.51V183.396L51.8128 181.875L53.1692 183.396L54.3476 181.704L55.5566 183.396L57.2383 182.127L59.0918 183.396V155.51H49.8856Z" fill="white"/>
<path d="M62.3632 94.681L52.4511 86.3668" stroke="#08AF24" stroke-miterlimit="10"/>
<path d="M67.5002 98.9913L64.4806 96.4529" stroke="#08AF24" stroke-miterlimit="10"/>
<path d="M97.1935 116.392L129.894 75.5632L86.3546 39.0447L57.5084 72.1113L53.2121 80.3825C52.9988 80.6173 52.8363 80.8936 52.7347 81.194C52.6332 81.4944 52.5947 81.8125 52.6218 82.1284C52.6489 82.4443 52.7409 82.7513 52.8921 83.03C53.0433 83.3088 53.2504 83.5535 53.5006 83.7486L92.7806 116.699C93.4193 117.213 94.2289 117.467 95.0472 117.41C95.8655 117.353 96.6321 116.99 97.1935 116.392Z" fill="#08AF24"/>
<path opacity="0.5" d="M74.767 86.2809L70.0596 93.8532L71.956 94.264L72.6005 96.0175L73.8587 96.0911L74.4417 97.5933L75.9822 98.0409L77.1668 99.9232L81.8742 92.351L74.767 86.2809Z" fill="white"/>
<path opacity="0.1" d="M128.47 74.3676L99.1452 107.048L57.4899 72.1113L86.3546 39.0447L128.47 74.3676Z" fill="black"/>
<path d="M128.47 74.3677L99.1452 107.048L111.285 107.943L140.156 74.8766L128.47 74.3677Z" fill="#08AF24"/>
<path opacity="0.3" d="M128.47 74.3677L99.1452 107.048L111.285 107.943L140.156 74.8766L128.47 74.3677Z" fill="black"/>
<path d="M74.675 38.5297L45.3439 71.2161L57.49 72.1113L86.3546 39.0447L74.675 38.5297Z" fill="#08AF24"/>
<path opacity="0.4" d="M74.675 38.5297L45.3439 71.2161L57.49 72.1113L86.3546 39.0447L74.675 38.5297Z" fill="black"/>
<path opacity="0.1" d="M119.442 84.4292L128.47 74.3676L86.3546 39.0447L80.9659 52.0187L119.442 84.4292Z" fill="black"/>
<path opacity="0.2" d="M57.4899 72.1113L86.3546 39.0447L80.9659 52.0187L60.6385 74.7539L57.4899 72.1113Z" fill="black"/>
<path d="M138.64 12.8391C138.757 13.2316 138.64 13.6178 138.382 13.6914C138.124 13.765 137.824 13.5075 137.707 13.1151C137.59 12.7226 137.707 12.3364 137.965 12.2567C138.223 12.177 138.529 12.4467 138.64 12.8391Z" fill="#263238"/>
<path d="M138.683 13.6116C138.567 14.9607 138.266 16.2873 137.787 17.5541C138.115 17.6678 138.464 17.7086 138.81 17.6736C139.155 17.6387 139.489 17.5288 139.788 17.3517L138.683 13.6116Z" fill="#ED847E"/>
<path d="M139.456 10.221C139.508 10.191 139.548 10.143 139.567 10.0861C139.578 10.0564 139.584 10.0246 139.582 9.99276C139.581 9.96091 139.573 9.92965 139.56 9.90091C139.546 9.87218 139.526 9.84657 139.502 9.82569C139.478 9.80481 139.45 9.7891 139.419 9.77952C139.06 9.6418 138.673 9.59274 138.29 9.6365C137.908 9.68026 137.541 9.81556 137.222 10.0309C137.181 10.073 137.156 10.1286 137.152 10.1875C137.148 10.2464 137.166 10.3048 137.202 10.3517C137.238 10.3987 137.289 10.4312 137.347 10.4432C137.405 10.4552 137.465 10.446 137.517 10.4172C137.772 10.2501 138.063 10.1463 138.366 10.1143C138.669 10.0823 138.976 10.1231 139.26 10.2332C139.292 10.2448 139.326 10.2497 139.359 10.2476C139.393 10.2455 139.426 10.2364 139.456 10.221Z" fill="#263238"/>
<path d="M152.29 15.4634C152.56 18.713 153.364 24.6604 155.285 26.0339C155.285 26.0339 154.831 29.9396 147.92 30.939C140.346 32.0549 143.746 27.7139 143.746 27.7139C147.73 26.1197 147.171 23.0724 146.03 20.301L148.951 16.9533C150.074 15.7147 152.142 13.8018 152.29 15.4634Z" fill="#FFC3BD"/>
<path d="M157.758 27.6219C158.372 27.064 157.145 24.8322 156.39 24.5194C154.413 23.6917 146.33 24.5194 143.292 27.1253C143.04 27.5564 142.888 28.0385 142.846 28.536C142.805 29.0336 142.876 29.5341 143.053 30.0009L157.758 27.6219Z" fill="white"/>
<path d="M183.499 191.514C183.299 191.605 183.084 191.655 182.864 191.661C182.645 191.667 182.427 191.63 182.222 191.551C182.141 191.487 182.082 191.4 182.053 191.301C182.023 191.202 182.024 191.097 182.057 190.999C182.073 190.919 182.107 190.843 182.155 190.777C182.204 190.712 182.267 190.658 182.339 190.619C183.002 190.232 184.641 190.741 184.708 190.766C184.731 190.772 184.751 190.784 184.766 190.802C184.781 190.819 184.791 190.841 184.794 190.864C184.797 190.888 184.793 190.913 184.782 190.935C184.771 190.957 184.754 190.975 184.733 190.987C184.34 191.204 183.927 191.38 183.499 191.514ZM182.603 190.766L182.462 190.827C182.42 190.85 182.383 190.881 182.355 190.92C182.326 190.958 182.306 191.001 182.296 191.048C182.253 191.269 182.339 191.336 182.364 191.355C182.658 191.563 183.659 191.263 184.352 190.913C183.787 190.736 183.19 190.686 182.603 190.766Z" fill="#08AF24"/>
<path d="M184.708 190.993C184.688 190.999 184.667 190.999 184.647 190.993C184.033 190.87 182.75 190.104 182.683 189.527C182.673 189.437 182.695 189.345 182.746 189.269C182.796 189.193 182.872 189.137 182.959 189.11C183.044 189.073 183.136 189.053 183.229 189.053C183.322 189.053 183.414 189.073 183.499 189.11C184.211 189.405 184.763 190.778 184.782 190.833C184.794 190.851 184.8 190.873 184.8 190.895C184.8 190.916 184.794 190.938 184.782 190.956C184.773 190.967 184.762 190.977 184.749 190.983C184.736 190.989 184.722 190.993 184.708 190.993ZM183.112 189.319C183.094 189.314 183.075 189.314 183.057 189.319C182.916 189.38 182.922 189.454 182.928 189.484C182.965 189.828 183.837 190.447 184.456 190.674C184.272 190.275 183.843 189.503 183.407 189.319C183.312 189.283 183.207 189.283 183.112 189.319Z" fill="#08AF24"/>
<path d="M147.527 198.099C146.87 198.099 146.238 198.007 146.023 197.713C145.968 197.636 145.939 197.544 145.939 197.449C145.939 197.355 145.968 197.262 146.023 197.186C146.064 197.115 146.119 197.052 146.184 197.003C146.25 196.953 146.324 196.918 146.404 196.897C147.257 196.67 149.049 197.688 149.123 197.731C149.146 197.742 149.164 197.76 149.176 197.783C149.188 197.805 149.192 197.83 149.187 197.855C149.183 197.88 149.171 197.903 149.153 197.921C149.135 197.938 149.111 197.949 149.086 197.952C148.572 198.048 148.05 198.097 147.527 198.099ZM146.717 197.106C146.638 197.103 146.559 197.113 146.484 197.136C146.385 197.158 146.3 197.218 146.244 197.302C146.158 197.455 146.189 197.529 146.244 197.572C146.484 197.903 147.779 197.909 148.699 197.774C148.088 197.426 147.415 197.199 146.717 197.106Z" fill="#08AF24"/>
<path d="M149.074 197.958H149.025C148.411 197.682 147.183 196.572 147.275 195.996C147.275 195.861 147.398 195.689 147.73 195.659C147.849 195.645 147.971 195.657 148.086 195.693C148.201 195.729 148.308 195.788 148.399 195.867C149.055 196.401 149.19 197.78 149.196 197.835C149.2 197.857 149.197 197.878 149.188 197.898C149.18 197.918 149.165 197.934 149.147 197.946C149.125 197.958 149.099 197.962 149.074 197.958ZM147.846 195.886H147.773C147.552 195.886 147.539 195.996 147.533 196.021C147.478 196.37 148.313 197.247 148.939 197.621C148.885 197.036 148.649 196.483 148.264 196.039C148.149 195.938 148 195.883 147.846 195.886Z" fill="#08AF24"/>
<path d="M154.708 197.835H149.583L149.074 185.99H154.199L154.708 197.835Z" fill="#FFC3BD"/>
<path d="M190.704 189.748L185.985 191.373L181.087 180.208L185.807 178.583L190.704 189.748Z" fill="#FFC3BD"/>
<path d="M184.861 190.202L190.385 188.516C190.483 188.486 190.588 188.49 190.683 188.528C190.778 188.566 190.857 188.635 190.907 188.724L193.209 192.771C193.264 192.87 193.296 192.98 193.303 193.093C193.31 193.206 193.291 193.32 193.248 193.425C193.205 193.529 193.138 193.623 193.054 193.699C192.97 193.775 192.869 193.831 192.76 193.862C190.827 194.42 189.864 194.592 187.445 195.334C185.954 195.788 182.198 197.21 180.08 197.633C177.963 198.056 177.282 196.033 178.104 195.671C181.787 194.046 183.296 192.201 184.174 190.766C184.327 190.501 184.572 190.301 184.861 190.202Z" fill="#263238"/>
<path d="M149.62 197.241H155.211C155.312 197.242 155.41 197.277 155.489 197.341C155.568 197.404 155.624 197.492 155.647 197.59L156.66 202.14C156.685 202.249 156.685 202.363 156.659 202.473C156.634 202.583 156.584 202.685 156.513 202.773C156.442 202.86 156.352 202.93 156.25 202.978C156.147 203.025 156.036 203.049 155.923 203.047C153.904 203.017 151.013 202.894 148.454 202.894C145.489 202.894 144.244 203.059 140.764 203.059C138.665 203.059 138.081 200.938 138.959 200.742C142.967 199.865 144.925 199.773 148.386 197.639C148.753 197.396 149.18 197.259 149.62 197.241Z" fill="#263238"/>
<path d="M164.503 29.2959C165.995 30.6632 167.284 32.0305 168.622 33.4591C169.96 34.8877 171.199 36.3654 172.402 37.9412C173.659 39.542 174.799 41.2304 175.815 42.9934C176.37 43.9652 176.85 44.9777 177.251 46.0223C177.355 46.3105 177.46 46.5864 177.546 46.8991C177.646 47.2154 177.73 47.5367 177.797 47.8617L177.902 48.3707L177.975 48.9347C178.044 49.4516 178.044 49.9753 177.975 50.4921C177.834 51.4677 177.473 52.3986 176.92 53.2145C176.515 53.8102 176.042 54.3557 175.508 54.8393C174.65 55.6168 173.712 56.3013 172.709 56.881C170.943 57.8903 169.095 58.7497 167.186 59.4501C163.562 60.7937 159.829 61.8194 156.028 62.5158L154.953 58.8369C158.286 57.3961 161.662 55.8387 164.773 54.1771C166.288 53.3833 167.746 52.486 169.137 51.4915C169.717 51.0803 170.25 50.6075 170.727 50.0813C170.872 49.9258 170.994 49.7502 171.089 49.5601C171.138 49.4559 171.089 49.4682 171.028 49.6889C170.985 50.0997 170.991 49.7809 170.893 49.5601C170.862 49.4559 170.807 49.3149 170.751 49.18C170.696 49.0451 170.629 48.8918 170.561 48.7447C170.229 48.076 169.858 47.427 169.45 46.801C168.502 45.395 167.478 44.042 166.382 42.7482C165.252 41.4115 164.062 40.081 162.84 38.775C161.619 37.469 160.336 36.1508 159.158 34.9368L164.503 29.2959Z" fill="#FFC3BD"/>
<path d="M156.359 58.2544L151.529 59.7137L154.634 64.815C154.634 64.815 157.488 63.6377 158.12 61.2158L156.359 58.2544Z" fill="#FFC3BD"/>
<path d="M149.577 61.5223L151.48 65.7284L154.604 64.8209L151.498 59.7135L149.577 61.5223Z" fill="#FFC3BD"/>
<path d="M153.186 30.6815C152.726 35.5866 163.11 43.1773 163.11 43.1773L173.108 36.3408C171.372 33.142 168.834 30.4483 165.743 28.5233C160.011 24.8567 153.763 24.5869 153.186 30.6815Z" fill="#08AF24"/>
<g opacity="0.3">
<path opacity="0.3" d="M153.186 30.6815C152.726 35.5866 163.11 43.1773 163.11 43.1773L173.108 36.3408C171.372 33.142 168.834 30.4483 165.743 28.5233C160.011 24.8567 153.763 24.5869 153.186 30.6815Z" fill="white"/>
</g>
<path d="M136.185 30.2891C136.185 30.2891 131.698 37.1686 142.353 74.0673L169.444 70.0696C169.064 66.3294 164.534 50.0138 164.381 32.1776C164.374 31.3163 164.193 30.4651 163.849 29.6755C163.504 28.886 163.003 28.1743 162.376 27.5836C161.748 26.9928 161.007 26.5352 160.198 26.2383C159.389 25.9414 158.527 25.8114 157.666 25.8561C156.881 25.8991 156.071 25.9542 155.266 26.034C151.399 26.3784 147.555 26.9455 143.753 27.7323C141.168 28.3893 138.638 29.2441 136.185 30.2891Z" fill="#08AF24"/>
<g opacity="0.3">
<path opacity="0.3" d="M136.185 30.2891C136.185 30.2891 131.698 37.1686 142.353 74.0673L169.444 70.0696C169.064 66.3294 164.534 50.0138 164.381 32.1776C164.374 31.3163 164.193 30.4651 163.849 29.6755C163.504 28.886 163.003 28.1743 162.376 27.5836C161.748 26.9928 161.007 26.5352 160.198 26.2383C159.389 25.9414 158.527 25.8114 157.666 25.8561C156.881 25.8991 156.071 25.9542 155.266 26.034C151.399 26.3784 147.555 26.9455 143.753 27.7323C141.168 28.3893 138.638 29.2441 136.185 30.2891Z" fill="white"/>
</g>
<path opacity="0.2" d="M135.522 42.1472L135.614 42.043L141.985 42.6071C142.955 46.7151 139.407 52.3192 137.535 54.9189C136.634 50.701 135.962 46.4376 135.522 42.1472Z" fill="black"/>
<path opacity="0.2" d="M149.074 185.996L149.338 192.102H154.462L154.199 185.996H149.074Z" fill="black"/>
<path opacity="0.2" d="M185.807 178.583L181.087 180.208L183.616 185.965L188.335 184.34L185.807 178.583Z" fill="black"/>
<path d="M151.621 8.13025C152.75 13.0783 153.658 15.9171 151.934 19.1667C149.344 24.0044 142.678 23.5384 140.095 19.0257C137.768 14.9606 136.308 7.5539 140.506 4.21842C141.426 3.48049 142.519 2.98922 143.682 2.79109C144.845 2.59297 146.04 2.69453 147.152 3.08617C148.265 3.4778 149.259 4.14658 150.041 5.02922C150.823 5.91186 151.367 6.97919 151.621 8.13025Z" fill="#FFC3BD"/>
<path d="M141.672 12.9802L139.788 14.1329L139.966 7.69496C138.751 7.74708 137.552 7.40037 136.553 6.70781C137.234 6.05788 147.84 2.34839 151.148 2.99219C151.492 2.85117 151.909 2.2135 151.909 2.2135C151.909 2.2135 152.038 3.01672 151.48 3.32329C151.885 3.24358 152.897 3.43978 153.18 4.03452C152.715 3.90775 152.222 3.93573 151.774 4.11423C151.774 4.11423 155.457 4.67219 154.149 9.77351C152.683 15.396 153.167 18.6272 153.167 18.6272C153.167 18.6272 150.43 20.7426 148.049 20.3502C145.508 17.5542 141.838 14.1942 141.672 12.9802Z" fill="#263238"/>
<path d="M138.063 6.19888C135.074 6.19888 134 4.73961 133.233 3.51333C135.381 3.28647 139.855 1.90691 143.176 1.67392C146.496 1.44092 150.136 2.0602 149.037 3.51333C147.938 4.96647 138.063 6.19888 138.063 6.19888Z" fill="#263238"/>
<path d="M138.72 4.86832C136.265 4.52497 133.871 2.21343 135.712 0C136.394 1.62482 140.991 1.43475 144.256 0.754163C148.552 -0.14102 151.529 1.30599 150.007 4.23066C149.172 5.83095 138.72 4.86832 138.72 4.86832Z" fill="#263238"/>
<path d="M144.323 11.5148C144.675 12.7254 144.619 14.0178 144.164 15.1936C143.55 16.7326 142.187 16.4199 141.476 15.0894C140.862 13.8631 140.395 11.6374 141.439 10.5276C142.482 9.41785 143.881 10.0616 144.323 11.5148Z" fill="#FFC3BD"/>
<path d="M151.965 72.6509C151.965 72.6509 156.359 110.022 159.55 124.663C163.043 140.703 180.271 184.432 180.271 184.432L188.863 181.465C188.863 181.465 177.816 148.539 174.882 126.117C172.629 108.9 169.42 70.0696 169.42 70.0696L151.965 72.6509Z" fill="#263238"/>
<path d="M178.073 181.685C178.03 181.685 179.835 185.364 179.835 185.364L189.87 182.108L188.691 179.116L178.073 181.685Z" fill="#08AF24"/>
<path opacity="0.3" d="M154.389 91.8237C155.764 102.21 157.525 114.51 159.072 122.364C161.349 110.328 161.883 95.1285 154.389 91.8237Z" fill="black"/>
<path d="M142.353 74.0673C142.353 74.0673 138.708 109.176 139.284 124.774C139.861 140.998 147.447 190.919 147.447 190.919H156.12C156.12 190.919 154.524 141.942 154.892 126.012C155.316 108.642 161.834 71.1917 161.834 71.1917L142.353 74.0673Z" fill="#263238"/>
<path d="M145.759 187.467C145.723 187.467 146.25 191.06 146.25 191.06H156.801L157.089 187.854L145.759 187.467Z" fill="#08AF24"/>
<path d="M140.672 38.9098C139.714 40.4303 138.744 41.7976 137.738 43.2017C136.731 44.6058 135.676 45.9609 134.602 47.3098C132.412 50.0462 130.04 52.6314 127.5 55.0476C126.813 55.6607 126.181 56.2739 125.438 56.8318L124.898 57.2671L124.628 57.4817C124.53 57.5614 124.487 57.6044 124.284 57.7515C123.676 58.1848 123.009 58.5276 122.302 58.7693C121.208 59.1426 120.064 59.3493 118.908 59.3825C117.93 59.4152 116.951 59.3722 115.98 59.2537C112.431 58.7887 108.967 57.8097 105.7 56.3474L106.762 52.6686C109.902 53.0408 113.064 53.1924 116.226 53.1223C116.925 53.0857 117.622 53.01 118.313 52.8955C118.833 52.8195 119.338 52.6622 119.81 52.4295C119.957 52.3498 120.037 52.2701 120.019 52.2517C120 52.2333 120.099 52.172 120.154 52.1168L120.363 51.9267L120.774 51.5404C121.326 51.0499 121.848 50.4552 122.388 49.9156C123.45 48.7752 124.505 47.6041 125.506 46.3594C126.506 45.1147 127.519 43.8639 128.501 42.5763C129.483 41.2887 130.434 39.9828 131.392 38.6768C132.349 37.3708 133.282 35.9973 134.166 34.7281L140.672 38.9098Z" fill="#FFC3BD"/>
<path d="M144.237 37.285C146.3 44.0296 134.325 51.5037 134.325 51.5037L126.543 41.6015C128.297 38.3365 130.463 35.3095 132.987 32.5945C138.284 26.8372 142.666 32.1531 144.237 37.285Z" fill="#08AF24"/>
<g opacity="0.3">
<path opacity="0.3" d="M144.237 37.285C146.3 44.0296 134.325 51.5037 134.325 51.5037L126.543 41.6015C128.297 38.3365 130.463 35.3095 132.987 32.5945C138.284 26.8372 142.666 32.1531 144.237 37.285Z" fill="white"/>
</g>
<path d="M108.566 52.8955L102.263 51.7428L102.926 57.1875C102.926 57.1875 106.203 59.0269 108.579 56.1513L108.566 52.8955Z" fill="#FFC3BD"/>
<path d="M99.8326 52.9691L101.195 56.8993L102.914 57.1875L102.251 51.7428L99.8326 52.9691Z" fill="#FFC3BD"/>
</svg>
