<svg width="203" height="171" viewBox="0 0 203 171" fill="none" xmlns="http://www.w3.org/2000/svg">
<path d="M126.659 0C112.221 0.778959 102.437 11.836 86.7531 9.93304C25.07 -6.06438 -2.293 37.8815 29.0694 74.0168C60.0707 109.232 150.52 134.368 180.102 102.577C208.381 73.0549 173.956 0.569843 126.659 0Z" fill="#08AF24"/>
<path opacity="0.9" d="M126.659 0C112.221 0.778959 102.437 11.836 86.7531 9.93304C25.07 -6.06438 -2.293 37.8815 29.0694 74.0168C60.0707 109.232 150.52 134.368 180.102 102.577C208.381 73.0549 173.956 0.569843 126.659 0Z" fill="white"/>
<path d="M101.5 171C157.557 171 203 168.35 203 165.082C203 161.814 157.557 159.164 101.5 159.164C45.4431 159.164 0 161.814 0 165.082C0 168.35 45.4431 171 101.5 171Z" fill="#F5F5F5"/>
<path d="M121.225 112.458H125.329L142.254 165.082H140.882L121.225 112.458Z" fill="#08AF24"/>
<path d="M104.63 112.458H108.74L115.147 165.082H113.776L104.63 112.458Z" fill="#08AF24"/>
<path d="M80.7172 112.458H76.6078L59.6885 165.082H61.06L80.7172 112.458Z" fill="#08AF24"/>
<path d="M97.3066 112.458H93.2025L86.7949 165.082H88.1665L97.3066 112.458Z" fill="#08AF24"/>
<path d="M117.692 124.122C97.8721 124.352 69.703 123.693 57.2491 99.336C48.8104 82.8315 39.7854 47.7783 64.5099 37.7564C89.2345 27.7345 127.203 39.0477 126.842 58.4537C126.481 77.8597 146.85 82.6119 153.54 95.8228C161.806 112.233 143.809 123.818 117.692 124.122Z" fill="#08AF24"/>
<path opacity="0.7" d="M117.692 124.122C97.8721 124.352 69.703 123.693 57.2491 99.336C48.8104 82.8315 39.7854 47.7783 64.5099 37.7564C89.2345 27.7345 127.203 39.0477 126.842 58.4537C126.481 77.8597 146.85 82.6119 153.54 95.8228C161.806 112.233 143.809 123.818 117.692 124.122Z" fill="white"/>
<path opacity="0.3" d="M138.49 105.641C138.281 108.647 123.968 110.1 106.526 108.887C89.0828 107.674 78.058 106.754 74.8647 99.8953C68.4258 86.057 67.5934 45.525 85.0414 46.7483C102.489 47.9716 138.699 102.635 138.49 105.641Z" fill="#08AF24"/>
<path d="M112.21 45.5667L112.347 46.5024L112.509 47.501L112.86 49.519C113.116 50.8625 113.383 52.2113 113.681 53.5497C114.27 56.1997 114.997 58.8172 115.859 61.3915C116.084 62.0189 116.288 62.6671 116.545 63.2788C116.801 63.8905 117.006 64.5335 117.283 65.1295C117.561 65.7255 117.807 66.3947 118 66.8181C118.1 67.0429 118.178 67.2363 118.22 67.3409C118.262 67.4455 118.288 67.4559 117.848 67.2311C117.416 67.0278 116.939 66.9344 116.461 66.9593C116.137 66.9784 115.818 67.0527 115.519 67.1788C115.397 67.2349 115.278 67.2977 115.163 67.367C115.074 67.4263 114.988 67.4909 114.906 67.5605C114.744 67.6787 114.617 67.8398 114.54 68.0258C114.54 68.0937 114.54 68.099 114.598 68.0624C114.901 67.6879 115.14 67.2657 115.304 66.8129C115.802 65.6941 116.231 64.3139 116.692 63.0383L121.063 63.2527C121.351 64.8527 121.449 66.4811 121.356 68.1042C121.303 69.093 121.105 70.0687 120.77 71.0004C120.643 71.3425 120.483 71.6716 120.293 71.9833C120.003 72.4657 119.631 72.8939 119.194 73.2484C119.039 73.3722 118.876 73.4857 118.707 73.5883C118.516 73.708 118.315 73.8095 118.105 73.8915C117.638 74.0885 117.14 74.2 116.634 74.2208C115.792 74.2521 114.957 74.0571 114.215 73.6562C113.473 73.2533 112.809 72.7223 112.252 72.0878C111.891 71.6883 111.559 71.2638 111.258 70.8175C110.789 70.1179 110.364 69.3898 109.986 68.6374C109.243 67.2526 108.572 65.8305 107.975 64.3767C106.794 61.5256 105.823 58.5918 105.07 55.599C104.688 54.1143 104.369 52.6191 104.086 51.1135C103.944 50.3606 103.819 49.6078 103.704 48.8445C103.651 48.4629 103.599 48.076 103.552 47.6892C103.505 47.3023 103.463 46.9364 103.416 46.4659L112.21 45.5667Z" fill="#FF8B7B"/>
<path d="M100.877 44.1188C98.2123 49.0749 104.897 62.2074 104.897 62.2074L116.938 55.6673C116.938 55.6673 116.032 52.1907 113.059 45.5408C109.797 38.3002 104.117 38.112 100.877 44.1188Z" fill="#263238"/>
<path d="M116.493 64.4604L116.728 58.5737L123.439 60.827C123.439 60.827 122.576 66.149 119.676 66.149L116.493 64.4604Z" fill="#FF8B7B"/>
<path d="M121.204 54.3862L123.424 55.573C123.85 55.803 124.182 56.1764 124.359 56.6272C124.536 57.0779 124.548 57.5768 124.392 58.0353L123.439 60.827L116.728 58.5738L118.414 55.2645C118.538 55.0223 118.709 54.8072 118.916 54.6315C119.124 54.4559 119.365 54.3234 119.625 54.2416C119.884 54.1599 120.158 54.1306 120.429 54.1554C120.7 54.1802 120.964 54.2587 121.204 54.3862Z" fill="#FF8B7B"/>
<path d="M107.196 39.8213C100.492 38.3765 93.6035 37.9867 86.7794 38.6659C84.6314 38.8833 82.6199 39.8189 81.071 41.3211C79.5222 42.8233 78.5269 44.8039 78.2465 46.9417C75.5191 67.5345 77.2466 78.487 77.1157 84.1227L108.196 86.8726C107.944 80.9755 108.415 65.5845 111.336 45.8125C111.532 44.4761 111.214 43.1152 110.446 42.0037C109.678 40.8921 108.516 40.1123 107.196 39.8213Z" fill="#263238"/>
<path d="M132.695 109.781L138.527 109.923L141.003 96.5026L135.166 96.3562L132.695 109.781Z" fill="#FF8B7B"/>
<path d="M139.354 108.903L133.292 106.99C133.186 106.953 133.07 106.957 132.967 107.001C132.864 107.046 132.782 107.128 132.737 107.23L130.564 111.982C130.513 112.104 130.487 112.234 130.489 112.366C130.491 112.498 130.52 112.628 130.574 112.748C130.629 112.868 130.708 112.975 130.806 113.063C130.904 113.151 131.02 113.217 131.145 113.258C133.344 113.906 134.087 113.959 136.836 114.826C140.05 115.841 141.343 116.614 145.112 117.806C147.389 118.522 148.52 116.353 147.614 115.825C144.756 114.162 141.547 111.538 140.594 109.771C140.306 109.335 139.863 109.024 139.354 108.903Z" fill="#263238"/>
<path opacity="0.2" d="M140.997 96.508L139.725 103.424L133.888 103.278L135.161 96.3616L140.997 96.508Z" fill="black"/>
<path d="M143.641 61.6059C136.506 58.0457 118.398 77.1955 95.4378 85.7432C94.9405 94.4895 104.751 98.9907 115.252 97.7151C125.654 96.4499 129.496 90.9449 132.695 83.3645C130.894 91.1488 132.606 99.2364 132.606 99.2364L141.657 101.788C141.657 101.788 150.185 64.8576 143.641 61.6059Z" fill="#08AF24"/>
<path opacity="0.2" d="M143.641 61.6059C136.506 58.0457 118.398 77.1955 95.4378 85.7432C94.9405 94.4895 104.751 98.9907 115.252 97.7151C125.654 96.4499 129.496 90.9449 132.695 83.3645C130.894 91.1488 132.606 99.2364 132.606 99.2364L141.657 101.788C141.657 101.788 150.185 64.8576 143.641 61.6059Z" fill="black"/>
<path d="M142.704 102.912L131.014 101.835L130.763 97.9926L143.814 98.9911L142.704 102.912Z" fill="#263238"/>
<path d="M138.668 108.887C138.646 108.874 138.628 108.856 138.615 108.834C138.602 108.812 138.595 108.787 138.594 108.762C138.595 108.733 138.604 108.705 138.621 108.682C138.638 108.658 138.662 108.641 138.689 108.631C138.966 108.532 141.458 107.685 142.102 108.176C142.163 108.222 142.211 108.282 142.241 108.352C142.272 108.422 142.283 108.498 142.275 108.574C142.272 108.699 142.238 108.821 142.177 108.931C142.116 109.04 142.029 109.133 141.924 109.201C141.212 109.671 139.589 109.201 138.689 108.893L138.668 108.887ZM141.887 108.364C141.474 108.15 140.149 108.453 139.17 108.757C140.416 109.149 141.374 109.227 141.788 108.966C141.857 108.919 141.914 108.857 141.954 108.784C141.994 108.712 142.016 108.63 142.018 108.547C142.023 108.518 142.019 108.487 142.007 108.459C141.995 108.431 141.975 108.407 141.95 108.391L141.887 108.364Z" fill="#08AF24"/>
<path d="M138.668 108.888L138.636 108.861C138.619 108.845 138.606 108.824 138.6 108.801C138.593 108.778 138.593 108.754 138.6 108.731C138.6 108.668 138.987 107.136 139.809 106.64C139.925 106.566 140.055 106.516 140.191 106.495C140.327 106.473 140.466 106.48 140.6 106.514C140.971 106.603 141.05 106.812 141.055 106.969C141.055 107.633 139.511 108.689 138.773 108.898C138.738 108.908 138.7 108.904 138.668 108.888ZM140.668 106.823C140.624 106.802 140.578 106.786 140.532 106.775C140.433 106.752 140.331 106.748 140.232 106.764C140.132 106.781 140.036 106.816 139.95 106.87C139.427 107.199 139.076 108.098 138.94 108.543C139.71 108.213 140.788 107.366 140.778 106.974C140.762 106.927 140.762 106.88 140.641 106.823H140.668Z" fill="#08AF24"/>
<path d="M102.646 40.0513C99.2174 38.5195 99.8299 36.4702 100.955 34.2274L93.7417 27.6664C93.9982 30.547 93.9459 35.3671 91.9566 37.887C91.6405 38.2721 91.4839 38.7634 91.519 39.2601C91.554 39.7568 91.778 40.2214 92.1451 40.5584C94.4091 42.6612 97.248 44.0442 100.301 44.5316C103.824 45.1485 104.609 43.669 104.379 42.1791C104.291 41.7084 104.086 41.2672 103.783 40.8956C103.48 40.524 103.09 40.2338 102.646 40.0513Z" fill="#FF8B7B"/>
<path opacity="0.2" d="M96.6837 30.3432C95.9142 30.0766 95.7415 31.1222 95.7415 32.5965C95.7415 34.0708 98.249 36.6638 100.134 36.439C100.301 35.6651 100.581 34.92 100.966 34.2276L96.6837 30.3432Z" fill="black"/>
<path d="M109.289 25.5544C111.273 23.641 113.812 18.3556 113.284 15.7469C111.24 14.7892 108.934 14.5443 106.735 15.0516C104.905 15.607 103.193 16.493 101.683 17.6655L104.897 20.4049L104.835 22.2556L106.625 24.237L106.101 26.025C106.056 26.1827 106.057 26.3504 106.106 26.5073C106.155 26.6641 106.248 26.8034 106.375 26.9079C106.502 27.0123 106.657 27.0775 106.82 27.0952C106.983 27.113 107.149 27.0826 107.295 27.0078L109.289 25.5544Z" fill="#263238"/>
<path d="M95.1605 18.7268C93.6685 24.305 92.5064 27.4993 94.3439 31.2059C97.1079 36.7788 104.735 36.4756 107.876 31.4411C110.703 26.9085 112.666 18.5491 108.012 14.6281C106.982 13.7605 105.748 13.168 104.426 12.9063C103.103 12.6445 101.736 12.722 100.452 13.1315C99.1685 13.541 98.0095 14.2691 97.084 15.2477C96.1585 16.2262 95.4967 17.4233 95.1605 18.7268Z" fill="#FF8B7B"/>
<path d="M92.6006 22.0833C92.3127 18.6381 92.0771 16.045 92.0771 13.0024C93.5848 12.6207 95.9091 11.5856 98.3591 12.7358C100.056 13.62 101.577 14.8071 102.845 16.2385L99.1809 18.3296L98.9087 20.1646L96.8148 21.7905L97.0032 23.6412C97.0197 23.8045 96.9879 23.9691 96.9119 24.1147C96.8359 24.2602 96.7189 24.3804 96.5754 24.4604C96.4318 24.5404 96.268 24.5768 96.1041 24.565C95.9401 24.5532 95.7832 24.4938 95.6526 24.394L92.6006 22.0833Z" fill="#263238"/>
<path d="M113.289 17.4093C115.943 16.0239 119.571 9.32695 113.352 9.60926C109.337 9.79223 104.416 10.3255 100.233 7.97815C100.233 7.97815 101.448 10.0693 104.568 10.3412C111.347 10.9581 111.562 9.8602 113.587 10.3412C117.152 11.1149 113.289 17.4093 113.289 17.4093Z" fill="#263238"/>
<path d="M113.823 11.3657C109.347 8.87199 104.432 10.8116 100.626 9.36865C96.82 7.92574 92.7315 10.1842 92.0405 13.0282L102.83 16.2643C106.918 19.1971 107.855 19.8088 110.096 19.1448C113.352 18.162 118.294 13.8699 113.823 11.3657Z" fill="#263238"/>
<path d="M92.9565 12.4064C91.0405 12.7619 90.0197 14.44 91.6739 16.5887C91.0719 14.2727 92.9146 13.4833 92.9146 13.4833L92.9565 12.4064Z" fill="#263238"/>
<path d="M90.763 23.2386C90.8868 23.9459 91.1494 24.6218 91.5358 25.2274C91.9221 25.833 92.4245 26.3564 93.014 26.7674C94.5845 27.8548 96.0294 26.5897 96.1236 24.7704C96.2021 23.134 95.4745 20.588 93.6213 20.2325C91.7681 19.877 90.4751 21.4872 90.763 23.2386Z" fill="#FF8B7B"/>
<path d="M102.631 22.585C102.484 23.0294 102.599 23.4685 102.892 23.5626C103.186 23.6567 103.542 23.3744 103.693 22.93C103.845 22.4857 103.725 22.0465 103.432 21.9524C103.138 21.8583 102.782 22.1406 102.631 22.585Z" fill="#263238"/>
<path d="M108.049 24.5979C107.902 25.0423 108.017 25.4815 108.311 25.5756C108.604 25.6697 108.96 25.3873 109.112 24.943C109.263 24.4986 109.143 24.0595 108.85 23.9654C108.557 23.8712 108.201 24.1536 108.049 24.5979Z" fill="#263238"/>
<path d="M106.368 24.326C106.368 24.326 106.525 27.2223 107.232 28.8273C106.185 29.303 104.96 28.5345 104.96 28.5345L106.368 24.326Z" fill="#FF5652"/>
<path d="M102.673 29.0833C102.194 28.8645 101.766 28.5497 101.415 28.1584C101.063 27.7672 100.797 27.3079 100.631 26.8091C100.626 26.7916 100.625 26.7733 100.627 26.7553C100.629 26.7373 100.635 26.7199 100.644 26.7041C100.653 26.6884 100.665 26.6745 100.679 26.6634C100.694 26.6522 100.71 26.644 100.728 26.6392C100.745 26.6344 100.764 26.6331 100.782 26.6354C100.8 26.6376 100.817 26.6434 100.833 26.6524C100.849 26.6614 100.863 26.6734 100.874 26.6877C100.885 26.702 100.893 26.7184 100.898 26.7359C101.092 27.2855 101.413 27.7816 101.835 28.184C102.257 28.5864 102.768 28.8837 103.327 29.0519C103.345 29.0566 103.361 29.0649 103.375 29.0764C103.39 29.0878 103.401 29.1021 103.41 29.1184C103.418 29.1347 103.423 29.1525 103.424 29.1708C103.425 29.189 103.422 29.2073 103.416 29.2244C103.411 29.2417 103.402 29.2577 103.39 29.2716C103.379 29.2854 103.364 29.2968 103.348 29.3051C103.332 29.3133 103.315 29.3183 103.297 29.3197C103.278 29.3212 103.26 29.319 103.243 29.3133C103.047 29.2512 102.857 29.1743 102.673 29.0833Z" fill="#263238"/>
<path d="M101.929 19.903C101.886 19.8806 101.848 19.8484 101.819 19.8089C101.779 19.7484 101.764 19.6745 101.778 19.6031C101.791 19.5317 101.833 19.4686 101.893 19.4273C102.249 19.1691 102.662 18.9994 103.097 18.9322C103.532 18.8649 103.977 18.902 104.395 19.0404C104.429 19.0542 104.461 19.0745 104.487 19.1003C104.514 19.1262 104.535 19.1569 104.549 19.1909C104.564 19.2249 104.572 19.2614 104.572 19.2984C104.572 19.3354 104.566 19.372 104.552 19.4064C104.538 19.4407 104.518 19.472 104.492 19.4984C104.466 19.5249 104.435 19.546 104.401 19.5606C104.367 19.5752 104.331 19.5829 104.294 19.5833C104.257 19.5838 104.22 19.5769 104.185 19.5632C103.853 19.4584 103.501 19.4331 103.157 19.4894C102.814 19.5457 102.488 19.682 102.207 19.8873C102.166 19.9151 102.119 19.9313 102.07 19.9341C102.021 19.9368 101.972 19.9261 101.929 19.903Z" fill="#263238"/>
<path d="M110.923 23.2071C110.879 23.193 110.84 23.1677 110.808 23.1338C110.777 23.0999 110.755 23.0585 110.745 23.0137C110.671 22.676 110.517 22.361 110.296 22.0953C110.074 21.8296 109.792 21.621 109.473 21.4872C109.406 21.4613 109.351 21.4102 109.321 21.3449C109.291 21.2796 109.287 21.205 109.311 21.1371C109.335 21.0691 109.384 21.0131 109.448 20.9809C109.513 20.9486 109.587 20.9427 109.656 20.9644C110.061 21.1295 110.421 21.3895 110.704 21.7225C110.987 22.0556 111.186 22.4518 111.284 22.8778C111.3 22.9491 111.288 23.0238 111.25 23.0862C111.212 23.1486 111.151 23.1938 111.08 23.2124C111.028 23.2264 110.974 23.2246 110.923 23.2071Z" fill="#263238"/>
<path d="M152.483 156.775L157.268 153.44L151.294 141.165L146.51 144.5L152.483 156.775Z" fill="#FF8B7B"/>
<path d="M157.142 151.856L151.331 154.428C151.227 154.47 151.142 154.55 151.095 154.652C151.047 154.754 151.04 154.87 151.075 154.977L152.593 159.974C152.635 160.099 152.702 160.214 152.791 160.312C152.88 160.409 152.988 160.487 153.109 160.541C153.229 160.594 153.36 160.622 153.492 160.623C153.624 160.624 153.754 160.597 153.875 160.544C155.969 159.582 156.54 159.128 159.178 157.967C162.262 156.602 163.743 156.331 167.36 154.731C169.543 153.764 168.931 151.39 167.926 151.594C164.68 152.232 160.534 152.384 158.65 151.688C158.144 151.554 157.606 151.614 157.142 151.856Z" fill="#263238"/>
<path opacity="0.2" d="M151.294 141.17L154.373 147.496L149.588 150.831L146.51 144.505L151.294 141.17Z" fill="black"/>
<path d="M125.502 108.919C86.1408 107.69 76.2939 108.025 77.1262 84.1226L97.1289 85.8948C97.1289 85.8948 131.993 88.0435 136.318 99.6338C142.819 117.069 154.687 143.935 154.687 143.935L146.834 149.121C146.834 149.121 130.711 129.438 125.502 108.919Z" fill="#08AF24"/>
<path d="M156.467 145.321L146.416 151.375L143.929 148.426L155.037 141.504L156.467 145.321Z" fill="#263238"/>
<path d="M156.603 152.316C156.577 152.321 156.55 152.32 156.526 152.311C156.501 152.303 156.479 152.288 156.461 152.269C156.446 152.245 156.438 152.218 156.438 152.19C156.438 152.162 156.446 152.135 156.461 152.112C156.608 151.85 157.911 149.576 158.723 149.498C158.798 149.493 158.874 149.507 158.943 149.539C159.011 149.571 159.071 149.62 159.115 149.681C159.196 149.776 159.252 149.89 159.278 150.012C159.305 150.134 159.301 150.261 159.267 150.381C159.042 151.207 157.524 151.95 156.65 152.29L156.603 152.316ZM158.67 149.801C158.22 149.911 157.425 151.014 156.896 151.892C158.089 151.369 158.859 150.789 158.99 150.324C159.011 150.244 159.012 150.159 158.994 150.079C158.975 149.998 158.938 149.922 158.885 149.859C158.869 149.833 158.845 149.812 158.817 149.799C158.789 149.786 158.758 149.781 158.728 149.785L158.67 149.801Z" fill="#08AF24"/>
<path d="M156.603 152.316H156.561C156.537 152.316 156.513 152.309 156.493 152.296C156.472 152.283 156.456 152.264 156.446 152.242C156.414 152.185 155.681 150.789 155.964 149.874C156.004 149.741 156.072 149.617 156.162 149.511C156.252 149.405 156.363 149.319 156.488 149.257C156.828 149.079 157.011 149.179 157.132 149.294C157.582 149.785 157.132 151.605 156.697 152.253C156.687 152.269 156.673 152.284 156.657 152.294C156.641 152.305 156.622 152.312 156.603 152.316ZM156.734 149.445C156.688 149.459 156.644 149.478 156.603 149.503C156.512 149.548 156.431 149.612 156.366 149.691C156.301 149.769 156.254 149.86 156.226 149.958C156.043 150.559 156.383 151.453 156.577 151.876C156.938 151.124 157.184 149.785 156.912 149.482C156.896 149.461 156.854 149.419 156.734 149.445Z" fill="#08AF24"/>
<path d="M122.963 56.9167L116.681 56.8173C116.458 56.8115 116.236 56.8517 116.029 56.9353C115.822 57.019 115.634 57.1443 115.477 57.3035L107.662 67.7594C107.579 67.8631 107.539 67.9942 107.55 68.1262C107.561 68.2581 107.621 68.3811 107.719 68.4703C107.918 68.6742 108.169 68.622 108.551 68.6272L114.734 68.7213C114.958 68.7279 115.18 68.6886 115.388 68.6059C115.596 68.5231 115.785 68.3987 115.943 68.2403L123.675 57.9047C123.942 57.5545 123.979 56.9167 122.963 56.9167Z" fill="#08AF24"/>
<path d="M90.1715 45.6346L90.271 46.8789L90.3914 48.1911C90.4804 49.0694 90.5746 49.9477 90.6793 50.8051C90.8939 52.5616 91.1295 54.3182 91.4384 56.033C91.9774 59.4276 92.8183 62.7675 93.9511 66.0131C94.2234 66.792 94.5532 67.5553 94.8725 68.2663C95.0191 68.6375 95.0871 68.7159 95.0662 68.7891C95.0452 68.8623 95.1866 68.9877 95.6315 69.0139C96.2246 69.031 96.8167 68.9533 97.3852 68.7838C98.1224 68.5724 98.8447 68.3122 99.5473 68.0049C100.296 67.6755 101.05 67.2939 101.809 66.8861C102.568 66.4783 103.327 66.0392 104.075 65.5687C104.824 65.0982 105.599 64.612 106.29 64.1571L109.337 67.2939C108.677 68.1199 108.049 68.8361 107.347 69.5628C106.646 70.2895 105.939 70.9691 105.17 71.6278C104.394 72.311 103.578 72.9464 102.725 73.5308C101.822 74.165 100.866 74.7195 99.8666 75.188C98.7076 75.7377 97.4722 76.1096 96.2022 76.2911C95.4288 76.3902 94.646 76.3902 93.8726 76.2911C92.9935 76.1694 92.1409 75.9026 91.3494 75.5017C90.5543 75.1025 89.8322 74.5723 89.2135 73.9333C88.6643 73.3531 88.1895 72.7069 87.8001 72.0095C87.2766 71.0632 86.795 70.1431 86.371 69.1916C84.7593 65.5098 83.5534 61.6638 82.7746 57.7216C82.3872 55.7925 82.0574 53.8634 81.8218 51.9291C81.6962 50.9567 81.5915 49.9895 81.513 49.0119C81.4711 48.5205 81.4292 48.0343 81.403 47.5376C81.3768 47.041 81.3507 46.5757 81.335 46.0006L90.1715 45.6346Z" fill="#FF8B7B"/>
<path d="M80.5236 42.8642C77.3408 47.5066 82.5809 61.2769 82.5809 61.2769L95.239 56.049C95.239 56.049 94.7155 52.494 92.4645 45.5932C90.0145 38.0284 84.3817 37.239 80.5236 42.8642Z" fill="#263238"/>
<path d="M105.211 64.9833L109.541 60.9788L112.682 67.2993C112.682 67.2993 108.321 70.4361 106.269 68.4076L105.211 64.9833Z" fill="#FF8B7B"/>
<path d="M115.671 61.167L116.404 63.5666C116.546 64.0292 116.519 64.5273 116.327 64.9717C116.135 65.4161 115.791 65.7778 115.357 65.9923L112.708 67.2993L109.567 60.9787L113.1 59.8182C113.358 59.738 113.629 59.7094 113.897 59.7338C114.166 59.7582 114.427 59.8353 114.666 59.9605C114.904 60.0858 115.116 60.2568 115.288 60.4638C115.461 60.6708 115.591 60.9098 115.671 61.167Z" fill="#FF8B7B"/>
</svg>
