<svg width="100" height="100" viewBox="0 0 100 100" fill="none" xmlns="http://www.w3.org/2000/svg">
<path d="M129.659 126.841C123.174 126.841 117.076 124.317 112.491 119.734L87.7026 94.9456C85.9629 93.2005 82.929 93.206 81.1894 94.9456L56.3104 119.825C51.725 124.407 45.6269 126.932 39.1425 126.932H34.2578L65.6523 158.327C75.4574 168.131 91.3544 168.131 101.16 158.327L132.645 126.841H129.659Z" fill="#08AF24"/>
<path d="M39.1425 39.1601C45.6269 39.1601 51.725 41.6857 56.3096 46.2688L81.1886 71.1516C82.9803 72.9433 85.9061 72.9511 87.7025 71.1493L112.491 46.3589C117.076 41.7758 123.174 39.2511 129.658 39.2511H132.644L101.16 7.76645C91.3544 -2.03869 75.4574 -2.03869 65.6522 7.76645L34.2585 39.1601H39.1425Z" fill="#08AF24"/>
<path d="M158.686 65.2934L139.66 46.2669C139.241 46.4348 138.787 46.5397 138.309 46.5397H129.659C125.186 46.5397 120.808 48.3532 117.648 51.5154L92.8593 76.3042C90.5406 78.6237 87.4927 79.785 84.4472 79.785C81.3993 79.785 78.3537 78.6237 76.0342 76.3065L51.1529 51.4252C47.9923 48.2631 43.6152 46.4496 39.1425 46.4496H28.5056C28.0525 46.4496 27.628 46.3423 27.2277 46.1915L8.12583 65.2934C-1.67931 75.0978 -1.67931 90.9948 8.12583 100.801L27.227 119.902C27.6273 119.751 28.0525 119.644 28.5056 119.644H39.1425C43.6152 119.644 47.9923 117.83 51.1529 114.668L76.0319 89.7892C80.5287 85.2962 88.3672 85.2939 92.8593 89.7915L117.648 114.577C120.808 117.74 125.186 119.554 129.659 119.554H138.309C138.788 119.554 139.241 119.658 139.66 119.826L158.686 100.801C168.491 90.9948 168.491 75.0978 158.686 65.2934Z" fill="#08AF24"/>
</svg>
