<svg width="101" height="101" viewBox="0 0 101 101" fill="none" xmlns="http://www.w3.org/2000/svg">
<path d="M78.7586 76.9121C74.835 76.9121 71.1452 75.3844 68.3711 72.6113L53.3719 57.6126C52.3193 56.5567 50.4835 56.56 49.4309 57.6126L34.3772 72.6663C31.6026 75.439 27.9128 76.9667 23.9892 76.9667H21.0336L40.0297 95.9633C45.9626 101.896 55.5816 101.896 61.5144 95.9633L80.5656 76.9121H78.7586Z" fill="#08AF24"/>
<path d="M23.9892 23.8579C27.9128 23.8579 31.6026 25.3861 34.3767 28.1592L49.4304 43.2153C50.5145 44.2995 52.2849 44.3042 53.3719 43.2139L68.3706 28.2138C71.1451 25.4406 74.835 23.913 78.7586 23.913H80.5651L61.5144 4.86226C55.5815 -1.07062 45.9626 -1.07062 40.0297 4.86226L21.034 23.8579H23.9892Z" fill="#08AF24"/>
<path d="M96.3225 39.6706L84.81 28.1581C84.5565 28.2597 84.2823 28.3232 83.9925 28.3232H78.7586C76.0522 28.3232 73.4033 29.4205 71.4913 31.3338L56.4922 46.333C55.0891 47.7365 53.2449 48.4392 51.4021 48.4392C49.5579 48.4392 47.7151 47.7365 46.3116 46.3344L31.2564 31.2793C29.344 29.3659 26.6955 28.2686 23.9892 28.2686H17.553C17.2788 28.2686 17.022 28.2037 16.7798 28.1125L5.22164 39.6706C-0.711249 45.6031 -0.711249 55.222 5.22164 61.1554L16.7793 72.7131C17.0216 72.6218 17.2788 72.5569 17.553 72.5569H23.9892C26.6955 72.5569 29.344 71.4596 31.2564 69.5463L46.3102 54.4925C49.0311 51.7739 53.774 51.7725 56.4922 54.4939L71.4913 69.4912C73.4033 71.4051 76.0522 72.5024 78.7586 72.5024H83.9925C84.2827 72.5024 84.5565 72.5654 84.8105 72.667L96.3225 61.1554C102.255 55.222 102.255 45.6031 96.3225 39.6706Z" fill="#08AF24"/>
</svg>