<svg width="161" height="132" viewBox="0 0 161 132" fill="none" xmlns="http://www.w3.org/2000/svg">
<path d="M124.965 14.6589C113.304 3.07163 90.9509 -3.79092 75.6575 2.22534C58.7646 8.88735 55.7901 29.1541 38.837 34.7131C21.5993 40.3644 4.95497 31.6849 0.497233 56.6885C-2.91422 75.9445 11.842 85.2016 25.993 94.2741C51.4005 110.558 102.536 134.635 129.936 109.784C161.144 81.4795 151.13 40.6131 124.965 14.6589Z" fill="#08AF24"/>
<path opacity="0.9" d="M124.965 14.6589C113.304 3.07163 90.9509 -3.79092 75.6575 2.22534C58.7646 8.88735 55.7901 29.1541 38.837 34.7131C21.5993 40.3644 4.95497 31.6849 0.497233 56.6885C-2.91422 75.9445 11.842 85.2016 25.993 94.2741C51.4005 110.558 102.536 134.635 129.936 109.784C161.144 81.4795 151.13 40.6131 124.965 14.6589Z" fill="white"/>
<path d="M83.2741 132C126.201 132 161 129.967 161 127.46C161 124.952 126.201 122.919 83.2741 122.919C40.3473 122.919 5.54822 124.952 5.54822 127.46C5.54822 129.967 40.3473 132 83.2741 132Z" fill="#F5F5F5"/>
<path d="M86.5975 6.81781C80.5843 4.50355 74.487 10.2912 74.9721 21.0362C75.3369 29.0579 67.6681 28.1835 71.6769 35.3268C75.6856 42.4701 72.7151 47.3032 68.4698 46.0037C71.6769 50.0466 81.1496 46.9262 81.1776 40.3324C81.2057 33.7385 97.4211 43.3605 97.4211 43.3605C97.4211 43.3605 94.1299 49.1522 103.318 47.8086C112.506 46.4649 120.48 27.979 120.512 19.7688C120.536 14.3261 114.723 11.8113 111.785 12.3447C111.676 5.39396 83.7913 -7.52896 86.5975 6.81781Z" fill="#263238"/>
<path d="M70.4822 45.6828C69.6386 45.6835 68.8052 45.4986 68.0409 45.1413L68.2213 44.7844C68.2213 44.7844 70.0653 45.7069 71.8292 45.0691C72.8955 44.6681 73.7253 43.8017 74.2986 42.4501L74.6674 42.6065C74.05 44.0664 73.14 45.013 71.9615 45.4462C71.4859 45.6106 70.9853 45.6907 70.4822 45.6828Z" fill="#263238"/>
<path d="M72.206 30.0686L71.8933 29.82C74.1102 27.0565 73.8696 24.5377 73.589 21.6218C73.3365 18.9667 73.0478 15.9545 74.6714 12.2806C76.4954 8.15745 78.9608 5.70682 81.803 5.19343C84.1762 4.76026 86.6937 5.76297 88.8945 8.00102L88.6099 8.28178C86.5053 6.13197 84.112 5.16937 81.8751 5.57446C79.1692 6.06378 76.804 8.4382 75.0602 12.433C73.4567 16.0107 73.7614 18.9626 74.0099 21.5697C74.2625 24.4615 74.5231 27.1808 72.206 30.0686Z" fill="#263238"/>
<path d="M39.294 74.2481L37.8068 69.6597C37.4138 68.4452 36.6806 67.3691 35.6942 66.5593L33.9704 65.1395C33.3946 64.8664 32.7493 64.7755 32.1205 64.8786C31.4917 64.9818 30.9092 65.2743 30.4507 65.717L27.7288 68.3321C27.1582 68.8804 26.815 69.6236 26.7674 70.4137C26.7199 71.2038 26.9715 71.9828 27.4722 72.5956L28.6388 74.0195C28.6388 74.0195 32.1504 79.4582 36.6322 81.1828L37.5302 80.1922C38.249 79.3959 38.7805 78.4488 39.0857 77.4202C39.3909 76.3917 39.4621 75.3078 39.294 74.2481Z" fill="#FF8B7B"/>
<path d="M80.9491 71.0874L80.7246 71.7492L80.5202 72.3348L80.1193 73.4779C79.8427 74.2359 79.542 74.9699 79.2454 75.7039C78.6481 77.1759 77.9987 78.6118 77.3252 80.0396C76.6517 81.4675 75.9382 82.8753 75.1885 84.2711C74.4389 85.6668 73.6732 87.0466 72.8354 88.4022C71.1782 91.1447 69.359 93.7858 67.3875 96.3116C65.3785 98.9031 63.1667 101.331 60.773 103.571C60.4684 103.852 60.1677 104.137 59.855 104.413L58.9049 105.236L58.6684 105.44L58.5482 105.545L58.2555 105.789C57.7165 106.224 57.1269 106.591 56.4997 106.884C55.7992 107.21 55.0551 107.431 54.2909 107.542C53.5708 107.647 52.84 107.653 52.1181 107.562C51.0362 107.423 49.9888 107.087 49.0274 106.571C48.3705 106.218 47.7513 105.799 47.1793 105.32C46.3332 104.614 45.5584 103.827 44.8663 102.97C43.7602 101.597 42.7656 100.137 41.8918 98.6058C41.07 97.1739 40.3444 95.7541 39.6589 94.3383C38.3119 91.4946 37.1494 88.6549 36.1111 85.7831C35.0729 82.9114 34.1428 80.0436 33.3611 77.0395C33.172 76.254 33.2679 75.4268 33.6316 74.7055C33.9954 73.9841 34.6034 73.4154 35.3473 73.1009C36.0911 72.7863 36.9224 72.7463 37.693 72.988C38.4636 73.2297 39.1234 73.7373 39.5547 74.4204L39.5947 74.4886C42.5973 79.446 45.5718 84.5478 48.7347 89.1603C49.5164 90.3154 50.3182 91.4344 51.14 92.4652C51.8668 93.4269 52.6626 94.3344 53.5212 95.1805C53.7921 95.451 54.0965 95.6856 54.4272 95.8784C54.5153 95.9226 54.5514 95.8784 54.4272 95.8263C54.1255 95.6485 53.7892 95.5377 53.441 95.5014C53.0872 95.4532 52.7285 95.4532 52.3747 95.5014C51.9762 95.5559 51.5875 95.6667 51.2201 95.8303C50.9264 95.9615 50.6491 96.1271 50.3943 96.3236L50.3222 96.3838L50.2901 96.4079L50.3102 96.3878L50.3943 96.2996L50.5667 96.1271L51.2442 95.4372L51.9016 94.7233C53.6742 92.7553 55.3159 90.6732 56.8164 88.4905C58.3277 86.2644 59.7829 83.9662 61.1058 81.5597C62.4286 79.1532 63.6834 76.6986 64.8539 74.1958C65.4392 72.9404 65.9924 71.677 66.5336 70.4136L67.3354 68.5205L67.7082 67.586L68.0289 66.7477L68.1331 66.475C68.7444 64.773 70.0065 63.3837 71.6416 62.6127C73.2768 61.8417 75.1511 61.7522 76.8522 62.3639C78.5533 62.9755 79.9418 64.2382 80.7124 65.8742C81.483 67.5102 81.5725 69.3855 80.9611 71.0874H80.9491Z" fill="#FF8B7B"/>
<path d="M66.3772 72.732C66.5496 76.6867 60.3119 85.8274 68.0128 91.1257C68.9187 99.1113 70.0532 106.973 72.1819 120.068H112.366C110.714 108.741 111.075 95.8344 116.374 70.3335C116.666 68.9388 116.661 67.4984 116.36 66.1057C116.059 64.713 115.469 63.3992 114.627 62.2497C113.786 61.1002 112.712 60.1407 111.475 59.4335C110.239 58.7262 108.868 58.2871 107.451 58.1446C105.847 57.9842 104.148 57.8478 102.408 57.7435C95.6492 57.4186 90.1051 57.202 84.1601 57.7435C82.1918 57.924 80.1513 58.1727 78.2111 58.4454C74.8167 58.9294 71.7242 60.6608 69.5364 63.3021C67.3486 65.9433 66.2223 69.3051 66.3772 72.732Z" fill="#263238"/>
<path opacity="0.2" d="M66.2409 67.4136C68.105 69.3629 70.8831 70.0969 72.254 69.4912C73.625 68.8856 71.9654 68.2519 70.4862 68.1757C69.007 68.0995 71.3481 67.5379 73.8455 67.8107C76.343 68.0834 76.1265 66.3186 73.4447 65.8574C70.7628 65.3962 73.4847 65.1876 75.7096 65.348C77.9345 65.5085 78.183 63.9162 75.4971 63.3426C72.8113 62.7691 80.44 63.1742 77.9024 60.535C75.3649 57.8959 74.042 64.0766 74.0299 61.8185C74.0179 59.5604 72.0656 59.3639 71.7089 61.1647C71.3521 62.9656 70.4381 65.0552 70.5463 62.8252C70.6546 60.5952 68.6101 59.9976 68.3215 62.023C68.0328 64.0485 66.7901 65.7772 67.0627 64.586C67.3353 63.3948 66.9905 61.9388 65.9322 62.8693C64.8739 63.7998 64.3808 65.4643 66.2409 67.4136Z" fill="white"/>
<path opacity="0.2" d="M87.4953 69.8722C85.6112 67.9429 82.8251 67.237 81.4822 67.8667C80.1393 68.4964 81.7789 69.0981 83.2621 69.1622C84.7453 69.2264 82.4042 69.808 79.9068 69.5633C77.4093 69.3187 77.6378 71.0794 80.3076 71.5086C82.9775 71.9377 80.2756 72.1824 78.0467 72.046C75.8178 71.9097 75.5893 73.502 78.2792 74.0514C80.9691 74.6009 73.3404 74.272 75.902 76.8991C78.4636 79.5262 79.7264 73.3135 79.7584 75.5716C79.7905 77.8297 81.7628 78.0061 82.0875 76.2013C82.4122 74.3964 83.3182 72.2987 83.234 74.5287C83.1498 76.7588 85.2023 77.3363 85.4669 75.2948C85.7315 73.2533 86.9582 71.5246 86.7016 72.7158C86.445 73.9071 86.7978 75.367 87.8481 74.4245C88.8984 73.4819 89.3754 71.8014 87.4953 69.8722Z" fill="white"/>
<path opacity="0.2" d="M60.7449 80.0678C62.609 82.0171 65.3911 82.7551 66.7581 82.1454C68.1251 81.5358 66.4734 80.9101 64.9902 80.8339C63.507 80.7577 65.8521 80.1961 68.3496 80.4689C70.847 80.7416 70.6345 78.9728 67.9487 78.5156C65.2628 78.0584 67.9848 77.8418 70.2136 78.0022C72.4425 78.1627 72.683 76.5704 70.0012 75.9968C67.3193 75.4233 74.94 75.8324 72.4064 73.1892C69.8729 70.5461 68.546 76.7348 68.534 74.4767C68.5219 72.2186 66.5697 72.0221 66.2129 73.8189C65.8561 75.6158 64.9421 77.7094 65.0503 75.4834C65.1586 73.2574 63.1141 72.6518 62.8255 74.6812C62.5368 76.7107 61.2941 78.4314 61.5667 77.2442C61.8393 76.057 61.4946 74.593 60.4363 75.5275C59.3779 76.4621 58.8849 78.1225 60.7449 80.0678Z" fill="white"/>
<path opacity="0.2" d="M81.9993 82.5265C80.1152 80.5972 77.3291 79.8913 75.9862 80.521C74.6432 81.1507 76.2868 81.7564 77.7661 81.8165C79.2453 81.8767 76.9122 82.4623 74.4107 82.2176C71.9093 81.973 72.1458 83.7337 74.8116 84.1669C77.4774 84.6001 74.7795 84.8367 72.5507 84.7003C70.3218 84.564 70.0973 86.1603 72.7832 86.7058C75.469 87.2512 67.8444 86.9223 70.41 89.5494C72.9756 92.1765 74.2303 85.9678 74.2664 88.2218C74.3025 90.4759 76.2708 90.6564 76.5955 88.8556C76.9202 87.0547 77.8262 84.949 77.738 87.179C77.6498 89.4091 79.7063 89.9866 79.9749 87.9451C80.2435 85.9036 81.4621 84.1789 81.2056 85.3701C80.949 86.5614 81.3018 88.0173 82.3521 87.0747C83.4024 86.1322 83.8834 84.4476 81.9993 82.5265Z" fill="white"/>
<path opacity="0.2" d="M94.1259 71.0674C95.9859 73.0167 98.768 73.7507 100.139 73.145C101.51 72.5394 99.8544 71.9057 98.3752 71.8295C96.8959 71.7533 99.237 71.1918 101.73 71.4645C104.224 71.7372 104.015 69.9725 101.33 69.5112C98.6437 69.05 101.366 68.8414 103.595 69.0018C105.823 69.1623 106.064 67.57 103.382 66.9964C100.7 66.4229 108.325 66.828 105.787 64.1888C103.25 61.5497 101.931 67.7304 101.919 65.4723C101.907 63.2142 99.9506 63.0177 99.5978 64.8185C99.2451 66.6194 98.323 68.709 98.4313 66.479C98.5395 64.249 96.495 63.6514 96.2064 65.6769C95.9178 67.7023 94.6751 69.431 94.9477 68.2398C95.2203 67.0486 94.8795 65.5926 93.8172 66.5231C92.7549 67.4537 92.2618 69.1182 94.1259 71.0674Z" fill="white"/>
<path opacity="0.2" d="M115.376 73.5261C113.496 71.5969 110.706 70.891 109.343 71.5207C107.98 72.1504 109.644 72.752 111.123 72.8162C112.602 72.8803 110.269 73.4619 107.768 73.2173C105.266 72.9726 105.503 74.7333 108.169 75.1665C110.834 75.5997 108.137 75.8363 105.912 75.7C103.687 75.5636 103.454 77.1559 106.144 77.7054C108.834 78.2549 101.205 77.922 103.767 80.5491C106.329 83.1762 107.587 76.9634 107.623 79.2215C107.66 81.4796 109.628 81.6561 109.953 79.8512C110.277 78.0463 111.183 75.9486 111.099 78.1787C111.015 80.4087 113.063 80.9863 113.332 78.9447C113.6 76.9032 114.823 75.1786 114.563 76.3698C114.302 77.561 114.663 79.0169 115.709 78.0744C116.755 77.1318 117.26 75.4553 115.376 73.5261Z" fill="white"/>
<path opacity="0.2" d="M88.6298 83.7256C90.4939 85.6709 93.272 86.4089 94.643 85.7992C96.014 85.1896 94.3543 84.5639 92.8751 84.4877C91.3959 84.4115 93.737 83.85 96.2344 84.1227C98.7319 84.3954 98.5154 82.6307 95.8336 82.1694C93.1517 81.7082 95.8737 81.4956 98.0985 81.656C100.323 81.8165 100.572 80.2282 97.8861 79.6506C95.2002 79.0731 102.829 79.4862 100.291 76.843C97.7538 74.1999 96.4309 80.3886 96.4188 78.1305C96.4068 75.8724 94.4546 75.6759 94.0978 77.4727C93.741 79.2696 92.827 81.3632 92.9352 79.1372C93.0435 76.9112 90.999 76.3056 90.7064 78.3351C90.4137 80.3645 89.179 82.0852 89.4476 80.898C89.7162 79.7108 89.3795 78.2468 88.3211 79.1813C87.2628 80.1159 86.7698 81.7764 88.6298 83.7256Z" fill="white"/>
<path opacity="0.2" d="M76.2027 96.1433C74.3186 94.2141 71.5325 93.5082 70.1695 94.1379C68.8065 94.7676 70.4702 95.3692 71.9494 95.4334C73.4286 95.4975 71.0955 96.0791 68.5941 95.8344C66.0926 95.5898 66.3291 97.3505 68.995 97.7797C71.6608 98.2088 68.9629 98.4535 66.734 98.3171C64.5052 98.1808 64.2807 99.7731 66.9665 100.323C69.6524 100.872 62.0277 100.543 64.5933 103.17C67.1589 105.797 68.4137 99.5846 68.4498 101.843C68.4858 104.101 70.4541 104.277 70.7748 102.472C71.0956 100.667 72.0095 98.5698 71.9213 100.8C71.8332 103.03 73.8897 103.607 74.1582 101.566C74.4268 99.5244 75.6455 97.7957 75.3889 98.987C75.1324 100.178 75.4851 101.638 76.5354 100.696C77.5857 99.753 78.0868 98.0845 76.2027 96.1433Z" fill="white"/>
<path opacity="0.2" d="M70.7067 108.797C68.8266 106.868 66.0365 106.162 64.6735 106.792C63.3106 107.422 64.9742 108.027 66.4534 108.088C67.9327 108.148 65.5996 108.733 63.1021 108.489C60.6046 108.244 60.8331 110.005 63.503 110.438C66.1728 110.871 63.4749 111.108 61.246 110.971C59.0172 110.835 58.7887 112.431 61.4786 112.977C64.1684 113.522 56.5398 113.193 59.1014 115.82C61.663 118.448 62.9217 112.239 62.9578 114.493C62.9939 116.747 64.9622 116.927 65.2869 115.127C65.6116 113.326 66.5176 111.22 66.4334 113.45C66.3492 115.68 68.3977 116.258 68.6663 114.216C68.9348 112.175 70.1575 110.45 69.8969 111.641C69.6364 112.832 69.9972 114.288 71.0475 113.346C72.0978 112.403 72.5908 110.727 70.7067 108.797Z" fill="white"/>
<path opacity="0.2" d="M82.8333 97.3384C84.6933 99.2877 87.4754 100.022 88.8464 99.416C90.2174 98.8104 88.5578 98.1767 87.0785 98.1005C85.5993 98.0243 87.9404 97.4627 90.4379 97.7355C92.9354 98.0082 92.7189 96.2435 90.037 95.7822C87.3552 95.321 90.0771 95.1124 92.302 95.2728C94.5268 95.4333 94.7754 93.841 92.0895 93.2674C89.4036 92.6939 97.0323 93.099 94.4948 90.4598C91.9572 87.8207 90.6343 94.0014 90.6223 91.7433C90.6103 89.4852 88.658 89.2887 88.3012 91.0895C87.9444 92.8904 87.0264 94.98 87.1387 92.75C87.2509 90.52 85.2025 89.9224 84.9098 91.9479C84.6172 93.9733 83.3825 95.702 83.6511 94.5108C83.9196 93.3196 83.5829 91.8636 82.5246 92.7941C81.4663 93.7246 80.9692 95.3892 82.8333 97.3384Z" fill="white"/>
<path opacity="0.2" d="M77.3372 109.997C79.2013 111.942 81.9794 112.68 83.3504 112.07C84.7214 111.461 83.0657 110.835 81.5825 110.759C80.0993 110.682 82.4444 110.121 84.9418 110.394C87.4393 110.666 87.2228 108.902 84.541 108.44C81.8591 107.979 84.577 107.767 86.8059 107.927C89.0348 108.087 89.2753 106.499 86.5934 105.922C83.9116 105.344 91.5322 105.757 88.9987 103.114C86.4652 100.471 85.1383 106.66 85.1262 104.401C85.1142 102.143 83.1619 101.947 82.8052 103.744C82.4484 105.541 81.5344 107.634 81.6426 105.408C81.7509 103.182 79.7064 102.577 79.4178 104.606C79.1291 106.636 77.8864 108.356 78.159 107.169C78.4316 105.982 78.0869 104.518 77.0285 105.452C75.9702 106.387 75.4772 108.047 77.3372 109.997Z" fill="white"/>
<path opacity="0.2" d="M104.152 100.286C102.272 98.3571 99.4816 97.6512 98.1186 98.2809C96.7556 98.9106 98.4192 99.5163 99.8985 99.5764C101.378 99.6366 99.0446 100.222 96.5431 99.9775C94.0417 99.7328 94.2782 101.494 96.944 101.927C99.6098 102.36 96.916 102.597 94.6871 102.46C92.4582 102.324 92.2297 103.916 94.9196 104.466C97.6095 105.015 89.9808 104.682 92.5424 107.309C95.104 109.936 96.3627 103.724 96.3988 105.982C96.4349 108.24 98.4032 108.416 98.7279 106.615C99.0526 104.815 99.9586 102.709 99.8744 104.939C99.7902 107.169 101.839 107.746 102.107 105.705C102.376 103.663 103.599 101.939 103.338 103.13C103.077 104.321 103.438 105.777 104.489 104.835C105.539 103.892 106.036 102.216 104.152 100.286Z" fill="white"/>
<path opacity="0.2" d="M98.6598 112.945C96.7757 111.015 93.9896 110.309 92.6266 110.939C91.2636 111.569 92.9233 112.17 94.4065 112.235C95.8898 112.299 93.5486 112.88 91.0512 112.636C88.5537 112.391 88.7862 114.152 91.4521 114.581C94.1179 115.01 91.42 115.255 89.1911 115.118C86.9622 114.982 86.7337 116.574 89.4236 117.124C92.1135 117.673 84.4848 117.344 87.0464 119.968C89.608 122.591 90.8708 116.386 90.9069 118.644C90.9429 120.902 92.9112 121.079 93.2319 119.274C93.5526 117.469 94.4626 115.371 94.3785 117.597C94.2943 119.823 96.3468 120.405 96.6113 118.367C96.8759 116.33 98.1026 114.597 97.846 115.788C97.5895 116.979 97.9422 118.439 98.9925 117.497C100.043 116.554 100.54 114.87 98.6598 112.945Z" fill="white"/>
<path opacity="0.2" d="M110.782 101.482C112.646 103.431 115.425 104.169 116.795 103.559C118.166 102.95 116.511 102.324 115.028 102.248C113.544 102.171 115.89 101.61 118.387 101.879C120.884 102.147 120.668 100.387 117.986 99.9294C115.304 99.4721 118.022 99.2556 120.251 99.416C122.48 99.5764 122.72 97.9841 120.039 97.4106C117.357 96.837 124.977 97.2461 122.444 94.603C119.91 91.9599 118.583 98.1446 118.571 95.8905C118.559 93.6364 116.607 93.4358 116.25 95.2327C115.894 97.0295 114.98 99.1232 115.088 96.8972C115.196 94.6712 113.152 94.0655 112.863 96.095C112.574 98.1245 111.332 99.8451 111.604 98.6579C111.877 97.4707 111.532 96.0068 110.474 96.9413C109.415 97.8758 108.93 99.5323 110.782 101.482Z" fill="white"/>
<path opacity="0.2" d="M70.6305 122.703C72.4906 124.652 75.2727 125.386 76.6437 124.777C78.0147 124.167 76.3591 123.541 74.8798 123.465C73.4006 123.389 75.7417 122.827 78.2392 123.1C80.7366 123.373 80.5202 121.608 77.8383 121.147C75.1564 120.685 77.8744 120.477 80.1032 120.637C82.3321 120.798 82.5726 119.205 79.8908 118.632C77.2089 118.058 84.8336 118.467 82.296 115.824C79.7585 113.181 78.4396 119.366 78.4276 117.108C78.4156 114.85 76.4593 114.653 76.1065 116.45C75.7537 118.247 74.8317 120.345 74.94 118.115C75.0482 115.884 73.0037 115.287 72.7151 117.312C72.4265 119.338 71.1838 121.062 71.4564 119.875C71.7289 118.688 71.3882 117.228 70.3259 118.159C69.2636 119.089 68.7665 120.754 70.6305 122.703Z" fill="white"/>
<path opacity="0.2" d="M105.29 114.128C107.15 116.077 109.932 116.811 111.303 116.205C112.674 115.6 111.019 114.966 109.54 114.89C108.06 114.814 110.401 114.252 112.899 114.525C115.396 114.798 115.18 113.033 112.498 112.572C109.816 112.11 112.534 111.902 114.763 112.062C116.992 112.223 117.232 110.63 114.551 110.057C111.869 109.483 119.493 109.888 116.956 107.249C114.418 104.61 113.099 110.791 113.087 108.533C113.075 106.274 111.119 106.078 110.766 107.879C110.414 109.68 109.492 111.769 109.6 109.539C109.708 107.309 107.664 106.732 107.375 108.737C107.086 110.743 105.844 112.523 106.124 111.32C106.405 110.117 106.056 108.673 104.994 109.603C103.931 110.534 103.426 112.19 105.29 114.128Z" fill="white"/>
<path opacity="0.2" d="M109.884 86.1803C108 84.251 105.214 83.5451 103.851 84.1748C102.488 84.8045 104.148 85.4062 105.631 85.4663C107.114 85.5265 104.773 86.1121 102.276 85.8674C99.7782 85.6228 100.007 87.3835 102.677 87.8167C105.346 88.2498 102.648 88.4905 100.42 88.3501C98.1907 88.2097 97.9623 89.8101 100.652 90.3555C103.342 90.901 95.7133 90.5721 98.2749 93.1992C100.837 95.8263 102.099 89.6176 102.131 91.8716C102.163 94.1257 104.136 94.3062 104.46 92.5054C104.785 90.7045 105.691 88.6028 105.607 90.8288C105.523 93.0548 107.571 93.6364 107.84 91.5989C108.108 89.5614 109.331 87.8287 109.075 89.0199C108.818 90.2112 109.171 91.6711 110.221 90.7245C111.271 89.778 111.764 88.1095 109.884 86.1803Z" fill="white"/>
<path opacity="0.2" d="M111.019 52.2606C109.135 50.3314 106.349 49.6255 105.006 50.2552C103.663 50.8849 105.302 51.4865 106.786 51.5507C108.269 51.6148 105.932 52.1964 103.43 51.9517C100.929 51.7071 101.165 53.4678 103.831 53.901C106.497 54.3342 103.799 54.5708 101.57 54.4345C99.3413 54.2981 99.1168 55.8904 101.803 56.4399C104.489 56.9894 96.8639 56.6565 99.4295 59.2836C101.995 61.9107 103.25 55.6979 103.286 57.956C103.322 60.2141 105.29 60.3906 105.611 58.5857C105.932 56.7808 106.846 54.6831 106.758 56.9132C106.669 59.1432 108.726 59.7207 108.994 57.6792C109.263 55.6377 110.482 53.913 110.225 55.1043C109.969 56.2955 110.321 57.7514 111.372 56.8089C112.422 55.8663 112.899 54.1898 111.019 52.2606Z" fill="white"/>
<path opacity="0.2" d="M107.214 68.3561C106.497 74.2961 109.026 84.9048 112.518 92.8422C113.127 87.8808 114.037 82.2576 115.3 75.744L107.214 68.3561Z" fill="#08AF24"/>
<path d="M104.28 57.8878C103.671 57.8477 103.049 57.8116 102.424 57.7795C95.6653 57.4506 90.1212 57.238 84.1762 57.7795L82.6208 57.9359C81.2685 60.0865 80.5179 62.5608 80.4474 65.1006C80.3769 67.6404 80.989 70.1526 82.2199 72.3749L83.0217 73.875L84.1642 72.6116C92.334 63.5912 102.568 58.7782 102.673 58.718L104.276 57.8878H104.28Z" fill="white"/>
<path d="M100.616 37.224C99.4655 43.0959 98.319 53.861 102.424 57.7795C102.424 57.7795 91.7246 62.4562 83.2741 71.7974C79.1451 64.1327 84.1761 57.7795 84.1761 57.7795C90.7264 56.2153 90.5541 51.3622 89.4156 46.7899L100.616 37.224Z" fill="#FF8B7B"/>
<path opacity="0.2" d="M96.0501 41.1305L89.4196 46.7858C89.7032 47.8472 89.8923 48.9317 89.9848 50.0265C92.4863 49.6656 95.9218 46.9181 96.1863 44.2991C96.3326 43.2433 96.2864 42.1698 96.0501 41.1305Z" fill="#08AF24"/>
<path d="M106.81 26.4468C104.521 36.0006 103.751 40.0836 98.0906 44.2028C89.58 50.3835 78.588 45.5063 78.0468 35.4672C77.5497 26.4307 81.3781 12.3246 91.3238 10.1227C101.109 7.95281 109.103 16.893 106.81 26.4468Z" fill="#FF8B7B"/>
<path d="M107.639 14.4344C98.1066 22.5924 88.8183 9.11598 83.2742 15.7539C80.0672 12.8982 89.1029 5.54633 94.5388 5.27761C99.9747 5.00888 111.756 8.755 107.639 14.4344Z" fill="#263238"/>
<path d="M84.9177 14.3902C84.9177 14.3902 83.8994 11.5626 84.4767 9.79382C82.9614 10.4235 82.4362 15.5253 83.2741 15.7539C84.4446 16.0748 84.9177 14.3902 84.9177 14.3902Z" fill="#08AF24"/>
<path d="M106.168 13.6562C96.1904 17.3101 100.612 36.518 109.195 35.3509C117.778 34.1837 116.371 15.4371 106.168 13.6562Z" fill="#263238"/>
<path d="M92.6547 26.5512C92.5184 27.3534 91.9892 27.9029 91.4761 27.8106C90.963 27.7184 90.6743 27.0084 90.7946 26.2063C90.9149 25.4041 91.4641 24.8546 91.9772 24.9469C92.4903 25.0391 92.795 25.7651 92.6547 26.5512Z" fill="#263238"/>
<path d="M82.9655 24.9789C82.8292 25.7811 82.3 26.3265 81.7869 26.2343C81.2738 26.142 80.9851 25.4321 81.1054 24.63C81.2257 23.8278 81.7749 23.2823 82.288 23.3706C82.8011 23.4588 83.1058 24.1928 82.9655 24.9789Z" fill="#263238"/>
<path d="M82.5085 23.4829L80.7166 22.6045C80.7166 22.6045 81.4261 24.2409 82.5085 23.4829Z" fill="#263238"/>
<path d="M85.4349 26.7437C85.4349 26.7437 83.4986 29.8922 81.7428 31.2679C82.6087 32.419 84.4527 32.2866 84.4527 32.2866L85.4349 26.7437Z" fill="#FF5652"/>
<path d="M88.4575 35.9966C88.0086 35.994 87.5607 35.9538 87.1186 35.8763C87.0882 35.8709 87.0592 35.8597 87.0332 35.843C87.0072 35.8264 86.9848 35.8047 86.9673 35.7794C86.9497 35.754 86.9374 35.7254 86.931 35.6952C86.9247 35.665 86.9244 35.6338 86.9301 35.6035C86.935 35.5733 86.9458 35.5443 86.962 35.5184C86.9782 35.4924 86.9995 35.47 87.0246 35.4524C87.0496 35.4348 87.0779 35.4224 87.1079 35.416C87.1378 35.4096 87.1687 35.4093 87.1987 35.415C88.1729 35.6093 89.1791 35.5715 90.136 35.3047C91.0929 35.0378 91.9735 34.5494 92.7068 33.8789C92.751 33.835 92.8108 33.8104 92.8731 33.8104C92.9354 33.8104 92.9952 33.835 93.0395 33.8789C93.0833 33.9232 93.1079 33.983 93.1079 34.0453C93.1079 34.1076 93.0833 34.1675 93.0395 34.2118C91.8017 35.3794 90.1585 36.0195 88.4575 35.9966Z" fill="#263238"/>
<path d="M107.475 35.7359C106.849 36.4185 106.086 36.9603 105.235 37.3254C104.384 37.6905 103.466 37.8705 102.54 37.8537C100.199 37.7293 99.9306 35.022 101.338 32.8441C102.6 30.8828 105.346 28.5846 107.327 29.7758C109.307 30.967 109.171 33.9631 107.475 35.7359Z" fill="#FF8B7B"/>
<path d="M93.24 35.2908C93.173 34.4879 93.2762 33.6798 93.5428 32.9196C93.8095 32.1593 94.2336 31.4639 94.7873 30.8789C94.4112 30.9205 94.0619 31.0938 93.8012 31.3682C93.3181 31.8718 92.9471 32.4721 92.7129 33.1296C92.4786 33.7871 92.3864 34.4868 92.4422 35.1825C92.5304 36.6024 93.5045 37.8858 94.7032 38.1746C94.2755 37.8193 93.925 37.3801 93.6734 36.8842C93.4217 36.3882 93.2742 35.846 93.24 35.2908Z" fill="#FF8B7B"/>
<path opacity="0.2" d="M93.24 35.2908C93.173 34.4879 93.2762 33.6798 93.5428 32.9196C93.8095 32.1593 94.2336 31.4639 94.7873 30.8789C94.4112 30.9205 94.0619 31.0938 93.8012 31.3682C93.3181 31.8718 92.9471 32.4721 92.7129 33.1296C92.4786 33.7871 92.3864 34.4868 92.4422 35.1825C92.5304 36.6024 93.5045 37.8858 94.7032 38.1746C94.2755 37.8193 93.925 37.3801 93.6734 36.8842C93.4217 36.3882 93.2742 35.846 93.24 35.2908Z" fill="#08AF24"/>
<path d="M95.8616 23.3786C95.8013 23.3575 95.7458 23.3247 95.6983 23.282C95.6509 23.2393 95.6123 23.1876 95.585 23.1299C95.3568 22.5878 95.0035 22.1075 94.5541 21.7283C94.1047 21.3491 93.5719 21.0817 92.9994 20.948C92.9383 20.9388 92.8796 20.9176 92.8268 20.8857C92.7739 20.8538 92.7278 20.8118 92.6911 20.7621C92.6544 20.7124 92.6279 20.6559 92.6131 20.5959C92.5982 20.536 92.5953 20.4736 92.6045 20.4125C92.6137 20.3514 92.6349 20.2928 92.6668 20.2398C92.6986 20.1869 92.7406 20.1408 92.7903 20.1041C92.84 20.0674 92.8964 20.0409 92.9564 20.026C93.0163 20.0112 93.0786 20.0083 93.1397 20.0175C93.8672 20.1744 94.5464 20.5036 95.1205 20.9775C95.6945 21.4514 96.1466 22.056 96.4389 22.7408C96.4764 22.8241 96.4889 22.9165 96.4747 23.0068C96.4605 23.097 96.4203 23.1811 96.359 23.2489C96.2977 23.3166 96.218 23.3649 96.1297 23.3879C96.0413 23.411 95.9482 23.4077 95.8616 23.3786Z" fill="#263238"/>
<path d="M79.7946 20.6071C79.674 20.6145 79.555 20.5758 79.4618 20.4988C79.4148 20.4595 79.376 20.4112 79.3477 20.3567C79.3194 20.3023 79.3022 20.2428 79.297 20.1816C79.2918 20.1205 79.2987 20.0589 79.3173 20.0005C79.336 19.942 79.366 19.8879 79.4057 19.8411C79.8676 19.2573 80.4632 18.7932 81.1421 18.4882C81.8209 18.1831 82.5632 18.046 83.3062 18.0883C83.4273 18.1053 83.5369 18.1689 83.6117 18.2655C83.6866 18.3622 83.7208 18.4842 83.7071 18.6057C83.6892 18.7271 83.6248 18.8368 83.5276 18.9117C83.4303 18.9865 83.3079 19.0206 83.186 19.0068C82.5976 18.9822 82.0118 19.0981 81.4772 19.345C80.9425 19.592 80.4743 19.9627 80.1113 20.4267C80.0737 20.4769 80.0262 20.5188 79.9717 20.5498C79.9172 20.5809 79.8569 20.6004 79.7946 20.6071Z" fill="#263238"/>
<path d="M92.1977 25.0471L90.4058 24.1687C90.4058 24.1687 91.1153 25.8131 92.1977 25.0471Z" fill="#263238"/>
<path d="M100.592 118.616C100.343 117.573 99.8627 116.599 99.1877 115.767C98.5127 114.934 97.6597 114.263 96.6914 113.803L92.2577 111.721C91.6116 111.417 90.9011 111.273 90.1875 111.304C89.4738 111.335 88.7783 111.539 88.1607 111.898L86.1564 113.061C85.6063 113.383 85.167 113.864 84.8964 114.442C84.6258 115.019 84.5368 115.665 84.641 116.294L85.2584 120.02C85.3894 120.8 85.8088 121.502 86.4333 121.987C87.0578 122.473 87.8419 122.705 88.6298 122.639L90.4618 122.482C90.4618 122.482 96.9279 122.659 100.885 119.936L100.592 118.616Z" fill="#FF8B7B"/>
<path d="M114.891 62.7209L115.292 63.2704L115.657 63.7637L116.354 64.7303C116.815 65.372 117.244 66.0218 117.677 66.6715C118.539 67.967 119.345 69.2866 120.131 70.6262C120.916 71.9658 121.658 73.3175 122.372 74.6972C123.085 76.077 123.775 77.4687 124.412 78.8926C127.09 84.6665 128.978 90.7752 130.024 97.0536C130.129 97.8558 130.265 98.658 130.337 99.4882L130.461 100.716L130.481 100.944L130.501 101.345C130.517 101.612 130.517 101.88 130.501 102.147C130.501 102.412 130.469 102.685 130.437 102.95C130.405 103.214 130.353 103.451 130.305 103.7C130.112 104.573 129.806 105.417 129.395 106.21C129.063 106.845 128.674 107.448 128.232 108.011C127.525 108.895 126.727 109.701 125.851 110.418C124.447 111.55 122.936 112.543 121.341 113.386C119.866 114.164 118.411 114.822 116.96 115.427C115.509 116.033 114.057 116.542 112.61 117.032C111.163 117.521 109.708 117.95 108.257 118.351C106.806 118.752 105.342 119.109 103.879 119.446C103.146 119.607 102.412 119.755 101.674 119.903C100.937 120.052 100.207 120.164 99.4215 120.304C98.6112 120.452 97.7748 120.301 97.0674 119.879C96.36 119.457 95.8296 118.792 95.5746 118.009C95.3196 117.225 95.3572 116.376 95.6805 115.618C96.0039 114.86 96.5909 114.245 97.3329 113.887L97.4612 113.827C102.492 111.324 107.684 108.797 112.253 105.998C113.396 105.304 114.49 104.582 115.481 103.844C116.386 103.212 117.228 102.493 117.994 101.698C118.221 101.469 118.409 101.205 118.551 100.916C118.635 100.76 118.471 100.808 118.327 101.317C118.305 101.387 118.289 101.458 118.279 101.53C118.279 101.61 118.251 101.698 118.247 101.782C118.243 101.867 118.247 101.959 118.247 102.051C118.247 102.143 118.247 102.143 118.247 102.188V102.224V102.163L118.074 101.237C117.97 100.619 117.81 99.9976 117.673 99.3799C116.394 94.2893 114.54 89.3605 112.149 84.6882C110.971 82.2817 109.652 79.9234 108.285 77.5971C107.595 76.4339 106.878 75.2908 106.16 74.1558L105.062 72.4832L104.517 71.6811L104.02 70.9631L103.851 70.7225C103.325 69.9983 102.946 69.1774 102.737 68.3067C102.527 67.4361 102.491 66.5327 102.631 65.6481C102.913 63.8617 103.893 62.2605 105.354 61.1967C106.816 60.133 108.641 59.6939 110.426 59.9759C111.31 60.1156 112.158 60.4281 112.922 60.8957C113.685 61.3632 114.349 61.9766 114.875 62.7008L114.891 62.7209Z" fill="#FF8B7B"/>
<path d="M37.7026 51.4464C37.5906 51.4429 37.4816 51.4826 37.3981 51.5572C37.3145 51.6319 37.2628 51.7358 37.2536 51.8475L37.0371 56.845C37.0338 56.922 37.012 56.9971 36.9736 57.0639C36.9352 57.1307 36.8814 57.1874 36.8165 57.2291C36.7517 57.2707 36.6778 57.2962 36.6011 57.3033C36.5244 57.3105 36.4471 57.2991 36.3757 57.2701L35.5739 56.9372C35.4831 56.899 35.4061 56.834 35.3531 56.7509C35.3001 56.6678 35.2737 56.5705 35.2773 56.472L35.4978 51.3421C35.5056 51.2826 35.501 51.2222 35.4843 51.1646C35.4675 51.1071 35.439 51.0536 35.4006 51.0076C35.3621 50.9616 35.3145 50.9241 35.2608 50.8975C35.2071 50.8709 35.1485 50.8557 35.0886 50.8529C35.0288 50.8501 34.969 50.8598 34.9131 50.8813C34.8571 50.9028 34.8063 50.9358 34.7637 50.978C34.7212 51.0202 34.6878 51.0708 34.6658 51.1266C34.6438 51.1823 34.6336 51.2421 34.6359 51.302L34.4154 56.4359C34.4109 56.5345 34.3761 56.6293 34.3159 56.7075C34.2557 56.7857 34.1728 56.8435 34.0787 56.873L33.2489 57.1337C33.1753 57.1569 33.0973 57.1621 33.0213 57.1488C32.9454 57.1355 32.8737 57.1042 32.8124 57.0574C32.7511 57.0106 32.702 56.9498 32.6691 56.88C32.6362 56.8102 32.6206 56.7335 32.6235 56.6565L32.84 51.6589C32.8423 51.6021 32.8335 51.5453 32.8139 51.4918C32.7943 51.4383 32.7644 51.3893 32.7259 51.3474C32.6874 51.3055 32.641 51.2716 32.5894 51.2476C32.5377 51.2236 32.4819 51.2101 32.4251 51.2077C32.3682 51.2054 32.3114 51.2142 32.258 51.2338C32.2046 51.2534 32.1555 51.2833 32.1136 51.3218C32.0718 51.3604 32.0379 51.4068 32.0139 51.4585C31.99 51.5101 31.9764 51.566 31.9741 51.6228L31.7295 57.3022C31.7063 57.8679 31.8391 58.4292 32.1134 58.9244C32.3878 59.4196 32.7931 59.8297 33.2849 60.1098C33.5312 60.2511 33.7312 60.4608 33.8607 60.7135C33.9902 60.9662 34.0436 61.2511 34.0145 61.5336C33.6938 64.7022 32.9201 72.2827 32.3108 77.4005C31.5091 84.0064 32.5273 85.1976 33.6056 85.2457C34.684 85.2938 35.7944 84.1909 35.5739 77.5409C35.4056 72.391 35.2853 64.7704 35.2372 61.5858C35.2326 61.3018 35.3104 61.0225 35.4613 60.7819C35.6121 60.5413 35.8295 60.3496 36.0871 60.2301C36.6013 59.9936 37.0406 59.6199 37.3566 59.1502C37.6727 58.6804 37.8534 58.1326 37.879 57.5669L38.1235 51.8876C38.1246 51.7737 38.0813 51.6638 38.0027 51.5814C37.924 51.499 37.8164 51.4505 37.7026 51.4464Z" fill="#263238"/>
<path d="M30.5269 45.8073C29.0436 50.4438 35.9307 57.1098 41.5871 53.3998C37.4099 50.0347 30.5269 45.8073 30.5269 45.8073Z" fill="#08AF24"/>
<path opacity="0.5" d="M31.8097 46.6094C31.0079 50.1309 36.0149 54.8918 40.2641 52.373C37.3337 50.159 33.7018 47.8086 31.8097 46.6094Z" fill="white"/>
<path d="M161 119.045H5.54822V124.127H161V119.045Z" fill="#08AF24"/>
<path opacity="0.2" d="M161 121.299H5.54822V121.873H161V121.299Z" fill="#08AF24"/>
<path d="M154.762 126.112H11.7859L7.7771 124.127H158.771L154.762 126.112Z" fill="#08AF24"/>
<path opacity="0.5" d="M154.762 126.112H11.7859L7.7771 124.127H158.771L154.762 126.112Z" fill="white"/>
<path d="M32.9 105.043C31.5129 103.756 27.3839 105.845 27.6324 103.222C27.881 100.599 25.0989 102.5 24.7141 99.9334C24.3292 97.3665 28.0614 98.1125 26.4819 96.1231C24.9025 94.1337 26.1612 91.5347 28.5825 91.5067C31.0038 91.4786 30.3183 94.591 32.4029 93.1792C34.6959 91.627 36.588 92.9987 36.596 95.0683C36.604 97.1379 38.5162 95.9707 39.2899 98.1406C40.3081 100.996 35.6379 101.305 36.564 103.002C37.49 104.698 35.189 107.161 32.9 105.043Z" fill="#08AF24"/>
<path opacity="0.4" d="M32.9 105.043C31.5129 103.756 27.3839 105.845 27.6324 103.222C27.881 100.599 25.0989 102.5 24.7141 99.9334C24.3292 97.3665 28.0614 98.1125 26.4819 96.1231C24.9025 94.1337 26.1612 91.5347 28.5825 91.5067C31.0038 91.4786 30.3183 94.591 32.4029 93.1792C34.6959 91.627 36.588 92.9987 36.596 95.0683C36.604 97.1379 38.5162 95.9707 39.2899 98.1406C40.3081 100.996 35.6379 101.305 36.564 103.002C37.49 104.698 35.189 107.161 32.9 105.043Z" fill="white"/>
<path d="M32.6514 104.004C31.1 102.027 28.0414 104.955 28.2418 102.737C28.4422 100.519 25.4357 101.855 25.7043 99.6728C25.9728 97.4909 29.252 97.4066 27.44 96.2355C25.6281 95.0643 26.6784 92.3329 28.7349 92.3089C30.7914 92.2848 30.4546 95.1445 32.2225 93.9493C34.1627 92.6337 35.7662 93.7969 35.7743 95.5536C35.7823 97.3104 37.5742 96.3558 38.5363 98.0724C40.2039 101.016 34.5917 100.547 36.0388 102.561C37.0049 103.884 34.6518 106.551 32.6514 104.004Z" fill="#08AF24"/>
<path opacity="0.4" d="M32.5032 103.403C31.2364 101.674 28.5465 104.085 28.791 102.2C29.0356 100.315 26.4299 101.369 26.7145 99.5164C26.9991 97.6634 29.7972 97.6834 28.29 96.6366C26.7827 95.5898 27.7488 93.2876 29.4926 93.3237C31.2364 93.3598 30.8756 95.7903 32.419 94.8197C34.1107 93.7528 35.4456 94.7916 35.4015 96.2837C35.3574 97.7757 36.9128 97.0337 37.6865 98.5057C39.0254 101.065 34.255 100.511 35.4336 102.264C36.2193 103.423 34.1387 105.633 32.5032 103.403Z" fill="white"/>
<path d="M25.3835 101.542C25.576 105.152 28.9313 112.263 37.2775 109.796C36.8045 104.867 32.5953 101.634 25.3835 101.542Z" fill="#08AF24"/>
<path opacity="0.3" d="M25.3835 101.542C25.576 105.152 28.9313 112.263 37.2775 109.796C36.8045 104.867 32.5953 101.634 25.3835 101.542Z" fill="#08AF24"/>
<path d="M26.5181 102.468C27.4184 103.276 28.3853 104.006 29.4084 104.65C30.4266 105.32 31.4689 105.962 32.5072 106.599C33.5454 107.237 34.6118 107.847 35.662 108.465L38.8009 110.346C38.8362 110.365 38.8629 110.397 38.8759 110.435C38.8889 110.473 38.8872 110.514 38.871 110.551C38.8549 110.588 38.8256 110.617 38.7889 110.633C38.7521 110.649 38.7106 110.651 38.6726 110.638C37.4871 110.265 36.3437 109.769 35.2612 109.158C34.1788 108.565 33.1285 107.919 32.0862 107.261C31.044 106.603 30.0297 105.898 29.0396 105.16C28.5425 104.791 28.0534 104.414 27.5844 104C27.1003 103.6 26.6571 103.153 26.2615 102.665C26.2365 102.631 26.2255 102.589 26.2308 102.547C26.236 102.505 26.257 102.467 26.2896 102.44C26.3196 102.416 26.3571 102.402 26.3958 102.402C26.4345 102.402 26.472 102.416 26.502 102.44L26.5181 102.468Z" fill="#08AF24"/>
<path d="M29.2159 105.063H29.1919C29.1712 105.06 29.1514 105.053 29.1335 105.043C29.1156 105.032 29.1001 105.018 29.0878 105.001C29.0754 104.984 29.0666 104.965 29.0618 104.945C29.0569 104.924 29.0562 104.903 29.0596 104.883C29.1964 104.202 29.1252 103.497 28.8552 102.857C28.8351 102.82 28.8307 102.776 28.8427 102.736C28.8547 102.695 28.8822 102.661 28.9193 102.641C28.9376 102.63 28.9579 102.624 28.9788 102.621C28.9998 102.619 29.021 102.621 29.0412 102.627C29.0614 102.633 29.0802 102.643 29.0965 102.656C29.1127 102.67 29.1261 102.686 29.1358 102.705C29.4465 103.403 29.5306 104.182 29.3763 104.931C29.3689 104.968 29.3489 105.002 29.3197 105.026C29.2905 105.05 29.2538 105.063 29.2159 105.063Z" fill="#08AF24"/>
<path d="M28.9433 107.847C28.9008 107.847 28.86 107.83 28.8299 107.8C28.7999 107.77 28.783 107.729 28.783 107.686C28.783 107.644 28.7999 107.603 28.8299 107.573C28.86 107.543 28.9008 107.526 28.9433 107.526C28.9433 107.526 30.8755 107.349 31.4287 106.379C31.4383 106.359 31.4519 106.341 31.4686 106.327C31.4854 106.312 31.5049 106.301 31.5261 106.295C31.5472 106.288 31.5695 106.286 31.5914 106.289C31.6134 106.291 31.6346 106.298 31.6537 106.309C31.6729 106.32 31.6895 106.335 31.7026 106.353C31.7157 106.371 31.7249 106.391 31.7298 106.413C31.7346 106.435 31.735 106.457 31.7308 106.479C31.7265 106.5 31.7179 106.521 31.7054 106.539C31.068 107.654 29.0556 107.839 28.9714 107.847H28.9433Z" fill="#08AF24"/>
<path d="M33.6938 107.939C33.6678 107.937 33.6427 107.929 33.6207 107.915C33.5986 107.901 33.5804 107.882 33.5677 107.86C33.5549 107.837 33.5481 107.811 33.5477 107.785C33.5473 107.759 33.5534 107.734 33.5655 107.71C34.2189 106.487 33.1646 104.827 33.1646 104.807C33.1529 104.789 33.1448 104.769 33.1408 104.749C33.1369 104.728 33.1372 104.707 33.1417 104.686C33.1461 104.665 33.1548 104.646 33.167 104.629C33.1792 104.612 33.1948 104.597 33.2127 104.586C33.2484 104.563 33.2916 104.556 33.3329 104.565C33.3741 104.574 33.4102 104.599 33.4332 104.634C33.4813 104.71 34.6038 106.471 33.8621 107.843C33.8496 107.876 33.826 107.904 33.7952 107.921C33.7645 107.939 33.7286 107.945 33.6938 107.939Z" fill="#08AF24"/>
<path d="M33.9984 109.612C33.9572 109.612 33.9176 109.596 33.8878 109.568C33.8579 109.539 33.8401 109.5 33.8381 109.459C33.8369 109.417 33.8521 109.376 33.8805 109.344C33.9089 109.313 33.9482 109.294 33.9904 109.291C34.5043 109.221 34.9909 109.018 35.4015 108.701C35.4186 108.689 35.438 108.68 35.4585 108.675C35.4791 108.67 35.5004 108.669 35.5212 108.673C35.542 108.676 35.562 108.683 35.58 108.695C35.598 108.706 35.6136 108.72 35.626 108.737C35.6383 108.754 35.6472 108.774 35.6521 108.794C35.657 108.815 35.6578 108.836 35.6544 108.857C35.6511 108.878 35.6437 108.898 35.6326 108.916C35.6215 108.934 35.607 108.949 35.5899 108.962C35.1233 109.318 34.5694 109.543 33.9864 109.612H33.9984Z" fill="#08AF24"/>
<path d="M49.4481 95.5938C44.5094 95.8304 34.744 100.387 38.0633 111.846C44.814 111.224 49.2718 105.476 49.4481 95.5938Z" fill="#08AF24"/>
<path opacity="0.3" d="M49.4481 95.5938C44.5094 95.8304 34.744 100.387 38.0633 111.846C44.814 111.224 49.2718 105.476 49.4481 95.5938Z" fill="#08AF24"/>
<path d="M48.1734 97.1419C47.0642 98.3678 46.0661 99.6899 45.1908 101.093C44.2648 102.484 43.3709 103.9 42.493 105.328C41.615 106.756 40.7732 108.2 39.9193 109.64L37.3217 113.923C37.3065 113.948 37.2865 113.97 37.263 113.987C37.2394 114.004 37.2127 114.016 37.1844 114.023C37.156 114.03 37.1267 114.031 37.0979 114.026C37.0692 114.021 37.0417 114.011 37.017 113.995C36.9755 113.971 36.9435 113.933 36.9261 113.888C36.9087 113.843 36.9068 113.793 36.9208 113.747C37.4394 112.124 38.1273 110.561 38.9733 109.082C39.775 107.602 40.681 106.166 41.587 104.742C42.4929 103.319 43.4631 101.935 44.4813 100.575C44.9904 99.8973 45.5156 99.2315 46.0848 98.5938C46.6382 97.9339 47.2545 97.3294 47.9248 96.7889C47.9474 96.7714 47.9732 96.7586 48.0008 96.7511C48.0284 96.7437 48.0572 96.7418 48.0855 96.7455C48.1138 96.7492 48.1411 96.7585 48.1658 96.7729C48.1905 96.7872 48.2122 96.8063 48.2295 96.829C48.2642 96.8691 48.2833 96.9204 48.2833 96.9734C48.2833 97.0265 48.2642 97.0777 48.2295 97.1178L48.1734 97.1419Z" fill="#08AF24"/>
<path d="M45.8403 101.133C45.4856 101.131 45.1316 101.1 44.782 101.04C44.7538 101.036 44.7269 101.025 44.7027 101.01C44.6785 100.995 44.6575 100.975 44.6409 100.952C44.6243 100.929 44.6125 100.902 44.6061 100.875C44.5997 100.847 44.5989 100.818 44.6036 100.79C44.6083 100.762 44.6186 100.735 44.6337 100.71C44.6489 100.686 44.6687 100.665 44.6919 100.649C44.7152 100.632 44.7415 100.62 44.7693 100.614C44.7972 100.607 44.826 100.606 44.8541 100.611C45.7847 100.805 46.7522 100.711 47.6282 100.343C47.6545 100.329 47.6833 100.32 47.7128 100.318C47.7424 100.315 47.7722 100.319 47.8005 100.328C47.8288 100.336 47.855 100.351 47.8777 100.37C47.9004 100.389 47.9192 100.412 47.9329 100.439C47.9466 100.465 47.9549 100.494 47.9575 100.523C47.9601 100.553 47.9568 100.583 47.9479 100.611C47.9389 100.639 47.9245 100.666 47.9054 100.688C47.8863 100.711 47.863 100.73 47.8367 100.744C47.2093 101.023 46.5266 101.156 45.8403 101.133Z" fill="#08AF24"/>
<path d="M42.6733 104.233C42.635 104.232 42.5976 104.221 42.5651 104.201C41.0418 103.327 40.8012 100.563 40.7892 100.447C40.7848 100.389 40.8033 100.332 40.8408 100.287C40.8784 100.243 40.9318 100.215 40.9897 100.21C41.0475 100.206 41.1048 100.224 41.1491 100.262C41.1934 100.299 41.2211 100.353 41.2262 100.411C41.2262 100.439 41.4587 103.062 42.7816 103.824C42.8064 103.838 42.8282 103.857 42.8456 103.88C42.8631 103.902 42.876 103.928 42.8834 103.956C42.8909 103.983 42.8928 104.012 42.8891 104.04C42.8853 104.069 42.8761 104.096 42.8617 104.121C42.8435 104.155 42.8163 104.183 42.7831 104.203C42.7499 104.223 42.712 104.233 42.6733 104.233Z" fill="#08AF24"/>
<path d="M42.2204 107.486C41.7069 107.494 41.1996 107.372 40.7452 107.133C40.7193 107.12 40.6963 107.102 40.6777 107.079C40.6591 107.057 40.6452 107.031 40.637 107.004C40.6287 106.976 40.6262 106.947 40.6297 106.918C40.6331 106.889 40.6424 106.861 40.657 106.836C40.6704 106.811 40.6888 106.788 40.7111 106.77C40.7334 106.751 40.7591 106.738 40.7868 106.73C40.8144 106.721 40.8434 106.719 40.872 106.722C40.9007 106.725 40.9284 106.734 40.9536 106.748C42.6253 107.65 44.9063 106.214 44.9263 106.198C44.9508 106.183 44.9781 106.172 45.0066 106.167C45.0352 106.162 45.0645 106.163 45.0928 106.169C45.1211 106.176 45.1479 106.187 45.1716 106.204C45.1953 106.221 45.2155 106.242 45.231 106.267C45.2464 106.291 45.257 106.318 45.2619 106.346C45.2668 106.374 45.2661 106.403 45.2598 106.431C45.2534 106.459 45.2416 106.486 45.225 106.509C45.2083 106.532 45.1872 106.552 45.1628 106.567C44.2752 107.117 43.263 107.433 42.2204 107.486Z" fill="#08AF24"/>
<path d="M39.3982 109.628C39.3635 109.628 39.3293 109.62 39.2985 109.603C39.2678 109.587 39.2414 109.564 39.2218 109.535C38.7397 108.902 38.4353 108.152 38.3399 107.362C38.3377 107.304 38.3583 107.247 38.3973 107.205C38.4363 107.162 38.4906 107.136 38.5483 107.133C38.5769 107.131 38.6056 107.134 38.6327 107.144C38.6598 107.153 38.6848 107.167 38.7062 107.186C38.7275 107.206 38.7448 107.229 38.7569 107.255C38.7691 107.281 38.7758 107.309 38.7768 107.337C38.8714 108.043 39.1477 108.712 39.5786 109.279C39.5956 109.302 39.6079 109.328 39.6147 109.356C39.6216 109.384 39.6228 109.413 39.6183 109.441C39.6138 109.47 39.6038 109.497 39.5887 109.521C39.5736 109.546 39.5538 109.567 39.5305 109.584C39.4922 109.612 39.4458 109.627 39.3982 109.628Z" fill="#08AF24"/>
<path d="M32.7637 102.28C36.7724 106.09 46.9627 102.36 45.9926 94.7473C40.4725 97.3463 32.7637 102.28 32.7637 102.28Z" fill="#08AF24"/>
<path opacity="0.2" d="M34.2069 101.369C37.4139 103.936 44.7339 101.177 44.2689 95.5938C40.5648 97.4869 36.3716 100.03 34.2069 101.369Z" fill="white"/>
<path d="M43.2747 116.627C39.5025 120.637 29.0997 117.501 29.6449 109.844C35.2933 112.122 43.2747 116.627 43.2747 116.627Z" fill="#08AF24"/>
<path opacity="0.2" d="M41.7754 115.796C38.7288 118.54 31.2524 116.197 31.4048 110.582C35.2131 112.275 39.5425 114.581 41.7754 115.796Z" fill="white"/>
<path d="M53.4809 100.916C52.3024 101.827 53.6814 104.947 51.5407 104.578C49.4 104.209 50.7389 106.351 48.5742 106.439C46.4095 106.527 47.3515 103.9 45.5917 104.903C43.8318 105.906 41.7713 104.803 41.9477 103.058C42.1241 101.313 44.6456 102.031 43.6515 100.431C42.5611 98.666 43.8519 97.4066 45.5596 97.547C47.2674 97.6874 46.4696 96.2314 48.3257 95.8344C50.771 95.3049 50.6387 98.6901 52.118 98.1486C53.5972 97.6072 55.4252 99.4241 53.4809 100.916Z" fill="#08AF24"/>
<path opacity="0.4" d="M53.4809 100.916C52.3024 101.827 53.6814 104.947 51.5407 104.578C49.4 104.209 50.7389 106.351 48.5742 106.439C46.4095 106.527 47.3515 103.9 45.5917 104.903C43.8318 105.906 41.7713 104.803 41.9477 103.058C42.1241 101.313 44.6456 102.031 43.6515 100.431C42.5611 98.666 43.8519 97.4066 45.5596 97.547C47.2674 97.6874 46.4696 96.2314 48.3257 95.8344C50.771 95.3049 50.6387 98.6901 52.118 98.1486C53.5972 97.6072 55.4252 99.4241 53.4809 100.916Z" fill="white"/>
<path d="M52.6031 101.024C50.8392 101.995 53.0039 104.409 51.188 104.097C49.372 103.784 50.2259 106.046 48.442 105.701C46.6581 105.356 46.8625 102.986 45.7481 104.205C44.6337 105.424 42.4569 104.47 42.6052 103.002C42.7536 101.534 45.0947 101.971 44.2528 100.595C43.3308 99.0992 44.4252 98.0323 45.8563 98.1526C47.2875 98.2729 46.6821 96.9173 48.1694 96.3477C50.743 95.3611 49.8891 99.3639 51.673 98.4694C52.8676 97.8799 54.876 99.7649 52.6031 101.024Z" fill="#08AF24"/>
<path opacity="0.4" d="M52.094 101.085C50.5586 101.887 52.3265 103.98 50.7871 103.672C49.2478 103.363 49.9052 105.308 48.3819 104.971C46.8585 104.634 47.1231 102.617 46.1289 103.627C45.1348 104.638 43.3228 103.776 43.4912 102.516C43.6596 101.257 45.6479 101.714 44.9744 100.511C44.2328 99.2155 45.2029 98.3332 46.4336 98.4695C47.6643 98.6059 47.1752 97.4387 48.462 96.9855C50.6869 96.2074 49.829 99.6006 51.3804 98.8786C52.4067 98.4134 54.0703 100.09 52.094 101.085Z" fill="white"/>
<path d="M38.5042 112.283C39.9874 111.136 38.7768 107.49 41.2181 107.811C43.6595 108.132 42.3807 105.649 44.8942 105.404C47.4076 105.159 46.0006 108.364 48.1894 107.081C50.3781 105.797 52.599 106.984 52.1981 109.086C51.7972 111.188 48.939 110.462 49.8931 112.319C50.9394 114.36 49.2837 115.929 47.3154 115.864C45.3471 115.8 46.1128 117.469 43.892 118.066C40.9856 118.832 41.5629 114.789 39.779 115.519C37.9951 116.249 36.0629 114.176 38.5042 112.283Z" fill="#08AF24"/>
<path opacity="0.4" d="M38.5042 112.283C39.9874 111.136 38.7768 107.49 41.2181 107.811C43.6595 108.132 42.3807 105.649 44.8942 105.404C47.4076 105.159 46.0006 108.364 48.1894 107.081C50.3781 105.797 52.599 106.984 52.1981 109.086C51.7972 111.188 48.939 110.462 49.8931 112.319C50.9394 114.36 49.2837 115.929 47.3154 115.864C45.3471 115.8 46.1128 117.469 43.892 118.066C40.9856 118.832 41.5629 114.789 39.779 115.519C37.9951 116.249 36.0629 114.176 38.5042 112.283Z" fill="white"/>
<path d="M39.5426 112.122C41.7113 110.859 39.4985 108.112 41.567 108.376C43.6355 108.641 42.926 105.998 44.9544 106.307C46.9828 106.615 46.4497 109.455 47.9008 107.939C49.352 106.423 51.7532 107.438 51.3965 109.21C51.0397 110.983 48.3739 110.582 49.1796 112.154C50.0696 113.883 48.6625 115.219 46.9989 115.159C45.3352 115.098 45.8844 116.679 44.0885 117.441C40.9737 118.764 42.485 113.939 40.2842 115.11C38.841 115.872 36.7445 113.727 39.5426 112.122Z" fill="#08AF24"/>
<path opacity="0.4" d="M40.1398 112.006C42.0239 110.983 40.232 108.565 41.9798 108.849C43.7277 109.134 43.2065 106.844 44.9183 107.161C46.63 107.478 46.0848 109.896 47.3636 108.633C48.6424 107.369 50.6468 108.3 50.286 109.812C49.9252 111.324 47.6803 110.911 48.3177 112.279C49.0152 113.783 47.7805 114.89 46.3694 114.798C44.9584 114.705 45.3753 116.069 43.8279 116.679C41.146 117.733 42.5651 113.638 40.673 114.585C39.4263 115.211 37.7145 113.326 40.1398 112.006Z" fill="white"/>
<path opacity="0.3" d="M24.686 100.647V103.491C24.6977 107.613 26.3393 111.562 29.2522 114.477C32.1651 117.391 36.1125 119.033 40.232 119.045C44.3515 119.033 48.2989 117.391 51.2118 114.477C54.1247 111.562 55.7663 107.613 55.778 103.491V100.647H24.686Z" fill="#08AF24"/>
<path opacity="0.5" d="M56.1588 100.647H24.3052C24.0674 100.646 23.8396 100.551 23.6714 100.383C23.5032 100.215 23.4083 99.9868 23.4072 99.7489C23.4083 99.5109 23.5032 99.283 23.6714 99.1148C23.8396 98.9465 24.0674 98.8515 24.3052 98.8505H56.1588C56.3966 98.8515 56.6244 98.9465 56.7926 99.1148C56.9608 99.283 57.0557 99.5109 57.0568 99.7489C57.0557 99.9868 56.9608 100.215 56.7926 100.383C56.6244 100.551 56.3966 100.646 56.1588 100.647Z" fill="#08AF24"/>
<path opacity="0.3" d="M40.6644 115.871C42.3657 113.911 40.8476 109.804 37.2736 106.699C33.6995 103.594 29.423 102.666 27.7217 104.626C26.0204 106.586 27.5386 110.692 31.1126 113.798C34.6866 116.903 38.9631 117.831 40.6644 115.871Z" fill="white"/>
<path opacity="0.3" d="M44.4653 110.518C43.2626 111.043 41.7594 110.253 41.1019 108.749C40.4445 107.245 40.8814 105.605 42.0841 105.079C43.2867 104.554 44.79 105.344 45.4474 106.844C46.1049 108.344 45.6639 109.973 44.4653 110.518Z" fill="white"/>
<path opacity="0.3" d="M151.555 102.841H136.679L138.194 118.107C138.219 118.364 138.339 118.602 138.53 118.776C138.721 118.949 138.97 119.045 139.228 119.045H149.018C149.276 119.045 149.525 118.949 149.716 118.776C149.907 118.602 150.027 118.364 150.052 118.107L151.555 102.841Z" fill="#08AF24"/>
<path opacity="0.3" d="M139.561 115.692L138.451 104.462C138.451 104.462 141.389 106.186 144.235 105.348C146.044 104.833 147.908 104.535 149.787 104.462L148.673 115.692C148.625 116.171 148.401 116.616 148.044 116.939C147.687 117.262 147.222 117.441 146.741 117.441H141.493C141.012 117.44 140.548 117.261 140.191 116.938C139.834 116.615 139.61 116.171 139.561 115.692Z" fill="#08AF24"/>
<path opacity="0.5" d="M143.999 105.332C142.191 104.817 140.329 104.519 138.451 104.446C138.451 104.446 141.309 106.118 144.119 105.36L143.999 105.332Z" fill="#08AF24"/>
<path opacity="0.3" d="M151.732 103.242H136.498C136.351 103.242 136.209 103.185 136.102 103.084C135.995 102.982 135.93 102.844 135.921 102.697L135.548 95.9065C135.544 95.8284 135.555 95.7501 135.582 95.6766C135.609 95.603 135.651 95.5357 135.704 95.4787C135.758 95.4217 135.822 95.3761 135.894 95.3449C135.966 95.3136 136.043 95.2973 136.122 95.2969H152.104C152.183 95.2973 152.26 95.3136 152.332 95.3449C152.404 95.3761 152.469 95.4215 152.523 95.4785C152.577 95.5354 152.619 95.6027 152.646 95.6763C152.673 95.7498 152.685 95.8282 152.682 95.9065L152.305 102.697C152.297 102.844 152.233 102.982 152.126 103.083C152.02 103.185 151.879 103.242 151.732 103.242Z" fill="#08AF24"/>
</svg>
