<svg width="220" height="224" viewBox="0 0 220 224" fill="none" xmlns="http://www.w3.org/2000/svg">
<path d="M198.617 127.504C197.315 129.316 195.911 131.049 194.413 132.693C181.523 146.848 160.203 156.031 141.379 151.042C130.163 148.065 122.305 137.928 112.519 131.534C100.208 123.497 84.5947 121.667 70.5363 119.391C51.542 116.315 33.8412 111.735 21.8535 95.2863C11.8514 81.6106 8.06166 62.8811 15.2554 47.1582C22.0634 32.2015 33.4101 18.9821 45.9821 8.83354C56.7614 0.0946749 68.3577 -3.29792 81.117 3.92597C89.4454 8.65221 95.8676 16.151 102.46 23.2287C109.892 31.2305 119.389 41.1509 130.503 42.8823C141.107 44.5377 152.062 39.1446 162.677 39.0101C180.196 38.782 196.853 50.7906 204.455 67.0868C213.481 86.4129 210.832 110.53 198.617 127.504Z" fill="#08AF24"/>
<path opacity="0.9" d="M198.617 127.504C197.315 129.316 195.911 131.049 194.413 132.693C181.523 146.848 160.203 156.031 141.379 151.042C130.163 148.065 122.305 137.928 112.519 131.534C100.208 123.497 84.5947 121.667 70.5363 119.391C51.542 116.315 33.8412 111.735 21.8535 95.2863C11.8514 81.6106 8.06166 62.8811 15.2554 47.1582C22.0634 32.2015 33.4101 18.9821 45.9821 8.83354C56.7614 0.0946749 68.3577 -3.29792 81.117 3.92597C89.4454 8.65221 95.8676 16.151 102.46 23.2287C109.892 31.2305 119.389 41.1509 130.503 42.8823C141.107 44.5377 152.062 39.1446 162.677 39.0101C180.196 38.782 196.853 50.7906 204.455 67.0868C213.481 86.4129 210.832 110.53 198.617 127.504Z" fill="white"/>
<path d="M110 224C170.751 224 220 221.035 220 217.378C220 213.722 170.751 210.757 110 210.757C49.2487 210.757 0 213.722 0 217.378C0 221.035 49.2487 224 110 224Z" fill="#F5F5F5"/>
<path d="M77.8832 43.8943C73.4637 47.6495 69.1463 53.7035 71.6766 60.2723C74.2069 66.8411 90.3986 67.5021 93.8025 64.7997C98.2277 61.2901 94.3188 45.6607 90.8694 45.5672C90.6085 39.7705 81.5765 40.7532 77.8832 43.8943Z" fill="#263238"/>
<path d="M71.6936 107.154C71.6936 107.154 73.4694 140.46 75.4267 158.494C75.6252 175.427 79.398 213.682 79.398 213.682H83.5452C84.243 194.701 89.366 176.977 85.962 160.237C93.9047 127.364 88.464 107.178 88.464 107.178L71.6936 107.154Z" fill="#FFB573"/>
<path d="M76.2096 107.178C76.2096 107.178 84.7479 144.122 87.0853 159.857C89.5475 176.387 93.2125 208.464 93.0423 213.67H96.6222C96.6222 213.67 102.636 181.218 97.0704 160.441C101.66 113.647 90.3361 107.213 90.3361 107.213L76.2096 107.178Z" fill="#FFB573"/>
<path d="M55.7345 64.4487C55.4679 62.454 51.9164 62.2844 51.9164 62.2844L50.2144 61.4012C49.9156 61.2126 49.5575 61.1511 49.2155 61.2296C48.8736 61.3082 48.5747 61.5207 48.3819 61.8223L47.8146 62.7933C47.6493 63.1755 47.622 63.6059 47.7375 64.0071C47.8529 64.4082 48.1036 64.7536 48.4443 64.9809L48.9606 65.367C49.8389 66.0142 50.8781 66.3896 51.9561 66.4491L53.5276 66.5369C53.8728 66.5573 54.2186 66.5137 54.5488 66.4082C54.9398 66.2814 55.2733 66.0134 55.488 65.6534C55.7027 65.2934 55.7842 64.8656 55.7175 64.4487H55.7345Z" fill="#FFB573"/>
<path d="M74.4395 76.1184C74.2239 76.3465 74.1104 76.4577 73.9516 76.6039L73.5034 77.0134C73.2084 77.2707 72.902 77.5105 72.6013 77.7504C71.9886 78.2183 71.3645 78.6512 70.7235 79.0606C69.437 79.8589 68.0854 80.54 66.6841 81.0962C63.8932 82.2156 60.9302 82.8099 57.9358 82.851H57.6748C57.5381 82.848 57.4017 82.8363 57.2664 82.8159C56.9999 82.7757 56.739 82.703 56.4891 82.5994C56.0684 82.4207 55.6837 82.1628 55.3544 81.839C54.9281 81.4072 54.5803 80.9 54.3276 80.3416C53.9737 79.5507 53.7091 78.7205 53.539 77.8674C53.2381 76.399 53.0485 74.9088 52.9717 73.4102C52.818 70.5398 52.8749 67.6616 53.1419 64.8C53.1735 64.4802 53.318 64.1835 53.5479 63.9664C53.7779 63.7494 54.0772 63.627 54.389 63.6227C54.7008 63.6183 55.0032 63.7323 55.2387 63.9429C55.4743 64.1536 55.6265 64.4461 55.6665 64.7649V64.8C55.9728 67.5258 56.3246 70.2925 56.8011 72.9422C57.0112 74.2255 57.3012 75.4935 57.6692 76.7384C57.8157 77.2476 58.0174 77.7382 58.2705 78.2008C58.3727 78.3704 58.4748 78.4523 58.4294 78.3938C58.3543 78.31 58.2609 78.2459 58.1571 78.2066C58.0651 78.1635 57.9677 78.134 57.8677 78.1189H57.7145C58.9342 78.004 60.144 77.7968 61.3341 77.4989C62.5135 77.1952 63.6701 76.8042 64.7948 76.329C65.915 75.8347 66.9945 75.2478 68.023 74.5742C68.5392 74.2466 69.0385 73.9015 69.5207 73.533C69.759 73.3517 69.9859 73.1645 70.2129 72.9773L70.5419 72.6966L70.7915 72.4684L70.939 72.3339C71.4338 71.8771 72.0821 71.6375 72.7457 71.6663C73.4093 71.6951 74.0357 71.99 74.4915 72.4881C74.9472 72.9862 75.1963 73.6482 75.1855 74.3329C75.1747 75.0176 74.905 75.6709 74.4338 76.1535L74.4395 76.1184Z" fill="#FFB573"/>
<path d="M77.2308 69.6254C72.7432 68.8533 68.0343 72.0002 65.5948 74.5622C64.3353 78.4695 68.3691 83.2192 68.3691 83.2192C68.3691 83.2192 74.1161 79.5809 76.1869 77.095C78.2577 74.609 79.8178 70.0699 77.2308 69.6254Z" fill="#E0E0E0"/>
<path d="M91.1304 106.733C91.1304 106.733 97.4618 111.366 98.6532 126.767C99.1298 132.833 99.9864 157.032 101.791 167.443C95.2946 172.228 75.8465 171.573 72.7999 168.777C73.6622 147.719 65.8557 119.789 71.5177 106.944C80.89 105.757 91.1304 106.733 91.1304 106.733Z" fill="#263238"/>
<path opacity="0.2" d="M84.7082 150.901C84.7933 142.051 83.5282 129.873 79.6873 122.655C80.9979 131.663 84.7082 150.901 84.7082 150.901Z" fill="black"/>
<path d="M68.5449 76.7616C68.5449 81.7744 64.67 84.4066 69.0555 88.2671C69.3165 92.5956 69.6229 100.346 70.9107 107.406C72.2439 109.319 81.9907 109.161 92.1176 106.897C90.7957 100.843 91.2836 90.9812 94.75 77.4927C94.9346 76.7442 94.9674 75.9643 94.8461 75.2021C94.7248 74.4399 94.4522 73.7118 94.0453 73.0632C93.6384 72.4147 93.106 71.8598 92.4814 71.4333C91.8568 71.0068 91.1535 70.7179 90.4156 70.5847C89.5816 70.4326 88.7136 70.2922 87.7945 70.1752C84.6273 69.6938 81.4307 69.4475 78.2293 69.4382C77.1967 69.4382 76.1245 69.5084 75.1033 69.5786C73.3292 69.6917 71.6635 70.4973 70.4452 71.8317C69.2268 73.1661 68.5473 74.9289 68.5449 76.7616Z" fill="#E0E0E0"/>
<path d="M89.2333 85.4651L77.348 88.2402C76.8957 88.3458 76.6121 88.8094 76.7145 89.2757L80.5626 106.795C80.6651 107.262 81.1147 107.554 81.567 107.448L93.4523 104.673C93.9046 104.568 94.1882 104.104 94.0858 103.638L90.2377 86.1183C90.1352 85.652 89.6856 85.3595 89.2333 85.4651Z" fill="#08AF24"/>
<path d="M79.4036 75.9019C79.4036 75.9019 77.4804 78.2767 75.8918 78.8265L75.7103 79.9964C77.719 79.7319 79.5731 78.7461 80.9468 77.2121L79.4036 75.9019Z" fill="#08AF24"/>
<path d="M74.1785 74.4686C74.1785 74.4686 74.0991 77.5571 74.9274 79.0662L74.309 80.0723C72.9716 78.503 72.2124 76.4986 72.1645 74.4102L74.1785 74.4686Z" fill="#08AF24"/>
<path d="M87.403 59.0498C86.6428 62.1616 85.7521 67.8998 87.7945 70.1635C87.7945 70.1635 80.1866 72.3043 75.2281 79.3235C72.9588 71.9475 78.252 69.4265 78.252 69.4265C81.7184 68.8415 81.7638 66.2327 81.2872 63.7292L87.403 59.0498Z" fill="#FFB573"/>
<path opacity="0.2" d="M84.9124 60.9626L81.2928 63.7411C81.4098 64.3188 81.4782 64.9059 81.4971 65.4959C82.8133 65.4023 84.6855 64.0628 84.9011 62.6648C85.0005 62.1024 85.0044 61.5264 84.9124 60.9626Z" fill="black"/>
<path d="M90.9318 53.5047C89.4738 58.5468 88.9632 60.7169 85.8939 62.6998C81.2758 65.6771 75.6819 62.6121 75.6479 57.1956C75.6479 52.3173 78.0137 44.9121 83.2728 44.1049C88.532 43.2977 92.4125 48.4568 90.9318 53.5047Z" fill="#FFB573"/>
<path d="M87.1194 46.1404C85.7408 51.0012 86.9208 56.0842 89.7348 56.6692C93.6437 55.1659 93.4508 50.6912 92.4523 48.6439C91.4538 46.5967 87.9136 43.3386 87.1194 46.1404Z" fill="#263238"/>
<path d="M89.2582 54.8738C87.0853 55.6166 86.6655 57.1199 86.6655 57.1199C86.6655 57.1199 88.1576 56.0319 89.5873 56.2367C89.3798 55.8136 89.2673 55.3478 89.2582 54.8738Z" fill="#263238"/>
<path d="M83.8289 53.031C83.7324 53.4463 83.4431 53.7271 83.1764 53.6628C82.9098 53.5984 82.768 53.1948 82.8644 52.7795C82.9608 52.3642 83.2502 52.0776 83.5168 52.1478C83.7835 52.218 83.9026 52.6157 83.8289 53.031Z" fill="#263238"/>
<path d="M78.7966 51.7968C78.7002 52.2121 78.4109 52.4928 78.1442 52.4226C77.8776 52.3524 77.7357 51.9605 77.8322 51.5394C77.9286 51.1182 78.218 50.8433 78.4846 50.9135C78.7513 50.9837 78.8988 51.3756 78.7966 51.7968Z" fill="#263238"/>
<path d="M78.6094 50.9661L77.696 50.4221C77.696 50.4221 78.0193 51.3346 78.6094 50.9661Z" fill="#263238"/>
<path d="M79.7497 52.4753C79.1729 53.3319 78.4815 54.0999 77.696 54.7566C77.8685 54.9626 78.0818 55.1283 78.3215 55.2423C78.5613 55.3563 78.8219 55.416 79.0859 55.4175L79.7497 52.4753Z" fill="#ED893E"/>
<path d="M90.9602 58.5643C90.6597 58.928 90.2868 59.2207 89.8669 59.4226C89.4469 59.6244 88.9897 59.7307 88.5264 59.7342C87.3406 59.6991 87.1364 58.2952 87.7888 57.1429C88.3562 56.1018 89.6951 54.8676 90.7276 55.4583C91.7602 56.0491 91.7658 57.6167 90.9602 58.5643Z" fill="#FFB573"/>
<path d="M84.7763 51.2408C84.7152 51.2096 84.6684 51.155 84.6458 51.0887C84.5548 50.7829 84.397 50.5026 84.1846 50.2694C83.9722 50.0361 83.7108 49.8562 83.4204 49.7434C83.3577 49.7255 83.3042 49.6831 83.2713 49.6252C83.2385 49.5673 83.2289 49.4985 83.2445 49.4334C83.2517 49.4013 83.2652 49.371 83.2842 49.3445C83.3032 49.318 83.3273 49.2959 83.355 49.2794C83.3826 49.2629 83.4133 49.2525 83.4451 49.2488C83.4768 49.2451 83.509 49.2482 83.5395 49.2579C83.9108 49.3911 84.2464 49.6125 84.5194 49.9041C84.7924 50.1957 84.995 50.5494 85.111 50.9366C85.1225 50.9677 85.1276 51.0008 85.126 51.034C85.1244 51.0671 85.1161 51.0996 85.1017 51.1293C85.0873 51.1589 85.0671 51.1852 85.0423 51.2064C85.0176 51.2277 84.9888 51.2433 84.9579 51.2525C84.8981 51.2723 84.8332 51.2681 84.7763 51.2408Z" fill="#263238"/>
<path d="M76.9698 49.3047C76.9054 49.3069 76.8426 49.284 76.7939 49.2404C76.7492 49.1924 76.7242 49.1285 76.7242 49.062C76.7242 48.9955 76.7492 48.9315 76.7939 48.8836C77.0469 48.582 77.3667 48.348 77.7263 48.2013C78.0858 48.0547 78.4744 47.9998 78.859 48.0413C78.9238 48.0528 78.9818 48.0896 79.0209 48.1441C79.06 48.1986 79.0772 48.2665 79.0689 48.3338C79.0591 48.3997 79.0243 48.4589 78.9722 48.4984C78.9201 48.5379 78.8549 48.5544 78.7909 48.5443C78.4865 48.5131 78.1793 48.5585 77.8957 48.6767C77.6121 48.7949 77.3605 48.9823 77.1627 49.2228C77.1382 49.25 77.1082 49.2714 77.0749 49.2856C77.0416 49.2997 77.0058 49.3062 76.9698 49.3047Z" fill="#263238"/>
<path d="M83.6303 52.2063L82.7169 51.6565C82.7169 51.6565 83.0402 52.5748 83.6303 52.2063Z" fill="#263238"/>
<path d="M83.3353 93.7362L78.7966 92.8296L79.3072 98.2051C79.3072 98.2051 82.7112 98.053 84.6515 96.4503L84.833 95.7484C84.6231 94.5844 84.3678 94.1574 83.3353 93.7362Z" fill="#FFB573"/>
<path d="M76.0677 95.1225L76.5953 97.3979C76.6725 97.7247 76.8655 98.0098 77.1365 98.1971C77.4074 98.3844 77.7365 98.4603 78.0591 98.4098L79.3299 98.2051L78.8193 92.8296L76.8847 93.5549C76.586 93.6678 76.3378 93.8897 76.1872 94.1786C76.0366 94.4676 75.9941 94.8034 76.0677 95.1225Z" fill="#FFB573"/>
<path d="M93.4848 74.5154C94.8639 77.2384 96.0674 80.0521 97.0874 82.9384C97.598 84.3831 98.0802 85.863 98.466 87.378C98.8867 88.9477 99.1715 90.5528 99.317 92.1744C99.3511 92.6014 99.3681 93.0401 99.3737 93.4847V93.6426V93.8941C99.36 94.0664 99.3296 94.2369 99.283 94.403C99.1996 94.7254 99.0696 95.0331 98.8972 95.3155C98.6344 95.7359 98.2907 96.0962 97.8873 96.3742C97.3941 96.7126 96.8495 96.9636 96.2761 97.1171C95.8417 97.2409 95.4002 97.3366 94.9542 97.4037C93.4078 97.6042 91.8474 97.6649 90.2908 97.585C87.3396 97.4446 84.4023 97.081 81.5028 96.4971C81.1887 96.4434 80.9058 96.2697 80.7104 96.0105C80.5151 95.7513 80.4217 95.4257 80.4489 95.0987C80.4761 94.7717 80.6219 94.4672 80.8572 94.2461C81.0925 94.025 81.4 93.9035 81.7184 93.9058C84.555 93.8532 87.4257 93.7771 90.1886 93.5607C91.5114 93.4662 92.8255 93.2707 94.1202 92.9758C94.3846 92.9127 94.6443 92.8306 94.8975 92.7301C95.0229 92.6943 95.1392 92.6304 95.2379 92.5429C95.129 92.6093 95.039 92.7042 94.9769 92.8178C94.9015 92.9411 94.8442 93.0751 94.8067 93.2156C94.7867 93.2945 94.7715 93.3746 94.7613 93.4554C94.7584 93.4943 94.7584 93.5335 94.7613 93.5724C94.7613 93.2741 94.7103 92.9875 94.6649 92.6599C94.1687 89.9489 93.3947 87.2999 92.3558 84.7575C91.329 82.1195 90.1546 79.4346 88.9519 76.9019V76.8551C88.708 76.243 88.6968 75.5586 88.9203 74.9384C89.1438 74.3181 89.5857 73.8073 90.1581 73.5079C90.7304 73.2084 91.3911 73.1422 92.0087 73.3224C92.6262 73.5026 93.1553 73.916 93.4905 74.4803L93.4848 74.5154Z" fill="#FFB573"/>
<path d="M90.7106 70.7659C93.9614 71.3859 95.4081 74.3983 97.7682 80.4114C97.0477 84.4591 91.2779 86.5883 91.2779 86.5883C91.2779 86.5883 87.9647 80.5342 87.3066 77.323C86.6485 74.1117 87.4314 70.14 90.7106 70.7659Z" fill="#E0E0E0"/>
<path d="M83.8402 213.729C83.8136 213.651 83.762 213.584 83.6939 213.541C83.6258 213.497 83.5453 213.479 83.4658 213.489L79.6192 213.43C79.2257 213.403 78.8326 213.49 78.4846 213.682C76.7237 214.816 74.7458 215.544 72.6865 215.817C71.8695 215.946 72.2383 217.367 74.1672 217.39C77.3499 217.425 77.9286 217.18 80.6461 217.209C82.9665 217.238 81.8602 217.344 83.704 217.39C84.1466 217.39 84.5097 217.104 84.4529 216.805L83.8402 213.729Z" fill="#263238"/>
<path d="M97.1101 213.729C97.0827 213.651 97.0309 213.586 96.963 213.542C96.8951 213.499 96.8151 213.48 96.7356 213.489L93.5983 213.431C93.2046 213.401 92.811 213.489 92.4636 213.682C91.329 214.495 91.4878 215.437 88.9008 215.817C88.0838 215.946 88.4866 217.367 90.4156 217.391C93.5983 217.426 93.4054 217.209 94.6989 217.209C95.9924 217.209 95.1982 217.344 97.0477 217.391C97.4902 217.391 97.8476 217.104 97.7795 216.806L97.1101 213.729Z" fill="#263238"/>
<path d="M77.3102 76.8026C78.9214 76.8728 81.8772 78.2357 82.8247 79.6921C84.1636 78.2591 89.3944 74.9308 89.4851 70.421C88.8449 69.7863 88.0381 69.3592 87.1648 69.1926C87.1648 69.1926 80.1866 72.673 77.3102 76.8026Z" fill="#FAFAFA"/>
<path d="M74.7005 76.5684C74.7005 76.5684 74.2636 72.9243 78.5413 69.3855C78.1101 69.0228 76.4195 69.4323 76.4195 69.4323C76.4195 69.4323 71.4213 71.6492 71.5688 77.3873C72.4695 76.7045 73.593 76.4107 74.7005 76.5684Z" fill="#FAFAFA"/>
<path d="M74.0651 78.1128C73.4467 78.4111 73.2027 80.4876 74.0651 80.9731C74.9274 81.4586 74.8423 79.4757 75.3416 78.7972C75.8408 78.1187 75.1487 77.5922 74.0651 78.1128Z" fill="#08AF24"/>
<path d="M74.8253 78.9198C74.3827 79.5047 74.9557 81.4935 75.9089 81.4877C76.862 81.4818 76.0393 79.7329 76.2266 78.8672C76.4138 78.0015 75.5798 77.8903 74.8253 78.9198Z" fill="#08AF24"/>
<path d="M74.9558 80.3999C73.8949 78.7094 73.8211 87.6179 76.3911 91.1275C76.2209 87.6706 78.0194 82.7688 74.9558 80.3999Z" fill="#08AF24"/>
<path d="M74.8593 80.3237C74.3884 78.604 72.0227 86.1379 73.3332 89.8171C74.0764 86.8398 76.8507 83.1664 74.8593 80.3237Z" fill="#08AF24"/>
<path d="M82.7679 57.0262C83.0151 56.9152 83.2524 56.7821 83.4771 56.6284C83.4898 56.6154 83.4999 56.5999 83.5067 56.5828C83.5136 56.5658 83.5171 56.5475 83.5171 56.529C83.5171 56.5105 83.5136 56.4922 83.5067 56.4752C83.4999 56.4581 83.4898 56.4426 83.4771 56.4296C83.4535 56.3984 83.4194 56.3775 83.3816 56.371C83.3438 56.3645 83.305 56.3729 83.2729 56.3945C82.7669 56.7443 82.1914 56.9726 81.5885 57.0627C80.9857 57.1528 80.3709 57.1023 79.7894 56.9151C79.7723 56.9073 79.7539 56.9031 79.7352 56.9028C79.7165 56.9024 79.6979 56.9058 79.6805 56.9129C79.6631 56.92 79.6472 56.9305 79.6338 56.9439C79.6203 56.9574 79.6096 56.9734 79.6022 56.9911C79.5894 57.0275 79.5912 57.0677 79.6072 57.1028C79.6231 57.1379 79.652 57.1651 79.6873 57.1783C80.6973 57.5209 81.7944 57.4667 82.7679 57.0262Z" fill="#263238"/>
<path d="M66.304 61.1499H37.319V62.1209H66.304V61.1499Z" fill="#08AF24"/>
<path d="M65.6118 62.1206H38.0111L39.2252 62.7991H64.3977L65.6118 62.1206Z" fill="#08AF24"/>
<path opacity="0.2" d="M65.6118 62.1206H38.0111L39.2252 62.7991H64.3977L65.6118 62.1206Z" fill="black"/>
<path d="M46.6062 35.1377C46.4366 35.1362 46.2744 35.0661 46.1545 34.9424C46.0346 34.8188 45.9666 34.6516 45.9651 34.4767V32.2599C45.9666 32.085 46.0346 31.9178 46.1545 31.7942C46.2744 31.6705 46.4366 31.6004 46.6062 31.5989C46.7758 31.6004 46.938 31.6705 47.0579 31.7942C47.1778 31.9178 47.2458 32.085 47.2473 32.2599V34.4767C47.2458 34.6516 47.1778 34.8188 47.0579 34.9424C46.938 35.0661 46.7758 35.1362 46.6062 35.1377Z" fill="#263238"/>
<path d="M47.6388 32.1256V31.8331C47.6388 31.5488 47.4152 31.3184 47.1395 31.3184H46.0729C45.7972 31.3184 45.5737 31.5488 45.5737 31.8331V32.1256C45.5737 32.4098 45.7972 32.6403 46.0729 32.6403H47.1395C47.4152 32.6403 47.6388 32.4098 47.6388 32.1256Z" fill="#263238"/>
<path d="M47.6331 39.952V33.6289C47.6331 33.5601 47.607 33.4941 47.5603 33.4449C47.5137 33.3957 47.4502 33.3673 47.3835 33.3657H45.829C45.7622 33.3673 45.6988 33.3957 45.6521 33.4449C45.6054 33.4941 45.5793 33.5601 45.5793 33.6289V39.952C45.5795 40.4272 45.482 40.8971 45.2933 41.3306C45.1046 41.7642 44.8289 42.1515 44.4844 42.4672C44.1411 42.7852 43.8664 43.1739 43.6778 43.6081C43.4892 44.0423 43.3909 44.5125 43.3894 44.9883V61.2084H49.8173V44.9883C49.8169 44.5123 49.7191 44.0418 49.5305 43.6074C49.3418 43.1731 49.0664 42.7845 48.7224 42.4672C48.3795 42.1505 48.1052 41.7628 47.9175 41.3294C47.7298 40.896 47.6329 40.4267 47.6331 39.952Z" fill="#08AF24"/>
<path d="M49.8173 46.9065H45.5736V57.3943H49.8173V46.9065Z" fill="#E0E0E0"/>
<path d="M55.8423 61.1499H55.0764C55.3315 61.1676 55.5873 61.1676 55.8423 61.1499Z" fill="#08AF24"/>
<path d="M60.4661 61.1499H59.6946C59.9515 61.1676 60.2092 61.1676 60.4661 61.1499Z" fill="#08AF24"/>
<path opacity="0.2" d="M54.8155 48.7788V51.4402C54.8155 53.5577 55.9842 55.3183 57.4649 55.5348V60.2142C57.4649 60.9337 56.7841 61.1384 56.2565 61.1852H59.2804C58.7528 61.1384 58.072 60.9337 58.072 60.2142V55.5348C59.5527 55.3242 60.7214 53.5635 60.7214 51.4402V48.7788H54.8155Z" fill="#08AF24"/>
<path d="M89.9674 46.2751C87.698 47.2695 80.0958 47.5737 77.1173 46.9068C80.1979 42.4204 87.1193 41.1043 89.9674 46.2751Z" fill="#263238"/>
<path d="M97.1214 62.302C97.0995 62.3016 97.0779 62.2961 97.0583 62.286C97.0387 62.2758 97.0215 62.2613 97.008 62.2435C96.9342 62.1382 95.2606 59.5996 95.2265 52.8027C95.2265 49.9658 94.3812 47.6846 92.9572 46.5323C92.5872 46.2171 92.1507 45.9957 91.6826 45.886C91.2146 45.7763 90.7282 45.7813 90.2624 45.9005C90.2441 45.9048 90.2252 45.9052 90.2068 45.9019C90.1884 45.8986 90.1707 45.8916 90.1549 45.8813C90.1391 45.871 90.1255 45.8576 90.1147 45.8418C90.1039 45.826 90.0963 45.8082 90.0922 45.7894C90.0881 45.7706 90.0876 45.7511 90.0908 45.7321C90.094 45.7131 90.1008 45.6949 90.1108 45.6786C90.1208 45.6623 90.1338 45.6482 90.1491 45.6371C90.1644 45.626 90.1817 45.6181 90.2 45.6139C90.7062 45.4897 91.2333 45.4868 91.7408 45.6054C92.2483 45.7241 92.7226 45.9611 93.1274 46.2983C94.6308 47.5091 95.4989 49.8781 95.5159 52.7969C95.5499 59.4885 97.2179 62.0505 97.2179 62.0739C97.2288 62.0896 97.2365 62.1074 97.2407 62.1262C97.2449 62.145 97.2454 62.1645 97.2422 62.1835C97.2391 62.2026 97.2323 62.2208 97.2223 62.2371C97.2122 62.2534 97.1992 62.2675 97.1838 62.2786C97.1649 62.2908 97.1436 62.2988 97.1214 62.302Z" fill="#263238"/>
<path d="M137.947 27.8669C139.53 30.1014 139.524 33.5817 138.985 35.471C136.148 34.1432 136.591 30.3295 136.591 30.3295L137.947 27.8669Z" fill="#263238"/>
<path d="M146.428 55.5225L148.062 57.3768L149.764 59.2602C150.899 60.5061 152.033 61.7228 153.202 62.8927C153.769 63.4776 154.337 64.0625 154.944 64.5773C155.551 65.092 156.079 65.6418 156.674 66.1156C157.27 66.5894 157.809 67.0106 158.337 67.3732C158.734 67.6479 159.151 67.8904 159.585 68.0985L158.717 67.9581C158.459 67.9261 158.199 67.986 157.979 68.1278C157.979 68.1278 158.115 68.1278 158.308 68.0108C158.835 67.6781 159.324 67.2857 159.766 66.8409C160.928 65.7029 162.014 64.4854 163.017 63.1968C164.101 61.8573 165.156 60.4301 166.205 58.9853C167.255 57.5405 168.305 56.0607 169.337 54.6042L169.388 54.5399C169.75 54.0479 170.267 53.7023 170.851 53.5632C171.434 53.4241 172.046 53.5003 172.581 53.7786C173.115 54.0569 173.538 54.5197 173.776 55.0863C174.013 55.6529 174.051 56.2875 173.881 56.8796C173.307 58.7282 172.642 60.5457 171.89 62.3253C171.147 64.0801 170.324 65.8349 169.394 67.5896C168.428 69.4147 167.312 71.1506 166.058 72.778C165.31 73.74 164.465 74.6184 163.539 75.3985C162.925 75.9103 162.252 76.3425 161.536 76.6853C160.484 77.1908 159.332 77.4352 158.172 77.3989C157.958 77.3906 157.745 77.3613 157.537 77.3112L157.298 77.2585C156.055 76.9515 154.853 76.4899 153.718 75.884C152.768 75.3847 151.849 74.824 150.967 74.2052C149.349 73.0827 147.806 71.8496 146.349 70.5143C144.919 69.2333 143.592 67.8938 142.304 66.5309C141.668 65.8407 141.033 65.1505 140.426 64.4369C139.819 63.7233 139.234 63.0272 138.593 62.2141C137.878 61.1428 137.572 59.8362 137.736 58.5464C137.899 57.2566 138.52 56.0748 139.479 55.229C140.437 54.3832 141.665 53.9332 142.927 53.9658C144.188 53.9984 145.393 54.5113 146.309 55.4055L146.428 55.5225Z" fill="#E0E0E0"/>
<path d="M171.879 57.7628L176.934 58.0143L175.294 50.9951C175.294 50.9951 170.591 51.3519 169.836 53.8437C169.757 54.1216 169.773 54.4189 169.882 54.686L170.812 56.9848C170.9 57.2054 171.047 57.3957 171.236 57.5334C171.425 57.6712 171.648 57.7507 171.879 57.7628Z" fill="#FF8B7B"/>
<path d="M181.444 53.8497L180.468 51.51C180.278 51.0565 179.939 50.6868 179.51 50.4663C179.081 50.2458 178.591 50.1887 178.125 50.305L175.288 51.0245L176.928 58.0437L180.332 56.6281C180.585 56.5251 180.815 56.3705 181.009 56.1737C181.203 55.9768 181.357 55.7417 181.46 55.4824C181.564 55.2231 181.616 54.9449 181.613 54.6643C181.611 54.3838 181.553 54.1068 181.444 53.8497Z" fill="#FF8B7B"/>
<path d="M134.475 154.967C129.108 130.628 125.789 101.282 125.789 101.282L147.796 100.919C147.796 100.919 147.489 140.466 147.535 157.032C147.591 174.258 148.749 212.167 148.749 212.167H142.071C142.071 212.167 133.453 176.258 134.475 154.967Z" fill="#263238"/>
<path d="M132.761 121.386L129.278 126.709C130.316 133.353 131.547 140.671 132.983 147.842C133.584 136.822 133.482 124.018 132.761 121.386Z" fill="black"/>
<path d="M157.656 215.542C157.656 215.542 148.459 213.307 147.767 211.804H142.661L142.695 217.379H145.85L146.332 216.864L147.132 217.379C149.685 217.379 156.47 217.273 158.076 216.683C158.107 216.471 158.086 216.255 158.012 216.055C157.938 215.855 157.816 215.678 157.656 215.542Z" fill="#263238"/>
<path d="M114.005 154.282C116.553 129.803 116.473 113.448 119.576 101.387L139.615 101.077C139.615 101.077 131.269 139.905 127.394 156.06C123.519 172.216 116.887 212.155 116.887 212.155H110.703C110.703 212.155 108.757 173.211 114.005 154.282Z" fill="#263238"/>
<path d="M117.988 106.154C117.545 109.079 115.968 126.381 114.334 132.681C127.695 138.793 148.119 136.389 148.749 132.423C148.561 125.077 148.181 106.154 148.181 106.154H117.988Z" fill="#E0E0E0"/>
<path opacity="0.1" d="M118.731 109.365C119.664 110.924 120.791 112.35 122.084 113.606C122.084 113.606 119.202 113.074 118.731 109.365Z" fill="black"/>
<path opacity="0.1" d="M145.589 113.442C146.355 112.264 146.976 110.993 147.438 109.658C147.438 109.658 147.569 112.647 145.589 113.442Z" fill="black"/>
<path opacity="0.1" d="M118.856 111.571C119.164 112.742 119.62 113.867 120.212 114.917C119.672 114.578 119.25 114.072 119.006 113.471C118.763 112.87 118.71 112.205 118.856 111.571Z" fill="black"/>
<path d="M122.651 215.542C122.651 215.542 116.916 213.307 116.258 211.804H111.152L111.049 217.379H115.231L115.724 216.864L116.513 217.379C119.066 217.379 121.42 217.273 123.043 216.683C123.082 216.474 123.066 216.258 122.997 216.058C122.928 215.857 122.809 215.679 122.651 215.542Z" fill="#263238"/>
<path d="M118.839 52.5509C125.919 51.6443 136.029 51.732 142.809 52.937C144.503 53.2537 146.057 54.1114 147.252 55.3888C148.448 56.6663 149.223 58.2989 149.469 60.0556C150.893 70.6136 149.668 89.0623 148.76 107.634C133.272 113.097 116.933 107.558 116.933 107.558C116.365 103.814 117.636 91.5366 118.487 84.9853C117.211 78.2177 114.516 70.4674 112.712 61.477C112.493 60.4713 112.481 59.4294 112.677 58.4186C112.873 57.4079 113.273 56.451 113.851 55.6096C114.428 54.7682 115.171 54.0613 116.03 53.5344C116.889 53.0075 117.846 52.6725 118.839 52.5509Z" fill="#263238"/>
<path opacity="0.1" d="M118.839 52.5509C125.919 51.6443 136.029 51.732 142.809 52.937C144.503 53.2537 146.057 54.1114 147.252 55.3888C148.448 56.6663 149.223 58.2989 149.469 60.0556C150.893 70.6136 149.668 89.0623 148.76 107.634C133.272 113.097 116.933 107.558 116.933 107.558C116.365 103.814 117.636 91.5366 118.487 84.9853C117.211 78.2177 114.516 70.4674 112.712 61.477C112.493 60.4713 112.481 59.4294 112.677 58.4186C112.873 57.4079 113.273 56.451 113.851 55.6096C114.428 54.7682 115.171 54.0613 116.03 53.5344C116.889 53.0075 117.846 52.6725 118.839 52.5509Z" fill="white"/>
<path d="M125.845 38.6121L133.902 45.4265C132.858 48.2868 132.529 51.2758 137.079 52.4047C138.213 53.9548 136.511 56.6747 134.492 57.7334C129.715 56.6104 126.963 55.2884 125.108 52.6621C125.692 50.6031 126.623 42.8411 125.845 38.6121Z" fill="#FF8B7B"/>
<path opacity="0.2" d="M129.204 41.4551L133.902 45.4209C133.647 46.0822 133.457 46.768 133.334 47.4682C131.513 47.6027 128.983 45.7134 128.869 43.9937C128.828 43.1334 128.941 42.2727 129.204 41.4551Z" fill="black"/>
<path d="M124.688 33.9676C125.426 39.1794 125.596 42.2678 128.381 44.7128C132.574 48.392 138.656 45.3972 139.45 40.0334C140.159 35.2194 138.837 27.5041 133.692 25.8897C132.55 25.5317 131.339 25.4786 130.172 25.7355C129.005 25.9924 127.921 26.5509 127.021 27.3585C126.12 28.1661 125.434 29.1963 125.026 30.3523C124.618 31.5084 124.502 32.7525 124.688 33.9676Z" fill="#FF8B7B"/>
<path d="M124.643 36.3719C125.162 36.9523 125.833 37.3654 126.575 37.5615C127.317 37.7577 128.098 37.7285 128.824 37.4774C127.61 36.2081 128.79 31.5638 127.576 29.6745C129.925 30.1541 139.07 31.5229 139.944 28.2531C140.891 24.7435 137.107 21.9417 134.985 21.6785C135.609 23.1408 135.552 24.1995 133.226 23.7257C130.9 23.2519 121.312 20.9707 122.373 25.6034C119.287 25.6034 119.077 30.236 121.335 32.4529C122.572 33.6319 123.681 34.946 124.643 36.3719Z" fill="#263238"/>
<path d="M122.941 25.3811C121.091 24.9073 121.67 23.1525 122.084 22.9712C120.354 23.404 119.724 25.1588 121.812 25.966C123.899 26.7732 122.941 25.3811 122.941 25.3811Z" fill="#263238"/>
<path d="M123.264 37.1676C123.436 37.7387 123.716 38.2689 124.088 38.7277C124.46 39.1866 124.917 39.5648 125.431 39.8408C126.821 40.5719 127.831 39.367 127.701 37.8579C127.593 36.495 126.747 34.477 125.227 34.3483C124.893 34.3311 124.559 34.4006 124.258 34.5505C123.956 34.7004 123.696 34.9259 123.5 35.2064C123.305 35.4869 123.181 35.8134 123.14 36.156C123.099 36.4986 123.141 36.8464 123.264 37.1676Z" fill="#FF8B7B"/>
<path d="M131.785 34.1553C131.819 34.5823 132.069 34.9098 132.353 34.8864C132.636 34.863 132.818 34.4887 132.784 34.0675C132.75 33.6464 132.5 33.313 132.217 33.3364C131.933 33.3598 131.751 33.7283 131.785 34.1553Z" fill="#263238"/>
<path d="M136.733 34.0323C136.767 34.4593 137.016 34.7868 137.3 34.7576C137.583 34.7283 137.759 34.3657 137.725 33.9387C137.691 33.5117 137.442 33.19 137.158 33.2134C136.874 33.2368 136.698 33.6053 136.733 34.0323Z" fill="#263238"/>
<path d="M135.728 34.6055C136.325 35.8627 137.089 37.0282 137.998 38.0683C137.323 38.8404 136.052 38.6532 136.052 38.6532L135.728 34.6055Z" fill="#FF5652"/>
<path d="M131.019 32.7981C130.98 32.8093 130.939 32.8093 130.9 32.7981C130.87 32.7865 130.842 32.7687 130.819 32.7457C130.795 32.7227 130.777 32.6951 130.764 32.6644C130.751 32.6338 130.745 32.6008 130.745 32.5675C130.745 32.5341 130.751 32.5011 130.764 32.4705C130.9 32.095 131.121 31.7581 131.408 31.4876C131.695 31.2171 132.04 31.0207 132.415 30.9146C132.479 30.9014 132.545 30.915 132.6 30.9522C132.654 30.9895 132.692 31.0475 132.704 31.1135C132.717 31.1794 132.704 31.2479 132.668 31.3038C132.632 31.3598 132.575 31.3986 132.512 31.4118C132.215 31.4984 131.942 31.6566 131.716 31.8732C131.49 32.0898 131.318 32.3587 131.212 32.6577C131.194 32.696 131.167 32.729 131.133 32.7535C131.1 32.7781 131.061 32.7934 131.019 32.7981Z" fill="#263238"/>
<path d="M139.603 32.1196C139.562 32.1198 139.522 32.1092 139.486 32.0887C139.45 32.0682 139.42 32.0386 139.399 32.0026C139.248 31.7292 139.036 31.4969 138.78 31.3249C138.525 31.153 138.233 31.0464 137.93 31.0141C137.898 31.0133 137.866 31.0061 137.837 30.9927C137.807 30.9794 137.781 30.9602 137.759 30.9363C137.737 30.9124 137.719 30.8843 137.708 30.8534C137.696 30.8226 137.691 30.7898 137.691 30.7567C137.694 30.6895 137.723 30.6261 137.77 30.5802C137.818 30.5343 137.881 30.5095 137.947 30.5111C138.331 30.5472 138.701 30.6775 139.027 30.8912C139.353 31.1049 139.624 31.3957 139.819 31.7394C139.851 31.7965 139.861 31.8641 139.846 31.9283C139.831 31.9926 139.793 32.0485 139.739 32.0845C139.699 32.1124 139.651 32.1249 139.603 32.1196Z" fill="#263238"/>
<path d="M125.108 52.6622C125.108 52.6622 133.374 65.6125 136.517 74.7491C139.615 64.0274 139.972 55.4464 137.084 52.4048C136.154 53.6156 132.409 55.2534 125.108 52.6622Z" fill="#E0E0E0"/>
<path d="M122.288 62.2317L121.488 64.5714L120.694 67.0048C120.166 68.625 119.684 70.2511 119.236 71.848C119.009 72.6493 118.811 73.4448 118.629 74.2286C118.447 75.0124 118.272 75.7904 118.147 76.5333C118.022 77.2761 117.925 77.9956 117.863 78.639C117.831 79.1317 117.831 79.6262 117.863 80.1189L117.568 79.2649C117.33 78.8028 117.086 78.68 117.074 78.68C117.063 78.68 117.154 78.7969 117.33 78.9256C117.858 79.2468 118.419 79.5058 119.003 79.6977C120.512 80.2204 122.053 80.6386 123.616 80.9495C125.278 81.2887 126.991 81.5344 128.722 81.8269C130.452 82.1194 132.234 82.3241 133.947 82.5756H134.026C134.625 82.6639 135.173 82.9677 135.575 83.4332C135.977 83.8987 136.206 84.4958 136.222 85.1188C136.237 85.7417 136.039 86.3503 135.661 86.8366C135.283 87.3229 134.75 87.6556 134.157 87.7756C132.308 88.1374 130.443 88.4029 128.569 88.5711C126.696 88.7466 124.807 88.8344 122.895 88.8227C120.879 88.8189 118.867 88.6369 116.882 88.2787C115.716 88.0543 114.575 87.7074 113.478 87.2433C112.746 86.9326 112.056 86.5277 111.424 86.0384C110.492 85.3283 109.734 84.4027 109.211 83.336C109.115 83.1374 109.037 82.9298 108.979 82.716L108.916 82.4762C108.585 81.2028 108.404 79.8928 108.377 78.5747C108.35 77.4755 108.39 76.3756 108.496 75.2815C108.678 73.2829 108.991 71.2994 109.433 69.3445C109.835 67.4376 110.346 65.5951 110.896 63.7759C111.18 62.8693 111.464 61.9685 111.781 61.0736C112.099 60.1786 112.417 59.3188 112.808 58.3536C113.32 57.0928 114.288 56.0867 115.506 55.5482C116.725 55.0096 118.099 54.9808 119.337 55.4678C120.576 55.9548 121.582 56.9195 122.144 58.1577C122.705 59.396 122.777 60.8109 122.345 62.103L122.288 62.2317Z" fill="#E0E0E0"/>
<path d="M134.753 83.3303L139.768 83.9737L136.999 90.5892C136.999 90.5892 132.421 89.4194 132.092 86.8223C132.059 86.5351 132.125 86.2453 132.279 86.0034L133.572 83.9035C133.697 83.7031 133.874 83.543 134.082 83.4415C134.291 83.3401 134.523 83.3016 134.753 83.3303Z" fill="#FF8B7B"/>
<path d="M143.529 88.8695L142.179 91.022C141.917 91.4358 141.521 91.7404 141.062 91.8817C140.603 92.0231 140.11 91.9921 139.671 91.7941L136.999 90.5892L139.768 83.9736L142.894 85.9682C143.122 86.1138 143.32 86.3049 143.476 86.5303C143.633 86.7558 143.743 87.0111 143.803 87.2813C143.862 87.5514 143.868 87.8311 143.821 88.1038C143.774 88.3765 143.675 88.6368 143.529 88.8695Z" fill="#FF8B7B"/>
<path d="M125.511 50.6499C124.457 50.8225 123.491 51.3586 122.771 52.1707C125.017 55.2616 128.219 57.4696 131.848 58.4295C131.587 57.5345 132.37 54.9199 133.232 53.984C130.061 53.4985 125.511 50.6499 125.511 50.6499Z" fill="#FAFAFA"/>
<path d="M134.225 50.9717C135.301 51.1733 136.323 51.6057 137.226 52.241C137.226 52.241 140.403 55.8968 136.659 57.9616C136.914 57.0667 134.957 54.6801 133.204 53.9841C136.369 53.4986 134.225 50.9717 134.225 50.9717Z" fill="#FAFAFA"/>
<path d="M133.555 56.0665C131.048 54.6802 127.945 53.177 128.807 55.6044C129.669 58.0319 128.529 58.8742 129.652 59.6989C130.776 60.5237 133.056 58.26 133.811 57.9442C134.565 57.6283 133.555 56.0665 133.555 56.0665Z" fill="#08AF24"/>
<path d="M135.331 56.0489C137.243 54.7211 139.637 53.2822 139.212 55.6512C138.786 58.0201 139.842 58.8449 139.008 59.6462C138.174 60.4476 136.029 58.2073 135.348 57.8914C134.667 57.5756 135.331 56.0489 135.331 56.0489Z" fill="#08AF24"/>
<path d="M133.215 55.8795C133.782 55.5285 135.167 55.084 135.853 56.0374C136.54 56.9909 136.318 58.5877 135.371 58.7807C135.032 58.8513 134.682 58.826 134.356 58.7075C134.031 58.5891 133.742 58.3819 133.521 58.1081C133.732 57.7585 133.816 57.3438 133.76 56.9365C133.704 56.5291 133.511 56.155 133.215 55.8795Z" fill="#08AF24"/>
<path d="M117.233 212.343L110.352 212.541L109.988 208.523L117.982 209.014L117.233 212.343Z" fill="black"/>
<path d="M148.993 212.331L141.56 212.541L140.738 209.061L149.038 208.23L148.993 212.331Z" fill="black"/>
<path d="M132.795 81.9672C129.32 80.9079 125.737 80.2699 122.118 80.0662C121.346 80.113 121.051 98.0879 121.114 105.44C121.114 106.435 132.211 106.236 135.048 105.786C135.206 103.732 135.24 88.7465 135.978 84.0612C136.034 83.6947 135.97 83.3193 135.795 82.9949C135.62 82.6705 135.345 82.4157 135.014 82.2713C134.311 81.9792 133.548 81.8746 132.795 81.9672Z" fill="white"/>
<path d="M190.884 53.1946H159.386V54.1188H190.884V53.1946Z" fill="#08AF24"/>
<path d="M190.226 54.1187H160.044L161.202 54.7679H189.075L190.226 54.1187Z" fill="#08AF24"/>
<path opacity="0.2" d="M190.226 54.1187H160.044L161.202 54.7679H189.075L190.226 54.1187Z" fill="black"/>
<path d="M176.434 40.1388C176.436 40.404 176.36 40.6636 176.218 40.8846C176.076 41.1056 175.874 41.2782 175.636 41.3805C175.399 41.4828 175.138 41.5102 174.885 41.4591C174.633 41.4081 174.401 41.281 174.219 41.0939C174.036 40.9068 173.912 40.6682 173.861 40.4082C173.811 40.1482 173.836 39.8785 173.934 39.6334C174.033 39.3883 174.199 39.1788 174.413 39.0313C174.627 38.8839 174.878 38.8052 175.135 38.8052C175.306 38.8044 175.474 38.8383 175.632 38.905C175.79 38.9717 175.933 39.0698 176.054 39.1937C176.174 39.3176 176.27 39.4649 176.335 39.6271C176.401 39.7893 176.434 39.9632 176.434 40.1388Z" fill="#08AF24"/>
<path d="M188.751 48.9072C187.876 46.1142 186.213 43.6539 183.974 41.8412L184.326 41.3792C186.656 43.2652 188.386 45.8254 189.296 48.7317L188.751 48.9072Z" fill="#08AF24"/>
<path d="M182.006 40.4957C181.37 40.1338 180.708 39.8228 180.026 39.5657L180.218 39.0159C180.928 39.2911 181.617 39.6216 182.278 40.0044L182.006 40.4957Z" fill="#08AF24"/>
<path d="M175.135 40.1392C171.718 40.1392 168.441 41.5387 166.025 44.0299C163.609 46.5211 162.251 49.8999 162.251 53.4229H188.019C188.019 49.8999 186.662 46.5211 184.246 44.0299C181.829 41.5387 178.552 40.1392 175.135 40.1392Z" fill="#08AF24"/>
<path opacity="0.3" d="M164.027 52.235H167.357C167.472 52.2329 167.583 52.1899 167.671 52.1131C167.759 52.0364 167.818 51.9306 167.839 51.8139C168.509 48.1756 170.614 45.0053 173.961 42.2502C174.037 42.1873 174.091 42.1006 174.115 42.0033C174.138 41.9059 174.131 41.8032 174.093 41.7106C174.055 41.6181 173.989 41.5408 173.905 41.4904C173.821 41.44 173.723 41.4193 173.626 41.4313C171.095 41.7758 168.741 42.9604 166.92 44.806C165.099 46.6516 163.91 49.0581 163.533 51.6618C163.524 51.7338 163.53 51.807 163.551 51.8763C163.572 51.9457 163.607 52.0097 163.654 52.064C163.701 52.1183 163.758 52.1616 163.822 52.1911C163.887 52.2206 163.956 52.2356 164.027 52.235Z" fill="white"/>
<path d="M134.146 40.174C134.411 40.1859 134.677 40.1722 134.94 40.1331C134.975 40.126 135.006 40.1048 135.026 40.0741C135.047 40.0434 135.054 40.0057 135.048 39.9693C135.038 39.9311 135.016 39.8977 134.985 39.8752C134.953 39.8526 134.915 39.8424 134.877 39.8464C134.285 39.9373 133.68 39.8887 133.108 39.7043C132.536 39.52 132.012 39.2046 131.575 38.7819C131.563 38.7679 131.547 38.7567 131.53 38.7491C131.513 38.7415 131.495 38.7375 131.476 38.7375C131.458 38.7375 131.439 38.7415 131.422 38.7491C131.405 38.7567 131.39 38.7679 131.377 38.7819C131.352 38.8099 131.339 38.8464 131.339 38.8842C131.339 38.9221 131.352 38.9586 131.377 38.9866C132.127 39.7189 133.113 40.1414 134.146 40.174Z" fill="#263238"/>
</svg>
